<!DOCTYPE svg PUBLIC "-//W3C//DTD SVG 20010904//EN" "http://www.w3.org/TR/2001/REC-SVG-20010904/DTD/svg10.dtd">
<svg version="1.0" xmlns="http://www.w3.org/2000/svg" width="1181px" height="1600px" viewBox="0 0 11810 16000" preserveAspectRatio="xMidYMid meet">
<g id="layer101" fill="#060606" stroke="none">
 <path d="M3361 15230 c-30 -4 -63 -13 -75 -18 -12 -5 -41 -18 -66 -27 -86 -34 -115 -46 -130 -55 -8 -5 -44 -26 -79 -46 -70 -40 -213 -176 -280 -266 -24 -32 -84 -95 -134 -140 -49 -46 -95 -88 -101 -93 -15 -15 -148 -117 -176 -135 -12 -8 -33 -23 -45 -32 -13 -10 -26 -18 -29 -18 -7 0 -67 -41 -76 -51 -3 -3 -10 -8 -17 -10 -26 -9 -121 -96 -158 -146 -22 -29 -43 -53 -47 -53 -5 0 -8 -5 -8 -12 0 -6 -10 -25 -23 -42 -21 -30 -70 -125 -99 -196 -33 -78 -78 -258 -78 -308 0 -38 -47 -200 -66 -229 -8 -12 -14 -27 -14 -33 0 -15 -81 -129 -121 -171 -46 -49 -130 -101 -209 -129 -132 -47 -204 -94 -265 -175 -80 -104 -112 -234 -121 -475 -5 -152 -14 -225 -45 -375 -37 -177 -66 -260 -130 -360 -37 -58 -47 -91 -58 -176 -6 -55 -5 -95 5 -145 23 -121 51 -221 73 -260 5 -11 36 -73 69 -139 32 -66 73 -146 90 -177 93 -170 131 -270 142 -378 8 -83 -1 -218 -20 -295 -12 -48 -19 -68 -52 -160 -26 -68 -39 -109 -48 -140 -18 -64 -62 -180 -71 -190 -5 -5 -9 -18 -9 -30 0 -12 -4 -25 -9 -30 -16 -16 -78 -215 -87 -280 -5 -33 -6 -84 -3 -113 9 -70 37 -99 146 -153 94 -45 128 -83 118 -133 -3 -15 -26 -60 -52 -98 -100 -147 -126 -211 -153 -383 -27 -168 -21 -355 21 -615 6 -41 15 -97 19 -125 11 -74 67 -287 97 -370 40 -106 46 -121 54 -135 5 -8 12 -22 15 -30 20 -51 50 -110 55 -110 4 0 9 -10 13 -23 7 -30 102 -155 146 -194 32 -28 115 -74 200 -111 19 -8 42 -19 50 -23 8 -5 24 -13 35 -18 11 -5 33 -23 49 -40 42 -44 40 -83 -8 -127 -20 -19 -39 -34 -41 -34 -20 0 -125 -144 -125 -171 0 -8 -4 -19 -9 -25 -10 -10 -41 -120 -48 -169 -2 -16 -11 -73 -19 -126 -37 -250 6 -832 92 -1244 8 -38 21 -104 30 -145 32 -158 72 -328 109 -460 7 -25 20 -74 30 -110 9 -36 23 -81 30 -100 28 -79 37 -106 45 -135 5 -16 13 -43 19 -60 21 -58 142 -420 151 -450 4 -16 14 -46 21 -65 6 -19 17 -51 24 -70 16 -46 94 -292 111 -350 21 -75 46 -162 59 -210 7 -25 20 -70 29 -100 18 -60 58 -224 82 -335 27 -123 43 -193 58 -258 34 -145 64 -353 76 -527 20 -277 38 -411 72 -530 18 -60 50 -130 60 -130 4 0 8 -5 8 -10 0 -22 99 -109 156 -138 90 -46 163 -78 224 -97 30 -10 71 -23 90 -30 19 -7 62 -20 95 -29 33 -9 94 -25 135 -37 74 -20 101 -27 190 -49 25 -6 65 -15 90 -22 25 -6 65 -14 90 -18 25 -5 74 -13 110 -19 216 -37 495 -71 583 -71 36 0 56 -4 52 -10 -4 -6 -70 -10 -166 -10 -87 0 -159 -4 -159 -8 0 -5 210 -12 468 -16 257 -4 562 -13 677 -21 280 -19 988 -37 1415 -36 729 2 1609 43 1943 91 37 6 103 10 146 10 43 0 103 5 132 11 30 5 86 14 124 18 96 11 188 37 251 72 82 44 99 54 104 60 6 6 168 65 390 140 80 27 159 54 175 60 17 6 59 17 95 26 36 8 77 21 92 29 14 8 38 14 52 14 14 0 26 4 26 9 0 5 10 13 23 17 12 4 24 10 27 14 3 3 44 26 92 50 49 24 88 47 88 51 0 3 18 14 40 24 22 10 40 22 40 27 0 4 5 8 10 8 12 0 73 41 78 53 2 4 9 7 15 7 7 0 26 14 44 30 18 17 37 30 42 30 6 0 11 4 11 8 0 5 24 25 53 45 28 20 75 57 102 82 28 25 62 53 78 61 15 8 27 19 27 24 0 6 6 10 14 10 8 0 16 4 18 8 2 4 20 18 41 31 20 12 37 27 37 32 0 5 5 9 11 9 17 0 197 141 278 217 31 30 33 36 29 83 -5 45 -2 55 24 88 17 20 46 62 66 92 20 30 39 57 42 60 4 3 10 12 13 20 4 8 16 29 26 45 40 63 160 316 173 365 5 19 13 59 18 88 14 87 -24 168 -127 269 -24 24 -48 43 -53 43 -6 0 -10 4 -10 8 0 11 -86 74 -150 109 -57 31 -152 68 -255 98 -33 10 -80 24 -104 31 -25 8 -63 14 -85 14 -23 1 -70 7 -106 15 -85 19 -236 19 -385 0 -269 -33 -399 -8 -442 85 -7 14 -16 54 -22 90 -8 61 -6 124 17 502 15 246 -17 519 -80 678 -5 14 -17 45 -25 69 -22 64 -101 215 -158 301 -45 68 -192 226 -270 291 -45 37 -193 131 -249 158 -212 103 -421 146 -746 156 -382 10 -541 40 -671 126 -58 38 -159 133 -159 149 0 4 -3 10 -7 12 -15 6 -71 94 -120 188 -28 52 -60 111 -72 130 -11 19 -24 42 -28 50 -13 30 -117 186 -142 213 -65 72 -144 141 -187 163 -123 64 -138 69 -279 94 -85 15 -156 20 -316 20 -314 0 -393 24 -346 107 13 22 83 107 130 155 15 16 27 31 27 33 0 2 12 17 28 33 29 32 84 93 120 135 12 15 22 32 22 37 0 6 4 10 8 10 19 0 67 118 83 204 11 60 1 165 -23 231 -12 33 -70 157 -78 165 -10 10 -50 69 -50 75 0 3 -8 14 -17 24 -33 37 -43 50 -43 61 0 5 -4 10 -10 10 -5 0 -10 7 -10 15 0 8 -4 15 -9 15 -5 0 -12 8 -15 18 -4 10 -25 38 -49 63 -23 24 -70 78 -104 119 -33 41 -76 91 -94 110 -19 19 -86 91 -149 160 -126 137 -184 199 -246 263 -22 23 -85 92 -139 152 -54 61 -110 122 -124 136 -66 68 -109 118 -140 162 -19 26 -38 47 -43 47 -4 0 -8 4 -8 9 0 6 -11 22 -25 37 -25 27 -35 43 -71 114 -10 19 -21 37 -25 40 -14 10 -32 95 -32 145 2 69 24 118 92 197 43 50 172 157 227 190 19 11 34 24 34 28 0 4 8 10 18 14 9 3 40 20 67 36 79 48 141 70 199 70 51 0 108 32 130 72 37 68 1 255 -72 378 -12 19 -30 54 -41 77 -19 41 -107 183 -120 193 -3 3 -10 12 -16 21 -44 73 -120 179 -127 179 -4 0 -8 7 -8 15 0 8 -3 15 -7 15 -5 0 -46 51 -93 113 -47 61 -92 119 -101 127 -9 8 -49 56 -91 105 -41 50 -87 104 -102 120 -16 17 -58 65 -94 108 -36 42 -69 77 -74 77 -4 0 -8 5 -8 11 0 5 -13 22 -28 37 -16 15 -55 59 -88 97 -75 88 -106 125 -119 139 -6 6 -28 34 -50 61 -22 28 -45 55 -51 60 -24 22 -184 246 -213 298 -62 112 -81 150 -81 166 0 9 -7 25 -15 35 -8 11 -15 29 -15 41 0 12 -4 25 -10 31 -21 21 -32 204 -20 339 14 176 40 299 92 445 24 65 103 230 116 240 13 9 52 69 52 79 0 5 3 11 8 13 4 2 25 27 46 56 21 28 42 52 47 52 5 0 9 6 9 13 0 12 292 307 303 307 4 0 21 15 39 33 18 18 51 46 73 62 22 17 46 35 53 42 7 7 33 27 57 44 25 18 45 36 45 41 0 4 7 8 15 8 8 0 15 4 15 8 0 5 24 26 54 46 30 21 66 48 80 61 13 12 53 45 88 71 35 27 65 52 66 56 2 4 8 8 13 8 5 0 17 8 27 18 10 9 40 35 67 57 26 22 57 48 69 58 11 11 47 40 78 65 32 26 58 50 58 55 0 4 4 7 9 7 13 0 243 229 259 258 15 27 4 53 -30 69 -46 21 -84 36 -113 43 -16 5 -43 13 -60 19 -36 12 -121 33 -230 56 -44 10 -105 24 -136 31 -31 8 -67 14 -80 14 -13 0 -55 6 -94 14 -38 9 -101 20 -140 25 -38 6 -122 18 -185 27 -63 9 -155 22 -204 30 -49 8 -106 14 -125 14 -20 0 -88 7 -151 15 -315 40 -863 65 -989 45z m-1494 -9957 c-2 -16 -4 -3 -4 27 0 30 2 43 4 28 2 -16 2 -40 0 -55z m10 -100 c-2 -16 -4 -5 -4 22 0 28 2 40 4 28 2 -13 2 -35 0 -50z m2856 -4470 c-13 -2 -33 -2 -45 0 -13 2 -3 4 22 4 25 0 35 -2 23 -4z m85 -10 c-10 -2 -28 -2 -40 0 -13 2 -5 4 17 4 22 1 32 -1 23 -4z m282 -23 c34 -6 25 -7 -35 -3 -44 3 -82 7 -84 9 -8 7 73 3 119 -6z m345 -30 c54 -6 56 -7 15 -7 -25 -1 -72 3 -105 7 -54 6 -56 7 -15 7 25 1 72 -3 105 -7z m323 -27 c-16 -2 -40 -2 -55 0 -16 2 -3 4 27 4 30 0 43 -2 28 -4z m375 -30 c-13 -2 -35 -2 -50 0 -16 2 -5 4 22 4 28 0 40 -2 28 -4z m400 -30 c-13 -2 -35 -2 -50 0 -16 2 -5 4 22 4 28 0 40 -2 28 -4z"/>
 </g>
<g id="layer102" fill="#686868" stroke="none">
 <path d="M3708 14845 c-2 -3 -52 -6 -110 -7 -139 -4 -151 -13 -145 -108 2 -36 20 -121 40 -190 19 -69 50 -188 67 -265 91 -396 155 -525 258 -525 51 0 233 105 287 166 6 6 44 39 85 74 41 34 104 91 140 125 36 34 99 90 140 123 41 34 113 93 160 132 47 39 126 104 175 144 50 40 98 82 108 94 18 20 18 20 -25 26 -24 4 -72 13 -108 21 -36 7 -103 21 -150 30 -47 9 -114 23 -150 30 -36 7 -103 21 -150 30 -115 23 -110 21 -240 57 -63 17 -146 34 -185 39 -81 9 -189 11 -197 4z"/>
 <path d="M2308 13936 c-62 -44 -123 -148 -155 -266 -38 -141 -43 -174 -49 -310 -5 -127 -30 -307 -50 -365 -25 -73 -74 -154 -121 -202 -52 -52 -154 -111 -219 -127 -95 -24 -240 -118 -284 -184 -55 -84 -63 -144 -41 -312 29 -221 24 -337 -21 -465 -11 -33 -32 -91 -45 -130 -23 -65 -25 -79 -19 -190 3 -66 11 -142 16 -170 33 -164 51 -246 64 -290 51 -172 85 -273 152 -450 39 -103 84 -321 84 -405 0 -81 -37 -226 -79 -315 -23 -47 -59 -124 -82 -172 -22 -49 -47 -100 -55 -115 -24 -45 -54 -148 -54 -189 0 -84 39 -114 170 -128 47 -6 112 -13 145 -17 149 -18 300 -160 405 -381 57 -120 56 -118 86 -208 36 -111 55 -182 64 -235 5 -25 15 -85 24 -135 21 -115 46 -410 46 -540 0 -126 -17 -335 -36 -442 -7 -45 -14 -92 -14 -105 -1 -52 -99 -400 -129 -455 -15 -27 -81 -173 -81 -178 0 -3 -14 -34 -31 -71 -16 -37 -33 -81 -36 -98 -3 -17 -11 -42 -18 -56 -11 -23 -22 -72 -55 -242 -13 -69 -29 -300 -31 -463 -1 -83 -4 -106 -8 -75 -8 53 -28 93 -44 87 -21 -7 -28 -61 -34 -242 -5 -169 11 -638 24 -670 27 -72 72 169 74 401 l2 119 14 -110 c28 -225 44 -342 58 -423 28 -157 46 -257 60 -322 24 -111 56 -264 61 -295 3 -16 11 -52 19 -80 8 -27 21 -79 30 -115 9 -36 22 -87 30 -115 7 -27 19 -70 26 -95 6 -25 15 -61 19 -80 17 -77 90 -350 113 -420 13 -41 32 -102 42 -135 9 -33 25 -85 35 -115 10 -30 28 -89 40 -130 72 -245 192 -613 219 -675 5 -11 21 -58 36 -105 14 -47 30 -94 35 -105 6 -11 21 -54 34 -95 59 -178 118 -337 142 -378 25 -42 120 -142 135 -142 4 0 20 -11 36 -24 49 -41 283 -153 428 -205 125 -44 186 -64 370 -117 70 -21 156 -41 255 -60 47 -9 114 -25 150 -35 l65 -19 -70 6 c-96 7 -302 32 -405 49 -47 8 -125 19 -175 25 -49 7 -110 16 -135 20 -25 5 -49 5 -53 1 -21 -21 507 -206 728 -255 166 -37 312 -60 670 -106 44 -5 127 -12 185 -15 58 -4 179 -13 270 -21 91 -8 362 -21 602 -28 371 -12 554 -12 1210 0 425 8 784 15 798 17 24 2 -75 11 -495 43 -110 8 -283 21 -385 29 -102 8 -233 17 -292 21 -173 10 -114 24 100 24 238 0 710 32 972 66 156 20 452 71 550 95 25 6 70 17 100 24 111 27 366 98 395 111 17 7 64 25 105 40 104 37 360 146 446 188 39 19 82 40 95 46 13 5 31 14 39 20 8 5 92 53 185 106 167 94 319 193 480 310 11 8 32 23 47 32 15 10 53 40 85 67 282 244 412 409 449 565 16 68 11 108 -18 166 -20 40 -24 42 -79 48 -110 13 -463 -25 -649 -69 -30 -8 -93 -21 -140 -30 -93 -18 -192 -39 -285 -60 -104 -24 -306 -45 -430 -45 -199 1 -324 45 -378 132 -40 66 -14 167 72 280 22 29 110 119 194 200 109 104 171 172 210 230 55 82 111 207 138 303 19 68 19 334 0 395 -51 167 -93 260 -159 353 -53 75 -171 203 -232 252 -81 65 -109 85 -118 85 -6 0 -12 3 -14 8 -5 13 -140 88 -208 117 -36 15 -69 31 -75 36 -5 5 -17 9 -27 9 -9 0 -32 6 -50 14 -69 29 -181 56 -358 86 -36 6 -187 15 -335 20 -250 8 -339 17 -469 49 -21 5 -43 14 -49 20 -6 6 -17 11 -25 11 -28 0 -142 95 -181 149 -37 54 -91 155 -125 233 -34 81 -44 105 -65 158 -34 84 -36 91 -67 155 -66 142 -159 245 -265 293 -105 49 -185 63 -404 72 -399 17 -515 35 -601 94 -83 56 -107 116 -106 266 1 99 5 128 32 210 29 90 81 206 107 240 6 8 28 35 47 60 67 85 77 113 77 209 0 69 -6 105 -31 182 -29 91 -115 273 -164 349 -67 103 -102 156 -106 160 -3 3 -20 28 -39 55 -19 28 -39 55 -45 60 -7 6 -34 39 -61 75 -27 36 -52 67 -56 70 -3 3 -45 50 -94 105 -48 55 -199 210 -334 345 -201 200 -259 264 -314 346 -37 56 -67 106 -67 112 0 5 -12 36 -26 68 -62 139 -69 314 -18 431 8 17 14 35 14 40 1 17 71 118 127 181 73 82 238 207 542 411 20 13 38 27 41 31 3 4 15 12 28 19 12 6 22 16 22 21 0 5 -24 38 -52 72 -86 102 -155 187 -342 420 -32 40 -64 78 -70 83 -6 6 -38 44 -70 85 -32 41 -64 80 -70 85 -7 6 -34 39 -61 75 -27 36 -55 70 -61 75 -12 10 -106 125 -179 220 -22 28 -53 67 -70 87 -38 43 -129 161 -195 253 -28 39 -56 77 -63 85 -7 8 -43 62 -81 120 -38 58 -77 117 -88 132 -10 15 -18 30 -18 32 0 3 -17 34 -39 69 -71 116 -140 277 -171 397 -15 60 -19 106 -18 220 2 127 -1 153 -21 209 -25 72 -89 208 -123 261 -44 69 -88 142 -88 146 0 4 -91 125 -100 134 -3 3 -28 34 -55 69 -45 60 -231 260 -284 305 -13 12 -36 32 -50 45 -30 27 -177 140 -206 159 -77 48 -154 76 -220 79 -62 4 -74 1 -107 -21z m-441 -8663 c-2 -16 -4 -3 -4 27 0 30 2 43 4 28 2 -16 2 -40 0 -55z m10 -100 c-2 -16 -4 -5 -4 22 0 28 2 40 4 28 2 -13 2 -35 0 -50z m2513 -4429 c0 -2 -14 -4 -31 -4 -16 0 -28 4 -25 9 5 8 56 3 56 -5z m343 -41 c-13 -2 -33 -2 -45 0 -13 2 -3 4 22 4 25 0 35 -2 23 -4z m85 -10 c-10 -2 -28 -2 -40 0 -13 2 -5 4 17 4 22 1 32 -1 23 -4z m282 -23 c34 -6 25 -7 -35 -3 -44 3 -82 7 -84 9 -8 7 73 3 119 -6z m345 -30 c54 -6 56 -7 15 -7 -25 -1 -72 3 -105 7 -54 6 -56 7 -15 7 25 1 72 -3 105 -7z m323 -27 c-16 -2 -40 -2 -55 0 -16 2 -3 4 27 4 30 0 43 -2 28 -4z m375 -30 c-13 -2 -35 -2 -50 0 -16 2 -5 4 22 4 28 0 40 -2 28 -4z m400 -30 c-13 -2 -35 -2 -50 0 -16 2 -5 4 22 4 28 0 40 -2 28 -4z"/>
 <path d="M11170 1503 c-21 -8 -133 -84 -145 -98 -5 -7 -32 -27 -60 -46 -27 -18 -57 -41 -65 -50 -8 -10 -53 -48 -100 -85 -47 -38 -92 -76 -100 -85 -8 -9 -53 -47 -100 -85 -47 -38 -86 -72 -88 -76 -2 -4 -54 -49 -115 -100 -62 -51 -114 -96 -115 -101 -2 -4 -50 -45 -105 -91 -105 -86 -167 -146 -153 -146 5 0 17 10 27 22 11 11 19 17 19 12 0 -5 4 -4 8 2 4 6 52 41 107 78 55 36 105 69 110 74 6 4 28 19 50 32 22 13 42 27 45 30 3 3 23 17 45 30 22 13 42 27 45 30 3 3 23 17 45 30 22 13 45 28 50 32 41 33 158 114 193 135 23 14 42 29 42 34 0 5 6 9 14 9 8 0 16 4 18 8 2 4 20 18 41 31 20 12 37 27 37 32 0 5 5 9 11 9 17 0 197 141 277 217 29 27 33 36 30 75 -3 38 -6 43 -28 45 -14 1 -32 -1 -40 -4z"/>
 <path d="M8885 309 c-236 -13 -947 -48 -2310 -114 -170 -8 -425 -19 -565 -25 -320 -13 -825 -36 -1215 -55 -165 -8 -423 -18 -573 -22 -149 -3 -272 -10 -272 -15 0 -4 107 -8 238 -9 130 0 608 -4 1062 -7 1702 -14 2604 -6 2935 24 88 8 171 14 185 13 55 -3 299 13 360 23 36 6 94 14 130 18 120 13 191 38 322 112 27 16 47 39 48 56 0 14 -98 14 -345 1z"/>
 </g>
<g id="layer103" fill="#2c82c9" stroke="none">
 <path d="M3708 14845 c-2 -3 -52 -6 -110 -7 -139 -4 -151 -13 -145 -108 2 -36 20 -121 40 -190 19 -69 50 -188 67 -265 91 -396 155 -525 258 -525 51 0 233 105 287 166 6 6 44 39 85 74 41 34 104 91 140 125 36 34 99 90 140 123 41 34 113 93 160 132 47 39 126 104 175 144 50 40 98 82 108 94 18 20 18 20 -25 26 -24 4 -72 13 -108 21 -36 7 -103 21 -150 30 -47 9 -114 23 -150 30 -36 7 -103 21 -150 30 -115 23 -110 21 -240 57 -63 17 -146 34 -185 39 -81 9 -189 11 -197 4z"/>
 <path d="M2308 13936 c-62 -44 -123 -148 -155 -266 -38 -141 -43 -174 -49 -310 -5 -127 -30 -307 -50 -365 -25 -73 -74 -154 -121 -202 -52 -52 -154 -111 -219 -127 -95 -24 -240 -118 -284 -184 -55 -84 -63 -144 -41 -312 29 -221 24 -337 -21 -465 -11 -33 -32 -91 -45 -130 -23 -65 -25 -79 -19 -190 3 -66 11 -142 16 -170 33 -164 51 -246 64 -290 51 -172 85 -273 152 -450 39 -103 84 -321 84 -405 0 -81 -37 -226 -79 -315 -23 -47 -59 -124 -82 -172 -22 -49 -47 -100 -55 -115 -24 -45 -54 -148 -54 -189 0 -84 39 -114 170 -128 47 -6 112 -13 145 -17 149 -18 300 -160 405 -381 57 -120 56 -118 86 -208 36 -111 55 -182 64 -235 5 -25 15 -85 24 -135 21 -115 46 -410 46 -540 0 -126 -17 -335 -36 -442 -7 -45 -14 -92 -14 -105 -1 -52 -99 -400 -129 -455 -15 -27 -81 -173 -81 -178 0 -3 -14 -34 -31 -71 -16 -37 -33 -81 -36 -98 -3 -17 -11 -42 -18 -56 -6 -14 -19 -63 -29 -110 -9 -47 -21 -105 -26 -130 -6 -25 -15 -135 -22 -245 -18 -310 12 -760 77 -1133 28 -157 46 -257 60 -322 24 -111 56 -264 61 -295 3 -16 11 -52 19 -80 8 -27 21 -79 30 -115 9 -36 22 -87 30 -115 7 -27 19 -70 26 -95 6 -25 15 -61 19 -80 17 -77 90 -350 113 -420 13 -41 32 -102 42 -135 9 -33 25 -85 35 -115 10 -30 28 -89 40 -130 72 -245 192 -613 219 -675 5 -11 21 -58 36 -105 14 -47 30 -94 35 -105 6 -11 21 -54 34 -95 59 -178 118 -337 142 -378 25 -42 120 -142 135 -142 4 0 20 -11 36 -24 49 -41 283 -153 428 -205 125 -44 189 -65 370 -117 62 -18 158 -41 250 -60 39 -7 102 -21 140 -29 117 -25 209 -43 225 -43 8 0 56 -5 105 -11 50 -6 164 -17 255 -26 91 -9 233 -22 315 -30 83 -8 242 -21 355 -30 113 -8 284 -22 380 -30 96 -8 261 -21 365 -30 484 -39 1325 -2 1805 80 154 27 304 55 350 66 25 6 70 17 100 24 111 27 366 98 395 111 17 7 64 25 105 40 104 37 360 146 446 188 39 19 82 40 95 46 13 5 31 14 39 20 8 5 92 53 185 106 167 94 319 193 480 310 11 8 32 23 47 32 15 10 53 40 85 67 282 244 412 409 449 565 16 68 11 108 -18 166 -20 40 -24 42 -79 48 -110 13 -463 -25 -649 -69 -30 -8 -93 -21 -140 -30 -93 -18 -192 -39 -285 -60 -104 -24 -306 -45 -430 -45 -199 1 -324 45 -378 132 -40 66 -14 167 72 280 22 29 110 119 194 200 109 104 171 172 210 230 55 82 111 207 138 303 19 68 19 334 0 395 -51 167 -93 260 -159 353 -53 75 -171 203 -232 252 -81 65 -109 85 -118 85 -6 0 -12 3 -14 8 -5 13 -140 88 -208 117 -36 15 -69 31 -75 36 -5 5 -17 9 -27 9 -9 0 -32 6 -50 14 -69 29 -181 56 -358 86 -36 6 -187 15 -335 20 -250 8 -339 17 -469 49 -21 5 -43 14 -49 20 -6 6 -17 11 -25 11 -28 0 -142 95 -181 149 -37 54 -91 155 -125 233 -34 81 -44 105 -65 158 -34 84 -36 91 -67 155 -66 142 -159 245 -265 293 -105 49 -185 63 -404 72 -399 17 -515 35 -601 94 -83 56 -107 116 -106 266 1 99 5 128 32 210 29 90 81 206 107 240 6 8 28 35 47 60 67 85 77 113 77 209 0 69 -6 105 -31 182 -29 91 -115 273 -164 349 -67 103 -102 156 -106 160 -3 3 -20 28 -39 55 -19 28 -39 55 -45 60 -7 6 -34 39 -61 75 -27 36 -52 67 -56 70 -3 3 -45 50 -94 105 -48 55 -199 210 -334 345 -201 200 -259 264 -314 346 -37 56 -67 106 -67 112 0 5 -12 36 -26 68 -62 139 -69 314 -18 431 8 17 14 35 14 40 1 17 71 118 127 181 73 82 238 207 542 411 20 13 38 27 41 31 3 4 15 12 28 19 12 6 22 16 22 21 0 5 -24 38 -52 72 -86 102 -155 187 -342 420 -32 40 -64 78 -70 83 -6 6 -38 44 -70 85 -32 41 -64 80 -70 85 -7 6 -34 39 -61 75 -27 36 -55 70 -61 75 -12 10 -106 125 -179 220 -22 28 -53 67 -70 87 -38 43 -129 161 -195 253 -28 39 -56 77 -63 85 -7 8 -43 62 -81 120 -38 58 -77 117 -88 132 -10 15 -18 30 -18 32 0 3 -17 34 -39 69 -71 116 -140 277 -171 397 -15 60 -19 106 -18 220 2 127 -1 153 -21 209 -25 72 -89 208 -123 261 -44 69 -88 142 -88 146 0 4 -91 125 -100 134 -3 3 -28 34 -55 69 -45 60 -231 260 -284 305 -13 12 -36 32 -50 45 -30 27 -177 140 -206 159 -77 48 -154 76 -220 79 -62 4 -74 1 -107 -21z"/>
 <path d="M11143 1485 c-23 -12 -50 -30 -59 -39 -8 -9 -37 -30 -62 -48 -26 -17 -49 -34 -52 -37 -3 -4 -36 -31 -75 -62 -38 -31 -83 -69 -100 -84 -16 -15 -52 -45 -80 -67 -27 -22 -79 -66 -115 -98 -36 -32 -94 -83 -130 -114 -368 -318 -398 -346 -383 -346 6 0 13 4 15 8 2 4 111 80 243 167 132 87 272 182 310 210 39 27 87 59 109 70 21 11 40 26 43 33 3 6 11 12 18 12 7 0 15 4 17 8 2 4 20 18 41 31 20 12 37 27 37 32 0 5 5 9 11 9 17 0 197 141 277 217 29 27 33 36 30 75 -3 38 -6 43 -28 45 -14 1 -44 -9 -67 -22z"/>
 <path d="M10035 560 c-10 -11 -15 -20 -11 -20 11 0 39 30 34 36 -3 2 -13 -5 -23 -16z"/>
 </g>
<g id="layer104" fill="#979797" stroke="none">
 <path d="M11143 1485 c-23 -12 -50 -30 -59 -39 -8 -9 -37 -30 -62 -48 -26 -17 -49 -34 -52 -37 -3 -4 -36 -31 -75 -62 -38 -31 -83 -69 -100 -84 -16 -15 -52 -45 -80 -67 -27 -22 -79 -66 -115 -98 -36 -32 -94 -83 -130 -114 -368 -318 -398 -346 -383 -346 6 0 13 4 15 8 2 4 111 80 243 167 132 87 272 182 310 210 39 27 87 59 109 70 21 11 40 26 43 33 3 6 11 12 18 12 7 0 15 4 17 8 2 4 20 18 41 31 20 12 37 27 37 32 0 5 5 9 11 9 17 0 197 141 277 217 29 27 33 36 30 75 -3 38 -6 43 -28 45 -14 1 -44 -9 -67 -22z"/>
 <path d="M10035 560 c-10 -11 -15 -20 -11 -20 11 0 39 30 34 36 -3 2 -13 -5 -23 -16z"/>
 </g>

</svg>