<!DOCTYPE svg PUBLIC "-//W3C//DTD SVG 20010904//EN" "http://www.w3.org/TR/2001/REC-SVG-20010904/DTD/svg10.dtd">
<svg version="1.0" xmlns="http://www.w3.org/2000/svg" width="1600px" height="1400px" viewBox="0 0 16000 14000" preserveAspectRatio="xMidYMid meet">
<g id="layer101" fill="#0a0a0a" stroke="none">
 <path d="M8135 13330 c-104 -16 -137 -29 -247 -97 -97 -60 -383 -206 -443 -227 -11 -4 -65 -27 -120 -51 -55 -24 -145 -60 -200 -81 -324 -119 -489 -198 -689 -327 -25 -16 -228 -155 -241 -164 -6 -5 -37 -28 -70 -53 -83 -62 -334 -263 -365 -292 -14 -13 -56 -50 -95 -82 -264 -221 -825 -774 -1140 -1122 -119 -132 -198 -218 -205 -224 -6 -5 -133 -152 -160 -184 -8 -10 -22 -26 -31 -35 -8 -9 -55 -63 -105 -121 -49 -58 -94 -110 -100 -116 -5 -6 -26 -30 -45 -54 -18 -23 -42 -52 -53 -63 -10 -12 -39 -48 -64 -79 -25 -32 -46 -58 -47 -58 -1 0 5 20 13 44 9 25 13 48 9 53 -12 11 -75 -27 -109 -66 -17 -20 -54 -61 -82 -91 -62 -66 -166 -194 -221 -270 -22 -30 -42 -57 -45 -60 -17 -15 -230 -313 -243 -340 -4 -8 -13 -24 -20 -35 -63 -103 -129 -230 -143 -275 -14 -46 -102 -181 -181 -280 -51 -64 -253 -348 -253 -355 0 -3 -5 -11 -10 -18 -44 -52 -421 -608 -562 -827 -19 -30 -59 -93 -90 -140 -78 -123 -151 -238 -163 -259 -6 -11 -24 -38 -40 -62 -40 -61 -58 -91 -175 -284 -56 -93 -111 -182 -121 -197 -19 -27 -31 -48 -89 -153 -18 -33 -36 -64 -40 -70 -21 -27 -162 -287 -225 -415 -70 -140 -159 -345 -185 -423 -8 -26 -17 -37 -28 -35 -13 2 -19 -9 -25 -52 -8 -54 -30 -181 -64 -370 -25 -137 -25 -819 1 -1025 43 -345 85 -502 192 -720 65 -131 81 -157 153 -254 31 -40 65 -86 76 -102 31 -45 290 -297 390 -381 50 -41 149 -119 220 -172 72 -54 141 -106 155 -116 59 -45 375 -258 555 -375 239 -155 291 -189 370 -241 44 -29 133 -86 198 -126 64 -40 264 -165 443 -278 179 -113 333 -210 343 -215 10 -6 36 -22 57 -36 22 -14 57 -37 79 -51 89 -55 127 -79 166 -105 23 -15 50 -32 60 -38 10 -5 116 -72 236 -147 l217 -138 1211 0 c1187 1 1640 8 1900 29 367 31 358 30 625 72 237 37 587 129 885 234 72 25 171 60 220 77 50 17 110 40 135 51 25 10 68 27 95 37 28 10 86 33 130 50 91 35 257 98 295 110 14 5 61 22 105 38 156 57 371 133 455 161 230 77 569 182 690 215 74 20 149 41 165 46 84 26 290 63 450 80 224 24 363 63 537 151 65 32 199 109 208 119 3 3 23 18 45 35 22 16 87 70 145 120 58 50 121 101 140 115 19 13 37 27 40 30 6 8 200 134 220 144 8 4 24 12 35 19 118 72 421 227 585 300 114 50 249 103 354 138 67 22 128 44 137 48 9 5 56 26 105 46 49 20 98 42 109 49 11 7 47 28 80 46 127 69 265 186 381 321 65 75 191 305 241 439 74 199 103 330 103 465 0 164 -37 306 -146 555 -39 88 -197 399 -229 449 -14 22 -25 43 -25 46 0 3 -25 47 -56 98 -220 361 -606 920 -840 1217 -82 103 -103 131 -128 165 -17 22 -33 42 -36 45 -3 3 -37 43 -75 90 -38 47 -72 87 -75 90 -3 3 -33 41 -65 85 -33 44 -63 82 -67 83 -5 2 -8 8 -8 13 0 5 -22 40 -50 79 -27 39 -50 72 -50 74 0 2 -21 40 -47 83 -95 160 -181 340 -213 448 -7 22 -18 58 -26 80 -7 22 -18 114 -24 205 -10 155 -26 291 -52 440 -69 405 -200 940 -348 1430 -21 69 -50 166 -65 215 -28 93 -198 607 -214 647 -5 13 -26 68 -46 123 -42 114 -41 111 -130 340 -37 94 -70 175 -74 180 -4 6 -20 42 -36 80 -32 78 -137 289 -187 377 -83 145 -178 248 -310 333 -40 26 -89 58 -108 71 -68 45 -284 156 -460 236 -72 33 -93 42 -205 88 -16 7 -43 18 -60 25 -70 29 -150 60 -275 106 -674 246 -1369 431 -1940 518 -170 26 -478 43 -555 31z m-6888 -9227 c-3 -10 -5 -2 -5 17 0 19 2 27 5 18 2 -10 2 -26 0 -35z"/>
 </g>
<g id="layer102" fill="#616161" stroke="none">
 <path d="M8365 12661 c-250 -46 -394 -103 -652 -259 -81 -49 -177 -106 -213 -126 -93 -53 -409 -207 -515 -251 -50 -20 -109 -45 -132 -56 -23 -10 -45 -19 -49 -19 -13 0 -239 -83 -274 -100 -19 -10 -75 -48 -125 -86 -316 -238 -842 -767 -1513 -1523 -203 -229 -227 -256 -472 -542 -124 -145 -240 -279 -259 -299 -38 -39 -39 -43 61 121 84 136 122 220 114 254 -4 14 -11 25 -17 25 -17 0 -122 -104 -252 -250 -67 -74 -150 -167 -186 -205 -194 -207 -422 -554 -422 -642 0 -35 12 -103 18 -103 2 0 13 5 25 11 11 6 -25 -45 -79 -113 -86 -107 -161 -202 -337 -424 -23 -29 -58 -74 -78 -100 -20 -27 -70 -92 -111 -144 -149 -193 -460 -610 -573 -769 -32 -46 -85 -120 -117 -165 -187 -262 -349 -512 -425 -656 -24 -47 -50 -94 -57 -105 -26 -44 -128 -273 -179 -402 -132 -337 -210 -620 -276 -998 -13 -78 -39 -299 -41 -350 -1 -27 -6 -11 -15 50 -44 292 -78 456 -109 516 -17 32 -27 36 -42 17 -40 -51 -67 -367 -59 -683 10 -401 56 -657 133 -737 32 -34 48 -35 67 -5 19 28 46 153 46 215 1 43 3 38 29 -58 53 -196 97 -266 285 -453 202 -200 414 -377 796 -664 305 -229 320 -240 420 -308 47 -32 105 -73 130 -90 25 -17 117 -81 205 -140 88 -60 201 -137 250 -172 144 -99 540 -345 660 -409 253 -135 415 -199 737 -288 202 -57 707 -131 1258 -185 58 -6 170 -17 250 -25 80 -8 208 -20 285 -26 77 -6 217 -17 310 -25 372 -31 553 -39 845 -39 374 1 539 20 810 96 200 55 556 194 898 349 35 16 65 29 67 29 2 0 32 13 67 29 363 167 1047 417 1433 524 261 73 306 82 466 97 207 20 343 62 594 185 198 97 293 156 503 315 333 250 502 356 811 509 170 84 332 150 481 195 476 144 677 241 831 404 41 42 88 104 106 137 164 311 58 727 -364 1423 -78 128 -307 473 -392 590 -25 35 -64 89 -87 120 -22 31 -93 127 -156 212 -63 85 -173 234 -244 330 -114 154 -260 373 -351 525 -40 68 -168 324 -199 399 -14 34 -43 111 -65 171 -22 61 -46 126 -54 145 -21 55 -131 436 -154 530 -11 47 -32 135 -46 195 -23 95 -113 526 -175 835 -19 92 -56 266 -86 400 -8 36 -19 87 -24 114 -6 27 -14 65 -20 85 -5 20 -32 130 -60 244 -179 730 -352 1186 -581 1522 -87 128 -252 303 -371 392 -51 39 -100 73 -108 77 -8 3 -37 20 -65 37 -137 83 -367 178 -590 243 -146 42 -556 144 -755 186 -80 17 -174 37 -210 45 -115 25 -308 60 -410 74 -41 6 -106 16 -145 22 -38 6 -189 13 -335 15 -224 3 -281 0 -365 -15z m-7118 -8558 c-3 -10 -5 -2 -5 17 0 19 2 27 5 18 2 -10 2 -26 0 -35z"/>
 <path d="M3673 9971 c-23 -16 -48 -39 -56 -51 -8 -12 -39 -47 -69 -78 -62 -66 -166 -193 -223 -272 -22 -30 -42 -57 -45 -60 -17 -15 -230 -313 -243 -340 -4 -8 -13 -24 -20 -35 -131 -216 -179 -335 -136 -335 26 0 246 247 431 486 85 108 288 405 288 420 0 4 7 15 15 23 8 9 39 65 70 124 76 147 72 179 -12 118z"/>
 <path d="M696 5342 c-8 -13 -24 -167 -28 -267 -11 -323 5 -931 26 -952 27 -27 49 117 67 438 12 223 3 512 -22 691 -10 71 -29 112 -43 90z"/>
 <path d="M5489 930 c-154 -7 -239 -21 -239 -39 0 -25 329 -61 555 -61 235 0 518 31 549 60 38 37 -435 58 -865 40z"/>
 <path d="M5094 530 c-208 -7 -308 -21 -287 -40 28 -26 464 -60 773 -60 304 0 690 33 690 60 0 38 -607 58 -1176 40z"/>
 </g>
<g id="layer103" fill="#2c82c9" stroke="none">
 <path d="M8365 12661 c-250 -46 -394 -103 -652 -259 -81 -49 -177 -106 -213 -126 -93 -53 -409 -207 -515 -251 -50 -20 -109 -45 -132 -56 -23 -10 -45 -19 -49 -19 -13 0 -239 -83 -274 -100 -221 -111 -966 -841 -1630 -1599 -47 -54 -132 -151 -190 -216 -120 -135 -379 -437 -490 -570 -41 -49 -87 -103 -102 -120 -14 -16 -48 -61 -73 -100 -51 -76 -248 -325 -253 -320 -2 2 44 64 102 138 98 126 306 426 306 443 0 4 6 15 14 23 29 32 116 212 116 240 0 46 -27 30 -122 -67 -296 -308 -738 -950 -738 -1072 0 -22 20 -26 38 -8 7 7 12 9 12 5 0 -4 -44 -63 -98 -130 -85 -106 -161 -201 -336 -423 -23 -29 -58 -74 -78 -100 -20 -27 -70 -92 -111 -144 -149 -193 -460 -610 -573 -769 -32 -46 -85 -120 -117 -165 -187 -262 -349 -512 -425 -656 -24 -47 -50 -94 -57 -105 -55 -92 -203 -451 -274 -664 -138 -414 -234 -939 -217 -1179 4 -53 11 -194 16 -312 7 -184 12 -227 33 -300 53 -181 99 -253 281 -433 202 -200 414 -377 796 -664 305 -229 320 -240 420 -308 47 -32 105 -73 130 -90 25 -17 117 -81 205 -140 88 -60 201 -137 250 -172 144 -99 540 -345 660 -409 253 -135 415 -199 737 -288 202 -57 707 -131 1258 -185 58 -6 170 -17 250 -25 80 -8 208 -20 285 -26 77 -6 217 -17 310 -25 372 -31 553 -39 845 -39 374 1 539 20 810 96 200 55 556 194 898 349 35 16 65 29 67 29 2 0 32 13 67 29 363 167 1047 417 1433 524 261 73 306 82 466 97 207 20 343 62 594 185 198 97 293 156 503 315 333 250 502 356 811 509 170 84 332 150 481 195 476 144 677 241 831 404 41 42 88 104 106 137 164 311 58 727 -364 1423 -78 128 -307 473 -392 590 -25 35 -64 89 -87 120 -22 31 -93 127 -156 212 -63 85 -173 234 -244 330 -114 154 -260 373 -351 525 -40 68 -168 324 -199 399 -14 34 -43 111 -65 171 -22 61 -46 126 -54 145 -21 55 -131 436 -154 530 -11 47 -32 135 -46 195 -23 95 -113 526 -175 835 -19 92 -56 266 -86 400 -8 36 -19 87 -24 114 -6 27 -14 65 -20 85 -5 20 -32 130 -60 244 -179 730 -352 1186 -581 1522 -87 128 -252 303 -371 392 -51 39 -100 73 -108 77 -8 3 -37 20 -65 37 -137 83 -367 178 -590 243 -146 42 -556 144 -755 186 -80 17 -174 37 -210 45 -115 25 -308 60 -410 74 -41 6 -106 16 -145 22 -38 6 -189 13 -335 15 -224 3 -281 0 -365 -15z"/>
 </g>
<g id="layer104" fill="#8e8e8e" stroke="none">
 <path d="M4305 9790 c-11 -4 -56 -45 -100 -91 -346 -362 -826 -1089 -719 -1089 30 0 226 218 426 476 151 193 375 546 409 642 16 45 9 71 -16 62z"/>
 </g>

</svg>