<!DOCTYPE svg PUBLIC "-//W3C//DTD SVG 20010904//EN" "http://www.w3.org/TR/2001/REC-SVG-20010904/DTD/svg10.dtd">
<svg version="1.0" xmlns="http://www.w3.org/2000/svg" width="1554px" height="1600px" viewBox="0 0 15540 16000" preserveAspectRatio="xMidYMid meet">
<g id="layer101" fill="#0c0c0c" stroke="none">
 <path d="M11188 15289 c-68 -16 -195 -111 -219 -164 -11 -26 -31 -55 -46 -73 -7 -7 -13 -21 -13 -31 0 -9 -7 -26 -15 -37 -8 -10 -15 -25 -15 -32 0 -19 -61 -146 -71 -150 -5 -2 -9 -8 -9 -13 0 -9 -37 -67 -51 -79 -3 -3 -30 -36 -61 -75 -53 -67 -108 -121 -214 -212 -27 -23 -65 -56 -84 -73 -19 -18 -71 -59 -115 -92 -44 -32 -88 -66 -98 -74 -9 -8 -19 -14 -22 -14 -4 0 -151 -102 -176 -122 -8 -7 -31 -22 -50 -32 -19 -11 -52 -31 -74 -45 -56 -36 -75 -47 -115 -67 -19 -10 -53 -30 -75 -44 -22 -14 -49 -30 -60 -37 -27 -16 -468 -235 -525 -261 -190 -84 -328 -137 -550 -211 -163 -54 -206 -67 -357 -106 -143 -36 -430 -88 -583 -105 -41 -5 -111 -13 -155 -19 -92 -12 -233 -24 -600 -48 -210 -15 -397 -18 -975 -18 -735 1 -711 0 -1226 45 -61 6 -135 10 -163 10 -29 0 -119 7 -199 15 -81 8 -219 22 -307 30 -380 37 -465 46 -550 60 -49 8 -137 21 -195 30 -58 9 -134 23 -170 30 -36 7 -99 19 -140 25 -66 11 -124 24 -390 86 -62 15 -94 22 -255 58 -38 8 -83 17 -100 19 -16 2 -50 9 -75 15 -74 18 -242 48 -440 77 -58 9 -132 21 -165 27 -33 5 -153 13 -266 15 -195 5 -208 4 -256 -17 -79 -34 -91 -68 -109 -315 -16 -212 -6 -591 22 -805 8 -63 14 -133 14 -154 0 -53 26 -260 95 -761 8 -55 21 -154 30 -220 9 -66 22 -159 30 -206 8 -47 15 -99 15 -115 0 -16 6 -72 14 -124 9 -52 20 -135 26 -185 6 -49 18 -139 26 -200 26 -188 42 -305 59 -430 9 -66 22 -165 30 -220 8 -55 21 -154 30 -220 9 -66 22 -165 30 -220 8 -55 19 -145 25 -200 20 -188 41 -360 56 -457 8 -53 14 -114 14 -134 0 -20 6 -78 14 -128 8 -50 22 -163 30 -251 9 -88 23 -221 31 -295 38 -365 45 -438 55 -600 6 -96 18 -258 26 -360 19 -222 15 -1040 -5 -1235 -6 -66 -16 -172 -22 -235 -6 -63 -17 -173 -25 -245 -28 -250 -43 -391 -59 -535 -8 -80 -22 -197 -30 -260 -23 -174 -25 -163 57 -249 119 -125 575 -595 693 -715 61 -61 231 -237 380 -391 148 -154 340 -351 425 -437 85 -86 212 -216 282 -287 71 -72 130 -131 133 -131 3 0 40 -35 82 -78 94 -94 225 -217 311 -292 35 -30 78 -68 96 -85 49 -45 149 -132 182 -157 16 -12 31 -25 34 -28 3 -3 28 -24 55 -45 28 -22 52 -42 55 -45 3 -3 34 -28 70 -55 36 -27 67 -52 70 -56 3 -4 28 -22 55 -41 28 -19 70 -49 95 -66 74 -53 243 -166 260 -175 8 -4 56 -32 105 -62 50 -30 164 -91 255 -136 171 -85 189 -93 280 -128 30 -12 66 -27 80 -33 14 -5 39 -16 55 -22 17 -7 46 -20 65 -28 19 -9 71 -30 115 -48 44 -17 84 -36 89 -41 6 -5 17 -9 25 -9 15 0 412 -196 462 -228 15 -9 47 -30 73 -45 25 -16 46 -33 46 -38 0 -5 7 -9 15 -9 8 0 15 -4 15 -10 0 -5 4 -10 10 -10 13 0 50 -37 50 -50 0 -5 5 -10 10 -10 13 0 13 -51 0 -84 -26 -70 56 -133 188 -143 70 -6 76 -4 147 32 41 21 75 42 75 46 0 5 7 9 15 9 8 0 15 5 15 10 0 6 4 10 9 10 20 0 205 175 301 285 29 33 70 79 91 102 20 24 52 63 70 88 18 25 36 45 41 45 4 0 8 6 8 14 0 8 4 16 8 18 4 1 18 20 31 41 12 20 27 37 32 37 5 0 9 6 9 14 0 8 4 16 9 18 4 1 43 57 87 123 79 121 180 265 209 298 8 9 15 19 15 22 0 8 124 180 132 183 5 2 8 8 8 13 0 6 5 15 10 22 6 7 33 44 60 82 28 39 54 75 60 82 5 7 10 15 10 18 0 3 5 11 10 18 6 7 36 46 66 87 31 41 60 77 65 78 5 2 9 10 9 18 0 8 5 14 10 14 6 0 10 4 10 10 0 9 18 35 46 64 6 6 52 67 103 136 52 69 97 127 102 128 5 2 9 10 9 18 0 8 4 14 8 14 4 0 15 12 24 28 10 15 28 40 42 55 13 16 57 73 97 128 40 54 76 99 81 99 4 0 8 4 8 10 0 5 6 18 14 27 8 10 50 63 92 118 43 55 81 102 84 105 3 3 28 34 55 70 28 36 52 67 55 70 3 3 30 37 60 75 30 39 57 72 60 75 3 3 28 34 55 70 27 36 52 67 55 70 3 3 28 34 55 70 27 36 52 67 56 70 3 3 30 37 60 75 29 39 55 72 59 75 3 3 21 25 39 50 19 25 39 50 45 55 6 6 23 26 37 45 15 19 60 70 100 114 41 43 81 88 89 101 8 12 23 30 32 39 10 9 32 37 49 61 18 25 36 45 41 45 4 0 8 4 8 9 0 6 13 24 29 41 16 18 35 44 42 58 8 15 19 32 24 38 6 6 28 34 50 62 21 29 43 52 47 52 4 0 8 7 8 15 0 8 4 15 8 15 5 0 22 19 39 43 17 23 39 52 49 63 11 12 37 43 59 70 22 27 48 56 58 66 9 10 17 20 17 23 0 3 8 13 18 23 9 11 33 39 52 63 19 24 43 51 53 61 9 10 17 20 17 23 0 2 13 17 28 33 15 16 50 56 76 90 27 34 53 62 57 62 5 0 9 6 9 14 0 8 4 16 9 18 5 2 35 35 66 73 32 39 77 93 101 120 23 28 86 102 139 165 53 63 108 129 122 145 14 17 64 75 111 130 47 55 90 105 96 110 6 6 52 57 101 115 50 57 99 114 111 125 11 11 49 54 84 95 35 41 71 82 79 91 9 9 32 35 51 58 19 23 49 57 65 75 235 260 321 352 490 522 165 165 268 258 310 278 16 8 71 27 120 41 50 15 99 31 110 36 11 4 65 26 120 49 129 53 127 52 216 94 42 20 80 36 84 36 5 0 56 23 114 51 267 129 356 173 361 179 6 6 713 358 785 390 28 12 93 43 145 67 52 25 110 52 128 59 80 35 101 43 167 69 39 15 79 31 90 36 27 12 120 38 171 48 67 12 133 69 153 131 6 19 18 60 28 90 13 43 16 91 16 215 -1 150 -5 192 -33 290 -6 22 -15 56 -19 75 -8 36 -51 129 -99 212 -30 54 -57 85 -154 186 -38 38 -68 75 -68 81 0 6 -4 11 -8 11 -18 0 -135 224 -157 300 -3 14 -19 68 -35 120 -35 119 -48 199 -60 370 -5 74 -13 158 -18 185 -19 104 -71 282 -109 372 -7 17 -13 36 -13 41 0 6 -7 23 -15 39 -23 45 -55 119 -55 126 0 4 -9 29 -21 55 -12 26 -27 61 -34 77 -36 83 -305 616 -316 625 -3 3 -21 34 -40 70 -19 36 -37 67 -40 70 -5 5 -66 109 -82 140 -4 8 -16 29 -27 45 -11 17 -29 48 -40 70 -11 22 -29 54 -40 70 -11 17 -25 40 -31 53 -7 12 -16 22 -21 22 -4 0 -8 5 -8 11 0 5 -24 47 -53 92 -59 91 -127 198 -142 225 -5 10 -21 33 -35 52 -27 37 -45 66 -56 90 -4 8 -10 17 -13 20 -3 3 -10 13 -16 22 -28 47 -211 313 -217 316 -5 2 -8 10 -8 17 0 7 -3 15 -7 17 -9 3 -53 64 -53 72 0 5 -12 21 -45 60 -12 14 -29 42 -51 79 -8 16 -67 97 -130 182 -63 84 -114 158 -114 164 0 6 -4 11 -10 11 -5 0 -21 20 -36 45 -14 25 -30 45 -35 45 -5 0 -9 6 -9 13 0 7 -13 27 -30 45 -16 18 -30 36 -30 39 0 10 -154 213 -162 213 -4 0 -8 7 -8 15 0 8 -4 15 -9 15 -4 0 -20 17 -34 38 -14 20 -36 49 -49 63 -13 15 -52 64 -88 109 -77 97 -199 230 -365 395 -136 137 -174 170 -265 240 -36 27 -66 53 -68 57 -2 4 -8 8 -13 8 -6 0 -40 19 -77 43 -113 72 -232 124 -317 137 -65 11 -160 10 -207 -1z"/>
 </g>
<g id="layer102" fill="#646464" stroke="none">
 <path d="M11623 14454 c-37 -18 -87 -76 -128 -149 -60 -105 -97 -155 -116 -155 -10 0 -31 -5 -46 -12 -37 -16 -321 -228 -392 -293 -31 -28 -96 -85 -145 -126 -49 -41 -134 -113 -190 -161 -55 -48 -149 -128 -208 -178 -58 -50 -108 -93 -110 -98 -2 -4 -52 -48 -113 -99 -60 -50 -123 -106 -140 -123 -28 -31 -29 -32 -5 -20 23 12 81 50 155 100 17 11 100 67 185 123 85 56 157 104 160 107 3 3 39 27 80 54 41 28 122 84 180 126 96 70 163 114 115 75 -11 -8 -38 -31 -60 -49 -109 -92 -192 -156 -300 -231 -129 -89 -165 -113 -233 -155 -40 -25 -85 -52 -100 -61 -65 -40 -200 -107 -205 -102 -4 3 -19 -5 -34 -18 -28 -23 -198 -83 -368 -130 -81 -22 -289 -89 -335 -107 -14 -5 -45 -18 -70 -27 -25 -10 -54 -21 -65 -26 -33 -14 -157 -59 -163 -59 -2 0 7 9 22 21 14 11 26 27 26 35 0 19 -52 19 -410 -1 -157 -8 -429 -22 -605 -30 -176 -9 -459 -22 -630 -30 -170 -8 -449 -21 -620 -30 -170 -8 -425 -19 -565 -25 -140 -6 -390 -17 -555 -25 -470 -23 -902 -44 -1250 -60 -176 -9 -453 -22 -615 -31 -455 -24 -626 -24 -855 -2 -691 66 -952 109 -1155 188 -173 68 -225 73 -282 25 -64 -54 -83 -135 -98 -415 -14 -249 7 -632 46 -845 8 -44 14 -93 14 -109 0 -15 6 -54 14 -85 7 -31 21 -94 31 -141 35 -175 57 -257 146 -540 82 -263 98 -319 127 -450 43 -187 61 -284 97 -505 9 -55 23 -134 31 -175 8 -42 14 -89 14 -105 0 -17 6 -77 15 -135 94 -665 164 -1670 200 -2840 8 -278 22 -710 30 -960 9 -250 16 -529 17 -620 0 -91 3 -216 7 -277 l6 -113 157 -142 c86 -79 208 -190 270 -247 62 -58 140 -129 172 -159 45 -41 70 -76 100 -136 21 -45 42 -83 46 -86 3 -3 16 -21 27 -40 12 -19 30 -44 40 -55 10 -11 35 -42 56 -69 132 -174 896 -937 1256 -1254 58 -51 117 -106 131 -121 14 -15 59 -56 100 -91 41 -34 102 -87 135 -116 135 -117 195 -168 300 -249 61 -47 134 -104 163 -127 58 -46 75 -56 146 -92 27 -14 53 -23 57 -20 17 10 -17 68 -89 151 -85 98 -399 414 -592 597 -69 65 -105 102 -80 82 25 -20 72 -58 105 -84 33 -26 80 -65 105 -88 25 -22 92 -76 150 -120 58 -43 107 -81 110 -84 3 -4 28 -21 55 -40 28 -18 55 -38 60 -45 6 -6 60 -45 120 -85 61 -40 143 -95 183 -122 59 -39 216 -125 361 -198 38 -19 138 -60 176 -71 185 -58 215 -63 400 -63 176 0 182 0 277 31 159 53 286 123 426 236 99 80 311 292 387 386 151 186 230 288 290 376 19 28 50 73 70 100 20 28 48 68 63 90 15 22 29 42 32 45 4 3 17 23 30 45 13 22 26 42 29 45 7 6 15 18 364 553 111 170 109 167 194 288 38 52 97 137 132 187 49 69 68 89 77 81 9 -8 22 -4 48 13 38 26 186 190 286 317 36 46 110 140 165 209 55 70 123 161 151 202 28 41 71 105 97 142 26 37 47 69 47 73 0 5 45 82 88 150 7 11 28 53 48 93 20 40 54 95 77 121 58 66 179 207 257 300 36 42 137 157 225 255 88 97 191 212 229 254 289 324 1007 1040 1291 1288 50 43 97 87 105 96 21 24 296 255 448 376 118 94 296 228 342 258 25 16 47 31 50 34 15 15 184 128 225 151 17 9 46 26 65 38 19 11 46 26 60 32 13 5 27 13 30 17 10 14 165 85 275 127 39 15 85 33 103 41 18 8 39 14 47 14 8 0 29 6 47 14 18 8 74 29 123 47 50 17 104 37 120 44 17 7 77 32 135 56 150 60 170 69 220 94 25 13 82 42 128 64 179 88 360 231 406 321 10 19 20 60 23 91 7 69 -14 122 -83 205 -60 74 -102 140 -113 179 -5 16 -19 55 -31 85 -20 51 -38 120 -75 280 -8 36 -15 83 -15 105 0 22 -7 105 -15 185 -20 188 -47 313 -103 485 -28 86 -37 108 -68 182 -8 17 -14 34 -14 38 0 7 -25 67 -40 96 -5 9 -24 54 -43 100 -39 94 -181 376 -247 490 -37 64 -227 377 -270 444 -20 30 -110 177 -134 218 -29 47 -130 201 -136 207 -3 3 -28 41 -55 85 -27 44 -51 82 -54 85 -4 3 -27 37 -52 75 -119 183 -230 347 -239 355 -3 3 -17 23 -30 45 -13 22 -26 42 -30 45 -3 3 -46 64 -95 137 -50 73 -106 154 -125 182 -19 27 -66 93 -105 148 -38 54 -75 104 -82 111 -7 8 -18 23 -25 35 -6 12 -61 89 -122 172 -61 82 -119 161 -129 175 -9 14 -41 55 -69 92 -29 37 -79 100 -110 141 -82 105 -219 234 -281 263 -61 28 -71 29 -114 8z m-4014 -2018 c-8 -9 -401 -26 -412 -19 -7 5 47 10 118 13 196 9 299 10 294 6z m-572 -23 c-20 -2 -52 -2 -70 0 -17 2 0 4 38 4 39 0 53 -2 32 -4z m-327 -14 c-174 -9 -1699 -9 -1935 0 -99 4 326 7 945 7 619 1 1064 -3 990 -7z"/>
 <path d="M2130 13362 c0 -24 274 -126 675 -251 39 -12 99 -28 135 -35 163 -36 311 -65 375 -75 586 -89 1009 -123 1825 -145 478 -14 835 -11 2290 15 l105 2 -145 13 c-80 7 -242 20 -360 29 -344 25 -601 45 -800 60 -102 8 -259 19 -350 25 -91 6 -241 17 -335 25 -93 9 -195 15 -225 15 -30 0 -136 9 -235 20 -167 19 -250 26 -615 49 -74 5 -180 14 -235 20 -55 5 -174 17 -265 26 -91 9 -228 22 -305 30 -77 8 -185 17 -240 20 -55 3 -149 12 -210 20 -150 19 -358 43 -430 50 -33 3 -85 10 -115 15 -30 5 -102 17 -160 25 -58 9 -143 23 -190 30 -128 21 -190 27 -190 17z"/>
 <path d="M10308 4703 c-55 -54 -128 -132 -160 -173 -33 -41 -111 -129 -173 -195 -269 -287 -535 -677 -535 -784 1 -123 6 -131 54 -98 39 27 317 324 371 397 11 15 28 34 37 44 10 9 32 37 49 61 18 25 36 45 41 45 4 0 8 4 8 9 0 6 13 24 29 41 16 18 35 44 42 58 8 15 20 33 27 40 6 7 12 18 12 23 0 5 5 15 11 22 39 45 234 363 287 468 34 69 40 128 14 137 -7 2 -58 -40 -114 -95z"/>
 </g>
<g id="layer103" fill="#2c82c9" stroke="none">
 <path d="M11623 14454 c-37 -18 -87 -76 -128 -149 -61 -106 -97 -155 -116 -155 -10 0 -34 -8 -53 -18 -30 -16 -175 -119 -186 -132 -3 -4 -26 -21 -52 -38 -25 -17 -59 -44 -75 -59 -15 -16 -67 -60 -114 -100 -48 -39 -93 -78 -100 -85 -8 -7 -41 -35 -74 -62 -33 -27 -64 -54 -70 -60 -5 -7 -57 -52 -115 -101 -58 -49 -113 -97 -122 -106 -10 -10 -57 -50 -105 -91 -48 -40 -101 -86 -118 -102 -16 -16 -65 -58 -107 -94 -43 -35 -78 -66 -78 -68 0 -6 43 16 50 26 3 3 23 17 45 30 22 13 42 27 45 30 3 3 115 79 250 168 135 89 253 168 264 174 19 13 93 68 199 147 32 24 60 41 63 38 3 -3 -12 -18 -33 -33 -21 -16 -42 -34 -48 -40 -11 -12 -103 -85 -193 -152 -54 -40 -76 -56 -212 -149 -30 -21 -88 -58 -128 -83 -40 -25 -85 -52 -100 -61 -71 -44 -198 -106 -209 -102 -7 3 -13 0 -13 -6 0 -6 -12 -17 -27 -25 -33 -16 -246 -86 -358 -117 -94 -26 -287 -89 -365 -119 -30 -12 -64 -24 -75 -27 -11 -3 -24 -9 -30 -13 -5 -4 -46 -19 -89 -35 -43 -15 -115 -47 -160 -71 -70 -36 -161 -68 -231 -80 -130 -22 -237 -36 -370 -48 -88 -8 -214 -20 -280 -27 -210 -20 -640 -40 -1275 -60 -390 -13 -1747 -7 -2430 9 -223 6 -679 14 -1015 19 -467 6 -569 9 -435 14 96 4 187 7 203 8 15 0 27 5 27 9 0 5 -82 16 -182 26 -649 60 -938 108 -1138 186 -173 68 -225 73 -282 25 -64 -54 -83 -135 -98 -415 -14 -249 7 -632 46 -845 8 -44 14 -93 14 -109 0 -15 6 -54 14 -85 7 -31 21 -94 31 -141 35 -175 57 -257 146 -540 82 -263 98 -319 127 -450 43 -187 61 -284 97 -505 9 -55 23 -134 31 -175 8 -42 14 -89 14 -105 0 -17 6 -77 15 -135 94 -665 164 -1670 200 -2840 8 -278 22 -710 30 -960 9 -250 16 -529 17 -620 0 -91 3 -216 7 -277 l6 -113 157 -142 c86 -79 225 -206 309 -283 83 -77 157 -143 164 -147 10 -6 11 0 5 28 l-8 36 30 -28 c17 -16 51 -51 77 -79 120 -130 642 -645 776 -765 148 -134 195 -178 195 -188 0 -4 -95 74 -130 108 -17 16 -89 73 -231 181 -83 63 -156 106 -165 96 -9 -9 8 -57 29 -80 12 -13 47 -54 78 -93 66 -81 306 -326 534 -545 144 -138 261 -245 463 -423 37 -32 88 -78 113 -102 26 -24 80 -70 120 -104 41 -33 115 -94 164 -135 85 -72 167 -136 294 -232 78 -59 153 -103 174 -103 18 0 18 2 -3 38 -12 20 -45 65 -74 99 -52 63 -493 504 -671 672 -84 79 -89 85 -30 37 39 -31 97 -78 130 -104 33 -26 80 -65 105 -88 25 -22 92 -76 150 -120 58 -43 107 -81 110 -84 3 -4 28 -21 55 -40 28 -18 55 -38 60 -45 6 -6 60 -45 120 -85 61 -40 143 -95 183 -122 59 -39 216 -125 361 -198 38 -19 138 -60 176 -71 185 -58 215 -63 400 -63 176 0 182 0 277 31 159 53 286 123 426 236 99 80 311 292 387 386 151 186 230 288 290 376 19 28 50 73 70 100 20 28 48 68 63 90 15 22 29 42 32 45 4 3 17 23 30 45 13 22 26 42 29 45 7 6 15 18 364 553 119 182 146 221 318 463 56 78 80 120 114 199 23 53 54 116 65 135 5 8 34 56 63 105 53 89 116 185 127 195 3 3 17 23 32 45 37 54 100 140 231 317 144 194 394 464 421 455 6 -2 10 -18 10 -36 -1 -17 2 -28 7 -25 5 3 53 57 107 120 53 63 129 152 167 197 39 46 142 163 230 261 88 97 191 212 229 254 289 324 1007 1040 1291 1288 50 43 97 87 105 96 21 24 296 255 448 376 118 94 296 228 342 258 25 16 47 31 50 34 15 15 184 128 225 151 17 9 46 26 65 38 19 11 46 26 60 32 13 5 27 13 30 17 10 14 165 85 275 127 39 15 85 33 103 41 18 8 39 14 47 14 8 0 29 6 47 14 18 8 74 29 123 47 50 17 104 37 120 44 17 7 77 32 135 56 150 60 170 69 220 94 25 13 82 42 128 64 179 88 360 231 406 321 10 19 20 60 23 91 7 69 -14 122 -83 205 -60 74 -102 140 -113 179 -5 16 -19 55 -31 85 -20 51 -38 120 -75 280 -8 36 -15 83 -15 105 0 22 -7 105 -15 185 -20 188 -47 313 -103 485 -28 86 -37 108 -68 182 -8 17 -14 34 -14 38 0 7 -25 67 -40 96 -5 9 -24 54 -43 100 -39 94 -181 376 -247 490 -37 64 -227 377 -270 444 -20 30 -110 177 -134 218 -29 47 -130 201 -136 207 -3 3 -28 41 -55 85 -27 44 -51 82 -54 85 -4 3 -27 37 -52 75 -119 183 -230 347 -239 355 -3 3 -17 23 -30 45 -13 22 -26 42 -30 45 -3 3 -46 64 -95 137 -50 73 -106 154 -125 182 -19 27 -66 93 -105 148 -38 54 -75 104 -82 111 -7 8 -18 23 -25 35 -6 12 -61 89 -122 172 -61 82 -119 161 -129 175 -9 14 -41 55 -69 92 -29 37 -79 100 -110 141 -82 105 -219 234 -281 263 -61 28 -71 29 -114 8z"/>
 <path d="M10395 4778 c-49 -34 -143 -128 -208 -208 -34 -41 -66 -79 -72 -85 -17 -15 -107 -125 -140 -170 -16 -22 -32 -42 -35 -45 -4 -3 -22 -27 -40 -55 -19 -27 -39 -54 -46 -60 -6 -5 -24 -28 -38 -50 -14 -22 -40 -61 -58 -87 -86 -123 -171 -254 -176 -270 -2 -10 -8 -18 -13 -18 -5 0 -9 -5 -9 -10 0 -6 -11 -28 -24 -48 -55 -88 -104 -232 -78 -232 29 0 272 241 272 270 0 5 6 13 13 17 6 4 38 42 69 83 32 41 85 109 118 150 92 114 161 207 216 290 27 41 51 77 55 80 14 12 159 261 183 315 15 33 34 72 42 87 8 16 11 34 7 46 -8 20 -8 20 -38 0z"/>
 </g>
<g id="layer104" fill="#8f8f8f" stroke="none">
 <path d="M11324 14131 c-30 -16 -174 -119 -184 -131 -3 -4 -26 -21 -52 -38 -25 -17 -59 -44 -75 -59 -15 -16 -67 -60 -114 -100 -48 -39 -93 -78 -100 -85 -8 -7 -41 -35 -74 -62 -33 -27 -64 -54 -70 -60 -5 -7 -57 -52 -115 -101 -58 -49 -113 -97 -122 -106 -10 -10 -57 -50 -105 -91 -48 -40 -108 -92 -133 -116 -25 -23 -77 -68 -117 -100 -73 -57 -101 -92 -40 -50 17 13 34 25 37 29 3 3 23 16 45 29 22 13 42 27 45 30 3 3 115 79 250 168 135 89 253 168 264 174 18 13 90 66 197 146 31 23 61 42 67 42 7 0 12 4 12 9 0 5 13 17 29 28 27 17 76 52 197 140 80 59 196 162 227 201 26 34 34 73 21 106 -8 21 -51 20 -90 -3z"/>
 <path d="M10395 4778 c-49 -34 -143 -128 -208 -208 -34 -41 -66 -79 -72 -85 -17 -15 -107 -125 -140 -170 -16 -22 -32 -42 -35 -45 -4 -3 -22 -27 -40 -55 -19 -27 -39 -54 -46 -60 -6 -5 -24 -28 -38 -50 -14 -22 -40 -61 -58 -87 -86 -123 -171 -254 -176 -270 -2 -10 -8 -18 -13 -18 -5 0 -9 -5 -9 -10 0 -6 -11 -28 -24 -48 -55 -88 -104 -232 -78 -232 29 0 272 241 272 270 0 5 6 13 13 17 6 4 38 42 69 83 32 41 85 109 118 150 92 114 161 207 216 290 27 41 51 77 55 80 14 12 159 261 183 315 15 33 34 72 42 87 8 16 11 34 7 46 -8 20 -8 20 -38 0z"/>
 <path d="M3350 3191 c0 -19 19 -60 37 -78 10 -10 43 -50 74 -88 65 -81 305 -326 534 -546 144 -138 261 -245 463 -423 37 -32 88 -78 113 -102 26 -24 80 -70 120 -104 41 -33 115 -94 164 -135 85 -72 167 -136 294 -232 78 -59 153 -103 174 -103 18 0 18 2 -3 38 -12 20 -45 65 -74 99 -51 61 -485 496 -646 647 -47 44 -116 109 -155 146 -38 36 -106 97 -150 135 -44 38 -107 95 -140 126 -33 31 -89 81 -125 110 -36 29 -69 58 -75 65 -5 6 -50 44 -100 85 -49 41 -97 81 -106 89 -8 8 -44 37 -80 65 -35 27 -94 73 -131 102 -111 86 -188 129 -188 104z"/>
 </g>

</svg>