<!DOCTYPE svg PUBLIC "-//W3C//DTD SVG 20010904//EN" "http://www.w3.org/TR/2001/REC-SVG-20010904/DTD/svg10.dtd">
<svg version="1.0" xmlns="http://www.w3.org/2000/svg" width="1581px" height="1600px" viewBox="0 0 15810 16000" preserveAspectRatio="xMidYMid meet">
<g id="layer101" fill="#080808" stroke="none">
 <path d="M5133 15237 c-19 -10 -53 -87 -53 -121 0 -17 -102 -120 -140 -142 -16 -10 -30 -22 -30 -26 0 -4 -5 -8 -10 -8 -6 0 -16 -4 -23 -10 -28 -23 -173 -127 -187 -133 -29 -15 -112 -68 -120 -77 -3 -3 -21 -14 -40 -23 -19 -10 -48 -27 -65 -37 -16 -11 -37 -23 -45 -27 -8 -3 -17 -9 -20 -13 -7 -9 -112 -69 -235 -134 -39 -21 -90 -49 -115 -63 -25 -13 -81 -44 -125 -67 -44 -24 -107 -58 -140 -76 -33 -18 -85 -46 -115 -63 -30 -16 -80 -43 -112 -60 -31 -18 -76 -43 -100 -56 -85 -47 -93 -52 -123 -71 -16 -11 -37 -23 -45 -27 -8 -4 -34 -20 -56 -35 -23 -15 -47 -28 -53 -28 -6 0 -11 -3 -11 -8 0 -4 -20 -18 -45 -32 -25 -14 -45 -28 -45 -31 0 -4 -8 -9 -17 -13 -20 -6 -51 -25 -70 -43 -7 -6 -28 -21 -48 -33 -19 -12 -35 -26 -35 -31 0 -5 -6 -9 -14 -9 -8 0 -16 -3 -18 -8 -1 -4 -23 -23 -48 -42 -25 -18 -64 -53 -87 -77 -24 -24 -45 -43 -48 -43 -9 0 -45 -40 -45 -49 0 -5 -4 -11 -8 -13 -5 -1 -26 -25 -47 -53 -20 -27 -40 -52 -44 -55 -3 -3 -15 -23 -26 -45 -10 -22 -24 -47 -30 -55 -7 -8 -24 -55 -39 -105 -16 -49 -34 -102 -42 -117 -8 -14 -14 -35 -14 -45 0 -10 -4 -23 -9 -29 -5 -5 -14 -25 -19 -44 -14 -48 -45 -128 -70 -181 -11 -24 -30 -66 -43 -94 -90 -205 -384 -792 -482 -965 -39 -68 -76 -138 -116 -215 -20 -38 -39 -72 -42 -75 -8 -7 -35 -58 -50 -92 -6 -16 -15 -28 -20 -28 -5 0 -9 -6 -9 -14 0 -8 -6 -21 -12 -28 -7 -7 -22 -31 -33 -53 -11 -22 -22 -42 -25 -45 -3 -3 -11 -16 -17 -30 -7 -14 -26 -47 -42 -75 -17 -27 -35 -59 -41 -70 -6 -11 -19 -33 -30 -50 -11 -16 -24 -39 -30 -50 -6 -11 -24 -42 -41 -70 -16 -27 -33 -58 -36 -67 -3 -10 -9 -18 -13 -18 -4 0 -12 -10 -19 -22 -6 -13 -20 -36 -31 -53 -11 -16 -24 -39 -30 -50 -12 -22 -26 -46 -54 -90 -17 -26 -54 -87 -91 -147 -36 -59 -211 -314 -217 -316 -5 -2 -8 -8 -8 -14 0 -8 -139 -198 -164 -224 -6 -6 -38 -45 -71 -87 -33 -43 -63 -77 -67 -77 -5 0 -8 -5 -8 -10 0 -6 -11 -21 -23 -33 -25 -23 -127 -169 -127 -181 0 -4 -11 -31 -24 -59 -49 -109 -76 -254 -76 -407 0 -92 22 -353 39 -465 15 -98 38 -291 51 -415 6 -58 17 -146 25 -196 8 -49 15 -106 15 -125 0 -19 6 -81 15 -139 8 -58 21 -161 30 -230 37 -297 68 -490 89 -555 8 -22 19 -67 26 -100 7 -33 19 -74 26 -92 8 -17 14 -36 14 -42 0 -6 6 -25 14 -43 8 -18 22 -53 31 -78 63 -166 224 -472 314 -595 20 -27 53 -76 74 -107 21 -31 49 -68 62 -82 13 -14 29 -34 37 -45 44 -63 142 -171 313 -346 55 -56 132 -137 170 -179 39 -43 78 -86 87 -97 10 -10 18 -23 18 -29 0 -5 5 -10 10 -10 6 0 10 -5 10 -10 0 -11 39 -70 52 -80 7 -6 89 -170 112 -225 9 -22 28 -87 43 -145 24 -96 26 -122 27 -310 0 -161 -4 -222 -18 -285 -29 -129 -62 -253 -78 -295 -6 -14 -17 -50 -24 -80 -8 -30 -23 -73 -33 -95 -10 -22 -28 -65 -40 -95 -12 -30 -26 -65 -32 -77 -11 -27 -20 -50 -49 -123 -11 -30 -26 -66 -32 -80 -23 -53 -37 -87 -53 -130 -10 -25 -23 -58 -31 -75 -20 -47 -40 -97 -54 -135 -6 -19 -18 -48 -25 -65 -57 -135 -90 -296 -80 -385 15 -120 99 -212 280 -303 92 -46 150 -64 263 -80 90 -13 113 -12 231 12 30 6 78 8 105 5 60 -8 159 -52 200 -88 16 -14 32 -26 36 -26 12 0 117 -104 146 -145 67 -93 209 -235 314 -315 25 -18 50 -39 55 -45 6 -6 33 -26 60 -45 28 -19 52 -37 53 -42 2 -4 8 -8 13 -8 9 0 117 -74 149 -102 9 -8 31 -22 50 -31 19 -10 49 -27 65 -37 17 -11 39 -24 50 -30 36 -19 63 -36 76 -47 8 -6 52 -31 99 -56 47 -25 114 -61 150 -80 95 -51 148 -77 263 -126 26 -12 66 -29 90 -40 69 -30 169 -67 222 -81 17 -5 44 -13 60 -19 125 -44 247 -51 370 -22 76 18 221 68 261 89 11 6 62 31 114 57 52 25 122 61 155 80 33 19 67 37 75 41 8 4 32 18 52 31 34 21 131 59 213 83 17 5 62 18 100 30 39 11 96 25 128 30 31 4 72 13 90 18 32 10 131 27 322 56 170 26 301 36 975 81 852 56 1116 81 1320 121 127 26 260 60 330 85 40 14 240 110 285 137 69 40 175 116 175 123 0 5 7 9 15 9 8 0 15 4 15 8 0 5 24 25 53 45 29 20 61 44 72 54 40 36 161 130 203 158 23 15 42 32 42 36 0 5 5 9 10 9 9 0 114 73 157 110 7 5 15 10 18 10 3 0 29 15 58 33 76 48 135 77 157 77 28 0 145 52 205 90 17 11 39 24 50 29 18 8 111 74 142 101 7 5 15 10 17 10 6 0 37 24 61 48 8 6 16 12 19 12 3 0 14 8 24 18 11 9 28 24 38 32 57 45 121 98 148 123 17 15 39 30 48 33 10 3 18 10 18 15 0 5 6 9 14 9 8 0 16 4 18 8 3 8 81 62 108 75 8 4 38 21 65 37 46 27 399 204 470 235 17 7 66 27 110 45 44 17 89 35 100 39 11 5 45 19 75 31 30 11 64 25 75 30 11 5 65 23 120 40 55 17 115 38 133 46 18 8 40 14 49 14 9 0 48 10 87 23 39 13 98 32 131 41 64 19 134 41 200 61 22 7 67 21 100 30 33 10 71 22 85 27 14 6 45 17 70 25 25 8 59 20 75 28 17 7 61 23 98 35 37 13 70 27 73 31 3 5 13 9 22 9 9 0 44 13 77 29 33 16 92 43 130 61 39 17 93 43 120 56 28 13 54 24 59 24 4 0 27 13 51 29 24 16 53 32 64 36 12 3 21 10 21 15 0 4 8 10 18 14 9 3 38 18 64 34 26 15 66 38 90 51 24 13 45 26 48 30 3 4 49 38 103 76 53 38 97 73 97 77 0 4 5 8 10 8 6 0 18 6 27 13 33 26 192 175 258 242 73 74 225 266 225 284 0 6 3 11 8 11 18 0 236 417 260 500 6 19 17 58 25 85 55 181 40 407 -47 720 -8 28 -22 79 -31 115 -9 36 -23 80 -31 98 -8 18 -14 41 -14 52 0 11 -6 34 -14 52 -14 34 -25 69 -71 223 -14 50 -39 133 -55 185 -16 52 -31 105 -35 118 -12 41 16 38 -610 72 -93 5 -213 14 -265 19 -52 6 -124 11 -160 11 -88 -1 -412 27 -535 45 -55 8 -116 15 -136 15 -19 0 -58 6 -85 13 -27 8 -85 22 -129 31 -109 24 -344 100 -435 143 -41 19 -95 44 -120 55 -25 11 -52 24 -60 28 -23 11 -151 81 -185 101 -16 10 -54 30 -82 46 -29 15 -53 30 -53 33 0 4 -18 15 -40 26 -22 10 -40 22 -40 27 0 4 -5 7 -11 7 -12 0 -122 71 -127 82 -2 5 -8 8 -14 8 -12 0 -151 92 -156 103 -2 4 -8 7 -13 7 -11 0 -72 42 -77 53 -2 4 -8 7 -13 7 -9 0 -66 36 -79 50 -3 3 -45 32 -95 64 -78 51 -235 164 -272 196 -7 5 -17 10 -23 10 -5 0 -10 3 -10 8 0 4 -18 18 -40 32 -22 14 -40 28 -40 32 0 5 -5 8 -10 8 -6 0 -16 5 -23 10 -7 6 -52 40 -102 76 -49 36 -91 70 -93 75 -2 5 -8 9 -13 9 -9 0 -20 8 -83 61 -17 14 -60 47 -96 73 -36 27 -67 51 -70 55 -3 3 -34 28 -70 56 -64 48 -227 185 -265 222 -6 6 -46 40 -88 76 -117 100 -206 202 -240 277 -82 183 -107 294 -107 472 0 78 -7 188 -15 242 -26 175 -14 431 31 623 8 34 14 75 14 91 0 16 6 48 14 73 7 24 21 73 30 109 18 69 87 287 113 355 18 48 30 77 73 170 17 39 38 84 45 100 7 17 25 56 39 87 14 31 26 59 26 62 0 3 18 44 40 90 47 101 71 158 68 161 -9 5 -102 35 -158 50 -36 10 -83 23 -105 30 -22 7 -60 18 -85 25 -25 6 -65 17 -90 24 -25 8 -70 21 -100 30 -30 8 -98 28 -150 44 -52 16 -124 37 -160 46 -36 10 -81 24 -100 31 -19 7 -57 20 -85 28 -83 26 -206 72 -270 101 -33 16 -76 35 -95 43 -39 17 -264 129 -295 147 -11 6 -38 23 -60 37 -22 14 -47 29 -55 33 -8 4 -24 12 -35 19 -11 7 -41 25 -67 41 -27 15 -48 32 -48 37 0 5 -5 9 -10 9 -11 0 -63 34 -88 58 -8 7 -27 19 -43 27 -16 9 -29 20 -29 25 0 6 -6 10 -13 10 -15 0 -227 175 -316 259 -29 28 -55 51 -58 51 -2 0 -14 10 -26 23 -12 13 -58 54 -102 92 -44 38 -90 79 -102 92 -12 13 -26 23 -32 23 -5 0 -11 4 -13 8 -1 5 -52 53 -112 106 -250 225 -692 670 -887 894 -35 39 -67 72 -71 72 -4 0 -8 5 -8 10 0 6 -11 21 -24 33 -12 12 -47 51 -76 87 -30 36 -64 75 -77 87 -13 12 -23 27 -23 33 0 5 -4 10 -9 10 -4 0 -21 19 -37 43 -16 23 -32 44 -36 45 -5 2 -8 8 -8 13 0 8 -20 35 -47 64 -7 8 -13 18 -13 24 0 6 -4 11 -10 11 -5 0 -10 7 -10 15 0 8 -4 15 -9 15 -5 0 -14 14 -21 30 -7 17 -16 30 -20 30 -4 0 -10 8 -14 18 -22 65 -206 256 -296 306 -19 11 -37 22 -40 26 -3 4 -27 14 -54 23 -55 19 -120 20 -153 4z"/>
 </g>
<g id="layer102" fill="#626262" stroke="none">
 <path d="M5115 14439 c-11 -5 -51 -27 -90 -49 -38 -23 -83 -48 -100 -56 -16 -8 -43 -23 -60 -34 -16 -11 -43 -26 -60 -34 -16 -8 -61 -33 -100 -56 -38 -22 -77 -43 -85 -47 -8 -3 -72 -39 -142 -80 -70 -40 -129 -73 -131 -73 -4 0 -243 -134 -267 -150 -8 -5 -28 -16 -45 -25 -16 -8 -48 -26 -70 -40 -22 -13 -47 -28 -55 -32 -8 -4 -31 -16 -50 -29 -19 -12 -80 -48 -135 -80 -55 -33 -107 -63 -116 -69 -9 -5 -36 -21 -60 -34 -211 -114 -544 -376 -655 -514 -32 -39 -61 -74 -65 -77 -4 -3 -13 -17 -18 -30 -6 -14 -21 -41 -32 -60 -21 -35 -63 -137 -79 -195 -15 -52 -97 -280 -108 -300 -16 -29 -62 -133 -62 -139 0 -11 -61 -137 -197 -411 -135 -272 -171 -343 -289 -558 -35 -65 -64 -122 -64 -128 0 -5 -4 -9 -10 -9 -5 0 -10 -5 -10 -11 0 -6 -20 -45 -45 -86 -25 -40 -45 -75 -45 -77 0 -7 -135 -238 -253 -435 -64 -106 -117 -195 -117 -197 0 -2 -20 -33 -45 -70 -25 -36 -45 -68 -45 -70 0 -3 -13 -24 -29 -47 -15 -23 -86 -127 -155 -232 -70 -104 -147 -217 -171 -250 -24 -33 -83 -118 -132 -190 -48 -71 -91 -132 -94 -135 -17 -14 -146 -265 -174 -340 -9 -25 -23 -59 -30 -75 -7 -17 -18 -57 -25 -90 -6 -33 -18 -88 -26 -122 -18 -79 -18 -231 0 -280 7 -21 19 -62 26 -92 7 -30 21 -68 30 -85 10 -17 29 -50 42 -74 13 -23 76 -98 140 -165 119 -126 141 -159 180 -268 20 -58 22 -81 22 -239 -1 -96 -6 -193 -12 -215 -47 -169 -62 -535 -28 -650 56 -186 203 -386 541 -735 88 -91 185 -194 214 -230 30 -36 78 -90 107 -120 29 -30 72 -81 96 -112 24 -31 71 -93 106 -137 34 -44 62 -82 62 -86 0 -3 17 -31 38 -63 21 -31 46 -77 56 -102 10 -25 22 -54 27 -65 34 -82 43 -107 55 -162 8 -35 21 -93 30 -130 48 -213 52 -677 9 -903 -36 -185 -49 -242 -81 -348 -45 -151 -112 -298 -227 -502 -49 -87 -127 -253 -140 -300 -5 -19 -12 -63 -14 -97 -4 -52 -1 -68 16 -91 37 -53 143 -78 371 -87 130 -6 227 -21 285 -45 72 -30 145 -66 192 -97 67 -42 211 -183 250 -244 111 -174 321 -372 505 -476 34 -20 43 -26 105 -66 24 -15 47 -27 52 -27 5 0 11 -4 13 -9 2 -5 59 -36 128 -68 202 -97 238 -113 303 -134 34 -11 91 -30 127 -43 36 -13 101 -31 145 -40 44 -10 108 -24 142 -33 44 -11 96 -14 170 -11 98 3 114 7 176 37 37 19 67 37 67 42 0 9 163 89 182 89 7 0 45 12 83 26 39 14 84 29 100 33 17 4 46 13 65 19 80 26 419 103 605 137 50 9 119 22 155 30 61 12 137 25 370 61 52 8 133 22 180 30 47 8 98 14 114 14 31 0 125 11 306 36 58 8 134 14 170 15 36 0 92 5 125 10 33 5 265 14 515 18 486 10 565 17 727 66 81 25 210 82 278 122 38 23 147 103 160 118 12 14 312 284 340 307 110 89 144 113 212 156 116 73 149 88 242 108 62 13 125 38 240 95 137 69 357 192 386 216 28 23 154 103 163 103 6 0 12 3 14 8 3 7 174 124 193 131 5 2 29 17 52 32 23 16 44 29 48 29 3 0 18 8 33 19 80 55 178 113 272 161 293 149 335 170 343 170 4 0 32 11 60 24 29 13 88 38 131 56 44 18 87 36 95 41 31 16 262 85 381 113 195 46 250 60 300 75 30 10 84 26 120 37 36 10 76 24 90 31 14 7 30 13 37 13 7 0 27 6 45 14 18 8 53 22 78 31 81 32 238 99 290 125 93 46 258 135 282 151 14 11 29 19 32 19 6 0 186 120 196 130 3 3 28 22 56 42 69 48 120 94 244 218 126 125 177 185 249 294 206 312 254 597 168 986 -28 124 -89 280 -109 280 -5 0 -8 6 -9 13 -1 21 -76 78 -131 99 -111 42 -245 57 -523 58 -358 1 -761 25 -815 49 -21 9 -17 10 25 6 410 -36 1015 -28 1159 15 35 11 38 13 21 23 -30 17 -389 36 -684 37 -334 0 -659 -20 -646 -39 2 -5 26 -12 51 -16 27 -4 43 -10 38 -15 -10 -10 -101 10 -214 47 -41 13 -88 28 -105 33 -154 43 -582 251 -840 407 -11 7 -26 15 -34 19 -7 4 -64 37 -125 74 -61 36 -118 69 -126 73 -14 7 -66 39 -378 234 -174 109 -782 517 -907 609 -33 24 -82 60 -110 79 -27 19 -81 60 -120 90 -38 30 -95 74 -125 97 -30 23 -57 44 -60 48 -3 3 -48 41 -100 84 -116 96 -409 390 -430 431 -8 17 -27 48 -41 70 -14 22 -31 58 -38 80 -29 96 -49 174 -60 235 -6 36 -17 106 -26 155 -42 250 -49 378 -49 815 1 336 5 444 17 515 8 50 18 119 22 155 6 63 52 255 75 315 6 17 32 56 56 88 44 55 45 59 34 92 -6 19 -30 51 -53 70 -41 36 -259 165 -277 165 -6 0 -10 4 -10 9 0 5 -10 13 -22 16 -13 4 -39 14 -58 22 -44 19 -99 43 -125 53 -11 4 -37 15 -57 24 -21 9 -55 23 -75 32 -61 26 -73 31 -178 75 -86 36 -347 164 -394 194 -9 6 -50 30 -91 54 -68 40 -153 97 -205 136 -11 9 -59 44 -106 78 -344 248 -736 612 -1374 1277 -72 74 -286 295 -476 490 -190 195 -374 385 -409 423 -35 37 -66 67 -69 66 -3 0 -15 -5 -26 -10z"/>
 <path d="M6234 14133 c56 -160 176 -316 506 -657 214 -221 801 -770 994 -930 39 -32 78 -66 86 -75 8 -10 46 -41 84 -71 38 -29 76 -59 85 -66 79 -65 194 -142 226 -150 50 -12 36 12 -106 183 -70 85 -629 633 -646 633 -2 0 -14 10 -26 23 -12 13 -58 54 -102 92 -44 38 -90 79 -102 92 -12 13 -26 23 -32 23 -5 0 -11 4 -13 8 -1 5 -52 53 -112 106 -156 141 -174 159 -514 496 -169 168 -315 311 -325 319 -16 13 -16 11 -3 -26z"/>
 <path d="M8986 10823 c-3 -16 -10 -145 -16 -288 -11 -263 2 -752 20 -784 29 -53 77 444 66 684 -14 301 -49 493 -70 388z"/>
 <path d="M9307 10468 c-16 -57 -33 -233 -41 -418 -9 -192 19 -515 55 -647 12 -43 23 -87 26 -98 16 -65 60 -122 86 -112 8 3 24 34 36 69 32 94 41 422 17 615 -49 395 -107 643 -151 643 -8 0 -20 -23 -28 -52z"/>
 <path d="M13274 6841 c-60 -4 -119 -13 -130 -19 -18 -10 -17 -11 10 -22 16 -6 76 -18 134 -26 137 -20 657 -15 765 8 94 21 101 32 30 49 -49 12 -665 20 -809 10z"/>
 </g>
<g id="layer103" fill="#2c82c9" stroke="none">
 <path d="M5115 14439 c-11 -5 -51 -27 -90 -49 -38 -23 -83 -48 -100 -56 -16 -8 -43 -23 -60 -34 -16 -11 -43 -26 -60 -34 -16 -8 -61 -33 -100 -56 -38 -22 -77 -43 -85 -47 -8 -3 -72 -39 -142 -80 -70 -40 -129 -73 -131 -73 -4 0 -243 -134 -267 -150 -8 -5 -28 -16 -45 -25 -16 -8 -48 -26 -70 -40 -22 -13 -47 -28 -55 -32 -8 -4 -31 -16 -50 -29 -19 -12 -80 -48 -135 -80 -55 -33 -107 -63 -116 -69 -9 -5 -36 -21 -60 -34 -211 -114 -544 -376 -655 -514 -32 -39 -61 -74 -65 -77 -4 -3 -13 -17 -18 -30 -6 -14 -21 -41 -32 -60 -21 -35 -63 -137 -79 -195 -15 -52 -97 -280 -108 -300 -16 -29 -62 -133 -62 -139 0 -11 -61 -137 -197 -411 -135 -272 -171 -343 -289 -558 -35 -65 -64 -122 -64 -128 0 -5 -4 -9 -10 -9 -5 0 -10 -5 -10 -11 0 -6 -20 -45 -45 -86 -25 -40 -45 -75 -45 -77 0 -7 -135 -238 -253 -435 -64 -106 -117 -195 -117 -197 0 -2 -20 -33 -45 -70 -25 -36 -45 -68 -45 -70 0 -3 -13 -24 -29 -47 -15 -23 -86 -127 -155 -232 -70 -104 -147 -217 -171 -250 -24 -33 -83 -118 -132 -190 -48 -71 -91 -132 -94 -135 -17 -14 -146 -265 -174 -340 -9 -25 -23 -59 -30 -75 -7 -17 -18 -57 -25 -90 -6 -33 -18 -88 -26 -122 -18 -79 -18 -231 0 -280 7 -21 19 -62 26 -92 7 -30 21 -68 30 -85 10 -17 29 -50 42 -74 13 -23 76 -98 140 -165 119 -126 141 -159 180 -268 20 -58 22 -81 22 -239 -1 -96 -6 -193 -12 -215 -47 -169 -62 -535 -28 -650 56 -186 203 -386 541 -735 88 -91 185 -194 214 -230 30 -36 78 -90 107 -120 29 -30 72 -81 96 -112 24 -31 71 -93 106 -137 34 -44 62 -82 62 -86 0 -3 17 -31 38 -63 21 -31 46 -77 56 -102 10 -25 22 -54 27 -65 34 -82 43 -107 55 -162 8 -35 21 -93 30 -130 48 -213 52 -677 9 -903 -36 -185 -49 -242 -81 -348 -45 -151 -112 -298 -227 -502 -49 -87 -127 -253 -140 -300 -5 -19 -12 -63 -14 -97 -4 -52 -1 -68 16 -91 37 -53 143 -78 371 -87 130 -6 227 -21 285 -45 72 -30 145 -66 192 -97 67 -42 211 -183 250 -244 111 -174 321 -372 505 -476 34 -20 43 -26 105 -66 24 -15 47 -27 52 -27 5 0 11 -4 13 -9 2 -5 59 -36 128 -68 202 -97 238 -113 303 -134 34 -11 91 -30 127 -43 36 -13 101 -31 145 -40 44 -10 108 -24 142 -33 44 -11 96 -14 170 -11 98 3 114 7 176 37 37 19 67 37 67 42 0 9 163 89 182 89 7 0 45 12 83 26 39 14 84 29 100 33 17 4 46 13 65 19 80 26 419 103 605 137 50 9 119 22 155 30 61 12 137 25 370 61 52 8 133 22 180 30 47 8 98 14 114 14 31 0 125 11 306 36 58 8 134 14 170 15 36 0 92 5 125 10 33 5 265 14 515 18 486 10 565 17 727 66 81 25 210 82 278 122 38 23 147 103 160 118 12 14 312 284 340 307 110 89 144 113 212 156 116 73 149 88 242 108 62 13 125 38 240 95 137 69 357 192 386 216 28 23 154 103 163 103 6 0 12 3 14 8 3 7 174 124 193 131 5 2 29 17 52 32 23 16 44 29 48 29 3 0 18 8 33 19 80 55 178 113 272 161 293 149 335 170 343 170 4 0 32 11 60 24 29 13 88 38 131 56 44 18 87 36 95 41 31 16 262 85 381 113 195 46 250 60 300 75 30 10 84 26 120 37 36 10 76 24 90 31 14 7 30 13 37 13 7 0 27 6 45 14 18 8 53 22 78 31 81 32 238 99 290 125 93 46 258 135 282 151 14 11 29 19 32 19 6 0 186 120 196 130 3 3 28 22 56 42 69 48 120 94 244 218 126 125 177 185 249 294 206 312 254 597 168 986 -28 124 -89 280 -109 280 -5 0 -8 6 -9 13 -1 21 -76 78 -131 99 -111 42 -245 57 -523 58 -321 1 -701 22 -820 45 -94 18 -179 40 -245 62 -41 13 -88 28 -105 33 -154 43 -582 251 -840 407 -11 7 -26 15 -34 19 -7 4 -64 37 -125 74 -61 36 -118 69 -126 73 -14 7 -66 39 -378 234 -174 109 -782 517 -907 609 -33 24 -82 60 -110 79 -27 19 -81 60 -120 90 -38 30 -95 74 -125 97 -30 23 -57 44 -60 48 -3 3 -48 41 -100 84 -116 96 -409 390 -430 431 -8 17 -27 48 -41 70 -14 22 -31 58 -38 80 -29 96 -49 174 -60 235 -6 36 -17 106 -26 155 -42 250 -49 378 -49 815 1 336 5 444 17 515 8 50 18 119 22 155 6 63 52 255 75 315 6 17 32 56 56 88 44 55 45 59 34 92 -6 19 -30 51 -53 70 -41 36 -259 165 -277 165 -6 0 -10 4 -10 9 0 5 -10 13 -22 16 -13 4 -39 14 -58 22 -44 19 -99 43 -125 53 -11 4 -37 15 -57 24 -21 9 -55 23 -75 32 -61 26 -73 31 -178 75 -86 36 -347 164 -394 194 -9 6 -50 30 -91 54 -68 40 -153 97 -205 136 -11 9 -59 44 -106 78 -344 248 -736 612 -1374 1277 -72 74 -286 295 -476 490 -190 195 -374 385 -409 423 -35 37 -66 67 -69 66 -3 0 -15 -5 -26 -10z"/>
 <path d="M6660 13619 c0 -30 90 -131 349 -390 157 -157 333 -326 389 -375 131 -112 217 -187 262 -228 299 -268 544 -456 566 -433 9 8 -16 46 -87 132 -80 98 -657 675 -676 675 -2 0 -14 10 -26 23 -12 13 -58 54 -102 92 -44 38 -90 79 -102 92 -12 13 -24 23 -27 23 -3 0 -22 16 -43 35 -21 19 -43 35 -50 35 -7 0 -16 6 -20 13 -4 8 -35 35 -68 61 -33 27 -76 61 -96 77 -20 17 -49 40 -66 52 -17 12 -46 34 -64 48 -32 25 -124 79 -134 79 -3 0 -5 -5 -5 -11z"/>
 </g>
<g id="layer104" fill="#929292" stroke="none">
 <path d="M6660 13619 c0 -30 90 -131 349 -390 157 -157 333 -326 389 -375 131 -112 217 -187 262 -228 299 -268 544 -456 566 -433 9 8 -16 46 -87 132 -80 98 -657 675 -676 675 -2 0 -14 10 -26 23 -12 13 -58 54 -102 92 -44 38 -90 79 -102 92 -12 13 -24 23 -27 23 -3 0 -22 16 -43 35 -21 19 -43 35 -50 35 -7 0 -16 6 -20 13 -4 8 -35 35 -68 61 -33 27 -76 61 -96 77 -20 17 -49 40 -66 52 -17 12 -46 34 -64 48 -32 25 -124 79 -134 79 -3 0 -5 -5 -5 -11z"/>
 </g>

</svg>