<!DOCTYPE svg PUBLIC "-//W3C//DTD SVG 20010904//EN" "http://www.w3.org/TR/2001/REC-SVG-20010904/DTD/svg10.dtd">
<svg version="1.0" xmlns="http://www.w3.org/2000/svg" width="990px" height="1600px" viewBox="0 0 9900 16000" preserveAspectRatio="xMidYMid meet">
<g id="layer101" fill="#040404" stroke="none">
 <path d="M3795 15516 c-5 -2 -37 -10 -70 -17 -33 -7 -76 -24 -95 -37 -34 -23 -121 -110 -168 -168 -23 -27 -125 -176 -147 -212 -5 -10 -12 -19 -15 -22 -11 -10 -80 -132 -80 -141 0 -5 -4 -9 -9 -9 -5 0 -12 -8 -15 -17 -3 -10 -12 -27 -19 -38 -6 -11 -27 -47 -46 -80 -19 -33 -37 -62 -40 -65 -3 -3 -16 -25 -29 -50 -12 -25 -27 -52 -32 -60 -5 -8 -24 -44 -41 -80 -17 -36 -53 -105 -80 -155 -27 -49 -53 -99 -58 -110 -5 -11 -19 -43 -31 -70 -13 -28 -50 -106 -82 -175 -96 -202 -138 -296 -138 -305 0 -4 -6 -21 -14 -38 -7 -18 -28 -68 -46 -112 -18 -44 -38 -93 -45 -110 -25 -58 -44 -111 -71 -195 -15 -47 -33 -100 -40 -118 -8 -18 -14 -39 -14 -47 0 -8 -6 -29 -14 -47 -14 -31 -28 -81 -56 -193 -7 -27 -16 -103 -20 -167 -9 -135 -22 -197 -58 -288 -30 -74 -134 -220 -158 -220 -3 0 -16 -13 -30 -29 -13 -16 -47 -43 -74 -61 -28 -18 -50 -36 -50 -41 0 -5 -4 -9 -9 -9 -8 0 -92 -52 -126 -78 -5 -4 -28 -16 -50 -27 -22 -11 -42 -22 -45 -25 -6 -6 -50 -29 -703 -362 -50 -26 -98 -48 -104 -48 -7 0 -13 -3 -13 -8 0 -4 -23 -18 -52 -32 l-51 -24 6 -1541 c5 -1277 9 -1572 22 -1725 11 -130 16 -298 15 -565 0 -320 2 -395 17 -473 17 -92 17 -94 44 -90 24 4 27 0 38 -45 6 -27 11 -58 11 -70 0 -11 7 -50 15 -86 8 -36 22 -97 31 -136 48 -217 150 -545 218 -699 14 -32 26 -64 26 -71 0 -7 7 -18 15 -25 8 -7 15 -19 15 -27 0 -16 115 -253 159 -328 17 -27 36 -61 44 -75 62 -114 84 -150 108 -181 16 -20 29 -40 29 -43 0 -6 38 -64 50 -76 3 -3 10 -14 17 -26 10 -19 268 -371 293 -401 5 -7 10 -15 10 -18 0 -3 8 -14 18 -24 28 -31 49 -62 78 -116 9 -16 30 -46 45 -66 16 -20 29 -41 29 -47 0 -6 3 -12 8 -14 10 -5 52 -66 52 -77 0 -5 3 -11 8 -13 10 -4 45 -56 65 -98 10 -19 26 -48 37 -65 19 -31 44 -74 76 -135 11 -19 22 -37 26 -40 4 -3 12 -17 18 -30 6 -14 24 -47 40 -75 16 -27 32 -57 36 -65 10 -22 72 -148 99 -200 26 -48 142 -292 155 -325 5 -11 18 -42 30 -70 12 -27 26 -59 31 -70 4 -11 16 -45 25 -75 9 -30 21 -59 25 -64 5 -6 9 -19 9 -31 0 -12 7 -30 15 -41 8 -10 15 -28 15 -40 0 -11 4 -24 9 -30 5 -5 21 -40 34 -79 14 -38 35 -95 47 -125 11 -30 28 -75 36 -100 38 -111 229 -486 264 -520 9 -8 30 -44 40 -67 5 -13 14 -23 20 -23 5 0 10 -5 10 -11 0 -23 146 -155 205 -185 110 -57 230 -61 355 -13 39 15 143 79 148 91 2 5 10 8 18 8 8 0 14 5 14 10 0 6 4 10 9 10 10 0 56 38 108 88 19 17 36 32 38 32 2 0 20 15 38 34 19 19 53 46 76 61 22 15 41 32 41 36 0 5 7 9 15 9 8 0 15 3 15 8 0 13 87 54 107 50 36 -7 18 -138 -38 -268 -24 -54 -37 -87 -54 -130 -10 -25 -23 -58 -30 -75 -14 -32 -23 -54 -50 -125 -10 -25 -23 -58 -30 -75 -40 -95 -53 -156 -62 -289 -8 -132 22 -277 76 -367 12 -19 24 -42 27 -52 4 -9 10 -17 15 -17 5 0 9 -5 9 -11 0 -16 119 -129 136 -129 8 0 14 -3 14 -8 0 -7 54 -37 120 -65 113 -48 278 -61 371 -28 59 20 156 67 234 111 28 16 60 34 73 39 12 6 22 15 22 21 0 5 5 10 10 10 12 0 73 41 78 53 2 4 10 7 18 7 8 0 14 3 14 8 0 4 18 18 40 32 22 13 40 28 40 32 0 4 4 8 9 8 5 0 20 9 33 20 37 31 152 123 188 150 94 70 165 128 209 170 14 14 60 54 101 90 41 35 87 77 102 92 15 15 29 28 32 28 22 0 585 552 771 755 60 66 126 137 147 157 21 21 38 40 38 43 0 3 17 22 38 43 21 20 53 57 72 82 18 25 38 50 44 55 6 6 40 46 75 90 35 44 68 82 72 83 5 2 9 10 9 18 0 8 3 14 8 14 14 0 222 280 222 300 0 4 3 10 8 12 9 4 71 109 99 168 69 146 93 202 93 215 0 7 4 16 10 20 5 3 14 20 19 38 5 18 19 57 31 87 30 78 80 232 80 247 0 7 6 27 14 45 18 42 99 302 122 388 9 36 22 85 29 110 7 25 18 70 24 100 12 54 29 125 56 225 14 55 34 145 60 270 9 44 23 109 30 145 8 36 19 92 25 125 7 33 18 89 25 125 8 36 21 108 30 160 9 52 22 131 30 175 7 44 21 127 30 185 9 58 23 141 30 185 14 79 32 211 56 411 10 86 15 102 33 110 15 6 27 29 41 79 17 63 19 108 22 425 1 195 10 535 19 755 17 424 15 1025 -7 1310 -20 274 -66 411 -145 431 -32 8 -107 0 -213 -24 -76 -17 -91 -17 -145 -5 -77 17 -114 35 -201 99 -72 52 -245 225 -245 243 0 6 -3 11 -8 11 -4 0 -25 23 -47 51 -22 28 -45 56 -50 63 -58 65 -342 472 -391 561 -9 17 -30 46 -45 66 -16 20 -29 42 -29 48 0 6 -4 11 -9 11 -5 0 -14 14 -21 30 -7 17 -16 30 -21 30 -5 0 -9 5 -9 11 0 6 -13 28 -29 48 -16 20 -37 53 -47 74 -10 20 -21 37 -26 37 -4 0 -8 4 -8 9 0 8 -33 65 -92 159 -45 73 -182 339 -204 397 -65 172 -65 283 -2 400 20 38 181 205 197 205 6 0 11 3 11 8 0 4 20 21 45 37 24 17 45 33 45 38 0 4 7 7 15 7 8 0 15 4 15 9 0 4 19 21 43 36 87 58 237 242 237 292 0 10 5 24 10 29 6 6 13 39 16 75 7 87 -18 154 -88 235 -29 33 -60 65 -69 70 -69 38 -172 83 -214 92 -27 7 -80 19 -116 27 -36 8 -102 15 -146 15 -142 0 -452 29 -483 45 -16 8 -35 15 -43 15 -21 0 -86 67 -93 97 -4 15 -2 45 5 67 24 78 31 150 21 205 -12 68 -72 171 -99 171 -6 0 -11 4 -11 10 0 14 -79 46 -132 53 -64 9 -144 -8 -184 -38 -18 -14 -35 -25 -38 -25 -17 0 -101 -106 -111 -140 -4 -14 -11 -29 -15 -35 -5 -5 -15 -46 -23 -90 -14 -70 -14 -89 -1 -155 7 -41 28 -103 46 -139 57 -114 44 -147 -77 -193 -55 -21 -75 -23 -255 -23 -151 1 -212 5 -270 19 -108 25 -180 46 -218 62 -18 8 -37 14 -43 14 -6 0 -35 11 -65 25 -30 14 -59 25 -65 25 -16 0 -136 126 -144 151 -4 13 -13 31 -19 39 -24 29 -36 152 -25 242 9 77 36 183 59 236 6 12 14 32 19 45 14 34 109 225 146 292 18 33 55 103 81 155 45 90 48 99 48 179 1 59 -3 86 -11 88 -7 3 -13 10 -13 16 0 7 -24 23 -52 36 -57 26 -168 99 -168 109 0 4 -16 25 -35 47 -19 22 -35 45 -35 52 0 6 -8 26 -17 45 -9 18 -20 41 -25 51 -5 10 -13 55 -19 100 -25 208 -40 264 -85 324 -13 17 -24 34 -24 38 0 6 -23 29 -74 72 -14 12 -56 36 -93 54 -61 29 -78 32 -188 35 -66 2 -124 2 -130 0z"/>
 </g>
<g id="layer102" fill="#686868" stroke="none">
 <path d="M3430 13888 c-131 -57 -153 -72 -245 -160 -313 -299 -514 -812 -515 -1313 0 -106 -24 -274 -53 -375 -35 -121 -141 -261 -254 -336 -32 -21 -60 -40 -63 -44 -3 -3 -65 -37 -138 -74 -149 -75 -220 -118 -272 -165 -19 -17 -56 -48 -82 -68 -26 -20 -62 -58 -80 -85 -46 -66 -58 -69 -58 -10 0 58 -26 151 -44 158 -17 7 -26 1 -321 -205 -265 -186 -393 -319 -478 -499 -38 -81 -41 -94 -45 -190 -4 -97 7 -162 28 -162 11 0 57 63 74 101 8 19 21 50 30 71 9 20 16 39 16 43 0 13 113 230 125 240 7 5 26 31 43 56 32 48 100 109 163 147 45 27 124 30 155 4 70 -56 70 -137 -1 -387 -4 -11 -2 -33 4 -48 8 -21 17 -27 41 -27 16 0 30 -3 30 -6 0 -3 -16 -53 -36 -112 -86 -260 -98 -416 -91 -1152 8 -701 15 -862 63 -1315 8 -77 14 -162 14 -189 0 -27 6 -90 14 -140 8 -50 21 -152 30 -226 32 -263 58 -435 97 -635 11 -60 23 -123 25 -140 8 -53 36 -169 50 -210 8 -23 14 -47 14 -56 0 -31 90 -250 158 -384 70 -136 94 -181 151 -275 15 -25 31 -52 35 -60 13 -28 50 -85 178 -279 27 -41 47 -75 45 -77 -2 -2 -25 28 -53 66 -100 142 -124 175 -132 185 -4 6 -30 46 -57 90 -27 44 -52 82 -56 85 -3 3 -39 71 -79 152 -73 148 -105 195 -114 167 -12 -37 -13 -108 -4 -162 11 -63 147 -346 219 -457 90 -138 127 -197 143 -225 9 -16 26 -43 39 -60 56 -75 154 -213 170 -238 10 -16 25 -36 33 -45 7 -9 24 -31 36 -48 23 -31 103 -134 203 -260 102 -128 245 -291 315 -359 54 -53 80 -88 106 -143 19 -41 34 -75 34 -77 0 -2 15 -36 34 -77 19 -40 46 -104 59 -143 14 -38 35 -95 47 -125 12 -30 26 -68 31 -85 5 -16 13 -39 18 -50 16 -35 38 -107 66 -210 39 -147 148 -476 194 -586 41 -99 69 -154 102 -201 11 -14 19 -31 19 -36 0 -6 26 -37 58 -70 58 -58 87 -72 151 -72 40 0 95 18 117 38 66 61 234 177 305 210 105 49 160 67 273 87 154 26 267 14 348 -39 67 -44 93 -195 68 -401 -5 -44 -16 -145 -25 -225 -9 -80 -22 -190 -30 -245 -8 -55 -19 -147 -25 -205 -7 -58 -18 -152 -26 -210 -22 -166 -22 -181 -6 -175 35 13 586 334 655 382 43 29 80 53 82 53 7 0 168 112 210 145 22 17 90 69 150 115 61 46 119 92 130 104 11 12 69 64 130 116 140 121 393 374 515 515 52 61 103 119 113 130 11 11 33 38 49 60 16 22 40 54 53 70 46 56 180 244 209 292 16 26 39 64 51 83 12 19 30 49 41 65 44 72 168 325 184 380 11 33 37 112 59 175 40 116 78 252 111 390 10 41 29 118 42 170 14 52 33 129 42 170 35 153 45 197 61 275 9 44 23 105 30 135 7 30 19 87 25 125 7 39 18 99 25 135 7 36 20 102 29 148 9 45 23 119 32 165 9 45 22 111 29 147 7 36 21 110 30 165 9 55 23 136 30 180 8 44 19 114 25 155 6 41 17 111 25 155 16 93 38 241 60 410 9 66 23 158 30 205 8 47 21 147 30 223 8 75 22 197 30 270 22 202 35 380 43 627 5 159 10 210 15 175 31 -209 65 -360 82 -360 11 0 36 129 59 310 18 137 21 442 6 495 -6 19 -15 58 -20 87 -18 106 -84 205 -125 189 -9 -3 -23 -23 -32 -43 -13 -31 -15 -73 -11 -243 2 -113 1 -189 -3 -170 -19 99 -98 323 -131 366 -4 6 -22 37 -39 68 -56 107 -243 362 -319 436 -14 15 -59 66 -100 115 -41 49 -84 99 -95 110 -11 11 -53 60 -93 108 -41 48 -81 95 -91 105 -10 9 -44 53 -77 97 -33 44 -73 97 -90 119 -94 124 -123 165 -211 296 -54 80 -100 150 -103 155 -3 6 -26 42 -51 81 -26 39 -66 106 -89 150 -23 43 -64 120 -90 169 -98 180 -218 480 -263 660 -37 145 -47 302 -26 395 9 42 68 199 88 238 44 82 81 208 73 248 -3 16 -15 29 -31 36 -52 20 -390 63 -581 73 -52 3 -180 12 -285 20 -250 19 -467 31 -880 50 -497 22 -758 35 -861 42 l-91 6 4 51 c4 61 27 294 48 496 19 182 22 429 5 490 -38 140 -102 190 -237 189 -43 0 -89 -5 -103 -11z"/>
 <path d="M1232 9865 c-34 -125 -34 -1339 0 -1445 l11 -35 12 46 c29 110 40 317 40 719 0 408 -13 643 -40 720 l-12 35 -11 -40z"/>
 <path d="M8642 8963 c-33 -65 -47 -481 -22 -668 18 -139 42 -161 75 -67 46 133 41 620 -7 720 -16 32 -34 38 -46 15z"/>
 <path d="M842 7828 c-43 -54 -60 -528 -25 -710 15 -77 19 -88 38 -88 23 0 34 31 55 155 31 186 17 517 -27 618 -17 40 -25 44 -41 25z"/>
 <path d="M8646 7617 c-21 -33 -47 -552 -36 -717 9 -132 25 -248 35 -258 16 -16 42 21 59 84 17 60 20 110 23 385 4 323 5 319 -34 496 -7 31 -31 36 -47 10z"/>
 </g>
<g id="layer103" fill="#2c82c9" stroke="none">
 <path d="M3430 13888 c-131 -57 -153 -72 -245 -160 -313 -299 -514 -812 -515 -1313 0 -106 -24 -274 -53 -375 -35 -121 -141 -261 -254 -336 -32 -21 -60 -40 -63 -44 -3 -3 -65 -37 -138 -74 -131 -66 -226 -122 -253 -149 -8 -7 -44 -38 -81 -68 -37 -31 -82 -75 -99 -100 -18 -24 -38 -47 -44 -51 -7 -4 -16 -38 -19 -75 -26 -271 -80 -477 -143 -544 -14 -16 -41 -76 -64 -145 -91 -271 -103 -419 -96 -1164 8 -701 15 -862 63 -1315 8 -77 14 -162 14 -189 0 -27 6 -90 14 -140 8 -50 21 -152 30 -226 32 -263 58 -435 97 -635 11 -60 23 -123 25 -140 8 -53 36 -169 50 -210 8 -23 14 -47 14 -56 0 -31 90 -250 158 -384 70 -136 94 -181 151 -275 15 -25 31 -52 35 -60 13 -29 17 -34 194 -304 36 -54 119 -171 184 -260 66 -89 135 -184 153 -211 18 -28 40 -57 49 -64 9 -7 16 -18 16 -23 0 -5 31 -51 69 -101 37 -51 80 -110 94 -132 15 -22 45 -65 66 -95 22 -30 58 -86 81 -125 22 -38 50 -83 60 -100 11 -16 22 -37 26 -45 3 -8 12 -30 20 -48 8 -18 14 -42 14 -53 0 -17 -3 -18 -21 -9 -29 16 -34 6 -16 -32 9 -18 24 -53 35 -78 11 -25 31 -70 45 -100 14 -30 37 -86 50 -125 14 -38 35 -95 47 -125 12 -30 26 -68 31 -85 5 -16 13 -39 18 -50 16 -35 38 -107 66 -210 39 -147 148 -476 194 -586 41 -99 69 -154 102 -201 11 -14 19 -31 19 -36 0 -6 26 -37 58 -70 58 -58 87 -72 151 -72 40 0 95 18 117 38 66 61 234 177 305 210 105 49 160 67 273 87 154 26 267 14 348 -39 67 -44 93 -195 68 -401 -5 -44 -16 -145 -25 -225 -9 -80 -22 -190 -30 -245 -8 -55 -19 -147 -25 -205 -7 -58 -18 -152 -26 -210 -22 -166 -22 -181 -6 -175 35 13 586 334 655 382 43 29 80 53 82 53 7 0 168 112 210 145 22 17 90 69 150 115 61 46 119 92 130 104 11 12 69 64 130 116 140 121 393 374 515 515 52 61 103 119 113 130 11 11 33 38 49 60 16 22 40 54 53 70 46 56 180 244 209 292 16 26 39 64 51 83 12 19 30 49 41 65 44 72 168 325 184 380 11 33 37 112 59 175 40 116 78 252 111 390 10 41 29 118 42 170 14 52 33 129 42 170 35 153 45 197 61 275 9 44 23 105 30 135 7 30 19 87 25 125 7 39 18 99 25 135 7 36 20 102 29 148 9 45 23 119 32 165 9 45 22 111 29 147 7 36 21 110 30 165 9 55 23 136 30 180 8 44 19 114 25 155 6 41 17 111 25 155 16 93 38 241 60 410 9 66 23 158 30 205 19 117 67 544 84 745 17 196 23 522 12 647 -12 147 -49 298 -103 425 -23 54 -45 103 -50 109 -4 6 -22 37 -39 68 -56 107 -243 362 -319 436 -14 15 -59 66 -100 115 -41 49 -84 99 -95 110 -11 11 -53 60 -93 108 -41 48 -81 95 -91 105 -10 9 -44 53 -77 97 -33 44 -73 97 -90 119 -94 124 -123 165 -211 296 -54 80 -100 150 -103 155 -3 6 -26 42 -51 81 -26 39 -66 106 -89 150 -23 43 -64 120 -90 169 -98 180 -218 480 -263 660 -37 145 -47 302 -26 395 9 42 68 199 88 238 44 82 81 208 73 248 -3 16 -15 29 -31 36 -52 20 -390 63 -581 73 -52 3 -180 12 -285 20 -250 19 -467 31 -880 50 -497 22 -758 35 -861 42 l-91 6 4 51 c4 61 27 294 48 496 19 182 22 429 5 490 -38 140 -102 190 -237 189 -43 0 -89 -5 -103 -11z"/>
 <path d="M1231 9755 c-19 -66 -31 -579 -20 -900 9 -284 14 -341 29 -350 11 -7 28 66 42 180 17 144 16 778 -1 925 -8 63 -19 131 -26 150 l-12 35 -12 -40z"/>
 <path d="M8643 7438 c-35 -55 -46 -533 -16 -700 25 -139 50 -132 84 23 19 86 21 114 15 319 -4 154 -11 244 -21 284 -21 79 -42 104 -62 74z"/>
 </g>
<g id="layer104" fill="#8a8a8a" stroke="none">
 <path d="M1231 9755 c-19 -66 -31 -579 -20 -900 9 -284 14 -341 29 -350 11 -7 28 66 42 180 17 144 16 778 -1 925 -8 63 -19 131 -26 150 l-12 35 -12 -40z"/>
 <path d="M8643 7438 c-35 -55 -46 -533 -16 -700 25 -139 50 -132 84 23 19 86 21 114 15 319 -4 154 -11 244 -21 284 -21 79 -42 104 -62 74z"/>
 </g>

</svg>