<!DOCTYPE svg PUBLIC "-//W3C//DTD SVG 20010904//EN" "http://www.w3.org/TR/2001/REC-SVG-20010904/DTD/svg10.dtd">
<svg version="1.0" xmlns="http://www.w3.org/2000/svg" width="1600px" height="1451px" viewBox="0 0 16000 14510" preserveAspectRatio="xMidYMid meet">
<g id="layer101" fill="#010101" stroke="none">
 <path d="M2825 14071 c-177 -14 -252 -37 -316 -96 -56 -53 -119 -82 -230 -109 -110 -26 -190 -35 -339 -41 -200 -8 -306 -22 -443 -59 -121 -33 -138 -52 -164 -176 -16 -76 -18 -152 -18 -740 0 -374 5 -762 12 -905 7 -137 17 -385 23 -550 17 -479 39 -923 51 -1015 65 -512 257 -657 922 -692 172 -9 343 -9 800 2 872 21 1255 23 1387 10 320 -31 406 -76 460 -240 45 -137 59 -458 27 -615 -50 -247 -160 -449 -345 -631 -44 -44 -89 -87 -101 -97 -45 -37 -170 -127 -176 -127 -3 0 -29 -15 -58 -33 -29 -18 -99 -57 -157 -86 -283 -144 -428 -244 -568 -390 -123 -128 -214 -278 -242 -400 -24 -104 3 -215 69 -281 66 -66 161 -94 376 -110 277 -20 574 -129 812 -297 178 -126 542 -253 730 -253 66 0 138 -17 233 -53 88 -33 310 -150 350 -183 8 -7 26 -19 40 -26 62 -34 348 -231 440 -304 277 -219 488 -390 510 -414 3 -3 68 -59 145 -125 156 -133 179 -153 203 -175 15 -14 43 -37 145 -120 10 -8 27 -22 37 -30 63 -53 103 -85 160 -130 36 -28 73 -58 83 -66 65 -54 443 -335 547 -407 120 -83 419 -276 450 -290 8 -4 38 -21 65 -37 50 -30 84 -47 200 -100 110 -50 150 -68 210 -93 220 -94 350 -188 414 -301 74 -129 90 -233 96 -641 9 -502 27 -721 79 -931 95 -383 280 -615 573 -720 131 -47 215 -58 438 -59 266 0 306 10 361 90 12 17 26 51 32 77 23 90 9 447 -27 728 -6 41 -15 127 -21 190 -6 63 -18 167 -25 230 -8 63 -19 165 -25 225 -6 61 -17 162 -25 225 -8 63 -17 150 -21 193 l-6 77 288 0 c625 0 913 44 1174 177 122 62 189 78 311 70 88 -6 173 -29 262 -73 306 -150 1110 -274 1772 -274 359 0 602 55 708 160 66 66 87 186 53 301 l-16 54 29 -35 c96 -115 97 -109 6 24 -33 48 -81 129 -107 179 -64 124 -109 193 -277 430 -149 209 -291 416 -291 424 0 3 -13 23 -29 46 -61 90 -74 114 -185 329 -43 84 -88 180 -101 213 -12 33 -36 96 -53 140 -97 255 -167 561 -216 945 -32 250 -55 574 -66 942 -5 167 -9 1038 -10 1935 l0 1633 -29 -18 c-62 -36 -336 -198 -356 -209 -11 -7 -27 -15 -35 -19 -28 -14 -115 -67 -157 -95 -23 -16 -44 -29 -47 -29 -7 0 -190 -130 -228 -162 -14 -13 -35 -30 -45 -38 -123 -104 -343 -336 -343 -363 0 -16 -68 -113 -115 -165 -101 -110 -199 -165 -341 -187 -193 -32 -336 -138 -464 -345 -83 -135 -143 -181 -170 -131 -34 65 13 212 130 406 16 28 33 56 36 64 17 33 182 273 236 341 33 41 65 82 71 90 7 8 35 44 62 80 44 57 79 99 220 259 153 175 286 305 422 414 89 70 150 102 225 116 77 14 125 40 197 106 50 47 141 169 141 190 0 3 15 29 34 58 86 131 177 186 350 211 85 12 125 24 191 55 194 94 374 288 415 449 24 90 -4 144 -96 190 -80 40 -173 159 -202 259 -7 22 -19 92 -27 154 -17 127 -24 151 -78 264 -73 150 -203 309 -362 440 -95 78 -195 175 -274 266 -90 103 -97 112 -151 193 -47 70 -65 103 -130 238 -76 157 -226 235 -460 239 -442 8 -1003 -273 -1228 -615 -67 -101 -96 -174 -107 -267 -7 -61 0 -76 54 -103 97 -51 279 -73 748 -91 219 -8 425 -20 458 -25 237 -41 346 -95 380 -191 15 -41 15 -49 -1 -104 -17 -56 -70 -156 -111 -206 -94 -116 -191 -213 -374 -375 -68 -60 -315 -260 -369 -299 -30 -22 -57 -42 -60 -45 -3 -4 -41 -33 -85 -66 -44 -32 -82 -61 -85 -64 -3 -3 -48 -37 -100 -75 -52 -38 -97 -71 -100 -75 -3 -3 -23 -19 -45 -35 -67 -50 -486 -394 -505 -415 -3 -3 -21 -18 -40 -34 -19 -15 -53 -45 -75 -65 -22 -20 -92 -83 -155 -140 -99 -90 -239 -223 -314 -297 -26 -27 -97 -103 -206 -223 -148 -164 -231 -238 -347 -310 -156 -97 -284 -118 -416 -68 -97 37 -146 75 -287 216 -165 166 -241 207 -475 253 -98 20 -146 22 -445 24 -212 1 -357 6 -395 13 -145 29 -279 85 -425 179 -63 40 -277 203 -319 242 -9 9 -52 47 -96 85 -76 66 -108 96 -299 275 -197 186 -407 409 -576 615 -45 55 -93 112 -106 127 -43 50 -202 275 -268 380 -154 246 -239 426 -321 678 -20 63 -53 160 -72 215 -117 328 -275 595 -415 698 -110 81 -449 174 -858 236 -41 7 -115 18 -165 26 -49 8 -133 19 -185 24 -52 6 -156 17 -230 25 -304 34 -826 52 -1025 37z"/>
 </g>
<g id="layer102" fill="#666666" stroke="none">
 <path d="M3150 13669 c-140 -13 -216 -39 -265 -89 -45 -47 -118 -87 -215 -118 -134 -44 -240 -58 -530 -71 -172 -8 -215 -13 -263 -31 -123 -46 -168 -134 -188 -371 -13 -151 -5 -363 26 -719 8 -91 19 -223 25 -295 6 -71 17 -191 25 -265 8 -74 19 -187 24 -250 6 -63 17 -185 25 -270 8 -85 20 -216 26 -290 6 -74 17 -202 25 -285 8 -82 19 -213 25 -290 18 -217 27 -306 34 -312 6 -6 250 3 871 32 552 26 1332 56 1930 75 187 5 393 12 458 15 97 5 117 3 117 -9 0 -7 4 -58 10 -112 11 -114 22 -261 51 -704 38 -579 4 -900 -123 -1169 -56 -118 -109 -193 -203 -286 -149 -149 -338 -259 -715 -419 -102 -43 -378 -161 -452 -194 -21 -8 -38 -19 -38 -24 0 -4 17 -12 38 -17 20 -6 60 -18 87 -26 61 -19 281 -86 505 -154 91 -27 197 -63 236 -79 179 -75 301 -165 325 -241 40 -124 205 -177 619 -196 226 -11 387 -53 575 -151 209 -109 285 -173 759 -641 344 -340 506 -492 715 -672 47 -40 88 -76 91 -80 17 -21 328 -263 441 -343 250 -177 342 -233 524 -322 131 -63 212 -91 379 -131 203 -49 307 -84 439 -151 233 -117 378 -306 452 -590 47 -181 57 -291 66 -734 11 -555 27 -704 104 -944 85 -267 242 -436 409 -440 50 -1 51 -1 73 44 28 58 51 172 68 340 17 159 20 662 5 908 -31 540 -43 801 -37 815 4 11 18 17 37 17 l32 0 -31 -26 c-17 -14 -31 -32 -31 -39 0 -15 48 -39 113 -55 57 -15 425 -8 532 10 39 6 113 18 165 26 119 19 280 59 338 84 91 40 23 87 -145 101 -103 8 -150 19 -82 19 20 0 60 4 90 10 64 11 263 34 484 55 237 22 594 20 775 -5 271 -38 383 -67 705 -186 137 -51 345 -109 480 -135 41 -8 135 -14 225 -14 l155 0 69 34 c127 62 188 141 171 224 -14 70 -87 191 -230 382 -200 268 -306 438 -425 675 -191 382 -310 746 -405 1244 -25 135 -25 137 -9 224 12 63 16 140 16 282 -1 215 -18 340 -51 373 -19 19 -19 19 -29 1 -5 -11 -13 -37 -18 -59 -7 -39 -8 -37 -15 35 -17 156 -30 503 -39 1020 -17 982 -42 1380 -96 1552 -14 44 -35 65 -55 53 -5 -4 -23 -27 -41 -53 -81 -118 -184 -214 -378 -352 -203 -144 -511 -319 -685 -388 -28 -11 -68 -28 -90 -38 -217 -95 -422 -128 -536 -88 -69 25 -156 109 -198 191 -82 163 -100 400 -46 608 39 149 202 412 496 801 42 55 86 112 97 125 11 13 52 65 92 114 40 50 93 115 120 145 26 30 74 87 107 125 106 124 376 391 434 429 39 26 74 40 115 46 107 15 191 54 341 156 347 237 638 611 560 719 -48 64 -345 -64 -796 -345 -831 -516 -1802 -1298 -2009 -1617 -26 -39 -76 -117 -112 -173 -236 -370 -577 -541 -946 -475 -144 26 -256 66 -464 167 -244 119 -361 165 -570 223 -302 85 -543 119 -944 135 -317 12 -421 31 -542 96 -123 67 -196 160 -324 413 -125 246 -288 468 -367 499 -16 6 -53 16 -83 22 -103 20 -225 94 -370 225 -73 65 -96 88 -189 190 -302 330 -571 788 -691 1175 -147 477 -267 720 -434 885 -79 77 -148 113 -360 187 -281 97 -726 180 -1116 207 -181 12 -210 12 -350 0z"/>
 <path d="M14036 8708 c-30 -185 -38 -1007 -13 -1286 8 -84 17 -155 20 -159 14 -13 29 59 43 211 30 311 15 1110 -22 1244 -9 32 -22 27 -28 -10z"/>
 <path d="M14545 5000 c-4 -6 -9 -52 -12 -103 -7 -115 7 -165 87 -322 108 -209 234 -382 506 -695 126 -144 166 -191 285 -330 68 -80 126 -147 129 -150 3 -3 17 -21 32 -40 41 -53 91 -107 79 -85 -6 11 -36 57 -68 102 -32 44 -80 114 -108 153 -27 40 -73 104 -100 143 -28 40 -86 124 -130 187 -43 63 -103 149 -132 190 -196 280 -439 698 -514 883 -30 75 -41 88 -54 67z"/>
 </g>
<g id="layer103" fill="#2c82c9" stroke="none">
 <path d="M3150 13669 c-140 -13 -216 -39 -265 -89 -45 -47 -118 -87 -215 -118 -134 -44 -240 -58 -530 -71 -172 -8 -215 -13 -263 -31 -123 -46 -168 -134 -188 -371 -13 -151 -5 -363 26 -719 8 -91 19 -223 25 -295 6 -71 17 -191 25 -265 8 -74 19 -187 24 -250 6 -63 17 -185 25 -270 8 -85 20 -216 26 -290 6 -74 17 -202 25 -285 8 -82 19 -213 25 -290 18 -217 27 -306 34 -312 6 -6 250 3 871 32 552 26 1332 56 1930 75 187 5 393 12 458 15 97 5 117 3 117 -9 0 -7 4 -58 10 -112 11 -114 22 -261 51 -704 38 -579 4 -900 -123 -1169 -56 -118 -109 -193 -203 -286 -149 -149 -338 -259 -715 -419 -102 -43 -378 -161 -452 -194 -21 -8 -38 -19 -38 -24 0 -4 17 -12 38 -17 20 -6 60 -18 87 -26 61 -19 281 -86 505 -154 91 -27 197 -63 236 -79 179 -75 301 -165 325 -241 40 -124 205 -177 619 -196 226 -11 387 -53 575 -151 209 -109 285 -173 759 -641 344 -340 506 -492 715 -672 47 -40 88 -76 91 -80 17 -21 328 -263 441 -343 250 -177 342 -233 524 -322 131 -63 212 -91 379 -131 203 -49 307 -84 439 -151 233 -117 378 -306 452 -590 47 -181 57 -291 66 -734 11 -555 27 -704 104 -944 85 -267 242 -436 409 -440 50 -1 51 -1 73 44 28 58 51 172 68 340 17 159 20 662 5 908 -31 540 -43 801 -37 815 4 11 18 17 37 17 17 0 66 11 108 24 137 44 327 69 637 86 99 5 205 14 235 20 65 11 262 34 485 55 237 22 594 20 775 -5 271 -38 383 -67 705 -186 137 -51 345 -109 480 -135 41 -8 135 -14 225 -14 l155 0 69 34 c127 62 188 141 171 224 -14 70 -87 191 -230 382 -49 66 -126 174 -171 241 -318 464 -534 1013 -655 1658 -11 61 -23 121 -26 134 -5 23 -5 23 -20 2 -8 -11 -18 -20 -22 -20 -29 0 -52 301 -42 530 3 69 3 166 -1 215 -18 229 -29 542 -38 1035 -17 982 -42 1380 -96 1552 -14 44 -35 65 -55 53 -5 -4 -23 -27 -41 -53 -81 -118 -184 -214 -378 -352 -203 -144 -511 -319 -685 -388 -28 -11 -68 -28 -90 -38 -217 -95 -422 -128 -536 -88 -69 25 -156 109 -198 191 -82 163 -100 400 -46 608 39 149 202 412 496 801 42 55 86 112 97 125 11 13 52 65 92 114 40 50 93 115 120 145 26 30 74 87 107 125 106 124 376 391 434 429 39 26 74 40 115 46 107 15 191 54 341 156 347 237 638 611 560 719 -48 64 -345 -64 -796 -345 -831 -516 -1802 -1298 -2009 -1617 -26 -39 -76 -117 -112 -173 -236 -370 -577 -541 -946 -475 -144 26 -256 66 -464 167 -244 119 -361 165 -570 223 -302 85 -543 119 -944 135 -317 12 -421 31 -542 96 -123 67 -196 160 -324 413 -125 246 -288 468 -367 499 -16 6 -53 16 -83 22 -103 20 -225 94 -370 225 -73 65 -96 88 -189 190 -302 330 -571 788 -691 1175 -147 477 -267 720 -434 885 -79 77 -148 113 -360 187 -281 97 -726 180 -1116 207 -181 12 -210 12 -350 0z"/>
 <path d="M14036 8598 c-29 -177 -36 -862 -12 -1091 7 -70 16 -131 19 -134 46 -45 80 709 48 1042 -19 189 -42 266 -55 183z"/>
 </g>
<g id="layer104" fill="#8f8f8f" stroke="none">
 <path d="M14036 8598 c-29 -177 -36 -862 -12 -1091 7 -70 16 -131 19 -134 46 -45 80 709 48 1042 -19 189 -42 266 -55 183z"/>
 </g>

</svg>