<!DOCTYPE svg PUBLIC "-//W3C//DTD SVG 20010904//EN" "http://www.w3.org/TR/2001/REC-SVG-20010904/DTD/svg10.dtd">
<svg version="1.0" xmlns="http://www.w3.org/2000/svg" width="1023px" height="1600px" viewBox="0 0 10230 16000" preserveAspectRatio="xMidYMid meet">
<g id="layer101" fill="#040404" stroke="none">
 <path d="M6765 15696 c-48 -14 -153 -65 -176 -86 -78 -72 -129 -124 -129 -132 0 -8 -36 -64 -50 -78 -3 -3 -14 -21 -24 -40 -43 -78 -235 -283 -389 -415 -32 -28 -77 -67 -100 -88 -23 -20 -85 -70 -137 -109 -52 -40 -97 -75 -100 -78 -20 -23 -219 -160 -312 -215 -10 -5 -51 -33 -93 -62 -41 -28 -84 -54 -95 -58 -11 -3 -20 -11 -20 -16 0 -5 -5 -9 -10 -9 -6 0 -30 -9 -53 -21 -205 -101 -312 -99 -607 11 -47 17 -97 35 -111 39 -14 5 -34 13 -45 19 -10 6 -57 25 -104 42 -47 18 -93 36 -104 42 -36 19 -162 48 -212 48 -66 0 -204 -48 -204 -72 0 -3 -9 -9 -19 -13 -28 -8 -192 -171 -226 -222 -15 -24 -32 -43 -36 -43 -5 0 -9 -7 -9 -15 0 -8 -3 -15 -8 -15 -14 0 -70 -115 -85 -176 -25 -98 -60 -142 -282 -353 -54 -51 -99 -125 -119 -196 -44 -153 -48 -200 -57 -640 -10 -531 -18 -666 -61 -995 -6 -47 -14 -125 -18 -175 -5 -49 -13 -124 -20 -165 -25 -165 -40 -269 -50 -350 -13 -98 -35 -242 -55 -350 -8 -41 -21 -120 -31 -175 -9 -55 -28 -156 -42 -225 -14 -69 -28 -143 -32 -165 -23 -128 -65 -327 -95 -447 -8 -32 -22 -86 -31 -120 -8 -35 -22 -86 -30 -114 -8 -28 -14 -60 -14 -70 0 -11 -7 -29 -15 -40 -8 -10 -15 -27 -15 -36 0 -10 -6 -32 -14 -50 -8 -18 -22 -60 -32 -93 -9 -33 -28 -85 -42 -115 -59 -131 -92 -197 -116 -233 -14 -21 -26 -40 -26 -43 0 -19 -235 -354 -267 -380 -7 -6 -13 -16 -13 -22 0 -6 -4 -12 -9 -14 -5 -1 -39 -39 -76 -83 -83 -98 -265 -278 -374 -370 -45 -37 -81 -72 -81 -77 0 -4 -7 -8 -15 -8 -8 0 -15 -3 -15 -7 0 -5 -21 -21 -45 -38 -25 -16 -45 -33 -45 -37 0 -5 -7 -8 -15 -8 -8 0 -15 -4 -15 -8 0 -10 -87 -72 -100 -72 -6 0 -10 -4 -10 -9 0 -5 -13 -14 -30 -21 -16 -7 -30 -16 -30 -20 0 -4 -8 -10 -17 -14 -18 -5 -53 -26 -63 -36 -11 -11 -69 -50 -75 -50 -9 0 -85 -51 -170 -114 -91 -67 -245 -219 -245 -241 0 -8 -3 -15 -8 -15 -4 0 -18 -23 -31 -51 -30 -67 -33 -171 -5 -219 24 -42 78 -100 93 -100 6 0 11 -4 11 -8 0 -22 177 -86 305 -111 33 -7 152 -16 265 -21 336 -16 416 -30 570 -104 80 -38 103 -52 135 -83 8 -7 16 -13 20 -13 17 0 216 -194 335 -328 41 -46 86 -96 101 -110 14 -15 69 -76 123 -136 143 -159 491 -516 502 -516 3 0 35 -31 72 -68 37 -37 99 -95 137 -128 113 -96 127 -108 140 -121 11 -10 141 -121 190 -161 11 -10 38 -30 60 -47 22 -16 42 -33 43 -37 2 -4 10 -8 18 -8 8 0 14 -4 14 -9 0 -5 25 -26 55 -46 30 -21 55 -42 55 -47 0 -4 7 -8 15 -8 8 0 15 -4 15 -9 0 -4 19 -21 42 -37 24 -16 45 -31 48 -35 3 -3 45 -32 95 -65 49 -32 94 -62 100 -67 66 -50 110 -79 160 -107 33 -18 77 -44 97 -57 21 -12 40 -23 44 -23 3 0 25 -13 48 -28 55 -37 208 -109 276 -130 101 -31 158 -36 251 -23 l92 13 41 -29 c45 -31 54 -58 56 -163 2 -83 29 -140 80 -169 58 -33 124 -41 353 -41 239 0 313 -9 402 -51 44 -20 105 -72 105 -88 0 -6 4 -11 8 -11 5 0 16 -19 26 -42 10 -24 24 -57 32 -75 8 -17 14 -36 14 -42 0 -6 4 -11 9 -11 5 0 12 -8 15 -18 3 -10 27 -41 53 -69 27 -28 67 -72 90 -97 23 -25 45 -46 48 -46 3 0 16 -11 29 -25 13 -14 26 -25 29 -25 4 0 19 -12 35 -28 39 -36 71 -62 78 -62 2 0 10 -5 17 -10 62 -52 229 -160 247 -160 6 0 10 -4 10 -9 0 -5 9 -13 20 -16 11 -3 26 -12 33 -18 7 -7 28 -19 47 -29 129 -61 211 -98 219 -98 6 0 25 -6 43 -14 55 -24 139 -44 210 -50 198 -18 243 -114 253 -546 7 -248 30 -412 72 -510 30 -69 37 -81 72 -118 88 -91 138 -107 336 -107 152 0 214 9 335 47 104 33 130 42 130 50 0 4 13 14 29 23 17 8 40 25 53 37 32 31 88 104 88 114 0 5 8 23 17 39 13 23 16 56 16 145 0 110 -1 118 -34 185 -18 39 -36 72 -39 75 -3 3 -21 25 -40 50 -33 43 -66 81 -101 119 -25 26 -49 69 -49 87 0 14 7 15 47 9 46 -7 226 -87 251 -111 6 -7 21 -16 32 -19 11 -3 20 -10 20 -14 0 -4 18 -16 40 -26 22 -10 40 -22 40 -27 0 -4 5 -8 11 -8 12 0 122 -71 127 -82 2 -5 8 -8 14 -8 6 0 27 -13 48 -30 21 -16 42 -30 48 -30 6 0 12 -4 14 -8 2 -5 32 -26 68 -48 36 -21 67 -41 70 -44 12 -13 180 -91 226 -105 59 -18 119 -19 165 -3 34 12 99 70 99 88 0 6 4 10 9 10 4 0 16 21 25 48 10 26 24 61 31 77 7 17 20 58 29 93 9 34 23 88 31 120 8 31 16 73 19 92 3 19 10 55 15 80 17 79 13 233 -8 308 -27 93 -42 129 -74 186 -15 27 -27 51 -27 53 0 8 -94 138 -102 141 -5 2 -8 8 -8 13 0 8 -20 35 -47 64 -7 8 -13 18 -13 24 0 6 -4 11 -8 11 -4 0 -16 15 -27 33 -29 49 -119 167 -127 167 -5 0 -8 4 -8 9 0 6 -25 44 -55 86 -30 43 -55 83 -55 91 0 8 -4 14 -8 14 -5 0 -16 15 -25 33 -9 17 -30 55 -47 82 -16 28 -32 57 -36 65 -3 8 -11 29 -18 45 -7 17 -19 44 -26 60 -7 17 -18 44 -25 60 -19 43 -56 158 -81 252 -36 130 -55 438 -35 558 23 134 43 230 54 250 6 11 14 36 18 55 9 42 35 118 49 142 6 10 10 27 10 37 0 11 5 23 10 26 6 3 10 16 10 29 0 12 4 26 9 32 14 14 66 163 96 274 10 36 23 83 31 105 12 38 31 135 53 276 21 128 3 490 -27 546 -7 12 -12 29 -12 37 0 15 -51 135 -71 166 -5 8 -14 27 -20 43 -6 15 -15 27 -20 27 -5 0 -9 6 -9 13 0 18 -146 238 -162 245 -5 2 -8 8 -8 13 0 5 -7 17 -14 26 -35 43 -126 175 -126 184 0 5 -3 9 -7 9 -7 0 -43 55 -90 135 -7 11 -33 63 -58 115 -114 233 -167 401 -195 623 -13 103 20 487 48 557 5 14 17 50 27 80 10 30 37 80 61 112 24 31 44 61 44 66 0 5 6 15 14 21 53 44 92 221 63 281 -13 26 -15 45 -7 113 19 171 30 582 31 1157 0 327 3 589 6 583 5 -14 33 -18 33 -5 0 4 -9 15 -20 25 -11 9 -20 29 -20 45 0 19 -11 41 -32 63 -18 19 -96 102 -173 184 -161 173 -237 254 -315 333 -59 60 -140 148 -255 276 -38 43 -92 101 -118 129 -27 29 -62 71 -79 95 -17 23 -35 42 -40 42 -4 0 -8 7 -8 15 0 8 -4 15 -9 15 -4 0 -20 17 -34 38 -14 20 -37 51 -52 67 -25 28 -84 115 -167 245 -30 48 -105 198 -128 255 -35 91 -54 156 -96 340 -20 87 -34 228 -39 400 -20 653 -26 817 -35 935 -5 74 -10 261 -10 415 -1 154 -5 314 -10 355 -5 41 -12 98 -16 125 -8 66 -42 153 -73 187 -14 16 -46 34 -77 43 -60 17 -199 18 -259 1z"/>
 </g>
<g id="layer102" fill="#616161" stroke="none">
 <path d="M7121 15378 c-33 -226 -37 -1722 -5 -1983 7 -66 14 -142 14 -170 1 -56 33 -202 48 -217 48 -48 75 344 60 867 -5 182 -18 488 -29 680 -10 193 -19 384 -19 425 0 100 -37 461 -48 472 -5 5 -14 -26 -21 -74z"/>
 <path d="M6623 14892 c-29 -20 -72 -50 -95 -66 -24 -16 -56 -38 -73 -50 -96 -66 -211 -144 -285 -193 -47 -31 -119 -82 -160 -113 -41 -31 -85 -62 -97 -68 -12 -7 -27 -18 -35 -25 -7 -7 -38 -32 -69 -54 -31 -23 -63 -48 -71 -56 -8 -8 -48 -44 -90 -79 -74 -63 -138 -130 -192 -201 -20 -26 -26 -44 -22 -60 7 -30 -16 -42 -123 -63 -161 -32 -731 -35 -831 -5 -19 6 -49 11 -65 11 -30 0 -116 26 -187 57 -34 14 -38 20 -52 80 -16 73 -35 99 -77 108 -31 7 -92 -11 -123 -35 -95 -75 -152 -150 -208 -270 -64 -136 -108 -224 -129 -260 -34 -55 -116 -131 -155 -142 -47 -13 -71 -38 -84 -90 -6 -24 -17 -65 -25 -93 -35 -129 -54 -389 -74 -1037 -4 -137 -11 -251 -14 -255 -4 -3 -8 9 -9 28 -1 19 -3 53 -4 76 -1 23 -8 51 -16 62 -15 21 -15 21 -29 -6 -18 -33 -18 -535 0 -627 8 -47 8 -78 -3 -150 -8 -50 -19 -136 -26 -191 -10 -92 -17 -137 -55 -360 -46 -265 -52 -296 -91 -477 -22 -106 -41 -195 -54 -263 -6 -33 -18 -87 -27 -120 -9 -33 -21 -82 -29 -110 -7 -27 -20 -79 -30 -115 -30 -119 -38 -144 -114 -390 -64 -205 -183 -478 -261 -600 -77 -119 -165 -245 -189 -269 -9 -9 -37 -43 -62 -76 -154 -203 -485 -545 -803 -830 -176 -157 -302 -284 -393 -393 -48 -58 -88 -121 -80 -126 2 -1 10 -7 19 -14 50 -38 217 -58 624 -77 72 -3 159 -13 195 -21 36 -8 76 -17 90 -20 13 -3 58 -21 98 -39 132 -61 232 -186 302 -374 63 -173 97 -225 274 -433 82 -96 350 -351 471 -447 39 -30 85 -69 103 -85 18 -17 56 -48 85 -69 29 -22 54 -42 57 -47 3 -4 23 -19 46 -33 22 -14 47 -31 55 -39 8 -8 36 -29 63 -48 27 -19 70 -50 95 -68 69 -49 297 -200 421 -277 68 -43 400 -215 475 -247 22 -9 76 -28 120 -42 273 -88 362 -118 380 -126 11 -5 45 -19 75 -31 82 -33 223 -102 261 -129 19 -13 63 -49 99 -80 120 -105 240 -146 450 -155 80 -3 178 -13 218 -21 64 -14 78 -21 120 -63 49 -49 92 -139 92 -192 0 -39 46 -211 75 -280 78 -185 241 -346 432 -427 123 -52 271 -80 518 -97 121 -9 182 -23 270 -65 89 -43 139 -93 188 -190 37 -72 48 -127 54 -290 6 -139 -7 -321 -34 -494 -19 -123 -14 -245 13 -301 29 -60 73 -85 153 -85 77 0 120 21 148 72 15 28 18 56 17 173 -1 77 -6 167 -13 200 -7 33 -15 130 -18 215 -6 168 6 247 49 320 58 98 121 132 244 132 89 0 150 -15 248 -63 32 -16 63 -29 68 -29 5 0 56 -30 111 -66 129 -84 115 -74 253 -174 190 -137 229 -155 264 -120 18 18 20 33 20 138 0 124 -10 166 -67 292 -44 97 -57 123 -95 188 -21 34 -38 64 -38 67 0 7 -63 99 -76 110 -6 6 -26 33 -45 60 -18 28 -41 58 -50 68 -9 10 -31 39 -49 65 l-33 47 44 -40 c70 -65 160 -139 218 -180 l54 -39 -24 36 c-13 20 -60 80 -104 133 -44 54 -95 118 -114 144 -19 25 -37 48 -41 51 -4 3 -15 21 -25 40 -10 19 -21 37 -26 40 -14 10 -78 154 -89 205 -40 173 -41 175 -93 231 -43 47 -55 55 -81 52 l-31 -3 -13 90 c-7 50 -15 209 -19 355 -6 315 4 434 68 805 15 87 65 246 109 352 49 116 80 245 80 331 0 111 -56 347 -105 442 -75 145 -131 271 -109 245 25 -30 124 -190 124 -201 0 -4 12 -29 26 -58 30 -60 74 -191 99 -296 10 -41 24 -88 30 -103 12 -28 12 -28 18 25 18 156 19 212 7 266 -33 150 -154 389 -280 557 -76 100 -289 315 -334 336 -16 8 -36 28 -45 44 -9 17 -33 58 -54 91 -20 34 -37 64 -37 68 0 6 -54 128 -70 158 -6 11 -6 27 1 45 8 19 10 110 8 278 -7 509 -3 585 42 790 33 146 63 243 108 348 11 26 19 49 18 50 -1 2 5 14 14 27 18 29 41 100 59 180 6 30 20 91 30 135 34 150 49 230 61 320 6 50 17 126 24 170 8 44 17 128 20 186 3 59 10 140 15 180 16 123 12 612 -5 694 -8 38 -15 83 -15 100 0 36 -29 123 -50 148 -20 24 -49 21 -55 -5 -2 -13 -11 -54 -20 -91 -8 -38 -15 -91 -15 -118 0 -63 -15 -56 -30 14 -17 81 -94 229 -167 319 -36 46 -136 154 -222 242 -124 126 -142 147 -89 105 37 -29 75 -54 84 -55 9 -2 21 -7 27 -13 21 -21 37 -13 27 14 -12 32 -62 108 -77 118 -6 4 -19 27 -28 52 -15 37 -16 49 -5 75 7 16 19 30 27 30 19 0 110 -47 150 -76 17 -13 35 -24 40 -24 5 0 31 -18 58 -41 27 -22 56 -44 64 -49 43 -23 548 -464 594 -519 23 -27 47 -41 47 -26 0 3 -34 40 -76 82 -42 43 -125 132 -183 198 -215 244 -437 447 -551 505 -29 14 -48 30 -45 38 3 9 -19 12 -91 12 -101 0 -169 17 -266 66 -41 21 -160 104 -178 125 -3 3 -27 20 -55 39 -27 19 -52 36 -55 40 -3 3 -22 16 -43 29 -21 13 -47 41 -58 62 -10 21 -23 39 -27 39 -4 0 -18 20 -32 45 -14 25 -27 45 -30 45 -3 0 -14 17 -25 38 -11 20 -23 39 -26 42 -12 10 -97 183 -141 285 -16 39 -33 79 -38 90 -5 11 -16 47 -26 80 -9 33 -23 79 -30 103 -8 23 -14 52 -14 64 0 11 -4 37 -10 57 -40 154 -83 619 -100 1091 -14 392 -33 690 -45 690 -5 0 -33 -17 -62 -38z m1697 -5250 c-23 -169 -28 -197 -39 -225 -6 -16 -11 -40 -11 -55 -1 -32 -29 -89 -30 -59 0 18 18 102 46 208 8 30 14 70 14 89 0 44 24 169 28 147 2 -9 -2 -57 -8 -105z m-86 -396 c-3 -15 -8 -25 -11 -23 -2 3 -1 17 3 31 3 15 8 25 11 23 2 -3 1 -17 -3 -31z m-259 -761 c-8 -44 -17 -117 -21 -163 -4 -45 -11 -85 -15 -88 -13 -8 -11 52 6 139 8 43 15 97 15 119 0 35 16 85 25 76 2 -2 -3 -39 -10 -83z"/>
 <path d="M2866 13100 c-33 -83 -9 -403 51 -680 19 -89 29 -113 37 -90 12 35 28 145 41 292 19 203 6 367 -36 449 -40 79 -69 88 -93 29z"/>
 <path d="M3216 13098 c-19 -129 -13 -535 9 -565 11 -15 14 -13 28 18 60 135 41 579 -25 579 -4 0 -9 -15 -12 -32z"/>
 <path d="M8706 9220 c-30 -19 -89 -95 -112 -145 -8 -16 -22 -43 -32 -60 -10 -16 -28 -57 -41 -90 -12 -33 -27 -69 -31 -80 -30 -70 -50 -127 -61 -175 -6 -30 -18 -75 -25 -100 -43 -145 -58 -483 -29 -623 8 -40 22 -106 31 -147 8 -41 19 -84 24 -95 4 -11 15 -42 25 -70 37 -112 132 -300 189 -379 13 -17 61 -83 108 -146 46 -63 119 -162 161 -219 43 -57 77 -110 77 -117 0 -8 4 -14 8 -14 4 0 15 -15 23 -32 9 -18 38 -76 65 -128 27 -52 54 -108 60 -125 6 -16 23 -58 37 -92 37 -88 54 -201 62 -398 8 -183 21 -323 24 -250 0 22 7 78 15 125 15 87 44 295 48 340 5 51 -14 225 -28 258 -8 19 -14 41 -14 48 0 14 -52 135 -71 164 -5 8 -14 27 -20 43 -6 15 -15 27 -20 27 -5 0 -9 6 -9 13 0 10 -83 141 -100 157 -9 8 -70 100 -70 105 0 3 -7 13 -14 22 -35 43 -126 175 -126 184 0 5 -3 9 -7 9 -7 0 -43 55 -90 135 -7 11 -33 63 -58 115 -96 196 -139 320 -175 500 -41 206 -51 324 -39 455 20 229 70 350 201 489 62 66 105 222 79 289 -12 31 -25 33 -65 7z"/>
 <path d="M8834 4732 c-23 -16 -36 -95 -41 -251 -4 -131 -2 -181 11 -245 36 -171 79 -258 126 -254 21 3 26 11 39 63 12 51 13 81 2 200 -7 77 -19 169 -27 205 -8 36 -21 97 -30 135 -24 107 -55 164 -80 147z"/>
 </g>
<g id="layer103" fill="#2c82c9" stroke="none">
 <path d="M7128 14865 c-7 -504 2 -1193 15 -1170 42 75 41 1346 -1 1525 -5 21 -11 -116 -14 -355z"/>
 <path d="M6623 14892 c-29 -20 -72 -50 -95 -66 -24 -16 -56 -38 -73 -50 -96 -66 -211 -144 -285 -193 -47 -31 -119 -82 -160 -113 -41 -31 -85 -62 -97 -68 -12 -7 -27 -18 -35 -25 -7 -7 -38 -32 -69 -54 -31 -23 -63 -48 -71 -56 -8 -8 -48 -44 -90 -79 -74 -63 -138 -130 -192 -201 -20 -26 -26 -44 -22 -60 7 -30 -16 -42 -123 -63 -161 -32 -731 -35 -831 -5 -19 6 -49 11 -65 11 -30 0 -116 26 -187 57 -34 14 -38 20 -52 80 -16 73 -35 99 -77 108 -31 7 -92 -11 -123 -35 -95 -75 -152 -150 -208 -270 -64 -136 -108 -224 -129 -260 -34 -55 -116 -131 -155 -142 -47 -13 -71 -38 -84 -90 -6 -24 -17 -65 -25 -93 -35 -129 -54 -389 -74 -1037 -4 -137 -10 -250 -13 -253 -3 -3 -8 20 -12 52 -4 32 -11 75 -17 97 -10 35 -11 37 -24 20 -12 -15 -14 -75 -15 -305 0 -158 4 -310 10 -339 7 -39 6 -76 -4 -144 -8 -50 -19 -136 -26 -191 -10 -92 -17 -137 -55 -360 -46 -265 -52 -296 -91 -477 -22 -106 -41 -195 -54 -263 -6 -33 -18 -87 -27 -120 -9 -33 -21 -82 -29 -110 -7 -27 -20 -79 -30 -115 -30 -119 -38 -144 -114 -390 -64 -205 -183 -478 -261 -600 -77 -119 -165 -245 -189 -269 -9 -9 -37 -43 -62 -76 -154 -203 -485 -545 -803 -830 -176 -157 -302 -284 -393 -393 -48 -58 -88 -121 -80 -126 2 -1 10 -7 19 -14 50 -38 217 -58 624 -77 72 -3 159 -13 195 -21 36 -8 76 -17 90 -20 13 -3 58 -21 98 -39 132 -61 232 -186 302 -374 63 -173 97 -225 274 -433 82 -96 350 -351 471 -447 39 -30 85 -69 103 -85 18 -17 56 -48 85 -69 29 -22 54 -42 57 -47 3 -4 23 -19 46 -33 22 -14 47 -31 55 -39 8 -8 36 -29 63 -48 27 -19 70 -50 95 -68 69 -49 297 -200 421 -277 68 -43 400 -215 475 -247 22 -9 76 -28 120 -42 273 -88 362 -118 380 -126 11 -5 45 -19 75 -31 82 -33 223 -102 261 -129 19 -13 63 -49 99 -80 120 -105 240 -146 450 -155 80 -3 178 -13 218 -21 64 -14 78 -21 120 -63 49 -49 92 -139 92 -192 0 -39 46 -211 75 -280 78 -185 241 -346 432 -427 123 -52 271 -80 518 -97 121 -9 182 -23 270 -65 89 -43 139 -93 188 -190 37 -72 48 -127 54 -290 6 -139 -7 -321 -34 -494 -19 -123 -14 -245 13 -301 29 -60 73 -85 153 -85 77 0 120 21 148 72 15 28 18 56 17 173 -1 77 -6 167 -13 200 -7 33 -15 130 -18 215 -6 168 6 247 49 320 58 98 121 132 244 132 89 0 150 -15 248 -63 32 -16 63 -29 68 -29 5 0 56 -30 111 -66 129 -84 115 -74 253 -174 190 -137 229 -155 264 -120 18 18 20 33 20 138 0 124 -10 166 -67 292 -44 97 -57 123 -95 188 -21 34 -38 64 -38 67 0 7 -63 99 -76 110 -6 6 -26 33 -45 60 -18 28 -38 55 -44 61 -5 6 -37 46 -70 89 -33 43 -79 101 -102 129 -76 92 -173 252 -203 335 -26 72 -30 94 -30 193 0 62 -6 156 -15 208 -10 64 -15 172 -15 330 0 278 13 420 71 755 15 87 65 246 109 352 49 116 80 245 80 331 0 111 -57 350 -106 442 -7 14 -36 72 -64 130 -28 58 -60 119 -70 137 -11 18 -14 30 -7 27 13 -5 120 -165 137 -205 5 -13 14 -31 19 -39 37 -59 89 -204 136 -380 10 -36 21 -76 25 -90 5 -15 9 45 9 147 l1 172 -39 103 c-45 120 -47 123 -69 163 -65 115 -98 172 -109 185 -7 8 -23 29 -35 46 -107 147 -268 320 -343 366 -22 14 -47 38 -55 54 -8 16 -29 52 -46 80 -18 27 -44 78 -59 113 -27 66 -35 82 -53 118 -9 17 -9 35 -2 70 14 60 15 235 3 488 -6 110 -6 232 -2 270 4 39 8 96 8 128 1 32 7 86 15 120 8 34 23 96 32 137 17 74 33 115 101 260 57 122 103 262 103 314 0 61 -43 40 -123 -59 -22 -27 -37 -41 -33 -30 18 46 45 146 61 225 10 47 24 107 31 134 8 27 14 68 14 90 0 23 5 59 10 81 20 87 24 219 21 660 -3 419 -5 467 -23 540 -48 196 -156 352 -421 612 -166 163 -210 212 -108 123 96 -85 141 -109 141 -77 0 8 -18 48 -40 90 -22 41 -40 85 -40 97 0 43 33 92 87 127 29 20 53 37 53 38 0 2 -41 1 -90 -1 -68 -3 -98 0 -120 11 -16 8 -37 15 -46 15 -27 0 -164 69 -219 110 -27 20 -60 42 -72 48 -12 7 -27 18 -35 25 -23 23 -92 67 -105 67 -17 0 25 -66 91 -143 27 -31 47 -60 44 -62 -6 -6 -173 173 -206 222 -23 32 -17 48 13 37 15 -6 14 -1 -4 35 -12 22 -25 41 -29 41 -4 0 -18 20 -32 45 -14 25 -27 45 -30 45 -3 0 -14 17 -25 38 -11 20 -23 39 -26 42 -12 10 -97 183 -141 285 -16 39 -33 79 -38 90 -5 11 -16 47 -26 80 -9 33 -23 79 -30 103 -8 23 -14 52 -14 64 0 11 -4 37 -10 57 -40 154 -83 619 -100 1091 -14 392 -33 690 -45 690 -5 0 -33 -17 -62 -38z m1364 -6359 c-8 -43 -21 -125 -27 -183 -14 -119 -22 -151 -28 -102 -2 18 4 74 12 124 9 50 16 105 16 122 0 16 5 46 11 65 7 20 14 42 16 50 2 8 6 11 9 8 3 -3 -1 -41 -9 -84z m-33 -878 c7 -56 -7 -34 -18 30 -5 26 -4 36 2 30 5 -5 12 -32 16 -60z"/>
 <path d="M8427 10700 c-4 -14 -11 -124 -17 -245 -11 -227 2 -680 20 -699 36 -37 61 432 40 749 -9 140 -32 242 -43 195z"/>
 <path d="M8427 8595 c-17 -55 -27 -393 -16 -572 6 -103 13 -192 16 -197 3 -4 12 7 20 25 39 90 40 638 1 729 -13 30 -16 32 -21 15z"/>
 </g>
<g id="layer104" fill="#888888" stroke="none">
 <path d="M7128 14865 c-7 -504 2 -1193 15 -1170 42 75 41 1346 -1 1525 -5 21 -11 -116 -14 -355z"/>
 <path d="M7308 12128 c120 -187 533 -598 601 -598 19 0 12 25 -29 103 -22 41 -40 85 -40 97 0 43 33 92 87 127 29 20 53 37 53 38 0 2 -41 1 -90 -1 -68 -3 -98 0 -120 11 -16 8 -37 15 -46 15 -27 0 -164 69 -219 110 -27 20 -60 42 -72 48 -12 7 -27 18 -35 25 -23 23 -92 67 -105 67 -8 0 -2 -17 15 -42z"/>
 <path d="M3231 12097 c-17 -31 -12 -642 5 -671 10 -17 13 -13 22 35 35 175 41 386 17 538 -19 114 -26 131 -44 98z"/>
 <path d="M8427 10700 c-4 -14 -11 -124 -17 -245 -11 -227 2 -680 20 -699 36 -37 61 432 40 749 -9 140 -32 242 -43 195z"/>
 <path d="M8263 9226 c-51 -56 -109 -147 -155 -246 -29 -63 -90 -242 -87 -256 4 -16 -13 -84 -22 -90 -5 -3 -7 -10 -4 -15 4 -5 0 -44 -8 -87 -8 -42 -20 -122 -27 -177 -6 -55 -16 -126 -21 -157 -12 -68 -10 -476 1 -483 5 -3 12 -36 15 -73 4 -37 11 -71 15 -77 5 -5 11 -26 15 -47 4 -21 20 -48 37 -65 28 -26 30 -27 43 -10 36 50 44 218 28 572 -6 110 -6 232 -2 270 4 39 8 96 8 128 1 32 7 86 15 120 8 34 23 96 32 137 17 74 33 115 101 260 42 89 65 153 88 236 33 121 5 144 -72 60z"/>
 <path d="M8427 8595 c-17 -55 -27 -393 -16 -572 6 -103 13 -192 16 -197 3 -4 12 7 20 25 39 90 40 638 1 729 -13 30 -16 32 -21 15z"/>
 <path d="M8270 7100 c0 -13 27 -66 51 -100 9 -14 67 -101 129 -195 61 -93 117 -174 124 -180 16 -13 122 -173 135 -205 6 -14 15 -32 20 -40 37 -59 89 -204 136 -380 10 -36 21 -76 25 -90 5 -15 9 45 9 147 l1 172 -39 103 c-45 120 -47 123 -69 163 -65 115 -98 172 -109 185 -7 8 -23 29 -35 46 -77 106 -123 160 -212 250 -95 95 -166 148 -166 124z"/>
 </g>

</svg>