<!DOCTYPE svg PUBLIC "-//W3C//DTD SVG 20010904//EN" "http://www.w3.org/TR/2001/REC-SVG-20010904/DTD/svg10.dtd">
<svg version="1.0" xmlns="http://www.w3.org/2000/svg" width="1600px" height="1077px" viewBox="0 0 16000 10770" preserveAspectRatio="xMidYMid meet">
<g id="layer101" fill="#020202" stroke="none">
 <path d="M4065 10592 c-100 -43 -176 -108 -239 -203 -16 -24 -38 -57 -48 -72 -80 -116 -248 -493 -480 -1072 -33 -82 -66 -163 -73 -180 -7 -16 -22 -50 -33 -75 -11 -25 -47 -110 -80 -190 -68 -162 -127 -294 -160 -358 l-23 -43 -77 54 c-106 75 -181 129 -302 217 -124 91 -347 246 -377 263 -179 98 -312 156 -467 207 -120 39 -310 58 -418 42 -131 -20 -237 -92 -279 -190 -99 -230 -205 -847 -260 -1507 -18 -218 -18 -795 0 -860 66 -235 229 -381 886 -791 318 -198 300 -187 520 -319 317 -190 425 -266 595 -416 188 -166 382 -378 550 -599 30 -40 60 -77 65 -84 11 -12 153 -207 170 -234 6 -9 31 -46 58 -84 26 -37 47 -70 47 -73 0 -2 37 -59 82 -127 44 -68 97 -148 117 -178 20 -30 44 -63 53 -74 10 -11 20 -28 24 -38 3 -10 10 -18 15 -18 5 0 9 -4 9 -10 0 -9 65 -106 80 -120 3 -3 32 -41 65 -85 33 -44 62 -82 65 -85 3 -3 18 -23 34 -45 17 -22 38 -49 48 -60 9 -11 33 -40 53 -65 60 -75 108 -131 220 -259 164 -189 516 -539 715 -711 41 -35 82 -71 91 -80 18 -17 34 -29 99 -80 25 -19 54 -43 65 -53 35 -32 199 -153 360 -267 336 -237 746 -444 1135 -574 25 -8 83 -29 130 -46 47 -17 96 -35 110 -39 35 -12 307 -115 420 -161 52 -20 154 -61 225 -90 410 -164 593 -233 695 -260 25 -7 65 -18 90 -26 137 -41 451 -96 720 -126 154 -17 738 -17 890 0 333 37 578 99 758 192 145 75 213 154 238 276 15 68 23 79 116 146 132 96 581 252 1073 373 116 29 317 85 415 116 14 4 120 38 235 74 184 58 343 113 425 147 14 5 45 17 70 25 93 30 581 230 705 288 39 18 115 54 170 80 355 167 663 347 854 499 68 53 195 195 232 257 65 109 99 224 99 334 0 255 -139 478 -416 667 -270 184 -662 281 -1011 250 -198 -18 -254 -31 -503 -112 -80 -26 -201 -64 -270 -84 -69 -20 -148 -43 -175 -51 -75 -22 -141 -22 -165 0 -11 10 -30 43 -42 74 -20 51 -22 73 -22 261 -1 214 6 277 50 449 44 168 67 211 186 337 155 166 195 250 186 389 -9 134 -97 264 -251 368 -55 38 -186 107 -202 107 -3 0 -38 16 -79 35 -41 19 -78 35 -81 35 -7 0 -156 83 -205 114 -175 112 -477 328 -545 389 -11 10 -45 37 -75 60 -30 23 -59 47 -65 53 -5 5 -39 35 -75 65 -79 65 -174 152 -336 304 -28 26 -123 114 -204 190 -235 218 -412 364 -522 430 -37 23 -186 95 -233 113 -215 84 -559 117 -1795 172 -365 16 -904 14 -1025 -4 -217 -33 -335 -105 -437 -267 -169 -268 -249 -818 -173 -1189 28 -138 131 -325 264 -480 98 -114 132 -149 345 -359 646 -637 752 -748 869 -912 86 -121 94 -159 39 -197 -72 -51 -229 -69 -438 -52 -418 34 -529 118 -639 485 -76 252 -142 379 -302 574 -92 113 -159 182 -324 326 -18 17 -151 118 -294 225 -143 107 -262 196 -265 199 -3 3 -34 30 -70 60 -153 127 -296 293 -349 406 -81 172 -66 370 46 615 14 30 57 120 95 200 89 184 144 317 163 390 18 68 20 198 4 255 -27 100 -135 283 -269 455 -286 369 -465 705 -485 910 -9 92 -64 237 -115 303 -9 12 -19 27 -21 34 -11 33 -183 234 -286 334 -254 246 -531 433 -748 503 -98 32 -244 36 -310 8z"/>
 </g>
<g id="layer102" fill="#676767" stroke="none">
 <path d="M4232 10269 c-37 -38 -165 -262 -275 -484 -90 -179 -116 -236 -229 -485 -282 -624 -560 -1094 -710 -1201 -29 -21 -35 -22 -89 -10 -126 26 -345 131 -615 297 -325 199 -416 246 -555 288 -201 61 -337 17 -423 -138 -67 -119 -85 -196 -171 -741 -39 -244 -71 -411 -129 -669 -20 -87 -36 -180 -36 -206 0 -55 23 -129 58 -185 30 -49 147 -164 210 -207 26 -18 52 -36 57 -40 21 -18 178 -124 218 -149 23 -14 83 -52 132 -83 50 -31 182 -112 295 -180 653 -390 916 -578 1223 -875 186 -180 434 -481 603 -731 77 -114 207 -304 267 -390 37 -52 73 -103 80 -114 6 -10 33 -46 58 -80 25 -33 87 -116 138 -184 51 -68 100 -133 110 -145 11 -12 40 -49 67 -82 241 -302 699 -780 953 -995 505 -427 964 -722 1556 -1000 110 -51 378 -165 425 -181 14 -4 61 -22 105 -39 349 -137 1010 -332 1320 -390 61 -12 129 -25 153 -31 107 -24 449 -60 672 -71 174 -8 331 -9 540 -2 334 11 355 16 437 96 59 58 82 118 97 258 15 132 38 193 89 236 59 50 102 62 267 73 484 33 1004 155 1730 406 247 86 674 255 891 353 35 16 89 39 119 52 115 50 620 310 740 382 353 211 580 399 658 545 37 71 40 103 11 149 -61 99 -428 268 -739 340 -101 24 -361 24 -478 1 -46 -9 -87 -19 -91 -21 -4 -3 -40 -14 -81 -24 -41 -11 -127 -35 -190 -52 -245 -68 -537 -142 -630 -159 -25 -5 -81 -17 -125 -26 -240 -49 -448 -75 -612 -75 -246 0 -346 44 -360 158 -14 118 58 236 272 447 170 168 223 241 315 430 95 197 146 368 176 589 26 198 16 344 -30 441 -26 54 -120 139 -223 201 -88 53 -270 177 -283 194 -3 3 -48 39 -100 79 -52 40 -119 94 -150 120 -30 27 -120 104 -200 172 -80 67 -154 132 -165 143 -12 12 -61 57 -110 101 -94 83 -303 279 -585 545 -292 276 -341 321 -363 329 -12 5 -105 12 -207 15 -102 4 -315 13 -475 21 -463 22 -1336 54 -1932 71 -223 6 -233 6 -233 -12 0 -10 -7 -93 -15 -184 -8 -91 -20 -215 -25 -276 -27 -293 2 -490 93 -650 103 -181 193 -286 622 -729 255 -263 398 -417 520 -560 33 -38 62 -72 65 -75 22 -21 150 -195 192 -262 49 -78 52 -87 51 -145 -4 -287 -424 -533 -908 -533 -387 1 -830 172 -1000 388 -90 113 -130 227 -145 409 -7 98 -13 120 -45 185 -95 196 -342 455 -721 760 -311 249 -592 488 -624 530 -235 305 -245 829 -24 1243 18 34 55 95 83 137 66 100 107 181 123 240 26 101 -42 232 -247 478 -91 109 -126 154 -171 221 -162 239 -272 492 -274 625 -1 209 -223 577 -484 804 -172 149 -349 281 -443 328 l-41 21 -30 -30z"/>
 <path d="M7475 6778 c-4 -15 -8 -89 -8 -165 -2 -151 3 -170 70 -313 92 -193 214 -337 488 -578 66 -58 122 -109 125 -112 3 -3 39 -34 80 -70 l75 -65 -69 80 c-38 44 -87 100 -110 125 -149 163 -237 278 -347 452 -135 214 -199 351 -253 547 -33 119 -42 135 -51 99z"/>
 </g>
<g id="layer103" fill="#2c82c9" stroke="none">
 <path d="M4232 10269 c-37 -38 -165 -262 -275 -484 -90 -179 -116 -236 -229 -485 -282 -624 -560 -1094 -710 -1201 -29 -21 -35 -22 -89 -10 -126 26 -345 131 -615 297 -325 199 -416 246 -555 288 -201 61 -337 17 -423 -138 -67 -119 -85 -196 -171 -741 -39 -244 -71 -411 -129 -669 -20 -87 -36 -180 -36 -206 0 -55 23 -129 58 -185 30 -49 147 -164 210 -207 26 -18 52 -36 57 -40 21 -18 178 -124 218 -149 23 -14 83 -52 132 -83 50 -31 182 -112 295 -180 653 -390 916 -578 1223 -875 186 -180 434 -481 603 -731 77 -114 207 -304 267 -390 37 -52 73 -103 80 -114 6 -10 33 -46 58 -80 25 -33 87 -116 138 -184 51 -68 100 -133 110 -145 11 -12 40 -49 67 -82 241 -302 699 -780 953 -995 505 -427 964 -722 1556 -1000 110 -51 378 -165 425 -181 14 -4 61 -22 105 -39 349 -137 1010 -332 1320 -390 61 -12 129 -25 153 -31 107 -24 449 -60 672 -71 174 -8 331 -9 540 -2 334 11 355 16 437 96 59 58 82 118 97 258 15 132 38 193 89 236 59 50 102 62 267 73 484 33 1004 155 1730 406 247 86 674 255 891 353 35 16 89 39 119 52 115 50 620 310 740 382 353 211 580 399 658 545 37 71 40 103 11 149 -61 99 -428 268 -739 340 -101 24 -361 24 -478 1 -46 -9 -87 -19 -91 -21 -4 -3 -40 -14 -81 -24 -41 -11 -127 -35 -190 -52 -245 -68 -537 -142 -630 -159 -25 -5 -81 -17 -125 -26 -240 -49 -448 -75 -612 -75 -246 0 -346 44 -360 158 -14 118 58 236 272 447 170 168 223 241 315 430 95 197 146 368 176 589 26 198 16 344 -30 441 -26 54 -120 139 -223 201 -88 53 -270 177 -283 194 -3 3 -48 39 -100 79 -52 40 -119 94 -150 120 -30 27 -120 104 -200 172 -80 67 -154 132 -165 143 -12 12 -61 57 -110 101 -94 83 -303 279 -585 545 -292 276 -341 321 -363 329 -12 5 -105 12 -207 15 -102 4 -315 13 -475 21 -463 22 -1336 54 -1932 71 -223 6 -233 6 -233 -12 0 -10 -7 -93 -15 -184 -8 -91 -20 -215 -25 -276 -27 -293 2 -490 93 -650 103 -181 193 -286 622 -729 255 -263 398 -417 520 -560 33 -38 62 -72 65 -75 22 -21 150 -195 192 -262 49 -78 52 -87 51 -145 -4 -287 -424 -533 -908 -533 -387 1 -830 172 -1000 388 -90 113 -130 227 -145 409 -7 98 -13 120 -45 185 -95 196 -342 455 -721 760 -311 249 -592 488 -624 530 -235 305 -245 829 -24 1243 18 34 55 95 83 137 66 100 107 181 123 240 26 101 -42 232 -247 478 -91 109 -126 154 -171 221 -162 239 -272 492 -274 625 -1 209 -223 577 -484 804 -172 149 -349 281 -443 328 l-41 21 -30 -30z"/>
 </g>

</svg>