<!DOCTYPE svg PUBLIC "-//W3C//DTD SVG 20010904//EN" "http://www.w3.org/TR/2001/REC-SVG-20010904/DTD/svg10.dtd">
<svg version="1.0" xmlns="http://www.w3.org/2000/svg" width="1600px" height="1513px" viewBox="0 0 16000 15130" preserveAspectRatio="xMidYMid meet">
<g id="layer101" fill="#010101" stroke="none">
 <path d="M7655 14625 c-167 -25 -301 -83 -388 -168 -93 -91 -188 -241 -216 -342 -14 -52 -14 -239 0 -306 23 -106 96 -238 175 -315 25 -24 83 -69 130 -100 121 -82 216 -165 252 -222 43 -66 45 -140 5 -199 -54 -78 -129 -150 -250 -237 -152 -109 -239 -276 -264 -505 -37 -344 74 -808 309 -1291 62 -127 179 -342 220 -405 15 -22 31 -48 37 -57 44 -74 110 -174 117 -176 4 -2 8 -10 8 -17 0 -7 4 -15 8 -17 4 -1 45 -55 90 -119 46 -64 91 -125 100 -135 9 -10 33 -39 52 -64 19 -25 42 -54 50 -64 17 -22 152 -178 160 -186 3 -3 41 -45 85 -95 44 -49 99 -110 122 -135 44 -48 46 -50 168 -185 44 -48 85 -93 90 -99 9 -9 209 -228 240 -262 130 -143 189 -208 232 -254 29 -30 53 -57 53 -60 0 -3 -118 -34 -262 -69 -145 -34 -288 -69 -318 -77 -30 -7 -104 -25 -165 -39 -206 -48 -318 -91 -418 -161 -26 -19 -50 -34 -53 -34 -3 0 -11 -6 -18 -12 -7 -7 -39 -35 -71 -63 -90 -77 -206 -197 -266 -275 -19 -25 -37 -47 -40 -50 -3 -3 -30 -39 -61 -80 -239 -326 -529 -899 -678 -1340 -5 -14 -23 -63 -40 -110 -41 -111 -53 -147 -83 -250 -14 -47 -42 -137 -61 -200 -19 -63 -51 -182 -71 -265 -20 -82 -43 -177 -51 -209 -37 -149 -101 -499 -125 -684 -86 -667 -73 -1245 37 -1712 33 -138 137 -504 206 -725 109 -348 173 -510 234 -590 13 -17 24 -35 24 -39 0 -8 59 -75 105 -119 138 -132 375 -223 935 -357 96 -23 240 -57 320 -76 80 -19 170 -41 200 -49 201 -51 323 -68 510 -68 131 -1 179 3 230 18 179 50 302 141 407 300 67 100 136 240 172 351 30 90 41 116 105 254 136 294 407 626 636 778 47 31 109 72 138 91 182 120 358 387 432 654 11 37 22 72 25 76 9 15 33 168 44 280 30 290 -15 590 -122 822 -73 158 -165 274 -294 371 -34 26 -70 59 -79 73 -54 83 -23 250 87 462 28 52 58 107 68 122 10 14 46 69 81 121 61 91 303 402 359 460 14 15 41 45 60 66 19 22 55 62 79 89 25 28 228 235 451 460 368 371 502 511 602 630 19 22 36 42 39 45 3 3 30 34 60 70 30 36 61 72 70 81 17 18 28 32 80 99 19 25 43 54 52 65 81 96 343 469 416 591 124 208 167 316 182 452 9 92 40 193 84 279 28 57 108 184 129 205 7 7 30 38 52 68 86 119 300 333 460 462 55 45 102 84 105 88 7 8 179 130 185 130 5 0 426 300 435 309 3 3 28 24 55 46 78 61 196 184 248 256 26 37 47 70 47 74 0 5 6 16 13 24 42 50 87 242 87 374 0 147 -61 458 -129 665 -11 31 -34 104 -51 162 -96 312 -309 710 -524 978 -153 192 -368 393 -530 496 -200 127 -307 160 -911 276 -55 11 -221 44 -370 75 -148 31 -292 60 -320 65 -60 11 -124 24 -225 45 -41 9 -97 21 -125 25 -27 5 -84 16 -125 25 -41 9 -97 20 -125 25 -27 5 -95 18 -150 30 -154 31 -235 47 -430 85 -99 19 -214 42 -255 50 -41 8 -156 31 -255 50 -99 19 -211 41 -250 49 -38 8 -99 20 -135 26 -36 6 -94 17 -130 25 -36 7 -90 18 -120 23 -30 6 -93 17 -140 26 -286 53 -367 68 -475 87 -66 11 -160 27 -210 35 -49 8 -128 21 -175 29 -90 16 -299 47 -465 70 -476 63 -824 80 -1030 50z"/>
 <path d="M2020 13363 c-25 -2 -94 -13 -155 -24 -297 -54 -499 -169 -617 -351 -68 -105 -81 -134 -110 -238 -21 -77 -23 -106 -23 -295 0 -184 3 -223 23 -315 43 -190 95 -329 173 -467 80 -140 155 -313 189 -433 6 -25 18 -63 25 -85 39 -123 96 -380 124 -555 50 -319 63 -468 81 -945 10 -261 18 -342 46 -490 56 -289 142 -549 262 -793 56 -113 122 -232 149 -268 13 -17 23 -34 23 -37 0 -10 144 -211 209 -292 30 -38 63 -79 71 -89 8 -11 87 -93 175 -181 212 -215 360 -332 670 -530 45 -29 137 -79 256 -139 544 -274 1204 -398 1814 -341 832 78 1257 468 1385 1270 22 135 40 382 40 539 0 342 -45 857 -110 1246 -5 30 -14 89 -20 130 -6 41 -17 109 -25 150 -8 41 -19 102 -24 135 -50 287 -155 707 -232 920 -228 633 -482 977 -996 1348 -51 37 -96 67 -99 67 -4 0 -21 10 -38 23 -74 54 -428 253 -575 324 -283 135 -549 252 -726 318 -33 13 -91 35 -130 49 -102 39 -376 130 -480 160 -49 14 -103 30 -120 35 -48 15 -232 58 -338 81 -302 63 -658 92 -897 73z"/>
 </g>
<g id="layer102" fill="#2c82c9" stroke="none">
 <path d="M9795 13349 c-405 -43 -638 -197 -904 -597 -160 -242 -411 -701 -523 -960 -42 -95 -106 -290 -117 -356 -15 -85 -13 -192 4 -261 49 -186 214 -354 627 -638 363 -249 406 -283 551 -432 308 -314 468 -653 494 -1045 6 -86 -6 -204 -33 -340 -66 -326 -288 -671 -594 -921 -30 -25 -104 -83 -165 -130 -213 -163 -487 -456 -703 -752 -101 -138 -91 -122 -177 -257 -37 -58 -75 -116 -85 -130 -9 -14 -34 -56 -55 -95 -21 -38 -62 -111 -91 -160 -62 -107 -221 -428 -283 -570 -239 -554 -400 -1110 -453 -1570 -19 -159 -16 -517 5 -630 121 -659 752 -1274 1307 -1275 144 0 251 40 336 125 93 93 131 197 144 400 10 153 17 188 51 273 50 126 153 251 266 322 105 67 213 97 393 110 85 6 180 18 210 27 247 69 326 259 227 553 -33 100 -95 257 -157 400 -16 36 -51 119 -79 186 -27 66 -61 145 -74 175 -32 69 -164 390 -205 494 -45 116 -56 167 -49 243 32 356 380 856 912 1307 314 267 647 616 945 990 61 77 126 158 144 180 180 224 486 692 646 990 15 28 49 91 75 140 175 326 444 728 674 1005 233 282 410 447 622 581 184 116 291 215 364 341 190 323 82 733 -295 1122 -483 498 -1239 844 -2140 976 -69 11 -172 26 -230 35 -189 30 -203 32 -355 54 -405 57 -445 62 -725 86 -188 16 -376 17 -505 4z"/>
 <path d="M2424 12256 c-42 -19 -59 -68 -49 -149 12 -111 22 -141 206 -647 69 -192 131 -459 159 -690 13 -112 13 -410 -1 -502 -6 -40 -23 -116 -37 -168 -57 -203 -29 -388 105 -685 67 -148 124 -254 221 -410 63 -102 163 -248 182 -265 3 -3 25 -32 49 -65 199 -270 626 -685 941 -915 359 -263 659 -390 920 -390 241 0 405 103 515 325 87 176 117 340 116 640 0 456 -94 933 -313 1590 -255 763 -685 1313 -1336 1704 -224 135 -607 306 -1137 509 -302 116 -467 152 -541 118z"/>
 </g>

</svg>