<!DOCTYPE svg PUBLIC "-//W3C//DTD SVG 20010904//EN" "http://www.w3.org/TR/2001/REC-SVG-20010904/DTD/svg10.dtd">
<svg version="1.0" xmlns="http://www.w3.org/2000/svg" width="1333px" height="1600px" viewBox="0 0 13330 16000" preserveAspectRatio="xMidYMid meet">
<g id="layer101" fill="#0c0c0c" stroke="none">
 <path d="M9090 15140 c-109 -6 -156 -14 -277 -47 -56 -14 -133 -76 -133 -106 0 -10 -4 -17 -10 -17 -5 0 -14 -15 -19 -32 -6 -18 -26 -80 -46 -138 -20 -58 -40 -123 -45 -145 -4 -22 -17 -80 -27 -130 -34 -157 -54 -284 -98 -630 -26 -201 -54 -365 -90 -515 -7 -30 -18 -82 -25 -115 -6 -33 -18 -89 -26 -125 -54 -235 -67 -286 -118 -457 -8 -27 -20 -73 -27 -103 -6 -30 -18 -72 -25 -93 -8 -20 -14 -45 -14 -55 0 -10 -13 -60 -30 -112 -16 -52 -44 -140 -61 -195 -17 -55 -38 -115 -45 -133 -8 -18 -14 -40 -14 -49 0 -8 -11 -50 -25 -92 -14 -42 -43 -130 -64 -196 -40 -122 -109 -324 -161 -470 -15 -44 -42 -120 -60 -170 -37 -106 -57 -159 -75 -200 -8 -16 -21 -50 -29 -75 -8 -25 -25 -70 -36 -100 -12 -30 -25 -67 -30 -81 -4 -14 -12 -34 -18 -45 -9 -18 -22 -50 -59 -149 -35 -94 -46 -121 -56 -145 -5 -14 -15 -38 -22 -55 -19 -47 -45 -107 -91 -210 -9 -22 -24 -56 -32 -75 -8 -19 -21 -46 -27 -60 -7 -14 -18 -43 -25 -65 -7 -22 -18 -51 -25 -65 -7 -14 -17 -36 -23 -50 -6 -14 -35 -77 -65 -140 -30 -63 -71 -151 -92 -195 -21 -44 -66 -138 -101 -210 -34 -71 -68 -141 -74 -155 -6 -14 -26 -52 -46 -85 -19 -33 -40 -72 -45 -87 -6 -16 -14 -28 -19 -28 -4 0 -10 -8 -14 -17 -3 -10 -19 -40 -36 -68 -17 -27 -35 -59 -40 -70 -6 -11 -19 -33 -30 -50 -11 -16 -25 -40 -31 -52 -7 -13 -16 -23 -21 -23 -4 0 -8 -5 -8 -10 0 -12 -41 -73 -52 -78 -5 -2 -8 -8 -8 -14 0 -5 -11 -24 -25 -42 -14 -18 -25 -38 -25 -44 0 -6 -3 -12 -7 -14 -11 -5 -53 -66 -53 -77 0 -5 -4 -11 -8 -13 -9 -4 -162 -232 -162 -242 0 -7 -12 -23 -42 -57 -10 -10 -18 -23 -18 -28 0 -5 -4 -11 -8 -13 -4 -1 -19 -19 -32 -38 -66 -96 -424 -576 -436 -586 -8 -6 -14 -14 -14 -18 0 -4 -6 -13 -12 -20 -7 -7 -31 -35 -53 -62 -22 -26 -48 -56 -57 -66 -10 -10 -18 -22 -18 -28 0 -5 -3 -10 -8 -10 -4 0 -32 -31 -62 -70 -30 -38 -58 -70 -62 -70 -5 0 -8 -7 -8 -15 0 -8 -4 -15 -8 -15 -5 0 -29 -28 -54 -62 -26 -35 -65 -82 -88 -106 -22 -23 -76 -81 -118 -130 -84 -95 -140 -157 -188 -205 -16 -18 -66 -72 -109 -122 -44 -49 -94 -104 -112 -121 -18 -17 -33 -34 -33 -38 0 -4 -11 -17 -23 -29 -13 -12 -68 -71 -122 -132 -54 -60 -109 -120 -122 -132 -13 -12 -23 -27 -23 -33 0 -5 -4 -10 -9 -10 -4 0 -52 -49 -105 -110 -112 -127 -83 -117 -311 -100 -71 5 -238 16 -370 25 -345 22 -647 43 -825 56 -85 6 -225 15 -310 19 -85 5 -216 13 -290 19 -74 6 -243 17 -375 26 -132 8 -337 22 -455 30 -235 16 -483 31 -658 41 l-112 6 0 -374 c0 -381 12 -712 31 -828 6 -36 15 -94 19 -130 10 -74 30 -163 60 -265 11 -38 27 -95 36 -125 8 -30 23 -73 33 -95 10 -22 24 -56 31 -75 19 -54 25 -68 71 -165 23 -49 45 -92 48 -95 3 -3 20 -32 36 -65 31 -61 112 -202 127 -220 26 -31 88 -120 88 -126 0 -7 125 -175 146 -197 7 -7 28 -33 45 -57 18 -25 36 -45 41 -45 4 0 8 -7 8 -15 0 -8 4 -15 8 -15 5 0 23 -19 40 -42 17 -24 54 -68 82 -98 60 -65 83 -89 215 -235 55 -60 125 -135 155 -166 30 -30 75 -80 100 -109 25 -30 55 -65 67 -78 13 -12 23 -27 23 -32 0 -6 4 -10 9 -10 5 0 26 -27 47 -60 22 -33 42 -60 47 -60 4 0 7 -6 7 -14 0 -8 3 -16 8 -18 11 -5 52 -66 52 -77 0 -5 6 -16 13 -23 25 -27 97 -197 97 -232 1 -11 8 -39 16 -61 13 -34 15 -123 14 -605 -1 -474 2 -579 15 -650 19 -101 30 -133 62 -182 84 -126 294 -97 432 59 51 58 51 58 76 108 11 21 31 52 45 68 31 36 134 117 150 117 6 0 21 5 33 12 12 7 38 18 57 25 41 16 345 43 473 43 49 0 136 6 195 14 59 8 168 22 242 30 214 26 368 46 460 61 47 7 132 21 190 30 58 9 143 22 190 30 47 7 126 19 175 25 50 7 115 19 146 26 31 8 69 14 83 14 15 0 55 6 89 14 34 8 107 22 162 31 55 9 129 23 165 31 36 8 75 14 88 14 13 0 51 6 85 14 79 18 193 41 277 56 36 6 97 18 135 26 139 29 212 43 295 59 47 9 107 23 134 31 26 8 57 14 67 14 11 0 45 6 77 14 78 20 175 42 247 56 56 11 84 17 252 56 97 22 270 65 358 89 66 18 158 41 220 55 83 19 168 42 208 56 20 8 46 14 57 14 11 0 34 6 52 14 18 7 58 21 88 29 30 9 102 30 160 47 58 17 123 36 145 42 22 5 55 16 73 24 18 8 41 14 52 14 11 0 34 6 52 14 18 8 80 29 138 46 58 18 123 38 145 45 43 14 175 55 265 81 30 9 70 22 88 30 18 8 41 14 52 14 11 0 34 6 52 14 18 8 60 22 93 31 33 10 71 22 85 27 14 6 48 17 75 24 28 8 66 19 85 25 19 6 51 14 70 19 19 5 58 16 85 24 28 9 82 25 120 36 81 24 143 42 218 65 28 9 68 20 87 24 60 15 203 51 255 66 80 22 243 64 345 90 36 9 88 22 115 30 28 7 79 21 115 30 36 10 76 21 90 25 14 4 50 14 80 23 135 38 416 133 470 159 19 9 60 28 91 42 64 29 132 98 173 175 43 82 69 220 62 326 -6 94 -27 221 -45 268 -6 16 -11 37 -11 48 0 19 -33 114 -64 184 -8 17 -21 50 -31 75 -9 25 -22 54 -27 65 -37 69 -98 193 -98 199 0 3 -12 25 -27 49 -38 59 -51 80 -59 97 -4 8 -19 33 -33 55 -40 63 -49 77 -73 123 -12 23 -26 42 -30 42 -4 0 -8 5 -8 11 0 6 -13 31 -30 56 -16 24 -30 46 -30 48 0 2 -13 24 -30 48 -16 25 -30 50 -30 56 0 6 -4 11 -8 11 -5 0 -18 19 -31 43 -12 23 -31 56 -41 72 -11 17 -24 39 -30 50 -6 11 -19 34 -30 50 -10 17 -25 41 -33 55 -38 70 -151 266 -156 270 -3 3 -15 23 -26 45 -11 22 -26 46 -32 53 -7 7 -13 20 -13 28 0 8 -4 14 -8 14 -5 0 -17 19 -27 43 -15 35 -78 147 -116 207 -5 8 -14 27 -20 43 -6 15 -15 27 -20 27 -5 0 -9 5 -9 11 0 7 -24 53 -52 103 -29 50 -58 100 -65 111 -6 11 -34 65 -63 120 -28 55 -62 118 -74 140 -51 92 -102 186 -151 280 -28 55 -65 125 -82 155 -59 108 -96 176 -148 275 -29 55 -65 123 -80 150 -15 28 -52 97 -82 155 -31 58 -68 128 -83 155 -111 202 -140 259 -140 275 0 5 -3 10 -8 10 -4 0 -18 24 -32 53 -13 28 -27 54 -30 57 -3 3 -15 23 -26 45 -20 39 -20 45 -7 275 15 254 34 611 58 1085 9 165 22 419 30 565 8 146 19 384 25 530 6 146 17 402 25 570 22 438 34 718 46 1020 5 146 15 342 22 437 l12 172 555 558 c305 307 566 572 580 588 13 17 47 57 74 90 28 33 55 65 61 71 35 36 155 201 155 213 0 5 3 11 8 13 12 5 64 88 96 153 54 108 69 155 87 275 21 135 -45 307 -171 444 -68 74 -119 126 -125 126 -3 0 -14 8 -24 18 -11 9 -26 22 -33 27 -37 27 -192 92 -278 115 -25 7 -63 19 -85 26 -22 7 -74 20 -115 30 -41 9 -100 23 -131 30 -30 8 -66 14 -79 14 -13 0 -46 6 -74 14 -56 16 -176 36 -361 61 -66 9 -144 20 -174 26 -30 5 -79 9 -108 9 -30 0 -113 6 -186 14 -153 17 -609 26 -777 16z"/>
 </g>
<g id="layer102" fill="#5d5d5d" stroke="none">
 <path d="M9420 14810 c-124 -9 -196 -22 -268 -49 -167 -62 -258 -168 -303 -351 -18 -69 -19 -116 -17 -570 l2 -495 -27 -90 c-36 -119 -51 -175 -71 -265 -10 -41 -23 -100 -31 -130 -7 -30 -21 -95 -30 -145 -9 -49 -22 -121 -30 -160 -7 -38 -18 -110 -25 -160 -16 -130 -38 -252 -57 -315 -23 -80 -73 -230 -88 -265 -7 -16 -27 -66 -45 -109 -18 -44 -36 -87 -40 -95 -141 -265 -302 -696 -391 -1046 -11 -44 -26 -105 -34 -135 -8 -30 -24 -95 -35 -144 -20 -83 -80 -276 -100 -321 -39 -91 -53 -124 -96 -225 -44 -104 -81 -180 -208 -425 -22 -44 -75 -135 -116 -203 -41 -67 -85 -139 -97 -160 -12 -20 -27 -44 -33 -52 -5 -8 -29 -44 -52 -80 -39 -62 -322 -492 -378 -575 -47 -70 -144 -238 -165 -285 -37 -82 -123 -208 -284 -419 -14 -18 -44 -58 -66 -87 -22 -29 -69 -89 -105 -134 -36 -45 -78 -98 -93 -118 -16 -20 -43 -55 -61 -77 -18 -22 -55 -67 -81 -100 -27 -33 -51 -62 -55 -65 -3 -3 -22 -26 -41 -51 -19 -25 -55 -70 -81 -100 -53 -62 -126 -150 -215 -258 -34 -42 -96 -116 -137 -166 -42 -49 -110 -130 -151 -180 -188 -225 -225 -268 -295 -351 -41 -49 -77 -91 -80 -94 -3 -3 -35 -41 -70 -84 -36 -44 -76 -91 -89 -105 -13 -14 -48 -56 -78 -94 -30 -37 -62 -75 -72 -85 -9 -9 -45 -51 -78 -92 -34 -41 -81 -96 -105 -121 l-43 -46 -215 13 c-345 22 -699 43 -930 54 -118 6 -330 17 -470 25 -140 8 -390 22 -555 30 -165 9 -415 22 -555 30 -140 8 -313 17 -385 20 -71 3 -167 8 -212 11 l-83 7 0 -369 c1 -460 12 -700 40 -814 12 -47 23 -96 27 -110 11 -49 110 -255 130 -272 7 -6 13 -14 13 -18 0 -18 151 -227 216 -300 18 -19 56 -63 85 -97 114 -131 334 -375 483 -538 490 -534 682 -797 769 -1055 48 -141 64 -252 73 -490 13 -383 72 -427 464 -345 36 7 110 21 165 30 55 9 136 23 180 30 44 8 116 19 160 25 44 6 125 17 180 25 55 8 152 21 215 30 63 9 160 22 215 30 55 7 154 21 220 30 66 9 165 23 220 30 194 28 321 45 410 55 252 30 511 68 777 115 48 8 98 15 113 15 14 0 54 6 88 14 61 14 188 38 297 56 97 16 233 41 295 55 67 15 160 35 280 60 44 10 107 23 140 31 33 8 112 25 175 39 118 27 191 44 270 66 25 6 72 18 105 26 67 15 103 24 187 48 32 8 82 22 110 29 234 62 317 85 568 161 157 48 299 91 315 95 17 4 125 39 240 78 116 38 248 81 295 96 47 15 130 41 185 58 55 17 159 50 230 73 193 64 446 141 555 170 36 9 77 22 92 27 14 5 41 13 60 18 18 4 74 20 123 34 91 26 113 33 220 62 63 18 235 69 370 111 156 49 309 127 383 197 39 36 77 106 87 158 7 38 -32 172 -80 276 -14 29 -25 54 -25 57 0 22 -292 603 -460 915 -31 58 -64 121 -73 140 -10 19 -22 42 -27 50 -5 8 -29 51 -55 95 -25 44 -50 87 -55 95 -6 8 -13 22 -17 30 -6 14 -160 285 -448 785 -76 132 -149 256 -162 275 -12 19 -23 40 -23 46 0 7 -3 14 -7 16 -5 2 -16 18 -25 36 -10 17 -26 47 -35 64 -10 18 -21 35 -24 38 -3 3 -12 17 -20 32 -14 27 -95 168 -290 503 -51 88 -99 171 -106 185 -8 14 -28 48 -44 75 -16 28 -34 59 -39 70 -6 11 -19 34 -30 50 -11 17 -23 37 -27 45 -4 8 -26 47 -50 86 l-43 72 0 2599 0 2599 203 195 c111 107 299 285 417 396 256 239 653 639 736 741 98 122 194 258 215 306 5 12 18 36 30 55 42 69 72 179 70 259 -3 164 -124 286 -361 364 -178 59 -291 80 -735 133 -280 33 -631 48 -815 35z"/>
 <path d="M9746 12019 c-37 -256 -37 -981 0 -1163 12 -55 24 -2 44 186 27 248 27 644 1 843 -20 161 -35 203 -45 134z"/>
 <path d="M10076 11853 c-25 -106 -24 -1098 2 -1163 9 -24 10 -24 21 15 23 81 31 165 39 400 9 266 8 345 -8 550 -15 192 -37 271 -54 198z"/>
 <path d="M906 5182 c-25 -41 -33 -335 -16 -607 15 -239 23 -258 54 -135 30 123 37 531 11 675 -7 37 -39 82 -49 67z"/>
 <path d="M2319 1838 c-24 -57 -17 -420 10 -565 13 -65 29 -154 38 -198 18 -95 35 -155 45 -155 31 0 72 410 61 605 -10 197 -64 345 -124 345 -9 0 -22 -14 -30 -32z"/>
 </g>
<g id="layer103" fill="#2c82c9" stroke="none">
 <path d="M9420 14810 c-124 -9 -196 -22 -268 -49 -167 -62 -258 -168 -303 -351 -18 -69 -19 -116 -17 -570 l2 -495 -27 -90 c-36 -119 -51 -175 -71 -265 -10 -41 -23 -100 -31 -130 -7 -30 -21 -95 -30 -145 -9 -49 -22 -121 -30 -160 -7 -38 -18 -110 -25 -160 -16 -130 -38 -252 -57 -315 -23 -80 -73 -230 -88 -265 -7 -16 -27 -66 -45 -109 -18 -44 -36 -87 -40 -95 -141 -265 -302 -696 -391 -1046 -11 -44 -26 -105 -34 -135 -8 -30 -24 -95 -35 -144 -20 -83 -80 -276 -100 -321 -39 -91 -53 -124 -96 -225 -44 -104 -81 -180 -208 -425 -22 -44 -75 -135 -116 -203 -41 -67 -85 -139 -97 -160 -12 -20 -27 -44 -33 -52 -5 -8 -29 -44 -52 -80 -39 -62 -322 -492 -378 -575 -47 -70 -144 -238 -165 -285 -37 -82 -123 -208 -284 -419 -14 -18 -44 -58 -66 -87 -22 -29 -69 -89 -105 -134 -36 -45 -78 -98 -93 -118 -16 -20 -43 -55 -61 -77 -18 -22 -55 -67 -81 -100 -27 -33 -51 -62 -55 -65 -3 -3 -22 -26 -41 -51 -19 -25 -55 -70 -81 -100 -53 -62 -126 -150 -215 -258 -34 -42 -96 -116 -137 -166 -42 -49 -110 -130 -151 -180 -188 -225 -225 -268 -295 -351 -41 -49 -77 -91 -80 -94 -3 -3 -35 -41 -70 -84 -36 -44 -76 -91 -89 -105 -13 -14 -48 -56 -78 -94 -30 -37 -62 -75 -72 -85 -9 -9 -45 -51 -78 -92 -34 -41 -81 -96 -105 -121 l-43 -46 -215 13 c-345 22 -699 43 -930 54 -118 6 -330 17 -470 25 -140 8 -390 22 -555 30 -165 9 -415 22 -555 30 -140 8 -313 17 -385 20 -71 3 -167 8 -212 11 l-83 7 0 -369 c1 -460 12 -700 40 -814 12 -47 23 -96 27 -110 11 -49 110 -255 130 -272 7 -6 13 -14 13 -18 0 -18 151 -227 216 -300 18 -19 56 -63 85 -97 114 -131 334 -375 483 -538 490 -534 682 -797 769 -1055 48 -141 64 -252 73 -490 13 -383 72 -427 464 -345 36 7 110 21 165 30 55 9 136 23 180 30 44 8 116 19 160 25 44 6 125 17 180 25 55 8 152 21 215 30 63 9 160 22 215 30 55 7 154 21 220 30 66 9 165 23 220 30 194 28 321 45 410 55 252 30 511 68 777 115 48 8 98 15 113 15 14 0 54 6 88 14 61 14 188 38 297 56 97 16 233 41 295 55 67 15 160 35 280 60 44 10 107 23 140 31 33 8 112 25 175 39 118 27 191 44 270 66 25 6 72 18 105 26 67 15 103 24 187 48 32 8 82 22 110 29 234 62 317 85 568 161 157 48 299 91 315 95 17 4 125 39 240 78 116 38 248 81 295 96 47 15 130 41 185 58 55 17 159 50 230 73 193 64 446 141 555 170 36 9 77 22 92 27 14 5 41 13 60 18 18 4 74 20 123 34 91 26 113 33 220 62 63 18 235 69 370 111 156 49 309 127 383 197 39 36 77 106 87 158 7 38 -32 172 -80 276 -14 29 -25 54 -25 57 0 22 -292 603 -460 915 -31 58 -64 121 -73 140 -10 19 -22 42 -27 50 -5 8 -29 51 -55 95 -25 44 -50 87 -55 95 -6 8 -13 22 -17 30 -6 14 -160 285 -448 785 -76 132 -149 256 -162 275 -12 19 -23 40 -23 46 0 7 -3 14 -7 16 -5 2 -16 18 -25 36 -10 17 -26 47 -35 64 -10 18 -21 35 -24 38 -3 3 -12 17 -20 32 -14 27 -95 168 -290 503 -51 88 -99 171 -106 185 -8 14 -28 48 -44 75 -16 28 -34 59 -39 70 -6 11 -19 34 -30 50 -11 17 -23 37 -27 45 -4 8 -26 47 -50 86 l-43 72 0 2599 0 2599 203 195 c111 107 299 285 417 396 256 239 653 639 736 741 98 122 194 258 215 306 5 12 18 36 30 55 42 69 72 179 70 259 -3 164 -124 286 -361 364 -178 59 -291 80 -735 133 -280 33 -631 48 -815 35z"/>
 </g>

</svg>