<!DOCTYPE svg PUBLIC "-//W3C//DTD SVG 20010904//EN" "http://www.w3.org/TR/2001/REC-SVG-20010904/DTD/svg10.dtd">
<svg version="1.0" xmlns="http://www.w3.org/2000/svg" width="1600px" height="1152px" viewBox="0 0 16000 11520" preserveAspectRatio="xMidYMid meet">
<g id="layer101" fill="#060606" stroke="none">
 <path d="M7628 11489 c-20 -5 -67 -29 -103 -54 -36 -25 -76 -47 -88 -49 -68 -14 -150 -26 -205 -31 -86 -8 -131 -26 -231 -92 -76 -50 -240 -177 -296 -230 -18 -16 -103 -89 -174 -148 -13 -11 -31 -27 -40 -36 -32 -31 -168 -124 -261 -179 -120 -71 -187 -102 -270 -124 -146 -40 -291 -91 -389 -138 -93 -45 -198 -103 -211 -118 -3 -3 -24 -17 -46 -32 -59 -38 -206 -180 -283 -273 -178 -214 -249 -342 -300 -540 l-18 -70 -7 70 c-12 111 -14 100 -15 -63 -1 -84 -7 -212 -15 -285 -8 -73 -19 -186 -25 -252 -24 -259 -40 -446 -51 -580 -11 -133 -40 -362 -60 -470 -23 -128 -100 -308 -194 -455 -23 -36 -55 -87 -70 -114 -41 -70 -151 -175 -225 -215 -84 -44 -149 -61 -243 -61 -137 0 -256 36 -489 147 -181 88 -207 99 -245 107 -25 6 -31 11 -27 26 4 15 -2 23 -23 31 -47 19 -202 38 -308 39 -54 0 -142 6 -195 14 -53 8 -161 19 -241 26 -80 6 -188 16 -240 21 -52 5 -174 14 -270 19 -413 25 -511 31 -614 40 l-110 10 -60 -52 c-34 -28 -66 -56 -71 -62 -6 -6 -51 -47 -100 -90 -50 -44 -95 -85 -100 -90 -6 -6 -46 -42 -90 -81 -44 -38 -95 -83 -114 -100 -19 -16 -61 -55 -94 -85 l-59 -54 5 -596 c8 -933 17 -977 326 -1588 20 -39 175 -273 197 -297 11 -11 37 -43 59 -70 51 -65 196 -210 260 -261 27 -21 57 -46 66 -55 21 -21 132 -97 184 -126 145 -82 276 -133 495 -193 25 -7 65 -19 90 -26 25 -8 101 -30 170 -50 131 -38 664 -214 860 -284 63 -23 126 -45 140 -50 113 -37 382 -135 620 -227 36 -14 81 -31 100 -38 19 -7 64 -24 100 -38 36 -14 97 -38 135 -52 39 -14 97 -37 130 -49 33 -13 89 -35 125 -48 36 -14 94 -37 130 -51 36 -14 110 -42 165 -62 55 -20 116 -43 135 -50 98 -37 232 -86 285 -104 33 -11 125 -43 205 -71 231 -81 623 -210 835 -275 66 -20 138 -42 160 -50 226 -78 720 -204 975 -250 195 -35 330 -64 590 -126 224 -54 257 -62 395 -99 66 -17 147 -38 180 -46 33 -8 85 -21 115 -29 632 -168 1555 -270 3195 -355 116 -6 278 -15 360 -21 83 -5 228 -14 324 -19 102 -5 176 -13 180 -19 10 -15 247 -31 473 -31 167 0 424 -19 478 -35 8 -3 55 -12 104 -20 145 -25 340 -88 466 -150 250 -124 344 -163 510 -211 243 -71 461 -70 554 1 55 42 68 69 62 129 -9 81 -55 137 -228 276 -84 68 -155 127 -158 130 -3 3 -14 13 -26 21 -11 8 -50 39 -85 70 -35 31 -102 89 -149 130 -47 40 -92 81 -100 89 -8 9 -42 40 -75 70 -33 29 -113 103 -178 164 -66 61 -131 122 -146 136 -165 153 -163 151 -151 165 7 8 16 15 21 15 5 0 41 16 81 36 40 20 111 50 158 67 85 31 85 32 270 29 102 -1 210 3 240 9 167 32 339 133 416 244 58 85 74 161 74 355 0 230 -22 339 -84 413 -53 63 -76 161 -95 402 -14 169 -40 257 -131 445 -64 131 -281 464 -382 585 -10 11 -40 49 -68 85 -28 36 -59 74 -68 85 -99 117 -127 151 -132 155 -3 3 -41 46 -85 95 -43 50 -86 97 -95 106 -8 9 -73 79 -145 155 -173 186 -385 394 -400 394 -7 0 -18 6 -24 14 -41 50 -178 75 -301 56 -155 -24 -210 -24 -272 0 -32 12 -85 42 -119 67 -91 66 -302 282 -489 498 -52 61 -100 116 -107 122 -26 28 -101 150 -114 186 -17 49 -4 86 66 183 143 199 247 508 249 739 1 143 -4 163 -51 216 -29 32 -200 149 -218 149 -2 0 -28 11 -57 24 -150 68 -298 106 -417 106 -91 0 -117 -11 -137 -57 -27 -59 -31 -289 -9 -450 10 -70 18 -164 19 -208 0 -125 -23 -153 -171 -201 -61 -20 -86 -34 -115 -65 -46 -49 -58 -91 -68 -235 -12 -178 -45 -217 -170 -200 -54 7 -81 17 -220 83 -52 25 -114 54 -137 65 -65 30 -204 51 -250 38 -69 -19 -103 -62 -103 -131 0 -33 13 -76 45 -150 53 -121 67 -185 41 -195 -43 -16 -127 54 -203 170 -26 39 -60 86 -77 104 -42 45 -149 114 -219 142 -79 31 -107 55 -107 91 0 72 119 238 172 240 44 2 58 -2 130 -44 l72 -42 126 0 c110 1 134 4 202 28 214 75 293 203 212 343 -24 42 -52 59 -115 67 -137 19 -453 255 -515 385 -19 40 -6 62 35 62 50 0 122 33 151 70 62 80 113 218 174 480 106 451 111 481 110 735 0 207 -1 226 -26 315 -49 173 -77 223 -188 330 -117 112 -161 168 -242 310 -144 252 -204 335 -352 484 -119 119 -192 179 -313 259 -163 107 -218 131 -493 212 -208 61 -309 96 -445 153 -280 117 -398 153 -620 187 -99 16 -230 18 -287 4z"/>
 </g>
<g id="layer102" fill="#686868" stroke="none">
 <path d="M7724 11245 c-178 -40 -368 -131 -618 -297 -156 -105 -257 -188 -396 -330 -117 -118 -198 -185 -306 -250 -89 -55 -140 -73 -239 -88 -94 -13 -253 -55 -343 -88 -126 -48 -281 -146 -394 -250 -45 -41 -55 -47 -35 -22 15 19 47 60 71 90 51 65 79 117 71 130 -23 38 -212 -148 -366 -360 -86 -119 -95 -133 -128 -198 -46 -91 -60 -136 -77 -252 -13 -89 -14 -176 -8 -573 4 -257 8 -466 9 -465 2 2 8 75 15 163 25 328 28 347 24 130 -6 -259 -17 -328 -110 -699 -31 -121 -102 -353 -89 -286 15 72 17 151 5 180 -27 65 -43 26 -127 -300 -74 -286 -84 -333 -71 -341 11 -7 -63 -135 -128 -219 -23 -30 -68 -80 -99 -110 l-57 -55 27 42 c49 76 14 77 -75 3 -66 -55 -114 -76 -225 -99 -55 -11 -143 -30 -195 -41 -177 -40 -220 -32 -470 88 -58 28 -125 58 -150 67 -58 22 -340 90 -450 108 l-85 15 168 1 c171 1 257 13 257 36 0 44 -435 69 -765 44 -77 -5 -151 -13 -165 -16 -24 -5 -24 -6 -5 -14 17 -8 17 -9 -5 -5 -14 3 -108 10 -210 16 -102 6 -249 15 -326 20 -371 26 -544 3 -660 -85 l-33 -25 35 51 c38 57 41 67 19 76 -53 20 -352 -275 -367 -361 -5 -31 14 -28 75 8 l57 34 -25 -32 c-36 -47 -70 -130 -91 -221 -15 -67 -18 -124 -18 -355 0 -303 6 -356 70 -710 3 -14 -7 -1 -21 29 -37 79 -50 59 -50 -77 1 -83 6 -122 24 -176 29 -90 63 -155 95 -185 l26 -24 0 45 c0 25 -5 69 -10 98 -6 29 -8 55 -6 57 2 2 18 -38 34 -89 115 -355 311 -710 491 -888 126 -124 224 -166 521 -221 214 -39 697 -185 1120 -339 63 -23 140 -50 170 -60 30 -10 107 -37 170 -60 63 -23 126 -45 140 -50 14 -4 43 -16 65 -25 22 -10 81 -32 130 -50 50 -19 149 -56 220 -83 169 -65 1126 -426 1230 -464 44 -17 168 -61 275 -98 720 -251 860 -293 1675 -490 218 -52 404 -98 610 -148 66 -17 245 -62 399 -101 653 -168 711 -181 991 -225 345 -54 786 -102 1250 -136 358 -27 360 -27 155 -30 -102 -2 -277 -6 -390 -9 -194 -6 -201 -7 -125 -16 78 -9 749 -13 1090 -7 94 2 278 -3 410 -12 132 -8 339 -20 460 -26 121 -6 326 -17 455 -25 129 -8 339 -19 465 -26 127 -6 316 -17 420 -23 l190 -12 -305 -7 c-168 -5 -456 -11 -640 -16 -184 -4 -281 -9 -215 -10 66 -1 192 -8 280 -16 248 -24 614 -44 905 -50 448 -10 566 -36 691 -153 35 -32 82 -69 104 -81 38 -20 85 -28 85 -14 0 13 -54 79 -99 121 l-46 43 74 -51 c168 -118 272 -176 367 -208 33 -10 64 0 64 21 0 13 -34 80 -50 101 -179 223 -409 430 -690 622 -224 152 -300 245 -280 341 17 80 67 116 280 206 86 36 203 88 260 115 58 27 123 55 144 62 58 19 160 8 231 -25 110 -50 217 -45 306 15 131 86 175 252 116 440 -42 136 -67 300 -77 500 -14 270 -36 378 -114 543 -68 147 -119 219 -361 512 -78 94 -187 226 -244 295 -110 134 -231 276 -296 350 -23 25 -65 74 -95 110 -81 97 -311 329 -345 348 -26 15 -62 16 -273 14 -235 -3 -246 -2 -325 22 -112 35 -219 100 -310 190 -89 88 -151 174 -249 343 -93 162 -177 245 -265 263 -32 7 -78 22 -103 33 -62 29 -136 105 -151 155 -11 37 -9 48 11 104 29 79 46 107 184 293 177 239 229 328 261 451 18 70 19 100 3 162 -28 113 -250 255 -380 243 -32 -2 -41 -62 -53 -366 -18 -407 -24 -420 -194 -434 -138 -12 -167 -41 -137 -142 18 -59 21 -155 6 -193 -14 -38 -88 -115 -135 -139 -100 -53 -135 -58 -368 -55 l-219 3 -22 -26 c-19 -22 -24 -46 -34 -149 -10 -106 -15 -126 -37 -156 -30 -40 -58 -49 -125 -41 -87 10 -211 83 -392 230 -177 144 -202 163 -283 219 -44 30 -116 74 -160 97 -123 66 -185 143 -185 232 0 62 55 140 118 166 19 8 59 38 88 68 47 47 54 59 60 106 13 99 99 147 243 137 83 -6 121 -26 192 -99 53 -55 113 -86 132 -69 23 21 -93 169 -292 372 -256 263 -273 301 -174 391 174 158 258 248 325 354 86 135 131 417 132 823 0 219 -3 280 -18 350 -22 105 -38 136 -80 161 -18 10 -55 47 -82 81 -46 58 -154 221 -154 232 0 11 -138 237 -189 310 -30 44 -107 132 -171 196 -210 211 -439 347 -685 404 -38 9 -128 30 -200 47 -148 34 -226 66 -249 101 -20 31 -71 59 -174 97 -163 60 -398 112 -502 110 -25 -1 -72 -7 -106 -14z m-2414 -1422 c-68 -74 -89 -94 -65 -63 25 32 108 120 114 120 2 0 -20 -26 -49 -57z m-293 -985 c-2 -13 -4 -5 -4 17 -1 22 1 32 4 23 2 -10 2 -28 0 -40z m-4268 -3563 l0 -20 -9 20 c-5 11 -9 29 -9 40 l0 20 9 -20 c5 -11 9 -29 9 -40z m19 -85 c0 -9 -3 -7 -8 5 -5 11 -8 29 -8 40 0 16 2 15 8 -5 4 -14 8 -32 8 -40z"/>
 <path d="M7210 11136 c-83 -30 -217 -135 -356 -277 -89 -93 -192 -234 -180 -247 4 -3 59 46 124 110 64 64 180 163 257 221 142 106 225 179 225 197 0 13 -27 12 -70 -4z"/>
 <path d="M4691 9365 c-2 -215 -27 -822 -41 -980 -19 -226 -38 -370 -60 -449 -11 -43 -19 -80 -17 -82 5 -6 88 173 104 226 8 25 23 119 34 210 16 135 20 235 22 555 1 278 -2 409 -11 455 -6 36 -16 103 -21 150 -8 80 -8 74 -10 -85z"/>
 <path d="M4485 7538 c-33 -39 -83 -114 -244 -364 -115 -178 -208 -223 -495 -239 -130 -7 -164 -19 -85 -30 41 -6 49 -10 34 -16 -11 -4 -15 -8 -10 -8 6 -1 47 -5 91 -10 68 -8 97 -7 175 10 138 28 198 62 321 182 87 84 108 110 118 147 7 25 41 101 76 170 90 180 98 250 19 158z"/>
 <path d="M1415 7365 c-55 -7 -97 -13 -94 -14 131 -28 401 -60 864 -101 72 -6 195 -18 275 -27 158 -16 492 -23 553 -10 44 9 49 33 10 49 -47 18 -202 37 -313 38 -58 0 -215 9 -350 20 -135 11 -285 20 -335 20 -64 0 -99 5 -120 17 -40 21 -346 27 -490 8z"/>
 <path d="M1540 7100 c-167 -9 -156 -8 -143 -21 28 -28 417 -33 483 -6 24 10 22 11 -20 17 -87 14 -186 17 -320 10z"/>
 <path d="M407 6415 c-8 -189 -7 -630 2 -800 6 -112 7 -116 14 -65 15 98 22 479 14 724 -9 304 -21 359 -30 141z"/>
 <path d="M585 6279 c-18 -150 -5 -575 16 -537 25 45 37 333 19 486 -13 114 -26 133 -35 51z"/>
 <path d="M11520 1520 c-13 -9 -13 -11 0 -20 26 -16 94 -22 223 -19 89 3 129 8 141 19 17 13 17 14 -1 21 -28 11 -346 10 -363 -1z"/>
 <path d="M10360 1332 c-212 -22 352 -49 719 -35 233 9 274 14 259 29 -8 8 -902 13 -978 6z"/>
 <path d="M12650 1141 c0 -17 152 -26 430 -26 307 0 561 12 539 26 -19 12 -969 12 -969 0z"/>
 <path d="M14883 701 c-78 -3 -144 -9 -148 -13 -7 -6 57 -30 71 -27 5 2 50 -1 99 -5 125 -10 301 14 274 37 -10 9 -163 13 -296 8z"/>
 </g>
<g id="layer103" fill="#2c82c9" stroke="none">
 <path d="M7724 11245 c-179 -40 -368 -131 -619 -298 -150 -100 -251 -185 -385 -321 -143 -146 -299 -262 -420 -314 -25 -10 -85 -24 -135 -32 -88 -12 -245 -53 -335 -85 -184 -67 -405 -231 -561 -418 -27 -32 -49 -54 -49 -49 0 9 -1 8 125 147 148 163 204 242 190 265 -19 31 -177 -121 -325 -310 -208 -267 -247 -372 -253 -670 -4 -266 6 -881 13 -790 4 47 13 162 20 255 7 94 15 172 17 175 9 8 -7 -421 -18 -485 -13 -81 -53 -261 -94 -426 -30 -117 -54 -199 -120 -404 -57 -179 -186 -429 -291 -565 -51 -66 -231 -244 -215 -213 26 50 17 53 -77 28 -87 -24 -256 -62 -405 -91 -44 -8 -93 -12 -113 -8 -50 9 -159 52 -284 112 -141 68 -170 78 -350 122 -189 46 -253 55 -535 80 -121 11 -276 27 -345 34 -132 16 -420 34 -685 43 -252 9 -381 -16 -485 -95 l-35 -27 18 25 c9 14 24 34 31 45 8 11 16 29 18 40 15 94 -294 -174 -362 -313 -31 -62 -14 -67 60 -17 29 19 54 35 57 35 2 0 -7 -15 -21 -33 -37 -48 -71 -131 -92 -222 -15 -67 -18 -124 -18 -355 0 -266 4 -318 40 -540 106 -657 464 -1351 774 -1501 69 -34 201 -70 360 -100 214 -39 697 -185 1120 -339 63 -23 140 -50 170 -60 30 -10 107 -37 170 -60 63 -23 126 -45 140 -50 14 -4 43 -16 65 -25 22 -10 81 -32 130 -50 50 -19 149 -56 220 -83 169 -65 1126 -426 1230 -464 44 -17 168 -61 275 -98 720 -251 860 -293 1675 -490 218 -52 404 -98 610 -148 66 -17 245 -62 399 -101 653 -168 711 -181 991 -225 345 -54 786 -102 1250 -136 361 -27 361 -25 -5 -35 -250 -6 -333 -11 -300 -17 46 -10 707 -16 1025 -10 99 2 288 -3 420 -12 132 -8 337 -20 455 -26 118 -6 330 -17 470 -25 337 -20 566 -32 840 -46 417 -21 398 -25 -145 -31 -291 -4 -543 -10 -559 -15 -29 -9 -29 -9 388 -44 274 -23 975 -30 1074 -10 48 10 56 8 100 -16 26 -14 90 -55 142 -92 237 -164 324 -215 426 -249 33 -10 64 0 64 21 0 13 -34 80 -50 101 -179 223 -409 430 -690 622 -224 152 -300 245 -280 341 17 80 67 116 280 206 86 36 203 88 260 115 58 27 123 55 144 62 58 19 160 8 231 -25 110 -50 217 -45 306 15 131 86 175 252 116 440 -42 136 -67 300 -77 500 -14 270 -36 378 -114 543 -68 147 -119 219 -361 512 -78 94 -187 226 -244 295 -110 134 -231 276 -296 350 -23 25 -65 74 -95 110 -81 97 -311 329 -345 348 -26 15 -62 16 -273 14 -235 -3 -246 -2 -325 22 -112 35 -219 100 -310 190 -89 88 -151 174 -249 343 -93 162 -177 245 -265 263 -32 7 -78 22 -103 33 -62 29 -136 105 -151 155 -11 37 -9 48 11 104 29 79 46 107 184 293 177 239 229 328 261 451 18 70 19 100 3 162 -28 113 -250 255 -380 243 -32 -2 -41 -62 -53 -366 -18 -407 -24 -420 -194 -434 -138 -12 -167 -41 -137 -142 18 -59 21 -155 6 -193 -14 -38 -88 -115 -135 -139 -100 -53 -135 -58 -368 -55 l-219 3 -22 -26 c-19 -22 -24 -46 -34 -149 -10 -106 -15 -126 -37 -156 -30 -40 -58 -49 -125 -41 -87 10 -211 83 -392 230 -177 144 -202 163 -283 219 -44 30 -116 74 -160 97 -123 66 -185 143 -185 232 0 62 55 140 118 166 19 8 59 38 88 68 47 47 54 59 60 106 13 99 99 147 243 137 83 -6 121 -26 192 -99 53 -55 113 -86 132 -69 23 21 -93 169 -292 372 -256 263 -273 301 -174 391 174 158 258 248 325 354 86 135 131 417 132 823 0 219 -3 280 -18 350 -22 105 -38 136 -80 161 -18 10 -55 47 -82 81 -46 58 -154 221 -154 232 0 11 -138 237 -189 310 -30 44 -107 132 -171 196 -210 211 -439 347 -685 404 -38 9 -128 30 -200 47 -148 34 -226 66 -249 101 -20 31 -71 59 -174 97 -163 60 -398 112 -502 110 -25 -1 -72 -7 -106 -14z m-2707 -2407 c-2 -13 -4 -3 -4 22 0 25 2 35 4 23 2 -13 2 -33 0 -45z"/>
 <path d="M7225 11143 c-95 -24 -346 -238 -466 -396 -107 -142 -101 -151 23 -32 63 61 186 164 273 230 235 178 275 224 170 198z"/>
 <path d="M4697 9203 c-15 -235 -4 -674 15 -655 34 34 32 762 -2 762 -4 0 -10 -48 -13 -107z"/>
 <path d="M1457 7370 c-32 -4 -60 -10 -63 -13 -21 -20 387 -32 471 -13 l40 9 -40 12 c-45 14 -315 17 -408 5z"/>
 <path d="M2305 7290 c-131 -9 -125 -8 -125 -19 0 -4 19 -11 43 -15 245 -36 586 -62 680 -52 125 13 147 18 147 32 0 53 -358 78 -745 54z"/>
 <path d="M4294 7218 c-28 -29 -62 -69 -75 -88 -43 -62 -94 -104 -184 -148 -62 -31 -195 -72 -233 -72 -11 0 -45 -5 -74 -12 -50 -11 -51 -12 -23 -19 67 -15 210 -10 271 11 204 70 421 250 412 342 -5 52 -34 48 -94 -14z"/>
 <path d="M1415 7091 c-26 -6 -27 -8 -10 -14 111 -37 485 -25 424 14 -16 10 -369 10 -414 0z"/>
 <path d="M2285 7001 c-39 -7 -39 -7 30 -19 117 -19 254 -24 386 -13 268 22 192 42 -156 39 -121 0 -238 -4 -260 -7z"/>
 <path d="M10370 1330 c-89 -10 -39 -19 175 -30 218 -12 556 -5 620 13 l40 11 -75 7 c-95 8 -687 8 -760 -1z"/>
 <path d="M12650 1138 c0 -15 176 -23 485 -21 182 1 359 6 395 10 57 8 40 10 -140 17 -231 8 -740 5 -740 -6z"/>
 <path d="M14883 701 c-78 -4 -145 -10 -148 -13 -4 -3 9 -11 27 -17 45 -15 393 -10 409 6 8 8 6 12 -7 16 -39 11 -144 14 -281 8z"/>
 </g>
<g id="layer104" fill="#8e8e8e" stroke="none">
 <path d="M7225 11143 c-95 -24 -346 -238 -466 -396 -107 -142 -101 -151 23 -32 63 61 186 164 273 230 235 178 275 224 170 198z"/>
 <path d="M5495 10131 c-51 -31 -183 -170 -285 -301 -208 -267 -247 -372 -253 -670 -2 -168 5 -887 9 -850 1 14 8 93 14 175 13 175 45 536 61 680 15 141 52 323 78 380 55 124 93 184 171 270 25 27 68 74 96 105 106 116 164 204 147 221 -5 5 -22 0 -38 -10z"/>
 <path d="M4697 9203 c-15 -235 -4 -674 15 -655 34 34 32 762 -2 762 -4 0 -10 -48 -13 -107z"/>
 <path d="M1457 7370 c-32 -4 -60 -10 -63 -13 -21 -20 387 -32 471 -13 l40 9 -40 12 c-45 14 -315 17 -408 5z"/>
 <path d="M2305 7290 c-131 -9 -125 -8 -125 -19 0 -4 19 -11 43 -15 245 -36 586 -62 680 -52 125 13 147 18 147 32 0 53 -358 78 -745 54z"/>
 <path d="M4294 7218 c-28 -29 -62 -69 -75 -88 -43 -62 -94 -104 -184 -148 -62 -31 -195 -72 -233 -72 -11 0 -45 -5 -74 -12 -50 -11 -51 -12 -23 -19 67 -15 210 -10 271 11 204 70 421 250 412 342 -5 52 -34 48 -94 -14z"/>
 <path d="M1415 7091 c-26 -6 -27 -8 -10 -14 111 -37 485 -25 424 14 -16 10 -369 10 -414 0z"/>
 <path d="M990 7033 c-17 -7 -67 -43 -129 -93 -54 -44 -178 -190 -202 -239 -10 -20 -14 -40 -9 -45 15 -15 99 42 188 128 157 151 237 282 152 249z"/>
 <path d="M2285 7001 c-39 -7 -39 -7 30 -19 117 -19 254 -24 386 -13 268 22 192 42 -156 39 -121 0 -238 -4 -260 -7z"/>
 <path d="M4125 6719 c-176 -43 -265 -62 -395 -86 -94 -17 -95 -17 -49 -24 183 -27 375 -19 489 23 64 23 76 32 96 70 29 55 19 56 -141 17z"/>
 <path d="M10090 1601 c-166 -6 -172 -6 -105 -16 136 -18 1073 -10 1053 10 -7 7 -783 12 -948 6z"/>
 <path d="M12573 1431 c-67 -3 -124 -9 -127 -12 -3 -3 61 -11 142 -18 81 -7 201 -17 266 -22 139 -12 609 -25 841 -23 170 1 318 19 312 38 -10 32 -117 38 -717 41 -327 1 -650 0 -717 -4z"/>
 <path d="M10370 1330 c-89 -10 -39 -19 175 -30 218 -12 556 -5 620 13 l40 11 -75 7 c-95 8 -687 8 -760 -1z"/>
 <path d="M12650 1138 c0 -15 176 -23 485 -21 182 1 359 6 395 10 57 8 40 10 -140 17 -231 8 -740 5 -740 -6z"/>
 <path d="M14883 701 c-78 -4 -145 -10 -148 -13 -4 -3 9 -11 27 -17 45 -15 393 -10 409 6 8 8 6 12 -7 16 -39 11 -144 14 -281 8z"/>
 </g>

</svg>