<!DOCTYPE svg PUBLIC "-//W3C//DTD SVG 20010904//EN" "http://www.w3.org/TR/2001/REC-SVG-20010904/DTD/svg10.dtd">
<svg version="1.0" xmlns="http://www.w3.org/2000/svg" width="1280px" height="1600px" viewBox="0 0 12800 16000" preserveAspectRatio="xMidYMid meet">
<g id="layer101" fill="#080808" stroke="none">
 <path d="M4773 15141 c-23 -4 -47 -12 -55 -17 -7 -6 -28 -17 -47 -24 -55 -22 -241 -200 -241 -231 0 -5 -4 -9 -8 -9 -13 0 -144 -199 -189 -287 -9 -18 -20 -33 -25 -33 -4 0 -8 -6 -8 -14 0 -8 -6 -21 -12 -28 -7 -7 -29 -47 -49 -88 -63 -129 -149 -302 -190 -380 -22 -41 -42 -84 -45 -95 -6 -19 -22 -57 -62 -145 -15 -35 -34 -79 -58 -135 -7 -16 -22 -52 -34 -80 -21 -48 -28 -66 -50 -120 -22 -55 -29 -72 -48 -115 -11 -25 -27 -63 -36 -85 -9 -22 -23 -53 -31 -68 -8 -16 -15 -33 -15 -38 0 -5 -13 -37 -29 -71 -15 -35 -34 -79 -41 -98 -6 -19 -26 -69 -42 -110 -17 -41 -34 -84 -38 -95 -5 -11 -17 -40 -28 -65 -11 -25 -30 -72 -43 -105 -13 -33 -26 -64 -29 -70 -4 -5 -13 -30 -20 -55 -7 -25 -17 -49 -21 -55 -4 -5 -19 -41 -33 -80 -15 -38 -30 -79 -35 -90 -12 -29 -35 -88 -71 -185 -18 -47 -36 -93 -41 -102 -5 -10 -9 -24 -9 -32 0 -8 -6 -27 -14 -43 -8 -15 -21 -46 -29 -68 -19 -51 -56 -144 -67 -170 -4 -11 -11 -29 -13 -40 -3 -11 -15 -45 -27 -75 -12 -30 -24 -64 -27 -75 -2 -11 -8 -29 -13 -40 -5 -11 -11 -29 -13 -40 -3 -11 -15 -45 -27 -75 -43 -112 -52 -136 -60 -168 -4 -18 -12 -38 -18 -45 -5 -7 -12 -23 -15 -37 -3 -14 -11 -41 -17 -60 -7 -19 -18 -51 -25 -70 -7 -19 -19 -55 -25 -80 -7 -25 -24 -76 -37 -115 -14 -38 -28 -84 -32 -101 -5 -18 -12 -37 -16 -45 -5 -7 -12 -29 -16 -48 -4 -20 -19 -72 -34 -116 -32 -101 -50 -158 -64 -215 -17 -63 -41 -148 -56 -195 -26 -86 -45 -153 -60 -220 -15 -66 -26 -111 -55 -230 -19 -78 -30 -126 -39 -180 -5 -27 -14 -77 -20 -110 -27 -141 -41 -216 -55 -305 -29 -180 -38 -245 -46 -310 -11 -98 -55 -317 -71 -358 -5 -13 -9 -33 -9 -45 0 -26 -64 -157 -92 -187 -11 -11 -38 -33 -61 -47 -40 -26 -47 -27 -167 -25 -69 1 -141 7 -160 12 -45 14 -169 30 -290 37 -175 10 -392 -32 -526 -103 -87 -46 -164 -95 -164 -105 0 -5 -4 -9 -10 -9 -9 0 -80 -68 -146 -142 -76 -84 -146 -205 -228 -393 -7 -16 -21 -47 -30 -68 -9 -21 -16 -44 -16 -52 0 -8 -6 -29 -14 -47 -8 -18 -22 -69 -31 -113 -10 -44 -23 -100 -30 -125 -7 -25 -18 -74 -23 -110 -6 -36 -18 -112 -27 -170 -8 -58 -22 -144 -30 -191 -26 -149 -13 -273 32 -311 45 -38 139 -36 328 7 39 9 92 20 118 25 27 5 53 12 58 16 5 3 80 12 167 19 167 15 284 9 388 -21 28 -8 59 -14 68 -14 10 0 30 -6 44 -14 15 -7 38 -18 52 -23 41 -17 113 -53 145 -73 17 -11 37 -23 45 -27 8 -3 17 -9 20 -12 3 -3 24 -19 48 -35 23 -16 42 -33 42 -37 0 -5 7 -9 15 -9 8 0 15 -4 15 -10 0 -5 6 -10 13 -10 26 -1 351 -344 452 -478 27 -37 58 -76 68 -87 10 -11 40 -49 65 -85 26 -36 50 -66 54 -68 5 -2 8 -10 8 -18 0 -8 4 -14 8 -14 5 0 18 -18 31 -40 12 -22 26 -40 32 -40 5 0 9 -6 9 -14 0 -8 3 -16 7 -18 11 -5 53 -66 53 -77 0 -5 3 -11 8 -13 11 -5 78 -105 98 -148 4 -8 10 -17 14 -20 3 -3 46 -66 95 -140 48 -74 122 -187 165 -250 42 -64 83 -130 91 -148 7 -18 17 -32 20 -32 4 0 12 -14 19 -30 7 -16 16 -30 20 -30 4 0 10 -8 14 -17 3 -10 15 -31 26 -48 11 -16 23 -37 27 -45 4 -8 20 -34 35 -56 15 -23 28 -47 28 -53 0 -6 4 -11 9 -11 5 0 11 -8 15 -17 3 -10 15 -31 25 -48 11 -16 26 -40 33 -52 7 -13 40 -67 74 -120 33 -54 63 -105 67 -113 4 -8 29 -49 57 -90 27 -41 55 -84 60 -95 6 -11 19 -33 30 -50 11 -16 23 -38 26 -47 4 -10 10 -18 15 -18 5 0 9 -5 9 -11 0 -5 24 -47 53 -92 86 -134 115 -180 138 -224 13 -24 26 -43 31 -43 4 0 8 -5 8 -11 0 -5 19 -40 43 -77 23 -37 47 -76 54 -87 70 -114 139 -222 149 -233 7 -6 16 -21 19 -32 3 -11 11 -20 16 -20 5 0 9 -5 9 -10 0 -9 35 -65 50 -80 3 -3 14 -22 25 -42 11 -21 22 -38 26 -38 4 0 10 -8 13 -17 3 -10 12 -27 19 -38 30 -49 73 -111 84 -123 6 -6 15 -21 18 -32 3 -11 11 -20 16 -20 5 0 9 -5 9 -10 0 -13 91 -154 102 -158 5 -2 8 -10 8 -17 0 -7 3 -15 8 -17 11 -5 52 -66 52 -78 0 -5 4 -10 10 -10 5 0 17 -15 26 -33 9 -17 32 -52 50 -77 46 -62 48 -64 59 -82 56 -92 511 -710 527 -716 4 -2 8 -7 8 -12 0 -7 55 -70 123 -142 15 -16 27 -31 27 -34 0 -3 6 -11 13 -18 6 -8 37 -42 67 -77 117 -136 310 -321 405 -388 28 -19 52 -38 55 -41 3 -3 22 -15 44 -26 21 -10 52 -27 70 -36 53 -29 162 -58 215 -58 39 0 60 6 96 31 26 17 51 42 57 55 6 13 15 24 20 24 4 0 8 7 8 15 0 13 20 66 42 108 5 10 13 66 18 125 26 290 89 472 196 571 58 53 74 80 97 161 83 287 122 768 137 1655 5 303 14 611 20 685 15 181 61 507 75 530 3 5 13 36 21 67 20 78 71 189 119 263 123 185 308 293 600 350 124 24 497 49 750 50 209 0 574 39 616 66 5 3 30 9 57 14 62 11 142 40 142 51 0 5 5 9 12 9 7 0 26 13 43 29 62 61 207 123 360 156 44 9 103 23 131 31 28 8 59 14 70 14 10 0 93 23 184 51 91 28 179 54 195 59 40 11 92 29 133 46 18 8 39 14 47 14 8 0 29 6 47 14 47 20 106 41 153 55 22 7 56 18 75 25 19 8 54 21 78 30 23 9 60 23 82 31 22 8 59 22 83 31 23 9 60 23 82 31 22 8 54 21 70 28 48 20 77 32 125 50 25 9 59 23 75 30 17 6 41 17 55 23 38 15 283 132 300 142 8 5 40 22 71 38 50 26 61 28 115 21 179 -22 288 5 381 95 63 63 90 121 98 218 l7 83 77 75 c42 41 99 104 126 140 28 36 53 67 58 68 4 2 7 10 7 17 0 7 3 15 8 17 13 5 77 109 106 173 16 33 32 68 37 77 15 31 47 132 63 205 11 51 16 122 16 243 0 197 -10 240 -56 240 -15 0 -32 -6 -38 -13 -6 -8 -60 -79 -120 -158 -81 -108 -120 -151 -155 -171 -25 -15 -54 -28 -64 -28 -23 0 -98 48 -116 74 -8 12 -42 48 -75 82 -50 49 -85 72 -186 121 -167 80 -198 93 -215 93 -8 0 -29 6 -47 14 -57 24 -112 44 -153 54 -78 20 -141 35 -175 42 -19 4 -78 19 -132 34 -53 14 -104 26 -114 26 -64 0 -400 127 -509 193 -11 6 -42 25 -70 41 -96 57 -201 140 -287 226 -49 48 -88 92 -88 99 0 6 -4 11 -9 11 -5 0 -22 20 -38 45 -15 25 -31 45 -35 45 -5 0 -8 5 -8 10 0 6 -4 16 -10 23 -5 7 -36 48 -69 92 -32 44 -80 102 -105 128 -25 27 -52 56 -59 66 -6 9 -50 46 -95 83 -64 50 -101 71 -155 89 -64 20 -101 37 -132 62 -5 4 -50 37 -100 74 -49 36 -91 69 -93 74 -2 5 -10 9 -18 9 -8 0 -14 4 -14 8 0 5 -27 28 -60 52 -33 24 -60 47 -60 52 0 4 -5 8 -11 8 -7 0 -19 8 -28 18 -9 9 -45 41 -81 71 -36 30 -69 59 -75 66 -5 6 -53 46 -105 90 -52 43 -111 95 -131 114 -20 20 -54 51 -75 70 -38 33 -168 151 -244 221 -21 19 -78 71 -126 115 -49 44 -111 101 -138 127 -27 27 -50 48 -52 48 -2 0 -21 18 -43 40 -21 22 -41 40 -44 40 -3 0 -28 21 -54 48 -63 61 -143 132 -149 132 -3 0 -11 6 -18 13 -7 6 -35 30 -62 52 -26 22 -56 48 -66 58 -10 9 -22 17 -28 17 -5 0 -10 3 -10 8 0 4 -31 32 -70 62 -38 30 -70 58 -70 62 0 5 -4 8 -10 8 -5 0 -18 7 -27 16 -10 8 -72 54 -138 100 -66 47 -127 90 -136 97 -46 35 -190 107 -215 107 -60 0 -143 110 -184 245 -7 22 -19 55 -26 73 -8 18 -14 42 -14 54 0 11 -4 37 -9 57 -27 106 -71 348 -71 391 0 19 -6 91 -15 160 -14 125 -30 271 -60 555 -9 83 -22 193 -30 245 -8 52 -19 133 -25 180 -6 47 -17 114 -25 150 -8 36 -21 103 -31 150 -9 47 -22 108 -29 135 -7 28 -21 79 -30 115 -17 68 -40 147 -60 215 -7 22 -18 58 -25 80 -6 22 -25 78 -42 125 -29 81 -43 117 -74 185 -7 17 -25 57 -40 90 -35 80 -90 190 -119 241 -36 61 -131 206 -149 227 -9 9 -16 19 -16 21 0 7 -53 68 -106 123 -28 29 -62 66 -75 83 -13 17 -57 54 -96 82 -40 29 -73 55 -73 59 0 3 -18 14 -40 25 -22 10 -40 22 -40 26 0 3 -12 11 -27 17 -16 6 -35 15 -43 21 -30 20 -146 69 -190 80 -25 6 -67 17 -95 25 -60 16 -244 26 -302 16z"/>
 </g>
<g id="layer102" fill="#5e5f5f" stroke="none">
 <path d="M4725 14614 c-14 -15 -25 -39 -25 -53 -1 -44 -50 -240 -74 -296 -8 -16 -19 -48 -26 -70 -6 -22 -18 -54 -26 -72 -8 -17 -14 -35 -14 -40 0 -7 -85 -223 -112 -283 -6 -14 -14 -34 -19 -45 -39 -97 -116 -281 -136 -325 -47 -102 -61 -135 -108 -240 -26 -58 -57 -127 -70 -155 -63 -137 -98 -213 -110 -240 -24 -56 -116 -255 -161 -353 -19 -40 -34 -74 -34 -76 0 -3 -15 -37 -34 -78 -18 -40 -50 -113 -71 -163 -21 -49 -46 -110 -57 -135 -24 -55 -38 -89 -48 -115 -5 -11 -15 -36 -23 -55 -104 -245 -142 -339 -179 -445 -11 -33 -24 -64 -29 -70 -5 -5 -9 -18 -9 -30 0 -12 -4 -25 -9 -30 -4 -6 -13 -23 -19 -40 -6 -16 -20 -55 -32 -85 -11 -30 -28 -73 -36 -95 -11 -31 -179 -531 -235 -704 -6 -19 -20 -66 -30 -105 -10 -39 -31 -118 -47 -176 -17 -58 -40 -141 -52 -185 -22 -78 -45 -180 -56 -240 -3 -16 -12 -59 -20 -95 -43 -182 -68 -316 -109 -580 -9 -58 -23 -140 -31 -183 -8 -42 -14 -96 -14 -119 0 -22 -7 -100 -15 -172 -17 -144 -38 -344 -55 -506 -24 -227 -49 -395 -85 -570 -8 -36 -16 -85 -20 -110 -3 -25 -10 -58 -16 -75 -11 -34 -57 -195 -69 -240 -15 -60 -32 -91 -67 -127 l-36 -37 13 -58 c30 -125 133 -354 310 -683 28 -52 64 -122 81 -155 16 -33 34 -67 39 -75 5 -8 30 -53 57 -100 26 -47 51 -86 55 -88 4 -2 8 -9 8 -14 0 -6 20 -44 45 -84 25 -39 45 -76 45 -81 0 -5 6 -15 12 -21 7 -7 29 -41 48 -76 29 -52 89 -156 135 -234 6 -10 19 -31 30 -47 11 -17 25 -39 32 -50 6 -11 51 -83 100 -159 48 -77 90 -144 93 -150 3 -6 23 -38 45 -71 22 -33 44 -68 50 -77 5 -9 33 -54 61 -100 258 -420 539 -890 631 -1056 14 -26 33 -58 43 -72 9 -14 28 -47 42 -75 14 -27 35 -66 46 -85 11 -19 36 -65 55 -101 20 -36 45 -81 56 -100 11 -19 25 -43 30 -54 5 -11 38 -71 75 -134 36 -62 66 -115 66 -117 0 -3 73 -118 165 -259 29 -44 58 -91 64 -103 l13 -24 -38 26 c-44 29 -56 26 -45 -12 14 -45 62 -155 81 -182 9 -14 20 -32 23 -40 4 -8 16 -28 27 -45 11 -16 29 -48 41 -70 12 -22 25 -42 28 -45 4 -3 18 -23 31 -45 13 -22 27 -42 30 -45 3 -3 31 -43 63 -90 56 -82 82 -117 252 -325 44 -54 98 -121 121 -149 83 -104 191 -206 217 -206 48 0 -94 274 -280 540 -71 102 -67 102 43 0 202 -186 312 -251 428 -254 65 -1 69 0 95 31 26 31 53 94 78 183 33 117 83 406 83 481 0 25 7 96 15 159 24 187 36 507 45 1170 8 591 19 849 40 930 7 26 8 15 5 -45 -16 -243 -17 -436 -6 -965 17 -883 33 -1463 41 -1478 4 -8 12 100 18 240 7 139 19 386 27 548 9 162 15 327 15 365 -1 87 26 464 45 650 8 77 15 157 15 179 0 38 5 75 36 261 49 292 127 509 237 655 52 69 143 162 227 229 103 84 283 254 320 304 25 32 49 51 80 62 25 9 54 21 65 25 27 13 123 44 225 73 153 45 212 59 400 96 90 18 312 39 490 46 257 11 620 69 833 134 18 5 57 17 87 25 202 58 275 84 414 150 54 25 100 46 102 46 2 0 36 16 76 36 40 19 111 51 158 70 47 19 95 40 107 46 13 6 26 8 29 5 4 -4 -15 -16 -42 -27 -95 -40 -434 -216 -562 -291 -45 -27 -85 -49 -87 -49 -17 0 -187 -125 -179 -132 14 -14 224 39 389 99 70 26 93 35 175 69 24 11 47 19 50 19 4 0 100 38 165 65 11 5 45 19 75 31 77 30 115 47 275 124 77 37 167 80 200 95 101 46 129 60 160 80 17 11 37 23 45 26 52 24 141 91 148 114 7 20 20 29 53 37 98 24 271 99 343 148 l39 26 -37 -48 c-60 -78 -76 -106 -76 -135 0 -21 6 -28 29 -33 25 -5 171 18 191 30 4 3 57 14 116 26 183 35 294 14 373 -72 43 -48 48 -86 20 -155 -33 -78 -95 -131 -237 -201 -198 -97 -203 -126 -26 -139 151 -10 239 19 325 106 58 59 85 118 93 206 16 171 -62 336 -236 499 -119 112 -174 145 -239 145 -35 0 -63 -7 -85 -21 l-33 -20 0 70 c0 43 -5 77 -13 87 -60 77 -148 130 -248 152 -138 29 -176 34 -345 42 -99 4 -193 13 -208 19 -16 6 -40 11 -55 11 -33 0 -208 59 -277 93 -27 14 -66 32 -85 40 -37 16 -177 99 -220 130 -14 10 -63 45 -110 79 -47 33 -89 65 -95 72 -5 7 -32 29 -60 50 -27 20 -104 88 -170 149 -66 62 -187 176 -270 252 -82 77 -172 163 -200 190 -27 28 -115 111 -195 185 -80 74 -208 195 -285 270 -77 75 -193 183 -258 240 -64 58 -179 160 -255 228 -125 111 -254 224 -417 363 -33 28 -86 74 -117 101 -31 28 -83 70 -115 95 -32 25 -60 48 -63 52 -3 4 -32 28 -65 53 -33 25 -73 57 -90 71 -52 44 -138 112 -188 147 -27 19 -74 54 -105 77 -60 44 -201 140 -312 210 -81 52 -180 101 -290 144 -108 43 -153 70 -212 130 -70 72 -114 170 -148 329 -21 103 -40 385 -40 615 0 295 -22 560 -75 891 -8 49 -15 103 -15 119 0 16 -6 56 -14 89 -19 84 -44 202 -87 411 -6 33 -18 80 -25 105 -7 25 -20 72 -29 105 -9 33 -21 69 -26 80 -4 11 -18 49 -30 85 -12 36 -34 90 -49 120 -16 30 -47 96 -71 145 -23 50 -54 108 -68 130 -14 22 -31 49 -38 60 -91 148 -176 272 -203 295 -3 3 -19 24 -36 47 -17 23 -80 97 -140 163 -259 287 -480 419 -559 334z m5607 -8530 c-12 -8 -28 -13 -35 -11 -7 3 -1 9 13 15 37 16 47 14 22 -4z"/>
 <path d="M1285 7553 c-63 -12 -113 -29 -149 -50 -23 -12 -50 -27 -61 -32 -11 -5 -42 -28 -69 -52 -54 -48 -106 -146 -106 -199 0 -40 32 -131 60 -171 21 -29 18 -27 -48 18 -38 26 -106 76 -150 111 -45 34 -83 62 -86 62 -23 0 1 -40 133 -216 175 -236 460 -388 766 -409 120 -9 235 -25 280 -39 22 -8 69 -22 105 -31 36 -10 70 -22 75 -26 6 -4 37 -17 70 -30 61 -22 204 -100 240 -130 11 -9 57 -49 103 -88 46 -39 85 -71 88 -71 14 0 -59 110 -169 254 -51 66 -143 146 -228 196 -23 14 -56 34 -73 45 -17 11 -58 31 -91 43 -33 13 -76 30 -95 37 -57 23 -107 32 -270 51 l-155 18 70 13 c265 50 313 82 286 190 -16 63 -167 289 -255 381 -72 76 -207 138 -271 125z"/>
 <path d="M8245 5480 c-176 -4 -347 -11 -380 -15 -69 -7 -135 -25 -135 -36 0 -18 132 -37 405 -60 228 -19 770 3 800 32 5 5 17 9 26 9 9 0 19 7 23 15 8 23 -36 46 -96 49 -186 12 -361 13 -643 6z"/>
 <path d="M8310 4840 c-229 -6 -278 -10 -357 -26 -31 -6 -30 -34 1 -34 13 0 41 -6 62 -14 22 -7 44 -11 50 -9 7 2 55 -3 107 -11 137 -22 517 -22 657 0 108 17 164 37 158 56 -13 39 -222 51 -678 38z"/>
 <path d="M6715 3518 c-11 -36 -23 -266 -34 -624 -13 -445 9 -1240 36 -1288 10 -19 11 -19 22 2 7 12 21 124 32 250 28 322 28 1105 0 1423 -20 228 -37 298 -56 237z"/>
 </g>
<g id="layer103" fill="#2c82c9" stroke="none">
 <path d="M4725 14614 c-14 -15 -25 -39 -25 -53 -1 -44 -50 -240 -74 -296 -8 -16 -19 -48 -26 -70 -6 -22 -18 -54 -26 -72 -8 -17 -14 -35 -14 -40 0 -7 -85 -223 -112 -283 -6 -14 -14 -34 -19 -45 -39 -97 -116 -281 -136 -325 -47 -102 -61 -135 -108 -240 -26 -58 -57 -127 -70 -155 -63 -137 -98 -213 -110 -240 -24 -56 -116 -255 -161 -353 -19 -40 -34 -74 -34 -76 0 -3 -15 -37 -34 -78 -18 -40 -50 -113 -71 -163 -21 -49 -46 -110 -57 -135 -24 -55 -38 -89 -48 -115 -5 -11 -15 -36 -23 -55 -104 -245 -142 -339 -179 -445 -11 -33 -24 -64 -29 -70 -5 -5 -9 -18 -9 -30 0 -12 -4 -25 -9 -30 -4 -6 -13 -23 -19 -40 -6 -16 -20 -55 -32 -85 -11 -30 -28 -73 -36 -95 -11 -31 -179 -531 -235 -704 -6 -19 -20 -66 -30 -105 -10 -39 -31 -118 -47 -176 -17 -58 -40 -141 -52 -185 -22 -78 -45 -180 -56 -240 -3 -16 -12 -59 -20 -95 -43 -182 -68 -316 -109 -580 -9 -58 -23 -140 -31 -183 -8 -42 -14 -96 -14 -119 0 -22 -7 -100 -15 -172 -17 -144 -38 -344 -55 -506 -24 -227 -49 -395 -85 -570 -8 -36 -16 -85 -20 -110 -3 -25 -10 -58 -16 -75 -11 -34 -57 -195 -69 -240 -15 -60 -32 -91 -67 -127 l-36 -37 13 -58 c30 -125 133 -354 310 -683 28 -52 64 -122 81 -155 16 -33 34 -67 39 -75 5 -8 30 -53 57 -100 26 -47 51 -86 55 -88 4 -2 8 -9 8 -14 0 -6 20 -44 45 -84 25 -39 45 -76 45 -81 0 -5 6 -15 12 -21 7 -7 29 -41 48 -76 29 -52 89 -156 135 -234 6 -10 19 -31 30 -47 11 -17 25 -39 32 -50 6 -11 51 -83 100 -159 48 -77 90 -144 93 -150 3 -6 23 -38 45 -71 22 -33 44 -68 50 -77 5 -9 33 -54 61 -100 258 -420 539 -890 631 -1056 14 -26 33 -58 43 -72 9 -14 28 -47 42 -75 14 -27 35 -66 46 -85 11 -19 36 -65 55 -101 20 -36 45 -81 56 -100 11 -19 25 -43 30 -54 5 -11 38 -71 75 -134 36 -62 66 -115 66 -117 0 -2 25 -43 56 -91 168 -262 195 -301 274 -389 69 -77 96 -110 182 -219 43 -55 91 -116 106 -135 16 -19 42 -55 59 -80 17 -25 44 -56 59 -69 16 -13 61 -54 100 -90 199 -185 311 -252 428 -255 65 -1 69 0 95 31 26 31 53 94 78 183 33 117 83 406 83 481 0 25 7 96 15 159 24 187 36 507 45 1170 9 657 18 832 51 989 11 53 25 115 29 138 5 23 14 50 19 60 5 10 17 35 26 57 50 114 145 234 231 294 102 70 349 237 366 247 203 120 304 165 326 143 8 -8 51 4 117 33 44 19 236 77 370 112 57 15 129 31 255 56 90 18 312 39 490 46 257 11 620 69 833 134 18 5 57 17 87 25 202 58 275 84 414 150 54 25 100 46 102 46 2 0 36 16 76 36 40 19 111 51 158 70 47 19 101 42 120 51 99 44 133 56 126 45 -3 -5 -45 -26 -93 -47 -48 -22 -140 -66 -203 -98 -231 -119 -325 -168 -340 -177 -8 -5 -53 -32 -100 -58 -108 -61 -250 -155 -245 -161 7 -6 155 20 195 34 19 7 64 22 100 33 58 18 101 34 165 61 11 5 70 28 130 51 61 24 124 48 140 55 17 7 55 22 85 34 87 35 120 49 290 130 69 32 161 76 205 97 44 21 87 41 95 44 8 3 62 32 120 64 103 59 150 95 162 127 3 8 25 20 49 26 68 17 176 59 266 105 68 34 100 59 187 148 97 98 106 110 107 146 2 70 -3 106 -14 122 -57 73 -148 129 -247 150 -138 29 -176 34 -345 42 -99 4 -193 13 -208 19 -16 6 -40 11 -55 11 -33 0 -208 59 -277 93 -27 14 -66 32 -85 40 -37 16 -177 99 -220 130 -14 10 -63 45 -110 79 -47 33 -89 65 -95 72 -5 7 -32 29 -60 50 -27 20 -104 88 -170 149 -66 62 -187 176 -270 252 -82 77 -172 163 -200 190 -27 28 -115 111 -195 185 -80 74 -208 195 -285 270 -77 75 -193 183 -258 240 -64 58 -179 160 -255 228 -125 111 -254 224 -417 363 -33 28 -86 74 -117 101 -31 28 -83 70 -115 95 -32 25 -60 48 -63 52 -3 4 -32 28 -65 53 -33 25 -73 57 -90 71 -52 44 -138 112 -188 147 -27 19 -74 54 -105 77 -60 44 -201 140 -312 210 -81 52 -180 101 -290 144 -108 43 -153 70 -212 130 -70 72 -114 170 -148 329 -21 103 -40 385 -40 615 0 295 -22 560 -75 891 -8 49 -15 103 -15 119 0 16 -6 56 -14 89 -19 84 -44 202 -87 411 -6 33 -18 80 -25 105 -7 25 -20 72 -29 105 -9 33 -21 69 -26 80 -4 11 -18 49 -30 85 -12 36 -34 90 -49 120 -16 30 -47 96 -71 145 -23 50 -54 108 -68 130 -14 22 -31 49 -38 60 -91 148 -176 272 -203 295 -3 3 -19 24 -36 47 -17 23 -80 97 -140 163 -259 287 -480 419 -559 334z"/>
 <path d="M1285 7553 c-63 -12 -113 -29 -149 -50 -23 -12 -50 -27 -61 -32 -49 -22 -119 -98 -147 -158 -33 -74 -35 -105 -9 -178 29 -82 63 -120 145 -159 121 -57 139 -65 191 -81 155 -49 187 -53 289 -34 239 43 293 80 267 186 -16 63 -167 289 -255 381 -72 76 -207 138 -271 125z"/>
 <path d="M8335 5479 c-132 -4 -266 -10 -298 -14 -58 -6 -107 -22 -107 -35 0 -10 146 -38 270 -51 126 -12 561 -7 665 9 88 13 140 46 106 66 -17 11 -257 36 -326 34 -38 0 -178 -5 -310 -9z"/>
 <path d="M8330 4839 c-290 -9 -390 -19 -390 -39 0 -13 55 -27 175 -46 134 -21 632 -25 730 -5 92 18 135 33 135 47 0 22 -21 28 -145 41 -130 13 -154 13 -505 2z"/>
 </g>
<g id="layer104" fill="#919191" stroke="none">
 <path d="M10995 6373 c-17 -4 -94 -34 -160 -62 -11 -5 -45 -19 -75 -31 -58 -24 -160 -70 -275 -125 -38 -18 -115 -54 -170 -79 -140 -65 -521 -258 -565 -286 -8 -6 -53 -32 -100 -58 -108 -61 -250 -155 -245 -161 7 -6 155 20 195 34 19 7 64 22 100 33 58 18 101 34 165 61 11 5 70 28 130 51 61 24 124 48 140 55 17 7 55 22 85 34 87 35 120 49 290 130 69 32 161 76 205 97 44 21 87 41 95 44 39 13 228 127 253 151 28 29 35 66 17 100 -11 19 -40 23 -85 12z"/>
 <path d="M8335 5479 c-132 -4 -266 -10 -298 -14 -58 -6 -107 -22 -107 -35 0 -10 146 -38 270 -51 126 -12 561 -7 665 9 88 13 140 46 106 66 -17 11 -257 36 -326 34 -38 0 -178 -5 -310 -9z"/>
 <path d="M8330 4839 c-290 -9 -390 -19 -390 -39 0 -13 55 -27 175 -46 134 -21 632 -25 730 -5 92 18 135 33 135 47 0 22 -21 28 -145 41 -130 13 -154 13 -505 2z"/>
 </g>

</svg>