<!DOCTYPE svg PUBLIC "-//W3C//DTD SVG 20010904//EN" "http://www.w3.org/TR/2001/REC-SVG-20010904/DTD/svg10.dtd">
<svg version="1.0" xmlns="http://www.w3.org/2000/svg" width="1600px" height="1566px" viewBox="0 0 16000 15660" preserveAspectRatio="xMidYMid meet">
<g id="layer101" fill="#010101" stroke="none">
 <path d="M1780 15033 c-297 -34 -524 -251 -639 -613 -66 -205 -69 -516 -8 -680 7 -19 32 -74 55 -122 53 -109 62 -168 34 -231 -31 -71 -78 -96 -198 -108 -153 -15 -209 -35 -277 -98 -114 -105 -92 -335 59 -617 61 -113 180 -290 261 -389 216 -263 508 -553 781 -778 54 -43 108 -89 122 -101 155 -132 618 -453 810 -561 58 -33 123 -70 145 -83 100 -58 399 -198 501 -235 228 -83 340 -118 455 -141 42 -9 83 -18 90 -21 36 -13 175 -27 394 -40 380 -22 552 -55 910 -178 139 -48 361 -155 510 -247 58 -35 212 -147 254 -184 56 -49 195 -177 211 -195 8 -9 60 -54 115 -99 115 -96 106 -89 210 -167 44 -33 82 -63 83 -67 2 -5 8 -8 13 -8 6 0 15 -5 22 -10 60 -51 331 -228 444 -291 32 -18 72 -40 88 -50 43 -26 291 -151 350 -176 28 -12 106 -46 175 -75 139 -59 300 -143 373 -194 26 -19 49 -34 52 -34 13 0 145 -100 245 -185 60 -51 244 -238 280 -285 19 -24 47 -58 61 -75 44 -50 201 -288 242 -365 13 -25 42 -79 63 -120 22 -41 53 -106 69 -145 16 -38 35 -79 41 -90 7 -11 19 -40 27 -65 9 -25 30 -83 47 -130 52 -142 118 -374 156 -547 109 -498 148 -933 159 -1738 8 -649 43 -1009 126 -1323 57 -218 141 -407 254 -577 31 -47 61 -90 68 -97 7 -7 28 -33 47 -58 44 -58 121 -139 239 -254 169 -163 366 -360 399 -399 82 -95 211 -277 296 -420 39 -66 115 -225 149 -312 53 -135 77 -236 88 -375 21 -275 43 -381 103 -505 39 -79 88 -134 143 -160 63 -30 179 -11 423 72 119 40 442 168 490 194 8 5 47 22 85 40 39 17 88 39 110 49 77 35 811 400 910 453 288 154 714 394 795 447 8 6 22 13 30 17 12 5 116 68 220 133 344 214 560 369 687 492 79 77 99 116 83 164 -40 119 -437 512 -909 899 -81 66 -165 134 -186 150 -21 17 -61 48 -89 70 -28 22 -76 58 -106 80 -30 22 -57 42 -60 45 -5 6 -82 63 -255 189 -164 119 -495 339 -621 413 -372 218 -648 291 -850 223 -87 -29 -202 -99 -286 -176 -33 -29 -183 -107 -248 -129 -36 -12 -101 -24 -145 -27 -71 -5 -87 -2 -140 21 -90 40 -132 97 -142 192 -9 89 30 203 105 309 31 44 156 191 173 205 15 11 88 139 111 195 72 166 99 257 149 485 26 122 36 185 68 430 33 254 39 818 11 1090 -24 234 -79 505 -129 640 -53 141 -89 193 -214 308 -25 24 -53 55 -61 70 -79 145 -127 273 -169 457 -56 240 -73 403 -82 765 -11 449 -56 814 -127 1039 -40 128 -71 216 -84 241 -7 14 -31 63 -54 110 -99 206 -230 367 -420 514 -90 70 -303 206 -323 206 -4 0 -39 16 -79 36 -78 39 -312 125 -418 154 -146 40 -315 82 -400 99 -171 33 -219 42 -365 66 -254 41 -335 55 -405 71 -36 8 -85 18 -110 24 -69 14 -375 105 -470 140 -47 17 -96 35 -110 40 -22 7 -142 60 -210 93 -65 31 -210 115 -257 149 -81 59 -122 107 -164 192 -47 93 -69 127 -118 180 -100 107 -259 189 -441 227 -86 18 -371 18 -470 0 -226 -41 -469 -156 -610 -287 -177 -165 -332 -228 -709 -289 -108 -17 -495 -21 -626 -6 -44 6 -143 17 -220 26 -412 48 -629 168 -690 380 -33 117 -36 207 -14 475 17 218 19 275 9 395 -5 77 -17 172 -25 210 -9 39 -20 93 -26 120 -44 200 -184 524 -286 661 -13 17 -23 34 -23 38 0 7 -48 75 -61 86 -3 3 -12 15 -20 27 -57 83 -242 273 -345 354 -200 155 -397 247 -594 275 -94 14 -123 15 -190 7z"/>
 </g>
<g id="layer102" fill="#2c82c9" stroke="none">
 <path d="M2254 13792 c-60 -34 -103 -74 -147 -140 -86 -128 -132 -238 -177 -422 -89 -360 -47 -680 104 -795 61 -46 153 -27 222 47 153 163 268 488 281 798 9 216 -18 348 -91 443 -63 82 -127 105 -192 69z"/>
 <path d="M6290 11533 c-85 -28 -228 -118 -265 -167 -38 -50 -35 -137 8 -236 223 -507 1242 -1480 1902 -1817 144 -73 229 -101 368 -119 129 -16 230 -50 320 -105 26 -16 49 -29 52 -29 12 0 191 -134 275 -206 107 -92 338 -323 427 -429 410 -485 712 -1015 803 -1409 23 -101 28 -144 40 -376 12 -213 22 -296 57 -470 100 -505 325 -924 550 -1027 107 -49 168 -48 226 6 139 128 148 619 23 1181 -85 378 -166 773 -226 1090 -12 63 -28 147 -35 185 -7 39 -19 99 -25 135 -6 36 -16 88 -21 115 -10 51 -20 108 -83 480 -20 116 -40 235 -46 265 -28 152 -51 272 -65 335 -9 39 -20 90 -25 115 -20 96 -63 251 -102 370 -136 414 -329 689 -618 878 -184 120 -478 239 -755 306 -60 15 -126 31 -145 36 -50 13 -322 66 -410 80 -41 7 -109 18 -150 25 -41 7 -111 18 -155 25 -633 91 -1183 258 -1347 410 -45 42 -49 50 -62 122 -8 42 -21 90 -30 105 -24 47 -99 109 -160 132 -83 31 -224 28 -326 -6z"/>
 <path d="M12520 3345 c-76 -21 -223 -93 -325 -159 -89 -59 -336 -234 -345 -246 -3 -3 -23 -19 -45 -35 -114 -83 -229 -208 -272 -297 -90 -184 -53 -377 139 -733 44 -82 97 -179 116 -215 169 -315 265 -405 431 -402 145 3 296 61 766 296 487 244 828 451 983 600 61 58 82 93 82 134 0 57 -67 84 -247 102 -331 32 -604 220 -728 500 -74 169 -98 216 -142 282 -49 75 -120 142 -173 165 -52 22 -174 26 -240 8z"/>
 </g>

</svg>