<!DOCTYPE svg PUBLIC "-//W3C//DTD SVG 20010904//EN" "http://www.w3.org/TR/2001/REC-SVG-20010904/DTD/svg10.dtd">
<svg version="1.0" xmlns="http://www.w3.org/2000/svg" width="1236px" height="1600px" viewBox="0 0 12360 16000" preserveAspectRatio="xMidYMid meet">
<g id="layer101" fill="#030303" stroke="none">
 <path d="M5070 14671 c-58 -22 -101 -41 -120 -52 -8 -4 -40 -20 -70 -35 -30 -15 -57 -30 -60 -33 -10 -12 -90 -61 -100 -61 -5 0 -10 -4 -10 -8 0 -5 -9 -13 -19 -18 -21 -10 -151 -130 -151 -139 0 -6 -8 -17 -40 -54 -61 -72 -118 -219 -131 -336 -20 -186 -32 -244 -86 -400 -14 -38 -28 -86 -32 -105 -4 -19 -12 -44 -18 -55 -6 -11 -23 -51 -38 -90 -14 -38 -33 -83 -41 -98 -8 -16 -14 -33 -14 -38 0 -10 -17 -47 -131 -289 -66 -139 -139 -282 -149 -290 -3 -3 -12 -21 -20 -40 -7 -19 -19 -42 -25 -50 -7 -8 -22 -35 -34 -60 -27 -52 -37 -70 -74 -127 -15 -24 -27 -47 -27 -53 0 -5 -4 -10 -8 -10 -4 0 -18 -19 -30 -42 -25 -50 -26 -51 -111 -177 -36 -53 -68 -98 -71 -101 -4 -3 -20 -26 -36 -52 -42 -66 -105 -139 -268 -308 -45 -47 -89 -100 -97 -117 -7 -18 -17 -33 -21 -33 -5 0 -8 -5 -8 -10 0 -6 -11 -28 -25 -50 -14 -22 -32 -59 -40 -82 -38 -104 -55 -163 -55 -189 0 -51 -30 -243 -47 -299 -25 -86 -78 -192 -115 -231 -88 -93 -181 -202 -238 -279 -35 -47 -68 -86 -72 -88 -4 -2 -8 -10 -8 -17 0 -7 -4 -15 -8 -17 -4 -1 -28 -33 -52 -70 -24 -38 -48 -68 -52 -68 -4 0 -8 -4 -8 -10 0 -10 -38 -71 -70 -110 -11 -14 -26 -37 -32 -52 -7 -16 -16 -28 -19 -28 -4 0 -12 -13 -19 -30 -7 -16 -16 -30 -20 -30 -4 0 -10 -8 -14 -17 -6 -19 -27 -55 -37 -63 -3 -3 -14 -21 -24 -40 -10 -19 -26 -46 -36 -60 -18 -26 -134 -205 -209 -322 -23 -38 -47 -68 -51 -68 -5 0 -9 -4 -9 -10 0 -9 -19 -35 -47 -65 -7 -8 -13 -18 -13 -24 0 -6 -4 -11 -9 -11 -4 0 -24 -24 -43 -52 -20 -29 -82 -100 -139 -158 -90 -91 -111 -107 -154 -118 -55 -14 -122 -78 -151 -142 -8 -19 -24 -51 -34 -71 -11 -19 -27 -62 -36 -95 -66 -239 -82 -276 -167 -404 -28 -41 -54 -76 -59 -78 -4 -2 -8 -8 -8 -13 0 -5 -17 -26 -37 -47 -21 -21 -65 -67 -99 -103 -60 -63 -121 -119 -131 -119 -3 0 -11 -6 -17 -13 -21 -26 -161 -135 -193 -151 -18 -9 -33 -21 -33 -26 0 -6 -5 -10 -11 -10 -9 0 -82 -52 -99 -70 -3 -3 -36 -30 -75 -60 -38 -30 -78 -64 -88 -75 -10 -11 -28 -31 -40 -45 -40 -44 -57 -79 -57 -113 0 -40 18 -58 82 -82 44 -16 72 -17 310 -10 431 12 521 9 558 -19 8 -6 31 -20 50 -30 85 -46 161 -145 256 -336 20 -41 40 -77 43 -80 3 -3 17 -27 30 -55 14 -27 27 -52 30 -55 3 -3 13 -21 22 -40 9 -19 27 -60 42 -90 55 -116 85 -188 107 -253 13 -37 27 -70 31 -73 5 -3 9 -15 9 -28 0 -12 4 -26 9 -32 5 -5 16 -36 25 -69 9 -33 21 -73 26 -90 10 -34 44 -177 65 -275 14 -62 19 -156 16 -267 -1 -53 -18 -83 -49 -83 -39 0 -149 146 -196 260 -30 74 -33 82 -50 150 -43 167 -57 200 -99 244 -79 82 -133 90 -542 77 -289 -9 -425 -21 -473 -41 -27 -12 -30 -60 -4 -91 9 -11 27 -33 40 -47 12 -15 35 -45 50 -67 15 -22 30 -41 35 -43 4 -2 7 -9 7 -17 0 -7 7 -18 15 -25 8 -7 20 -30 26 -51 20 -64 -21 -130 -111 -180 -48 -26 -72 -42 -88 -56 -7 -7 -20 -13 -28 -13 -8 0 -14 -4 -14 -9 0 -5 -10 -13 -22 -17 -13 -3 -31 -15 -40 -24 -10 -10 -26 -24 -36 -32 -31 -22 -71 -93 -98 -175 -17 -54 -31 -136 -45 -263 -18 -171 -19 -249 -17 -1055 l3 -870 30 -8 c17 -5 39 -14 50 -20 11 -6 33 -14 50 -18 16 -4 68 -22 115 -39 47 -17 117 -42 155 -55 39 -13 81 -28 95 -33 99 -38 314 -94 440 -114 122 -19 471 -16 571 6 131 27 197 44 210 52 7 4 29 11 48 15 35 7 105 31 146 48 11 5 45 19 75 31 30 11 64 25 75 30 11 5 40 16 65 24 75 25 129 45 148 55 25 12 82 32 122 41 19 5 73 20 120 33 538 152 987 80 1257 -201 46 -47 133 -173 133 -191 0 -6 4 -11 9 -11 5 0 13 -10 16 -22 4 -13 20 -51 36 -86 16 -34 29 -71 29 -82 0 -10 4 -29 9 -42 42 -110 61 -324 61 -690 l0 -308 63 0 c34 0 148 -6 252 -15 105 -8 291 -22 415 -30 124 -9 317 -22 430 -30 320 -23 571 -35 743 -35 95 0 186 -6 230 -14 166 -33 436 -49 602 -36 66 5 185 14 265 20 170 13 236 28 293 67 60 40 627 609 627 628 0 2 22 26 50 55 27 28 75 81 107 118 32 37 68 77 80 89 13 12 23 25 23 28 0 3 10 16 23 28 12 12 45 49 72 82 54 65 91 108 116 134 9 9 44 50 79 91 34 41 66 77 71 78 5 2 9 8 9 13 0 5 8 17 18 27 9 10 33 37 52 61 19 24 43 52 53 63 9 10 17 20 17 23 0 3 8 13 18 23 9 10 35 40 57 66 22 27 46 55 53 62 7 7 29 35 49 61 20 26 39 50 42 53 4 3 31 37 61 75 30 39 58 71 62 73 5 2 8 10 8 17 0 7 3 15 8 17 4 1 25 26 47 53 22 28 42 52 45 55 3 3 28 34 55 70 27 36 52 67 56 70 3 3 91 120 195 261 179 243 304 427 304 448 0 5 3 11 8 13 11 5 82 115 82 127 0 6 5 11 10 11 6 0 10 4 10 9 0 9 46 87 92 159 10 15 21 34 25 42 4 8 24 43 45 78 21 34 38 67 38 72 0 6 4 10 9 10 5 0 14 13 21 30 7 17 16 30 21 30 5 0 9 4 9 9 0 5 17 37 38 71 20 34 48 80 61 103 13 23 27 44 30 47 7 6 28 38 41 65 6 11 32 54 59 95 53 80 155 278 166 321 4 17 1 30 -9 38 -20 17 -20 30 0 100 8 31 22 81 31 111 8 30 21 71 28 90 7 19 20 60 30 90 10 30 27 75 39 100 12 25 30 72 40 105 31 99 54 167 76 225 38 100 72 195 77 215 2 11 9 29 14 40 12 28 39 104 49 140 4 17 13 44 19 60 31 87 86 263 112 360 16 61 34 124 38 140 5 17 19 66 31 110 12 44 25 91 27 105 3 14 17 79 33 145 32 140 55 252 70 350 6 39 17 108 25 155 22 131 44 305 52 410 l7 95 10 -54 c6 -30 16 -56 21 -58 6 -2 18 12 27 29 54 109 48 520 -9 584 l-21 23 10 426 c6 234 8 428 5 431 -3 4 -34 2 -69 -4 -35 -6 -110 -18 -168 -27 -58 -9 -148 -23 -200 -31 -294 -46 -570 -126 -830 -241 -72 -32 -154 -74 -160 -82 -3 -3 -21 -14 -40 -24 -19 -9 -48 -26 -65 -37 -16 -11 -37 -23 -45 -27 -8 -3 -33 -18 -55 -32 -22 -14 -47 -30 -56 -36 -46 -29 -100 -55 -114 -55 -8 0 -23 -4 -33 -9 -21 -11 -98 -37 -133 -45 -95 -21 -164 -24 -240 -11 -231 41 -474 24 -649 -45 -30 -12 -68 -26 -85 -30 -53 -15 -154 -58 -265 -113 -57 -28 -84 -43 -165 -94 -11 -7 -28 -16 -37 -19 -10 -3 -18 -9 -18 -13 0 -4 -17 -15 -37 -26 -21 -11 -40 -22 -43 -25 -3 -3 -23 -17 -45 -32 -22 -15 -54 -40 -71 -55 -59 -53 -96 -83 -101 -83 -10 0 -153 -149 -153 -159 0 -6 -4 -11 -8 -11 -10 0 -93 -113 -120 -165 -12 -22 -43 -84 -69 -138 -68 -138 -73 -147 -84 -147 -5 0 -9 -4 -9 -10 0 -5 -8 -18 -17 -29 -10 -10 -36 -39 -58 -65 -22 -25 -45 -46 -51 -46 -7 0 -14 -6 -17 -13 -3 -8 -31 -26 -64 -42 -52 -24 -66 -27 -128 -22 -84 7 -142 33 -179 82 -25 32 -28 44 -28 113 0 92 26 169 103 310 36 66 165 254 197 287 6 8 12 16 12 19 0 6 24 36 48 61 6 8 12 18 12 24 0 6 4 11 9 11 5 0 14 14 21 30 7 17 16 30 21 30 5 0 9 4 9 10 0 5 18 39 40 75 22 36 40 71 40 78 0 7 6 21 13 32 7 11 21 49 31 85 25 92 35 112 59 130 43 30 99 40 180 34 89 -8 159 8 197 43 14 13 28 23 32 23 5 0 8 7 8 15 0 8 5 15 10 15 6 0 10 5 10 10 0 6 9 23 20 38 20 27 42 82 84 207 57 168 146 277 276 337 108 51 195 63 302 44 197 -34 360 -149 498 -351 19 -28 37 -51 42 -53 4 -2 8 -8 8 -13 0 -14 16 -33 101 -118 82 -82 89 -87 134 -112 158 -86 327 -6 442 208 14 27 41 77 60 112 18 35 48 81 64 103 31 39 207 218 215 218 2 0 12 6 21 14 10 8 38 31 62 51 42 34 263 168 346 210 22 11 42 22 45 25 3 3 16 11 30 17 84 40 252 155 308 210 24 24 47 43 53 43 5 0 9 7 9 15 0 8 4 15 8 15 37 0 55 253 27 389 -21 103 -35 148 -69 223 -14 31 -26 61 -26 67 0 5 -3 11 -7 13 -5 2 -39 49 -76 104 -37 56 -80 115 -95 132 -54 60 -78 88 -141 162 -35 41 -75 85 -87 97 -13 12 -24 26 -24 32 0 5 -4 11 -8 13 -5 2 -33 36 -63 76 -58 75 -117 183 -145 264 -12 35 -38 70 -94 125 -78 79 -87 87 -175 158 -28 22 -51 43 -53 47 -2 5 -10 8 -18 8 -8 0 -14 4 -14 10 0 5 -20 21 -45 36 -25 14 -45 29 -45 33 0 4 -18 17 -40 30 -22 12 -40 26 -40 32 0 5 -5 9 -11 9 -6 0 -25 11 -43 25 -18 14 -36 25 -41 25 -4 0 -24 14 -45 30 -21 17 -43 30 -49 30 -6 0 -11 4 -11 9 0 5 -13 14 -30 21 -16 7 -30 16 -30 20 0 4 -8 11 -17 14 -10 4 -29 13 -43 22 -70 42 -176 100 -275 147 -161 78 -183 87 -215 87 -90 0 -268 78 -351 153 -10 9 -21 17 -24 17 -3 0 -13 8 -23 18 -10 9 -40 35 -67 57 -26 22 -57 48 -69 59 -50 44 -131 91 -356 208 -36 18 -67 36 -70 39 -5 5 -56 30 -210 102 -36 16 -83 39 -105 50 -55 28 -99 48 -210 97 -27 12 -63 28 -80 36 -58 26 -150 66 -185 81 -19 9 -55 24 -80 35 -78 35 -104 46 -130 56 -14 6 -47 20 -75 32 -27 12 -59 25 -70 30 -95 38 -185 75 -210 85 -16 8 -61 26 -100 41 -38 14 -83 32 -100 39 -29 13 -81 33 -157 61 -36 13 -76 29 -163 61 -22 9 -53 21 -70 28 -16 7 -88 31 -160 55 -71 23 -145 49 -163 56 -18 8 -39 14 -47 14 -8 0 -29 6 -47 14 -18 7 -58 20 -88 29 -30 8 -80 22 -111 31 -73 21 -191 19 -249 -3z"/>
 </g>
<g id="layer102" fill="#676767" stroke="none">
 <path d="M5130 14233 c-157 -58 -294 -200 -364 -378 -15 -38 -31 -74 -36 -80 -4 -5 -10 -26 -13 -45 -7 -35 -6 -35 51 30 77 88 200 212 172 175 -63 -86 -106 -168 -270 -510 -73 -154 -321 -653 -353 -710 -67 -122 -197 -367 -197 -370 0 -3 -18 -34 -40 -70 -22 -36 -40 -69 -40 -74 0 -5 -3 -11 -8 -13 -4 -2 -52 -77 -106 -168 -86 -142 -230 -365 -246 -380 -3 -3 -27 -32 -52 -65 -25 -33 -59 -76 -76 -95 -76 -89 -125 -150 -165 -210 -123 -183 -153 -250 -192 -425 -19 -88 -31 -116 -118 -295 -74 -153 -157 -303 -169 -308 -5 -2 -8 -8 -8 -12 0 -17 -248 -420 -270 -440 -3 -3 -17 -23 -30 -45 -13 -22 -26 -42 -29 -45 -9 -7 -383 -578 -418 -635 -6 -11 -40 -65 -75 -120 -73 -116 -57 -89 -180 -302 -110 -192 -131 -236 -154 -315 -14 -53 -17 -57 -35 -47 -26 13 -86 -5 -93 -29 -2 -9 -7 -39 -11 -67 -9 -71 -24 -104 -56 -120 -32 -17 -144 -20 -182 -6 -14 6 -45 13 -68 16 -24 3 -57 10 -74 15 -123 36 -155 38 -155 11 0 -12 16 -29 43 -45 46 -26 127 -122 127 -148 0 -9 7 -29 15 -44 19 -38 20 -157 0 -237 -50 -208 -53 -237 -32 -237 20 0 63 52 154 188 90 133 109 148 51 40 -7 -13 -14 -63 -16 -113 -6 -139 28 -241 193 -590 69 -147 107 -231 160 -350 7 -16 25 -56 40 -89 44 -95 144 -412 171 -541 47 -218 63 -367 64 -563 0 -198 -13 -281 -64 -396 -24 -54 -90 -136 -109 -136 -6 0 -19 -7 -29 -17 -15 -13 -38 -16 -120 -15 -170 2 -377 56 -623 163 -11 5 -69 25 -130 45 -97 32 -122 37 -215 38 -97 1 -109 -1 -163 -28 -108 -55 -170 -154 -210 -333 -19 -88 -21 -128 -21 -388 0 -210 5 -329 17 -430 9 -77 22 -183 28 -235 28 -250 59 -426 85 -488 8 -18 14 -38 14 -45 0 -26 79 -129 121 -156 49 -33 152 -72 244 -92 39 -9 121 -14 235 -13 168 1 194 4 405 45 33 7 175 49 315 95 140 45 287 89 325 98 39 8 102 22 140 30 99 22 253 43 450 62 133 12 238 15 480 11 292 -5 386 -13 590 -47 183 -30 489 -144 540 -200 13 -15 13 -27 0 -121 -17 -120 -20 -432 -5 -589 10 -111 36 -424 46 -551 l5 -75 112 3 c62 2 166 8 232 14 66 5 238 13 382 16 144 3 260 9 258 14 -3 4 -40 10 -83 14 -91 7 -287 31 -425 51 -106 16 -190 49 -228 91 l-24 27 30 -20 c36 -24 113 -47 220 -67 44 -9 107 -21 140 -27 97 -18 346 -49 400 -50 28 0 113 -6 190 -14 269 -28 412 -37 750 -47 344 -10 693 -4 749 13 17 5 53 13 79 18 70 14 201 79 282 139 93 70 226 201 340 336 52 61 133 155 180 210 170 198 281 330 318 379 20 28 41 52 46 55 4 4 29 35 55 71 27 36 51 67 55 70 4 3 29 34 56 70 27 36 53 70 58 75 8 10 166 228 200 275 10 14 34 48 55 76 37 52 187 276 287 429 50 77 125 202 125 210 0 2 19 36 43 77 23 40 51 91 62 113 11 22 23 42 26 45 3 3 26 46 50 95 49 98 193 374 218 417 9 14 31 52 49 85 31 53 160 251 172 263 3 3 22 30 42 60 101 152 183 379 242 670 35 172 61 274 64 253 2 -12 10 -27 19 -35 13 -11 21 -6 55 32 61 68 179 327 217 476 5 18 12 37 16 44 11 17 34 128 35 162 0 20 -4 26 -15 22 -20 -8 -19 12 5 61 22 46 25 87 8 114 -18 29 11 156 87 388 35 109 71 218 79 243 8 25 22 79 31 120 9 41 23 102 30 135 8 33 19 94 25 135 6 41 17 120 25 175 30 203 45 386 51 610 6 234 -6 490 -24 535 -6 14 -13 36 -16 50 -3 14 -15 36 -27 48 -19 22 -26 23 -88 16 -36 -3 -81 -13 -100 -20 -18 -8 -40 -14 -48 -14 -13 0 -62 -21 -163 -69 -82 -39 -222 -123 -316 -191 -85 -60 -132 -104 -325 -307 -99 -105 -134 -116 -279 -87 -19 3 -40 10 -46 15 -6 5 -36 18 -66 28 -30 10 -63 24 -74 29 -86 47 -281 92 -399 92 -66 0 -210 -22 -265 -40 -65 -21 -185 -74 -225 -98 -109 -67 -205 -135 -250 -176 -27 -25 -70 -62 -95 -83 -25 -20 -64 -59 -88 -87 -23 -28 -66 -77 -96 -109 -67 -72 -241 -316 -428 -601 -74 -112 -217 -234 -301 -257 -49 -13 -173 -6 -256 15 -139 35 -287 62 -417 75 -51 5 -102 16 -114 23 -12 7 -33 34 -46 60 -56 109 -17 433 83 693 8 22 22 58 31 80 38 100 127 273 198 386 43 68 81 126 85 129 15 11 159 263 206 360 50 103 59 123 123 285 45 114 75 162 142 227 64 64 103 84 180 94 84 11 171 76 238 176 22 33 40 64 40 68 0 4 17 23 38 41 109 99 309 142 652 143 375 0 547 -33 700 -135 71 -48 109 -89 210 -224 137 -183 190 -211 190 -100 0 18 8 53 19 77 23 54 155 206 224 257 28 21 68 53 87 70 32 29 92 71 270 186 36 23 81 51 100 61 55 30 285 179 300 194 3 3 34 30 70 60 115 97 123 116 85 193 -41 84 -79 131 -255 312 -91 94 -183 193 -205 220 -21 28 -53 66 -71 85 -57 63 -141 198 -159 257 -39 127 -128 218 -432 444 -290 215 -409 322 -442 398 -11 26 -26 52 -33 58 -33 26 -128 46 -298 63 -141 14 -206 25 -273 48 -48 16 -93 34 -99 40 -7 7 -16 12 -21 12 -18 0 -132 73 -187 120 -100 84 -140 116 -232 179 -54 37 -155 98 -216 130 -15 8 -29 17 -32 20 -8 9 -44 29 -185 101 -71 37 -168 87 -215 111 -47 25 -130 64 -185 88 -55 24 -127 56 -160 71 -113 53 -196 90 -202 90 -3 0 -19 6 -36 14 -18 7 -57 23 -87 35 -30 12 -64 26 -75 31 -57 23 -197 80 -250 100 -33 12 -73 28 -90 35 -159 67 -426 164 -547 199 -52 15 -62 15 -125 1 -37 -9 -80 -20 -95 -24 -19 -6 -25 -5 -22 3 8 22 -45 36 -129 35 -45 0 -89 -3 -97 -6z"/>
 <path d="M11389 8998 c-6 -25 -12 -134 -13 -258 -1 -208 9 -320 29 -327 18 -6 43 60 54 142 27 193 -2 485 -49 485 -5 0 -14 -19 -21 -42z"/>
 <path d="M10923 6803 c-17 -21 -33 -45 -37 -53 -4 -8 -12 -24 -19 -35 -45 -74 -87 -147 -87 -152 0 -3 -14 -34 -31 -70 -17 -36 -32 -70 -33 -77 -1 -6 -14 -42 -28 -81 -15 -38 -41 -117 -58 -175 -18 -58 -38 -122 -46 -142 -8 -21 -12 -38 -9 -38 3 0 -1 -13 -9 -29 -9 -16 -18 -42 -21 -59 -3 -17 -10 -43 -15 -57 -6 -15 -10 -43 -10 -63 0 -20 -7 -62 -15 -92 -8 -30 -15 -79 -15 -109 0 -53 0 -54 20 -36 11 10 44 68 74 130 30 61 62 118 71 125 44 37 99 188 135 375 11 58 33 128 107 355 54 165 86 320 65 320 -6 0 -23 -17 -39 -37z"/>
 <path d="M10514 5361 c-32 -19 -108 -117 -160 -206 -16 -27 -34 -59 -41 -70 -7 -11 -17 -29 -23 -40 -6 -11 -24 -42 -41 -70 -17 -27 -35 -62 -42 -77 -6 -16 -15 -28 -19 -28 -4 0 -8 -5 -8 -11 0 -10 -64 -124 -100 -179 -6 -8 -13 -22 -17 -30 -3 -8 -23 -44 -43 -80 -70 -122 -99 -181 -87 -177 10 3 37 32 163 179 13 15 57 72 97 125 69 93 98 130 123 157 5 6 13 18 17 26 4 8 15 27 25 42 94 145 142 227 139 236 -1 4 13 37 31 74 38 76 53 148 31 148 -8 0 -28 -9 -45 -19z"/>
 <path d="M9338 4078 c-33 -35 -71 -81 -86 -103 -15 -22 -33 -47 -41 -55 -8 -8 -27 -36 -43 -62 -16 -26 -33 -48 -37 -48 -4 0 -17 -17 -28 -37 -12 -21 -30 -47 -40 -58 -10 -11 -34 -47 -53 -80 -19 -33 -66 -114 -105 -180 -70 -118 -105 -186 -120 -234 l-7 -23 31 18 c43 25 96 83 175 189 37 50 76 101 87 114 11 13 34 44 51 70 18 25 36 49 40 52 5 3 18 23 30 45 11 21 36 64 56 94 19 30 46 73 60 95 14 22 33 52 43 66 28 41 80 172 75 186 -10 24 -28 13 -88 -49z"/>
 <path d="M5990 1549 c-47 -4 -105 -11 -130 -15 -42 -6 -43 -7 -20 -16 133 -51 1126 -56 1223 -6 10 5 17 12 14 14 -2 3 -55 11 -116 19 -121 16 -804 19 -971 4z"/>
 <path d="M4690 1270 c-19 -5 -48 -15 -64 -24 l-29 -15 39 -9 c105 -25 209 -33 434 -32 314 1 593 32 483 54 -126 25 -784 45 -863 26z"/>
 <path d="M6278 1107 c-49 -6 -88 -13 -88 -17 0 -43 555 -69 773 -37 101 14 141 32 96 41 -123 26 -597 34 -781 13z"/>
 </g>
<g id="layer103" fill="#2c82c9" stroke="none">
 <path d="M5465 14223 c-117 -28 -166 -45 -247 -87 -161 -83 -252 -161 -335 -290 -32 -48 -88 -161 -213 -421 -73 -154 -321 -653 -353 -710 -67 -122 -197 -367 -197 -370 0 -3 -18 -34 -40 -70 -22 -36 -40 -69 -40 -74 0 -5 -3 -11 -8 -13 -4 -1 -52 -77 -106 -168 -86 -142 -230 -365 -246 -380 -3 -3 -27 -32 -52 -65 -25 -33 -59 -76 -76 -95 -76 -89 -125 -150 -165 -210 -123 -183 -153 -250 -192 -425 -19 -88 -31 -116 -118 -295 -74 -153 -157 -303 -169 -308 -5 -2 -8 -8 -8 -12 0 -17 -248 -420 -270 -440 -3 -3 -17 -23 -30 -45 -13 -22 -26 -42 -29 -45 -9 -7 -383 -578 -418 -635 -6 -11 -40 -65 -75 -120 -73 -116 -57 -89 -180 -302 -110 -192 -132 -236 -153 -315 -16 -55 -17 -57 -41 -48 -51 20 -87 -23 -98 -115 -7 -62 -23 -88 -68 -111 -48 -25 -133 -15 -345 42 -50 13 -98 24 -107 24 -24 0 -19 -17 11 -43 86 -72 116 -105 142 -161 35 -76 47 -183 26 -254 -20 -69 -30 -162 -17 -162 19 0 183 173 228 240 47 69 61 77 19 10 -14 -22 -32 -59 -42 -82 -9 -24 -21 -49 -27 -57 -5 -7 -12 -54 -14 -105 -6 -140 27 -242 193 -591 69 -147 107 -231 160 -350 7 -16 25 -56 40 -89 44 -95 144 -412 171 -541 47 -218 63 -367 64 -563 0 -198 -13 -281 -64 -396 -24 -54 -90 -136 -109 -136 -6 0 -19 -7 -29 -17 -15 -13 -38 -16 -120 -15 -170 2 -377 56 -623 163 -11 5 -69 25 -130 45 -97 32 -122 37 -215 38 -97 1 -109 -1 -163 -28 -108 -55 -170 -154 -210 -333 -19 -88 -21 -128 -21 -388 0 -210 5 -329 17 -430 9 -77 22 -183 28 -235 28 -250 59 -426 85 -488 8 -18 14 -38 14 -45 0 -26 79 -129 121 -156 49 -33 152 -72 244 -92 39 -9 121 -14 235 -13 168 1 194 4 405 45 33 7 175 49 315 95 140 45 287 89 325 98 39 8 102 22 140 30 99 22 253 43 450 62 208 20 726 14 895 -9 227 -32 256 -39 440 -98 111 -35 188 -69 248 -110 45 -30 62 -36 62 -19 0 6 6 10 13 10 61 0 103 -231 110 -610 5 -231 5 -240 -8 -165 -8 44 -19 121 -24 170 -6 50 -15 119 -20 155 -6 36 -13 103 -16 150 -24 325 -28 -49 -5 -480 12 -219 23 -294 52 -361 40 -96 100 -125 278 -139 107 -9 416 -12 360 -4 -234 33 -394 71 -431 101 -8 7 -20 13 -25 13 -6 0 -23 14 -40 31 -28 30 -28 31 -4 19 14 -7 32 -18 40 -24 20 -16 108 -41 205 -59 44 -9 107 -21 140 -27 97 -18 346 -49 400 -50 28 0 113 -6 190 -14 269 -28 412 -37 750 -47 344 -10 693 -4 749 13 17 5 53 13 79 18 70 14 201 79 282 139 93 70 226 201 340 336 52 61 133 155 180 210 170 198 281 330 318 379 20 28 41 52 46 55 4 4 29 35 55 71 27 36 51 67 55 70 4 3 29 34 56 70 27 36 53 70 58 75 8 10 166 228 200 275 10 14 34 48 55 76 37 52 187 276 287 429 50 77 125 202 125 210 0 2 19 36 43 77 23 40 51 91 62 113 11 22 23 42 26 45 3 3 26 46 50 95 49 98 193 374 218 417 9 14 31 52 49 85 31 53 160 251 172 263 3 3 22 30 42 60 102 153 183 379 243 675 9 44 27 127 40 185 14 58 32 140 40 183 9 44 23 95 32 115 55 129 75 170 142 287 40 72 82 139 92 150 25 29 69 129 69 159 0 15 -5 35 -12 45 -18 29 11 156 87 388 35 109 71 218 79 243 8 25 22 79 31 120 9 41 23 102 30 135 8 33 19 94 25 135 6 41 17 120 25 175 30 203 45 386 51 610 6 234 -6 490 -24 535 -6 14 -13 36 -16 50 -3 14 -15 36 -27 48 -19 22 -26 23 -88 16 -36 -3 -81 -13 -100 -20 -18 -8 -40 -14 -48 -14 -13 0 -62 -21 -163 -69 -82 -39 -222 -123 -316 -191 -85 -60 -132 -104 -325 -307 -99 -105 -134 -116 -279 -87 -19 3 -40 10 -46 15 -6 5 -36 18 -66 28 -30 10 -63 24 -74 29 -86 47 -281 92 -399 92 -66 0 -210 -22 -265 -40 -65 -21 -185 -74 -225 -98 -109 -67 -205 -135 -250 -176 -27 -25 -70 -62 -95 -83 -25 -20 -64 -59 -88 -87 -23 -28 -66 -77 -96 -109 -67 -72 -241 -316 -428 -601 -74 -112 -217 -234 -301 -257 -49 -13 -173 -6 -256 15 -139 35 -287 62 -417 75 -51 5 -102 16 -114 23 -12 7 -33 34 -46 60 -55 108 -17 429 82 691 38 102 51 130 99 233 45 94 195 348 216 364 15 11 159 263 206 360 50 103 59 123 123 285 45 114 75 162 142 227 64 64 103 84 180 94 84 11 171 76 238 176 22 33 40 64 40 68 0 4 17 23 38 41 109 99 309 142 652 143 375 0 547 -33 700 -135 71 -48 109 -89 210 -224 137 -183 190 -211 190 -100 0 18 8 53 19 77 23 54 155 206 224 257 28 21 68 53 87 70 32 29 92 71 270 186 36 23 81 51 100 61 55 30 285 179 300 194 3 3 34 30 70 60 115 97 123 116 85 193 -41 84 -79 131 -255 312 -91 94 -183 193 -205 220 -21 28 -53 66 -71 85 -57 63 -141 198 -159 257 -39 127 -128 218 -432 444 -290 215 -409 322 -442 398 -11 26 -26 52 -33 58 -33 26 -128 46 -298 63 -141 14 -206 25 -273 48 -48 16 -93 34 -99 40 -7 7 -16 12 -21 12 -18 0 -132 73 -187 120 -100 84 -140 116 -232 179 -54 37 -155 98 -216 130 -15 8 -29 17 -32 20 -8 9 -44 29 -185 101 -71 37 -168 87 -215 111 -47 25 -130 64 -185 88 -55 24 -127 56 -160 71 -113 53 -196 90 -202 90 -3 0 -19 6 -36 14 -18 7 -57 23 -87 35 -30 12 -64 26 -75 31 -57 23 -197 80 -250 100 -33 12 -73 28 -90 35 -213 90 -578 218 -611 214 -5 -1 -36 -8 -69 -16z"/>
 <path d="M10769 6513 c-14 -17 -23 -35 -49 -98 -20 -50 -101 -296 -116 -355 -8 -30 -20 -71 -28 -90 -42 -108 -60 -209 -42 -238 15 -24 50 -11 96 36 70 71 134 218 145 332 1 14 13 81 25 150 12 69 25 150 27 181 8 83 -22 125 -58 82z"/>
 <path d="M6243 1541 c-58 -10 -62 -18 -17 -29 132 -34 633 -41 782 -12 73 14 71 28 -5 41 -58 10 -701 9 -760 0z"/>
 <path d="M4740 1270 c-14 -4 -39 -8 -57 -9 -69 -2 -32 -42 52 -55 80 -12 351 -15 415 -5 62 11 118 35 107 46 -27 26 -448 45 -517 23z"/>
 <path d="M6300 1109 c-36 -5 -76 -12 -90 -15 -21 -5 -22 -7 -8 -15 32 -18 273 -40 448 -41 173 -2 400 18 400 34 0 4 7 8 17 8 44 0 -5 12 -103 25 -122 16 -554 19 -664 4z"/>
 </g>
<g id="layer104" fill="#8e8e8e" stroke="none">
 <path d="M1641 8261 c-22 -24 -29 -43 -35 -92 -6 -66 -21 -91 -68 -115 -48 -25 -133 -15 -345 42 -50 13 -98 24 -107 24 -24 0 -19 -17 11 -43 86 -72 116 -105 142 -161 35 -76 47 -183 26 -254 -20 -69 -30 -162 -17 -162 18 0 182 171 225 235 22 33 43 62 46 65 24 20 101 137 151 229 84 155 92 235 22 256 -17 5 -29 0 -51 -24z"/>
 <path d="M10769 6513 c-14 -17 -23 -35 -49 -98 -20 -50 -101 -296 -116 -355 -8 -30 -20 -71 -28 -90 -42 -108 -60 -209 -42 -238 15 -24 50 -11 96 36 70 71 134 218 145 332 1 14 13 81 25 150 12 69 25 150 27 181 8 83 -22 125 -58 82z"/>
 <path d="M4415 2590 c6 -286 23 -598 36 -675 14 -77 43 -146 77 -178 41 -39 104 -57 232 -67 107 -9 416 -12 360 -4 -234 33 -394 71 -431 101 -8 7 -20 13 -25 13 -15 0 -77 71 -97 110 -41 85 -72 229 -97 460 -5 47 -14 114 -19 150 -6 36 -13 103 -16 150 -14 191 -24 161 -20 -60z"/>
 <path d="M6243 1541 c-58 -10 -62 -18 -17 -29 132 -34 633 -41 782 -12 73 14 71 28 -5 41 -58 10 -701 9 -760 0z"/>
 <path d="M4740 1270 c-14 -4 -39 -8 -57 -9 -69 -2 -32 -42 52 -55 80 -12 351 -15 415 -5 62 11 118 35 107 46 -27 26 -448 45 -517 23z"/>
 <path d="M6300 1109 c-36 -5 -76 -12 -90 -15 -21 -5 -22 -7 -8 -15 32 -18 273 -40 448 -41 173 -2 400 18 400 34 0 4 7 8 17 8 44 0 -5 12 -103 25 -122 16 -554 19 -664 4z"/>
 </g>

</svg>