<!DOCTYPE svg PUBLIC "-//W3C//DTD SVG 20010904//EN" "http://www.w3.org/TR/2001/REC-SVG-20010904/DTD/svg10.dtd">
<svg version="1.0" xmlns="http://www.w3.org/2000/svg" width="1600px" height="914px" viewBox="0 0 16000 9140" preserveAspectRatio="xMidYMid meet">
<g id="layer101" fill="#0b0b0b" stroke="none">
 <path d="M1070 8624 c-129 -13 -272 -34 -291 -44 -17 -10 -20 -17 -14 -46 7 -40 62 -173 91 -221 10 -17 46 -76 79 -130 57 -94 213 -398 284 -553 19 -41 51 -111 71 -155 50 -107 102 -226 134 -302 28 -68 62 -144 107 -241 16 -34 29 -64 29 -66 0 -2 23 -52 50 -110 28 -58 50 -108 50 -111 0 -9 307 -625 381 -765 73 -139 144 -259 299 -510 49 -80 96 -156 103 -170 130 -238 186 -353 205 -420 38 -134 58 -181 176 -405 54 -103 149 -275 182 -332 11 -18 60 -101 109 -185 50 -84 95 -160 100 -169 6 -10 17 -30 26 -46 9 -15 66 -111 126 -213 60 -102 125 -212 143 -245 18 -33 42 -73 52 -90 10 -16 21 -37 25 -45 4 -8 26 -46 48 -85 39 -65 76 -131 130 -230 100 -182 202 -368 223 -405 14 -25 57 -106 95 -180 95 -186 124 -237 169 -295 115 -146 251 -206 568 -254 109 -17 271 -39 360 -51 47 -6 128 -18 180 -26 52 -8 124 -19 160 -25 240 -37 563 -101 680 -135 47 -13 110 -31 140 -40 199 -56 470 -192 595 -299 83 -70 157 -137 225 -202 113 -109 189 -166 280 -212 148 -75 243 -91 573 -98 282 -5 409 6 516 45 61 23 100 75 110 143 16 116 79 173 208 189 98 12 185 65 220 135 33 66 74 95 172 123 48 14 123 16 536 17 453 0 487 2 600 23 285 53 505 156 635 299 65 71 89 109 126 198 27 66 29 78 29 215 0 158 -10 208 -65 324 -51 108 -163 233 -294 329 -28 20 -56 42 -63 47 -7 6 -15 10 -18 10 -4 0 -21 11 -38 24 -57 43 -323 174 -527 261 -201 85 -370 185 -370 218 0 17 91 0 200 -38 247 -85 340 -104 507 -108 58 -1 110 5 153 16 102 28 347 61 650 87 145 12 388 36 510 50 47 5 112 12 145 15 33 4 137 19 230 35 408 69 563 112 775 213 115 54 270 108 388 134 57 13 126 17 267 18 233 0 284 -10 455 -94 58 -28 99 -60 185 -143 174 -169 211 -195 317 -228 63 -19 232 -15 326 9 309 80 437 164 569 376 44 70 80 184 99 312 14 93 15 125 4 228 -19 192 -39 252 -184 549 -53 108 -96 198 -96 200 0 2 -23 53 -51 112 -28 60 -59 127 -69 149 -10 22 -39 84 -64 139 -25 54 -46 100 -46 102 0 2 -20 46 -44 97 -24 50 -56 119 -71 152 -15 33 -49 110 -77 170 -27 61 -62 137 -78 170 -16 33 -49 105 -73 161 -25 55 -69 149 -99 210 -30 60 -67 147 -82 194 -56 170 -163 360 -265 470 -73 78 -215 389 -329 720 -98 284 -131 372 -158 430 -15 30 -33 69 -40 85 -33 70 -115 184 -171 237 -111 103 -214 138 -407 138 -136 0 -134 0 -581 -90 -104 -21 -253 -48 -330 -59 -203 -31 -255 -46 -400 -117 -178 -86 -285 -113 -590 -148 -252 -28 -463 -36 -1012 -36 -722 0 -1357 26 -2043 85 -91 8 -230 19 -310 25 -80 6 -201 17 -270 25 -69 8 -177 19 -240 25 -63 6 -171 17 -240 25 -69 8 -174 19 -235 25 -60 6 -164 17 -230 25 -112 13 -221 25 -375 41 -36 3 -68 11 -71 16 -9 14 -133 27 -252 28 -54 0 -157 6 -230 14 -73 8 -190 19 -262 25 -236 21 -440 44 -445 51 -9 13 -103 21 -370 30 -146 5 -317 14 -380 20 -238 20 -502 40 -702 51 -150 9 -205 16 -201 24 8 22 -102 28 -542 31 -236 1 -506 7 -600 13 -173 11 -1103 23 -1185 15z m9718 -981 c-10 -2 -28 -2 -40 0 -13 2 -5 4 17 4 22 1 32 -1 23 -4z"/>
 </g>
<g id="layer102" fill="#6b6b6b" stroke="none">
 <path d="M2830 8590 c-41 -4 -304 -9 -585 -10 -280 -1 -544 -5 -585 -9 l-75 -6 115 -15 c93 -12 259 -15 865 -15 730 0 823 4 832 31 2 7 -16 14 -44 18 -80 10 -443 15 -523 6z"/>
 <path d="M4201 8458 c-118 -7 -141 -11 -129 -23 27 -27 659 -46 844 -25 104 11 145 22 133 34 -22 23 -552 31 -848 14z"/>
 <path d="M1410 8351 c-105 -11 -140 -20 -140 -36 0 -33 142 -333 238 -505 149 -266 219 -361 256 -347 9 4 16 1 16 -5 0 -23 101 -269 203 -493 23 -49 155 -316 294 -592 139 -277 251 -503 249 -503 -2 0 -20 24 -40 54 -41 61 -133 166 -147 166 -12 0 -12 -36 1 -58 5 -9 28 -57 51 -107 37 -80 64 -131 164 -310 143 -254 300 -475 339 -475 6 0 30 -37 54 -82 39 -78 111 -215 297 -573 42 -82 92 -177 110 -210 18 -33 55 -103 82 -155 28 -52 88 -165 133 -250 45 -85 105 -198 133 -250 49 -94 88 -167 142 -265 15 -27 43 -79 63 -115 19 -36 77 -141 129 -233 51 -93 93 -170 93 -171 0 -2 68 -122 152 -267 195 -339 227 -397 288 -518 57 -114 65 -120 188 -151 110 -28 263 -47 517 -65 121 -8 274 -20 339 -25 419 -36 842 -151 1177 -320 184 -93 277 -160 463 -337 181 -172 330 -267 513 -329 66 -22 97 -27 198 -28 172 -2 228 24 315 143 88 121 196 184 347 202 49 6 107 18 131 26 75 28 132 112 132 196 0 48 28 87 78 109 73 33 211 29 607 -15 147 -16 558 -15 655 2 370 64 606 206 656 395 38 141 4 190 -258 383 -168 124 -533 351 -743 463 -564 300 -1047 588 -1268 757 -75 58 -91 83 -91 148 -1 61 21 92 89 128 35 19 56 21 175 20 197 -1 416 -52 720 -167 76 -29 177 -69 224 -88 126 -51 357 -114 516 -139 178 -29 782 -15 1155 27 72 8 173 19 225 25 418 46 907 145 1100 223 215 88 323 114 626 152 103 13 185 15 385 11 272 -5 372 -18 509 -63 96 -32 133 -57 172 -117 79 -123 245 -195 428 -184 146 8 204 46 237 155 14 46 17 94 17 242 0 191 -12 304 -45 425 -19 70 -26 86 -110 245 -47 89 -134 295 -164 390 -16 50 -93 246 -115 295 -5 11 -26 56 -45 100 -96 214 -303 635 -400 815 -26 47 -81 150 -123 230 -42 80 -96 181 -119 225 -46 85 -283 562 -283 569 0 3 -13 33 -29 68 -91 197 -150 358 -176 480 -57 262 -100 297 -355 285 l-115 -5 85 23 c209 55 306 93 287 112 -12 12 -249 7 -332 -7 -38 -6 -79 -12 -90 -12 -60 0 -445 -62 -775 -124 -47 -8 -105 -19 -130 -23 -45 -7 -45 -7 30 -15 41 -4 170 -8 285 -9 116 -1 194 -3 175 -5 -106 -8 -552 -92 -680 -127 -217 -59 -377 -82 -739 -105 -171 -11 -220 -8 -104 6 l68 8 -100 7 c-130 9 -1425 9 -1535 0 l-85 -6 100 -13 c61 -8 271 -16 535 -20 l435 -7 -385 -5 c-410 -5 -1349 4 -1540 16 -95 6 -109 9 -81 16 18 5 30 12 27 15 -4 4 -57 12 -119 19 -86 10 -175 11 -387 3 -257 -10 -285 -9 -430 10 -85 12 -191 28 -235 36 -75 14 -186 31 -350 55 -38 6 -146 19 -240 30 -93 10 -228 26 -300 35 -71 9 -179 20 -240 25 -60 6 -146 14 -190 20 -44 5 -134 14 -200 20 -66 6 -181 17 -255 25 -74 8 -200 19 -280 26 -80 6 -199 17 -265 24 l-120 13 209 1 c294 1 528 22 506 45 -11 10 -375 26 -609 26 -223 0 -478 -14 -490 -26 -3 -3 1 -9 9 -15 11 -7 9 -8 -10 -5 -24 5 -127 14 -395 36 -71 6 -206 18 -300 26 -93 8 -210 18 -260 22 l-90 8 190 13 c105 8 201 18 215 24 l25 10 -30 8 c-55 16 -455 27 -662 19 -203 -8 -238 -14 -212 -32 9 -6 -7 -7 -46 -4 -33 4 -127 11 -210 16 -82 5 -206 14 -275 19 -69 6 -204 15 -300 21 -96 6 -193 12 -215 13 -73 5 -40 11 349 67 76 11 146 20 154 20 8 0 13 2 11 5 -13 12 -917 26 -1019 16z m9378 -708 c-10 -2 -28 -2 -40 0 -13 2 -5 4 17 4 22 1 32 -1 23 -4z"/>
 <path d="M5810 8341 c-91 -4 -174 -12 -185 -18 -17 -10 -15 -12 19 -22 21 -5 101 -16 176 -22 190 -17 420 5 420 40 0 23 -188 33 -430 22z"/>
 <path d="M6817 8210 c-214 -10 -241 -25 -87 -50 156 -24 386 -21 497 6 30 8 30 30 0 38 -45 11 -244 14 -410 6z"/>
 <path d="M7756 8079 c-153 -14 -145 -29 27 -49 134 -15 512 -9 570 9 47 15 43 34 -9 43 -54 10 -467 7 -588 -3z"/>
 <path d="M9110 7931 c-113 -33 1125 -51 1455 -22 102 10 151 17 135 22 -33 9 -1557 9 -1590 0z"/>
 <path d="M14180 6892 c0 -33 38 -121 117 -274 92 -175 204 -368 227 -387 24 -20 36 -4 36 48 0 157 -214 559 -327 615 -41 21 -53 20 -53 -2z"/>
 <path d="M15156 4071 c-3 -4 -10 -65 -15 -135 -9 -117 1 -364 15 -387 37 -61 70 182 52 381 -5 63 -14 123 -19 133 -10 18 -25 22 -33 8z"/>
 </g>
<g id="layer103" fill="#2c82c9" stroke="none">
 <path d="M2811 8590 c-109 -11 -132 -23 -75 -40 62 -18 442 -24 558 -8 110 14 134 32 59 42 -87 11 -446 15 -542 6z"/>
 <path d="M4476 8460 c-105 -8 -149 -22 -110 -33 134 -39 684 -28 684 13 0 20 -397 34 -574 20z"/>
 <path d="M1402 8349 c-117 -14 -134 -22 -126 -56 15 -69 310 -636 381 -733 40 -54 86 -100 99 -100 7 0 15 12 17 28 4 24 4 23 6 -7 2 -47 75 -231 204 -516 23 -49 155 -316 294 -592 139 -277 251 -503 249 -503 -2 0 -20 24 -40 54 -41 61 -133 166 -147 166 -12 0 -12 -36 1 -58 5 -9 28 -57 51 -107 37 -80 64 -131 164 -310 143 -254 300 -475 339 -475 6 0 30 -37 54 -82 39 -78 111 -215 297 -573 42 -82 92 -177 110 -210 18 -33 55 -103 82 -155 28 -52 88 -165 133 -250 45 -85 105 -198 133 -250 49 -94 88 -167 142 -265 15 -27 43 -79 63 -115 19 -36 77 -141 129 -233 51 -93 93 -170 93 -171 0 -2 68 -122 152 -267 195 -339 227 -397 288 -518 57 -114 65 -120 188 -151 110 -28 263 -47 517 -65 121 -8 274 -20 339 -25 419 -36 842 -151 1177 -320 184 -93 277 -160 463 -337 181 -172 330 -267 513 -329 66 -22 97 -27 198 -28 172 -2 228 24 315 143 88 121 196 184 347 202 49 6 107 18 131 26 75 28 132 112 132 196 0 48 28 87 78 109 73 33 211 29 607 -15 147 -16 558 -15 655 2 370 64 606 206 656 395 38 141 4 190 -258 383 -168 124 -533 351 -743 463 -564 300 -1047 588 -1268 757 -75 58 -91 83 -91 148 -1 61 21 92 89 128 35 19 56 21 175 20 197 -1 416 -52 720 -167 76 -29 177 -69 224 -88 126 -51 357 -114 516 -139 178 -29 782 -15 1155 27 72 8 173 19 225 25 418 46 907 145 1100 223 215 88 323 114 626 152 103 13 185 15 385 11 272 -5 372 -18 509 -63 96 -32 133 -57 172 -117 79 -123 245 -195 428 -184 146 8 204 46 237 155 14 46 17 94 17 242 0 191 -12 304 -45 425 -19 70 -26 86 -110 245 -47 89 -134 295 -164 390 -16 50 -93 246 -115 295 -5 11 -26 56 -45 100 -96 214 -303 635 -400 815 -26 47 -81 150 -123 230 -42 80 -96 181 -119 225 -46 85 -283 562 -283 569 0 3 -13 33 -29 68 -91 197 -150 358 -176 480 -57 262 -100 297 -355 285 l-115 -5 85 23 c209 55 306 93 287 112 -12 11 -248 7 -332 -7 -38 -6 -92 -13 -120 -16 -49 -4 -161 -20 -340 -50 -86 -14 -158 -26 -337 -59 -46 -8 -114 -20 -153 -27 l-70 -12 40 -8 c22 -4 146 -8 275 -9 129 -1 219 -4 200 -6 -126 -13 -557 -94 -680 -128 -217 -59 -377 -82 -739 -105 -171 -11 -216 -9 -109 6 55 7 38 9 -127 15 -243 8 -1105 8 -1340 0 l-180 -6 105 -13 c59 -7 292 -16 535 -20 l430 -7 -385 -5 c-410 -5 -1349 4 -1540 16 -95 6 -109 9 -81 16 18 5 31 12 28 15 -3 3 -57 11 -119 19 -90 11 -168 11 -388 3 -257 -10 -285 -9 -430 10 -85 12 -191 28 -235 36 -75 14 -186 31 -350 55 -38 6 -146 19 -240 30 -93 10 -228 26 -300 35 -71 9 -179 20 -240 25 -60 6 -146 14 -190 20 -44 5 -134 14 -200 20 -66 6 -181 17 -255 25 -74 8 -200 19 -280 26 -80 6 -199 17 -265 24 l-120 13 220 1 c199 1 328 9 454 27 38 6 41 8 25 18 -12 6 -106 12 -249 13 -126 2 -304 6 -395 9 -149 6 -426 -8 -439 -22 -3 -3 1 -9 9 -15 11 -7 9 -8 -10 -5 -24 5 -131 15 -395 36 -130 11 -355 30 -580 50 -183 16 -163 23 60 20 98 -1 275 17 288 30 14 13 -55 21 -271 30 -203 8 -600 -2 -623 -15 -8 -6 -7 -10 2 -16 18 -11 12 -11 -125 1 -61 5 -214 16 -341 25 -126 9 -285 20 -353 25 -67 6 -155 10 -194 10 -43 0 -68 4 -62 9 9 9 63 18 384 64 l155 22 -123 6 c-243 13 -817 17 -900 8z m149 -374 l10 -20 -16 20 c-9 11 -21 29 -26 40 l-10 20 16 -20 c9 -11 21 -29 26 -40z m9227 -332 c-16 -2 -40 -2 -55 0 -16 2 -3 4 27 4 30 0 43 -2 28 -4z"/>
 <path d="M7963 8081 c-158 -6 -196 -11 -180 -27 3 -3 50 -13 104 -21 73 -11 140 -13 263 -9 170 6 244 18 237 39 -7 23 -121 28 -424 18z"/>
 <path d="M15153 4053 c-10 -37 -10 -450 0 -486 13 -46 34 -17 47 66 15 86 8 366 -10 415 -15 39 -27 41 -37 5z"/>
 </g>
<g id="layer104" fill="#989898" stroke="none">
 <path d="M2811 8590 c-109 -11 -132 -23 -75 -40 62 -18 442 -24 558 -8 110 14 134 32 59 42 -87 11 -446 15 -542 6z"/>
 <path d="M4476 8460 c-105 -8 -149 -22 -110 -33 134 -39 684 -28 684 13 0 20 -397 34 -574 20z"/>
 <path d="M1402 8349 c-117 -14 -134 -22 -126 -56 15 -69 310 -636 381 -733 40 -55 86 -100 100 -100 22 0 15 82 -13 162 -36 103 -76 178 -155 290 -77 108 -119 182 -119 209 0 27 58 65 125 82 54 14 157 32 320 57 33 5 103 16 155 24 52 8 154 23 225 33 l130 18 -123 6 c-243 13 -817 17 -900 8z"/>
 <path d="M3553 8204 c36 -11 15 -33 -43 -45 -58 -11 145 -10 240 1 107 13 125 20 85 31 -32 9 -312 22 -282 13z"/>
 <path d="M7963 8081 c-158 -6 -196 -11 -180 -27 3 -3 50 -13 104 -21 73 -11 140 -13 263 -9 170 6 244 18 237 39 -7 23 -121 28 -424 18z"/>
 <path d="M5130 8074 c75 -14 64 -25 -43 -40 l-82 -12 150 -1 c136 -1 263 8 384 25 37 6 41 8 25 17 -12 7 -105 12 -239 13 -121 2 -209 0 -195 -2z"/>
 <path d="M12790 8045 c-41 -7 -120 -20 -175 -29 -94 -15 -150 -25 -347 -61 -46 -8 -114 -20 -153 -27 l-70 -12 40 -8 c55 -10 433 -10 417 1 -20 12 4 27 89 56 73 25 270 79 319 88 18 3 15 4 -10 5 -19 0 -69 -6 -110 -13z"/>
 <path d="M8395 7680 c3 -6 -4 -14 -17 -19 l-23 -10 25 0 c14 -1 43 4 65 10 34 10 37 13 20 20 -29 11 -77 11 -70 -1z"/>
 <path d="M9545 7680 l-160 -5 120 -15 c174 -22 1368 -22 1500 0 l90 15 -190 6 c-226 8 -1133 7 -1360 -1z"/>
 <path d="M15153 4053 c-10 -37 -10 -450 0 -486 13 -46 34 -17 47 66 15 86 8 366 -10 415 -15 39 -27 41 -37 5z"/>
 </g>

</svg>