<!DOCTYPE svg PUBLIC "-//W3C//DTD SVG 20010904//EN" "http://www.w3.org/TR/2001/REC-SVG-20010904/DTD/svg10.dtd">
<svg version="1.0" xmlns="http://www.w3.org/2000/svg" width="1013px" height="1600px" viewBox="0 0 10130 16000" preserveAspectRatio="xMidYMid meet">
<g id="layer101" fill="#111111" stroke="none">
 <path d="M4575 15619 c-38 -5 -234 -10 -435 -12 -301 -3 -381 -6 -455 -21 -388 -77 -554 -165 -747 -395 -16 -18 -28 -37 -28 -42 0 -5 -4 -9 -9 -9 -7 0 -93 -166 -122 -235 -19 -47 -68 -216 -82 -285 -18 -89 -42 -254 -57 -400 -6 -58 -17 -154 -25 -215 -9 -60 -15 -123 -15 -140 0 -58 -81 -410 -109 -470 -43 -92 -61 -136 -61 -147 0 -8 -5 -19 -11 -25 -6 -6 -16 -21 -23 -32 -42 -76 -150 -233 -204 -296 -10 -11 -53 -62 -97 -112 -43 -51 -83 -93 -87 -93 -4 0 -8 -4 -8 -10 0 -11 -243 -261 -496 -510 -92 -91 -261 -258 -375 -371 l-208 -207 -6 -123 c-3 -68 -12 -232 -20 -364 -8 -132 -19 -334 -25 -450 -6 -115 -17 -322 -25 -460 -39 -664 -46 -781 -60 -1065 -8 -168 -20 -388 -26 -490 -29 -507 -31 -1484 -4 -1815 20 -231 60 -500 95 -635 5 -19 16 -62 24 -95 35 -138 52 -188 118 -350 38 -95 113 -252 152 -320 12 -22 31 -56 42 -75 11 -19 37 -61 57 -92 20 -31 37 -59 37 -62 0 -3 20 -34 45 -70 25 -37 45 -68 45 -71 0 -3 20 -34 45 -71 25 -36 45 -67 45 -70 0 -3 18 -32 40 -65 22 -33 40 -62 40 -65 0 -2 19 -32 42 -66 24 -35 52 -81 63 -103 11 -22 22 -42 25 -45 3 -3 11 -16 17 -30 7 -14 26 -47 42 -75 17 -27 35 -59 41 -70 6 -11 21 -38 33 -60 22 -38 80 -144 153 -280 18 -33 62 -118 99 -190 37 -71 89 -170 115 -220 27 -49 66 -124 86 -165 20 -41 40 -77 43 -80 3 -3 21 -34 39 -70 59 -114 139 -273 177 -350 20 -41 54 -109 76 -150 21 -41 39 -79 39 -85 0 -6 33 -76 74 -156 108 -213 121 -238 154 -309 16 -36 55 -117 86 -181 31 -64 56 -119 56 -122 0 -4 12 -32 26 -64 14 -32 32 -71 39 -88 8 -16 28 -61 45 -100 18 -38 39 -86 48 -105 8 -19 20 -46 27 -60 6 -14 17 -45 24 -70 7 -25 19 -57 27 -72 8 -14 14 -33 14 -42 0 -9 4 -24 10 -34 11 -19 37 -91 50 -137 26 -97 105 -210 169 -243 70 -37 149 -47 243 -33 79 11 112 18 286 55 39 9 105 23 145 32 180 38 284 58 457 84 41 7 109 18 150 25 149 27 376 62 580 90 63 9 151 23 195 31 44 8 93 14 109 14 16 0 68 7 115 15 47 8 133 19 191 25 58 6 155 18 215 25 61 8 164 21 230 29 66 8 176 22 245 31 69 8 141 15 160 15 19 0 89 6 155 14 352 44 930 90 1300 103 318 12 445 7 740 -28 245 -30 401 -16 507 43 53 30 138 99 138 113 0 3 10 16 23 28 31 31 80 104 105 157 56 121 51 233 -19 395 -5 11 -13 31 -19 45 -5 14 -16 34 -22 45 -7 11 -27 42 -45 70 -17 27 -37 62 -44 77 -7 16 -15 28 -19 28 -4 0 -10 8 -14 18 -3 9 -15 31 -26 47 -11 17 -25 40 -31 53 -7 12 -16 22 -21 22 -4 0 -8 4 -8 10 0 5 -17 38 -38 72 -21 35 -41 70 -45 78 -4 8 -15 27 -25 42 -45 69 -92 150 -92 158 0 5 -4 10 -8 12 -4 1 -47 84 -96 183 -112 228 -120 245 -151 330 -15 39 -33 84 -40 100 -17 38 -73 179 -90 225 -28 80 -37 108 -52 165 -9 33 -22 72 -29 87 -8 15 -14 36 -14 47 0 11 -6 35 -14 53 -13 31 -26 77 -62 223 -9 33 -21 83 -28 110 -8 28 -21 86 -30 130 -10 44 -21 99 -27 123 -5 23 -9 52 -9 65 0 12 -6 54 -14 92 -31 150 -46 242 -46 282 0 23 -7 89 -15 145 -28 194 -46 663 -35 889 19 375 43 524 113 692 25 60 85 159 99 165 4 2 8 8 8 14 0 10 44 70 90 122 26 30 149 152 325 325 58 56 127 132 153 167 26 35 50 64 55 64 4 0 7 4 7 9 0 6 11 22 24 36 32 34 99 159 129 240 36 96 45 268 22 390 l-6 30 23 -27 c13 -16 27 -28 30 -28 4 0 -19 53 -51 118 -32 64 -86 173 -120 242 -73 147 -94 185 -146 265 -103 160 -150 230 -157 233 -5 2 -8 8 -8 13 0 9 -101 170 -151 241 -10 15 -19 32 -19 37 0 5 -6 16 -13 23 -36 40 -203 385 -213 441 -13 71 -88 247 -106 247 -4 0 -8 5 -8 10 0 9 -35 65 -50 80 -3 3 -14 21 -24 40 -11 19 -32 51 -48 71 -15 20 -28 42 -28 48 0 6 -4 11 -10 11 -5 0 -10 7 -10 15 0 8 -4 15 -8 15 -4 0 -16 14 -26 31 -10 18 -26 39 -35 48 -9 9 -27 33 -40 54 -12 20 -27 37 -32 37 -5 0 -9 7 -9 15 0 8 -3 15 -8 15 -4 0 -16 15 -25 33 -10 19 -28 45 -40 58 -12 13 -47 56 -77 94 -30 39 -60 76 -67 83 -7 7 -27 33 -44 57 -18 25 -36 45 -41 45 -4 0 -8 7 -8 15 0 8 -4 15 -8 15 -5 0 -26 25 -48 55 -21 30 -42 55 -46 55 -5 0 -8 7 -8 15 0 8 -3 15 -7 15 -5 0 -42 45 -83 100 -41 55 -78 100 -82 100 -4 0 -8 7 -8 15 0 8 -4 15 -10 15 -5 0 -10 7 -10 15 0 8 -4 15 -8 15 -4 0 -25 24 -47 53 -21 28 -43 57 -48 62 -14 16 -136 186 -164 230 -15 22 -32 45 -37 50 -6 6 -15 18 -21 27 -33 55 -211 314 -217 316 -5 2 -8 8 -8 13 0 6 -17 36 -37 67 -42 64 -48 75 -88 152 -16 30 -31 57 -34 60 -4 3 -40 73 -81 155 -41 83 -78 152 -81 155 -7 6 -32 53 -49 90 -6 13 -14 27 -18 30 -4 3 -15 21 -24 40 -10 19 -33 62 -53 95 -19 33 -40 72 -46 88 -6 15 -14 27 -17 27 -4 0 -16 19 -27 43 -11 23 -22 44 -25 47 -3 3 -30 48 -60 100 -29 52 -56 97 -59 100 -3 3 -15 23 -26 45 -11 22 -23 42 -26 45 -4 3 -24 36 -45 73 -46 80 -51 88 -87 144 -15 24 -27 47 -27 53 0 5 -4 10 -9 10 -5 0 -14 14 -21 30 -7 17 -15 30 -19 30 -3 0 -13 14 -20 32 -8 18 -27 51 -43 74 -15 23 -28 47 -28 53 0 6 -4 11 -9 11 -5 0 -14 14 -21 30 -7 17 -16 30 -20 30 -4 0 -10 8 -14 18 -3 9 -15 31 -26 47 -11 17 -23 37 -27 45 -4 8 -31 52 -60 97 -29 45 -53 87 -53 92 0 6 -4 11 -9 11 -5 0 -14 14 -21 30 -7 17 -16 30 -21 30 -5 0 -9 4 -9 10 0 9 -118 208 -130 220 -7 7 -29 42 -37 60 -4 8 -9 17 -13 20 -3 3 -19 28 -35 55 -17 28 -35 59 -42 70 -11 18 -15 27 -29 60 -5 13 -14 25 -174 265 -9 14 -19 32 -23 40 -4 8 -16 29 -27 45 -11 17 -23 37 -27 45 -18 39 -35 45 -142 48 -58 2 -124 10 -146 17 -57 21 -211 45 -270 44 -27 -1 -81 -6 -120 -10z"/>
 </g>
<g id="layer102" fill="#686868" stroke="none">
 <path d="M4580 15620 c-36 -5 -76 -13 -90 -18 l-25 -9 30 -15 c17 -8 66 -22 110 -32 147 -34 234 -63 395 -134 126 -56 214 -109 360 -215 66 -48 126 -90 135 -93 20 -8 20 19 0 36 -8 7 -15 17 -15 22 0 18 -142 198 -194 245 -29 26 -75 59 -102 73 -27 14 -56 30 -64 36 -8 5 -35 18 -60 28 -25 11 -63 27 -85 36 -50 22 -216 50 -281 49 -27 -1 -78 -5 -114 -9z"/>
 <path d="M3785 15081 c-145 -30 -205 -48 -292 -92 -164 -81 -215 -180 -263 -514 -7 -44 -14 -224 -15 -400 -4 -361 -12 -429 -76 -635 -22 -69 -39 -131 -39 -138 0 -16 -21 -63 -106 -234 -76 -155 -218 -377 -294 -462 -25 -28 -76 -87 -112 -131 -87 -106 -340 -341 -463 -430 -22 -16 -44 -34 -50 -40 -13 -14 -161 -125 -200 -149 -16 -11 -34 -23 -40 -28 -11 -9 -105 -77 -200 -143 -31 -22 -93 -66 -136 -97 l-79 -58 -2 -887 c-1 -489 -3 -868 -4 -843 -2 25 -10 182 -19 350 -15 301 -32 542 -41 569 -18 57 -27 -77 -43 -689 -26 -970 -34 -1531 -28 -2080 8 -663 23 -1298 31 -1320 3 -8 10 -109 15 -225 13 -272 43 -493 67 -488 18 3 43 110 44 188 0 44 5 114 11 155 6 41 14 161 17 265 l7 190 13 -105 c41 -330 110 -616 212 -880 12 -30 27 -71 35 -91 27 -73 114 -255 195 -408 27 -52 50 -97 50 -99 0 -13 -25 12 -81 82 -35 43 -91 111 -124 151 -33 40 -88 107 -123 150 -34 42 -62 72 -62 68 0 -5 4 -13 9 -19 5 -5 21 -31 36 -59 96 -177 353 -613 431 -732 19 -28 34 -56 34 -61 0 -6 4 -12 8 -14 4 -1 17 -17 27 -35 52 -84 120 -180 139 -195 21 -17 21 -16 31 24 l10 41 80 -139 c91 -160 111 -196 156 -279 46 -86 87 -160 120 -217 16 -27 29 -51 29 -53 0 -2 24 -46 53 -97 29 -52 56 -101 60 -109 4 -8 25 -45 47 -84 23 -38 48 -83 56 -100 8 -16 32 -61 52 -100 39 -72 170 -325 333 -640 97 -189 419 -831 487 -972 22 -46 37 -83 33 -83 -28 0 -151 173 -151 213 0 17 -18 33 -27 23 -3 -3 -9 -27 -14 -53 -28 -144 110 -301 311 -355 69 -19 266 -25 256 -9 -3 5 -39 19 -78 31 -84 25 -202 78 -236 106 -23 19 -22 19 90 22 62 2 163 10 223 18 61 7 128 14 150 14 22 0 90 7 150 15 110 16 223 31 455 60 69 9 172 22 230 30 58 8 148 19 200 25 88 10 168 20 388 50 77 10 87 10 140 -11 52 -21 78 -23 278 -27 235 -4 371 10 403 43 15 15 14 18 -3 31 -11 8 -31 14 -45 15 -14 0 -73 6 -131 12 l-104 12 114 18 c140 21 309 42 450 57 58 6 155 17 215 25 143 18 612 64 870 86 72 6 335 17 585 25 527 16 566 20 612 71 15 16 16 25 7 59 -6 21 -17 46 -25 55 -8 8 -14 19 -14 22 0 4 -33 50 -72 103 -139 185 -158 209 -198 266 -22 31 -44 59 -49 63 -6 3 -29 40 -53 81 -48 85 -53 92 -91 151 -15 24 -27 47 -27 53 0 5 -4 10 -8 10 -9 0 -33 47 -127 245 -36 77 -72 151 -79 165 -8 14 -21 45 -29 70 -9 25 -32 90 -52 145 -20 55 -41 116 -47 135 -6 19 -13 40 -17 45 -7 9 -19 52 -56 193 -51 196 -81 337 -110 517 -9 55 -23 136 -30 180 -8 44 -21 159 -30 255 -9 96 -21 229 -28 295 -8 81 -12 332 -12 780 0 673 9 914 41 1055 8 36 14 73 14 82 0 10 7 39 16 65 15 45 25 69 60 151 36 83 152 217 269 309 39 31 75 61 80 67 6 7 39 34 75 61 36 27 67 52 70 55 3 4 31 26 64 51 32 24 85 64 117 89 32 25 110 85 173 133 89 69 113 92 108 105 -4 9 -38 64 -76 122 -81 125 -155 239 -242 375 -35 55 -67 105 -72 110 -4 6 -17 26 -28 45 -10 19 -22 37 -25 40 -4 4 -159 275 -237 415 -44 80 -221 442 -247 505 -37 93 -39 96 -81 190 -21 47 -48 102 -61 122 -13 21 -23 42 -23 48 0 5 -3 10 -8 10 -4 0 -15 15 -25 33 -24 44 -119 142 -170 174 -23 15 -78 63 -122 108 -77 77 -130 146 -345 446 -47 67 -251 370 -335 499 -38 58 -94 143 -125 190 -31 47 -59 92 -63 100 -4 8 -29 49 -57 90 -27 41 -54 84 -59 95 -6 11 -46 79 -90 150 -45 72 -91 147 -103 169 -13 21 -28 46 -33 55 -6 9 -23 39 -40 66 -16 28 -32 52 -35 55 -3 3 -14 21 -24 40 -11 19 -33 58 -51 85 -17 28 -53 86 -80 130 -26 44 -58 96 -70 115 -42 67 -103 166 -172 280 -39 63 -99 161 -134 218 -35 57 -69 111 -74 120 -19 31 -146 226 -176 270 -16 23 -29 45 -29 48 0 3 -13 24 -29 47 -16 23 -56 85 -90 137 -33 52 -65 102 -71 110 -21 30 -182 268 -276 408 -53 78 -100 145 -105 148 -5 3 -27 31 -48 62 -42 62 -155 182 -171 182 -6 0 -27 11 -48 25 -48 32 -210 87 -337 116 -141 31 -486 37 -620 10z"/>
 <path d="M7350 11881 c0 -16 4 -32 9 -35 4 -3 16 -26 26 -52 10 -26 36 -74 57 -108 22 -33 66 -100 97 -149 54 -84 129 -187 236 -322 28 -35 78 -99 111 -142 34 -43 97 -113 139 -156 91 -92 111 -92 75 0 -26 63 -95 198 -110 213 -3 3 -12 17 -20 31 -14 25 -45 71 -122 180 -18 26 -53 76 -77 110 -25 35 -50 69 -56 74 -6 6 -24 28 -40 50 -76 105 -255 299 -297 321 -28 14 -28 14 -28 -15z"/>
 <path d="M971 11213 c-6 -26 -15 -180 -21 -342 -11 -318 2 -828 22 -891 l11 -35 9 30 c5 17 18 109 28 205 45 408 5 1268 -49 1033z"/>
 <path d="M8716 9816 c9 -24 206 -413 231 -456 49 -85 68 -115 74 -120 3 -3 14 -20 23 -38 9 -18 23 -41 31 -50 8 -9 35 -46 61 -82 26 -36 64 -87 84 -115 63 -85 178 -237 236 -310 30 -38 76 -98 102 -132 25 -35 49 -63 53 -63 9 0 -121 261 -141 285 -7 8 -9 15 -6 15 4 0 -1 12 -11 28 -29 43 -39 62 -78 139 -20 40 -47 88 -60 108 -14 19 -21 35 -17 35 4 0 2 4 -4 8 -6 4 -21 27 -34 51 -20 41 -28 52 -56 84 -5 7 -34 48 -64 92 -29 44 -58 85 -65 90 -6 6 -24 28 -40 50 -45 60 -178 229 -191 240 -6 6 -31 37 -56 70 -52 69 -83 99 -72 71z"/>
 <path d="M796 8819 c-4 -19 -10 -360 -13 -759 -5 -718 4 -1121 27 -1144 7 -7 10 -1 10 20 0 16 5 45 10 64 5 20 11 83 13 140 2 58 10 237 16 399 10 232 10 361 0 610 -6 174 -13 361 -15 416 -3 104 -21 250 -34 274 -5 9 -10 3 -14 -20z"/>
 <path d="M9200 7806 c-76 -42 -160 -106 -288 -221 -52 -46 -236 -253 -272 -305 -13 -19 -27 -37 -31 -40 -17 -13 -59 -104 -62 -133 -2 -30 0 -32 28 -31 33 2 132 58 180 102 16 16 53 46 80 68 69 54 207 196 287 296 92 113 138 176 138 188 0 6 7 22 16 35 9 14 14 32 10 40 -7 19 -52 19 -86 1z"/>
 <path d="M8087 6849 c-18 -184 -28 -1000 -17 -1436 16 -690 27 -735 60 -264 28 383 28 1062 1 1446 -21 293 -33 364 -44 254z"/>
 <path d="M8436 6448 c-38 -194 -38 -962 0 -1155 18 -90 51 98 64 363 13 248 -1 612 -28 737 -16 78 -28 95 -36 55z"/>
 <path d="M8561 4762 c-19 -35 -31 -226 -21 -315 17 -137 44 -252 76 -324 8 -17 14 -36 14 -41 0 -21 86 -175 123 -220 52 -63 71 -62 75 3 3 46 -9 123 -43 265 -7 30 -18 82 -25 115 -7 33 -18 80 -25 105 -7 25 -23 86 -35 135 -37 156 -88 283 -117 292 -6 2 -16 -4 -22 -15z"/>
 <path d="M2540 3003 c1 -10 7 -34 14 -53 7 -19 23 -64 36 -100 12 -36 26 -69 31 -75 5 -5 9 -16 9 -25 0 -17 145 -310 158 -320 8 -6 21 -26 65 -105 18 -33 47 -82 64 -110 17 -27 54 -90 83 -140 29 -49 56 -92 59 -95 4 -3 30 -41 58 -85 71 -108 187 -234 203 -219 9 9 9 22 0 55 -15 57 -77 201 -110 259 -14 25 -36 65 -48 90 -52 105 -148 282 -201 370 -70 118 -71 120 -100 172 -13 24 -38 66 -56 93 -18 28 -39 62 -46 78 -7 15 -15 27 -19 27 -4 0 -12 11 -18 24 -19 43 -142 176 -163 176 -12 0 -19 -7 -19 -17z"/>
 <path d="M8345 2096 c-5 -2 -50 -10 -98 -17 -48 -7 -90 -16 -93 -20 -8 -13 67 -46 131 -58 82 -15 433 -13 523 3 73 13 116 37 97 55 -23 20 -145 34 -340 37 -115 2 -214 2 -220 0z"/>
 <path d="M8000 1768 c-140 -9 -319 -36 -337 -51 -28 -21 -15 -29 77 -53 95 -25 231 -51 330 -64 52 -6 142 -18 200 -26 153 -21 559 -20 660 2 92 20 124 36 128 64 16 101 -518 165 -1058 128z"/>
 </g>
<g id="layer103" fill="#2c82c9" stroke="none">
 <path d="M3785 15081 c-145 -30 -205 -48 -292 -92 -164 -81 -215 -180 -263 -514 -7 -44 -14 -224 -15 -400 -4 -361 -12 -429 -76 -635 -22 -69 -39 -131 -39 -138 0 -16 -21 -63 -106 -234 -76 -155 -218 -377 -294 -462 -25 -28 -76 -87 -112 -131 -87 -106 -340 -341 -463 -430 -22 -16 -44 -34 -50 -40 -13 -14 -161 -125 -200 -149 -16 -11 -34 -23 -40 -28 -11 -9 -105 -77 -200 -143 -31 -22 -93 -66 -136 -97 l-79 -58 0 -1072 c0 -1009 5 -1373 31 -2173 6 -181 13 -598 15 -925 4 -606 9 -695 50 -945 40 -240 103 -476 184 -685 12 -30 27 -71 35 -91 21 -57 53 -126 119 -259 102 -204 145 -279 200 -349 28 -36 54 -70 59 -76 101 -131 172 -265 190 -360 9 -52 96 -222 207 -405 5 -8 23 -42 41 -75 44 -83 86 -159 120 -217 16 -27 29 -51 29 -53 0 -2 24 -46 53 -97 29 -52 56 -101 60 -109 4 -8 25 -45 47 -84 23 -38 48 -83 56 -100 8 -16 32 -61 52 -100 39 -71 165 -315 333 -640 90 -176 434 -863 500 -998 20 -44 41 -72 55 -77 25 -10 277 4 376 20 35 5 83 10 108 10 25 0 95 7 155 15 110 16 223 31 455 60 69 9 172 22 230 30 58 8 150 19 205 25 55 7 141 18 191 26 50 8 104 14 119 14 49 0 155 22 150 31 -3 4 2 12 12 17 21 11 211 29 373 37 63 2 153 11 200 19 85 14 255 36 445 56 55 6 150 17 210 25 144 18 615 64 870 86 72 6 335 17 585 25 527 16 566 20 612 71 15 16 16 25 7 59 -6 21 -17 46 -25 55 -8 8 -14 19 -14 22 0 4 -33 50 -72 103 -139 185 -158 209 -198 266 -22 31 -44 59 -49 63 -6 3 -29 40 -53 81 -48 85 -53 92 -91 151 -15 24 -27 47 -27 53 0 5 -4 10 -8 10 -9 0 -33 47 -127 245 -36 77 -72 151 -79 165 -8 14 -21 45 -29 70 -9 25 -32 90 -52 145 -20 55 -41 116 -47 135 -6 19 -13 40 -17 45 -7 9 -19 52 -56 193 -51 196 -81 337 -110 517 -9 55 -23 136 -30 180 -8 44 -21 159 -30 255 -9 96 -21 229 -28 295 -8 81 -12 332 -12 780 0 673 9 914 41 1055 8 36 14 73 14 82 0 10 7 39 16 65 15 45 25 69 60 151 36 83 152 217 269 309 39 31 75 61 80 67 6 7 39 34 75 61 36 27 67 52 70 55 3 4 31 26 64 51 32 24 85 64 117 89 32 25 110 85 173 133 89 69 113 92 108 105 -4 9 -38 64 -76 122 -81 125 -155 239 -242 375 -35 55 -67 105 -72 110 -4 6 -17 26 -28 45 -10 19 -22 37 -25 40 -4 4 -159 275 -237 415 -44 80 -221 442 -247 505 -37 93 -39 96 -81 190 -21 47 -48 102 -61 122 -13 21 -23 42 -23 48 0 5 -3 10 -8 10 -4 0 -15 15 -25 33 -24 44 -119 142 -170 174 -23 15 -78 63 -122 108 -77 77 -130 146 -345 446 -47 67 -251 370 -335 499 -38 58 -94 143 -125 190 -31 47 -59 92 -63 100 -4 8 -29 49 -57 90 -27 41 -54 84 -59 95 -6 11 -46 79 -90 150 -45 72 -91 147 -103 169 -13 21 -28 46 -33 55 -6 9 -23 39 -40 66 -16 28 -32 52 -35 55 -3 3 -14 21 -24 40 -11 19 -33 58 -51 85 -17 28 -53 86 -80 130 -26 44 -58 96 -70 115 -42 67 -103 166 -172 280 -39 63 -99 161 -134 218 -35 57 -69 111 -74 120 -19 31 -146 226 -176 270 -16 23 -29 45 -29 48 0 3 -13 24 -29 47 -16 23 -56 85 -90 137 -33 52 -65 102 -71 110 -21 30 -182 268 -276 408 -53 78 -100 145 -105 148 -5 3 -27 31 -48 62 -42 62 -155 182 -171 182 -6 0 -27 11 -48 25 -48 32 -210 87 -337 116 -141 31 -486 37 -620 10z"/>
 <path d="M1337 8855 c-17 -53 -28 -950 -18 -1417 11 -452 16 -547 28 -535 15 16 34 267 43 577 14 512 -5 1199 -39 1360 -6 29 -9 31 -14 15z"/>
 <path d="M796 8800 c-18 -178 -12 -1847 7 -1866 4 -4 10 -5 13 -2 3 4 14 111 25 240 27 332 26 1005 -1 1381 -20 274 -33 349 -44 247z"/>
 <path d="M9215 7807 c-47 -17 -242 -167 -325 -249 -41 -40 -111 -116 -155 -168 -44 -52 -83 -97 -86 -100 -14 -13 -80 -120 -94 -154 -21 -51 -15 -64 27 -58 18 3 35 8 38 11 3 4 22 17 43 29 31 18 116 82 197 149 45 37 202 200 245 254 129 162 184 252 172 283 -7 18 -19 19 -62 3z"/>
 <path d="M2550 2999 c0 -18 33 -123 57 -179 3 -8 5 -20 4 -27 -1 -6 3 -14 9 -18 5 -3 10 -14 10 -24 0 -21 145 -309 163 -325 8 -6 40 -56 72 -111 32 -55 67 -116 78 -135 38 -65 140 -201 158 -210 27 -15 29 -13 29 28 0 64 -57 217 -145 392 -59 118 -237 422 -272 465 -5 6 -30 38 -56 72 -66 87 -107 114 -107 72z"/>
 </g>
<g id="layer104" fill="#8c8c8c" stroke="none">
 <path d="M1337 8855 c-17 -53 -28 -950 -18 -1417 11 -452 16 -547 28 -535 15 16 34 267 43 577 14 512 -5 1199 -39 1360 -6 29 -9 31 -14 15z"/>
 <path d="M796 8800 c-18 -178 -12 -1847 7 -1866 4 -4 10 -5 13 -2 3 4 14 111 25 240 27 332 26 1005 -1 1381 -20 274 -33 349 -44 247z"/>
 <path d="M9215 7807 c-47 -17 -242 -167 -325 -249 -41 -40 -111 -116 -155 -168 -44 -52 -83 -97 -86 -100 -14 -13 -80 -120 -94 -154 -21 -51 -15 -64 27 -58 18 3 35 8 38 11 3 4 22 17 43 29 31 18 116 82 197 149 45 37 202 200 245 254 129 162 184 252 172 283 -7 18 -19 19 -62 3z"/>
 <path d="M2550 2999 c0 -18 33 -123 57 -179 3 -8 5 -20 4 -27 -1 -6 3 -14 9 -18 5 -3 10 -14 10 -24 0 -21 145 -309 163 -325 8 -6 40 -56 72 -111 32 -55 67 -116 78 -135 38 -65 140 -201 158 -210 27 -15 29 -13 29 28 0 64 -57 217 -145 392 -59 118 -237 422 -272 465 -5 6 -30 38 -56 72 -66 87 -107 114 -107 72z"/>
 </g>

</svg>