<!DOCTYPE svg PUBLIC "-//W3C//DTD SVG 20010904//EN" "http://www.w3.org/TR/2001/REC-SVG-20010904/DTD/svg10.dtd">
<svg version="1.0" xmlns="http://www.w3.org/2000/svg" width="1600px" height="947px" viewBox="0 0 16000 9470" preserveAspectRatio="xMidYMid meet">
<g id="layer101" fill="#111111" stroke="none">
 <path d="M1933 9460 c-73 -17 -196 -111 -276 -211 -69 -87 -136 -199 -227 -385 -46 -93 -183 -369 -304 -614 -122 -245 -247 -499 -278 -565 -106 -224 -180 -380 -230 -485 -94 -198 -106 -225 -131 -300 -29 -87 -30 -92 -59 -248 -19 -102 -21 -153 -21 -402 0 -309 14 -460 69 -727 14 -70 28 -139 31 -153 3 -14 11 -45 18 -70 7 -25 18 -65 25 -90 44 -154 154 -450 180 -485 4 -5 14 -28 22 -50 9 -22 37 -84 62 -138 25 -53 46 -99 46 -102 0 -2 20 -48 45 -101 25 -53 45 -97 45 -99 0 -2 20 -46 45 -99 25 -53 45 -99 45 -101 0 -3 20 -48 45 -100 25 -53 64 -142 87 -198 23 -56 45 -106 49 -112 12 -17 256 -615 304 -745 7 -19 24 -64 38 -100 35 -89 103 -294 128 -388 34 -127 40 -171 45 -312 7 -208 48 -364 106 -402 18 -12 38 -50 68 -125 119 -299 217 -448 327 -500 35 -17 70 -18 428 -15 438 4 948 -17 1660 -68 143 -11 312 -22 375 -25 63 -3 189 -12 280 -20 91 -7 237 -19 325 -25 360 -25 532 -41 690 -63 61 -9 180 -18 265 -21 156 -6 262 -14 530 -41 80 -8 197 -20 260 -25 63 -6 176 -17 250 -25 74 -8 189 -19 255 -25 66 -6 172 -17 235 -25 63 -8 160 -19 215 -25 55 -6 152 -17 215 -25 63 -8 160 -19 215 -25 55 -6 123 -16 150 -21 28 -5 84 -14 125 -19 41 -6 95 -14 120 -19 145 -27 286 -51 365 -61 50 -7 113 -16 140 -22 195 -37 208 -38 685 -41 1088 -7 1798 15 2720 83 74 6 167 13 205 15 39 3 111 10 160 15 50 5 146 14 215 20 69 6 184 18 255 26 72 8 175 19 230 25 55 6 147 17 205 25 58 8 134 19 170 24 36 5 115 16 175 24 61 8 173 22 250 31 77 8 156 19 175 25 19 5 87 21 150 35 123 28 315 89 337 106 7 6 39 24 70 41 78 40 109 71 135 137 20 51 22 73 22 256 0 130 -6 240 -17 315 -9 63 -21 156 -27 205 -6 50 -18 126 -25 170 -31 173 -57 335 -71 435 -8 58 -21 155 -30 215 -27 197 -35 249 -49 305 -13 52 -50 294 -75 495 -6 50 -18 133 -25 185 -8 52 -19 138 -24 190 -6 52 -18 151 -25 220 -34 293 -53 542 -61 785 -7 238 -22 393 -52 545 -34 173 -49 197 -141 241 -59 27 -211 76 -296 95 -39 8 -91 21 -116 28 -25 8 -81 19 -125 25 -44 7 -114 18 -155 26 -41 7 -111 19 -155 25 -72 11 -221 36 -360 60 -27 5 -149 29 -270 54 -190 39 -278 58 -500 106 -22 5 -67 16 -100 25 -116 31 -651 167 -734 186 -46 11 -87 22 -91 24 -4 2 -45 13 -91 24 -108 25 -239 57 -309 76 -30 8 -113 29 -185 46 -121 28 -258 61 -600 144 -77 19 -198 48 -270 65 -259 61 -341 81 -395 95 -30 8 -129 33 -220 55 -263 65 -341 86 -635 170 -115 33 -228 67 -250 75 -22 7 -94 30 -160 50 -108 34 -277 90 -555 185 -106 36 -348 121 -425 150 -27 10 -131 49 -230 85 -174 64 -271 101 -345 130 -19 7 -109 41 -200 75 -91 34 -181 67 -200 75 -19 7 -109 41 -200 75 -191 71 -213 79 -300 113 -36 14 -108 42 -160 62 -52 20 -124 48 -160 62 -36 14 -93 36 -127 49 -35 14 -93 36 -130 50 -101 39 -120 46 -343 129 -113 43 -232 88 -265 100 -33 13 -105 39 -160 58 -55 20 -131 47 -170 62 -38 14 -95 35 -125 45 -30 10 -161 55 -290 100 -377 130 -617 209 -876 285 -335 100 -471 134 -749 190 -231 46 -423 97 -540 143 -54 21 -84 41 -137 94 -84 84 -138 101 -235 78z"/>
 </g>
<g id="layer102" fill="#2c82c9" stroke="none">
 <path d="M2103 8770 c-80 -17 -175 -71 -243 -140 -55 -54 -174 -217 -216 -295 -6 -11 -47 -83 -91 -160 -113 -198 -145 -262 -206 -415 -30 -74 -78 -184 -107 -245 -85 -179 -200 -426 -200 -430 0 -3 -12 -30 -26 -61 -68 -149 -145 -404 -175 -584 -16 -96 -16 -449 0 -555 87 -566 735 -2307 1017 -2732 99 -149 155 -304 390 -1088 41 -137 96 -321 122 -408 l46 -157 86 0 c47 0 186 -4 310 -10 662 -30 882 -40 1155 -52 257 -11 287 -14 207 -19 -184 -14 -184 -29 2 -54 153 -20 303 -19 456 2 145 21 318 20 575 -2 94 -8 238 -19 320 -25 83 -6 220 -18 306 -26 86 -7 183 -15 215 -15 33 -1 -6 -6 -86 -10 -155 -9 -190 -14 -190 -28 0 -36 547 -51 680 -18 36 8 76 14 90 12 14 -2 86 -9 160 -15 74 -6 198 -17 275 -25 77 -8 199 -19 270 -25 72 -6 184 -17 250 -25 66 -7 167 -19 225 -25 58 -6 161 -17 230 -25 69 -8 172 -19 230 -25 58 -6 159 -17 225 -25 66 -8 172 -19 235 -25 63 -6 171 -17 240 -25 314 -35 593 -62 775 -75 88 -6 228 -18 310 -25 83 -8 240 -19 350 -25 110 -6 268 -15 350 -21 551 -37 1575 -49 2015 -24 523 30 733 68 952 173 186 89 236 104 413 122 428 45 747 135 898 253 40 31 77 92 77 127 0 11 -15 100 -34 198 -32 165 -69 384 -97 579 -10 68 -10 92 2 140 10 40 14 117 14 253 -1 165 -3 200 -18 228 -10 17 -22 32 -26 32 -12 0 -22 -44 -30 -134 l-6 -71 -14 95 c-7 52 -22 154 -33 225 -10 72 -25 182 -34 245 -8 63 -21 167 -30 230 -8 63 -19 149 -24 190 -6 41 -16 125 -24 185 -8 61 -20 153 -26 205 -6 52 -15 122 -20 155 -18 118 -40 328 -35 333 3 3 5 -4 5 -16 0 -11 4 -23 9 -26 14 -9 30 75 41 219 13 153 -2 374 -27 414 -32 49 -38 2 -38 -274 1 -241 0 -253 -11 -170 -6 50 -17 164 -23 255 -14 187 -24 218 -87 263 -57 40 -129 56 -309 67 -164 11 -183 13 -390 49 -249 44 -826 179 -1115 261 -109 31 -745 194 -815 209 -22 5 -170 39 -330 76 -159 36 -310 70 -335 75 -25 5 -110 23 -190 41 -80 17 -163 35 -185 39 -212 40 -622 137 -880 208 -523 144 -1297 386 -1765 552 -14 5 -110 39 -215 75 -271 95 -785 286 -1121 416 -159 61 -316 122 -349 135 -85 32 -174 67 -460 179 -137 54 -277 108 -310 121 -33 12 -82 31 -110 42 -152 60 -420 161 -631 237 -131 48 -304 111 -384 140 -177 64 -450 156 -665 223 -454 141 -887 253 -1275 328 -146 28 -435 42 -517 24z"/>
 <path d="M14986 5205 c-22 -59 -13 -612 11 -636 29 -29 60 297 44 466 -6 61 -11 117 -11 126 0 9 -8 27 -18 39 -17 21 -19 22 -26 5z"/>
 <path d="M15224 3048 c-14 -22 -17 -316 -5 -458 16 -186 28 -280 58 -455 26 -156 81 -388 105 -440 12 -28 13 -23 16 70 5 145 -36 615 -79 915 -11 74 -22 155 -25 180 -7 52 -43 181 -54 193 -4 5 -11 3 -16 -5z"/>
 <path d="M1761 2358 c-29 -89 -31 -369 -3 -504 23 -108 77 -196 109 -176 25 17 33 56 33 174 0 113 -14 219 -50 393 -12 57 -49 137 -67 143 -6 1 -16 -12 -22 -30z"/>
 <path d="M4396 1019 c-50 -5 -94 -13 -98 -17 -18 -18 131 -43 284 -48 111 -4 180 -2 252 9 109 17 131 28 95 48 -29 17 -397 22 -533 8z"/>
 <path d="M9563 890 c-99 -4 -186 -11 -192 -15 -45 -27 113 -50 349 -50 188 0 280 12 296 36 17 29 -176 41 -453 29z"/>
 <path d="M14940 889 c-284 -46 -635 -147 -616 -178 3 -4 47 -11 98 -14 91 -6 253 9 358 33 221 51 308 74 384 100 160 55 153 70 -32 69 -75 -1 -162 -5 -192 -10z"/>
 <path d="M5973 882 c-61 -7 -83 -16 -70 -29 14 -14 198 -32 327 -33 131 -1 321 12 374 26 30 7 33 19 9 29 -23 10 -559 15 -640 7z"/>
 <path d="M9443 482 c-64 -7 -86 -18 -64 -31 39 -24 449 -43 559 -26 164 26 185 33 145 50 -23 10 -559 15 -640 7z"/>
 </g>
<g id="layer103" fill="#848484" stroke="none">
 <path d="M14586 5205 c-22 -59 -13 -612 11 -636 29 -29 60 297 44 466 -6 61 -11 117 -11 126 0 9 -8 27 -18 39 -17 21 -19 22 -26 5z"/>
 <path d="M14986 5205 c-22 -59 -13 -612 11 -636 29 -29 60 297 44 466 -6 61 -11 117 -11 126 0 9 -8 27 -18 39 -17 21 -19 22 -26 5z"/>
 <path d="M15224 3048 c-14 -22 -17 -316 -5 -458 16 -186 28 -280 58 -455 26 -156 81 -388 105 -440 12 -28 13 -23 16 70 5 145 -36 615 -79 915 -11 74 -22 155 -25 180 -7 52 -43 181 -54 193 -4 5 -11 3 -16 -5z"/>
 <path d="M14843 2913 c-14 -66 -10 -485 5 -511 17 -30 26 -22 43 35 10 34 14 106 14 248 -1 171 -3 205 -18 233 -23 42 -34 41 -44 -5z"/>
 <path d="M1761 2358 c-29 -89 -31 -369 -3 -504 23 -108 77 -196 109 -176 25 17 33 56 33 174 0 113 -14 219 -50 393 -12 57 -49 137 -67 143 -6 1 -16 -12 -22 -30z"/>
 <path d="M4172 1420 c-184 -16 -184 -30 2 -55 149 -19 298 -19 456 0 189 24 185 38 -15 55 -135 11 -305 11 -443 0z"/>
 <path d="M5860 1284 c-113 -10 -119 -27 -17 -45 98 -18 498 -18 590 0 68 13 81 23 50 36 -19 8 -548 15 -623 9z"/>
 <path d="M4396 1019 c-50 -5 -94 -13 -98 -17 -18 -18 131 -43 284 -48 111 -4 180 -2 252 9 109 17 131 28 95 48 -29 17 -397 22 -533 8z"/>
 <path d="M9563 890 c-99 -4 -186 -11 -192 -15 -45 -27 113 -50 349 -50 188 0 280 12 296 36 17 29 -176 41 -453 29z"/>
 <path d="M14940 889 c-284 -46 -635 -147 -616 -178 3 -4 47 -11 98 -14 91 -6 253 9 358 33 221 51 308 74 384 100 160 55 153 70 -32 69 -75 -1 -162 -5 -192 -10z"/>
 <path d="M5973 882 c-61 -7 -83 -16 -70 -29 14 -14 198 -32 327 -33 131 -1 321 12 374 26 30 7 33 19 9 29 -23 10 -559 15 -640 7z"/>
 <path d="M9443 482 c-64 -7 -86 -18 -64 -31 39 -24 449 -43 559 -26 164 26 185 33 145 50 -23 10 -559 15 -640 7z"/>
 </g>

</svg>