<!DOCTYPE svg PUBLIC "-//W3C//DTD SVG 20010904//EN" "http://www.w3.org/TR/2001/REC-SVG-20010904/DTD/svg10.dtd">
<svg version="1.0" xmlns="http://www.w3.org/2000/svg" width="1600px" height="1582px" viewBox="0 0 16000 15820" preserveAspectRatio="xMidYMid meet">
<g id="layer101" fill="#090909" stroke="none">
 <path d="M12684 15810 c-67 -14 -170 -65 -209 -105 -50 -52 -63 -82 -76 -172 -24 -168 -142 -300 -323 -363 -146 -52 -239 -113 -343 -224 -66 -70 -109 -131 -137 -191 -52 -115 -89 -184 -116 -215 -119 -138 -244 -244 -375 -317 -65 -36 -413 -184 -550 -233 -184 -67 -363 -98 -695 -121 -236 -16 -342 -47 -428 -123 -37 -34 -112 -144 -132 -196 -7 -19 -17 -40 -22 -46 -14 -18 -71 -190 -113 -339 -14 -49 -32 -112 -40 -140 -9 -27 -33 -111 -55 -185 -140 -481 -263 -663 -395 -581 -42 26 -83 69 -116 121 -55 89 -142 138 -312 177 -102 23 -128 24 -292 21 -168 -4 -184 -6 -235 -30 -73 -34 -107 -72 -136 -153 -21 -57 -26 -96 -35 -268 -19 -371 -69 -613 -194 -942 -15 -38 -36 -92 -46 -120 -31 -82 -164 -339 -215 -417 -27 -40 -77 -101 -111 -135 -58 -57 -84 -72 -155 -87 -29 -7 -89 -60 -132 -118 -25 -33 -136 -216 -136 -223 0 -6 -102 -223 -141 -300 -126 -249 -301 -434 -412 -435 -16 0 -38 -5 -49 -11 -14 -8 -23 -8 -31 0 -39 39 -145 -39 -392 -289 -267 -270 -387 -355 -470 -334 -17 4 -25 13 -25 29 0 12 -9 30 -20 40 -19 17 -23 17 -107 -10 -49 -15 -93 -32 -98 -36 -6 -4 -33 -16 -60 -27 -49 -20 -108 -46 -255 -115 -41 -19 -111 -52 -155 -72 -44 -20 -109 -51 -145 -67 -228 -106 -660 -239 -990 -304 -175 -34 -313 -52 -470 -59 -295 -13 -623 -80 -865 -175 -27 -11 -70 -22 -95 -24 -47 -3 -101 -27 -226 -101 -42 -25 -77 -45 -79 -45 -4 0 -141 -95 -249 -172 -33 -24 -81 -64 -108 -91 -50 -50 -128 -172 -128 -199 0 -9 -4 -19 -9 -22 -13 -8 -39 -129 -56 -261 -17 -133 -34 -690 -35 -1125 0 -531 -55 -1051 -129 -1224 -10 -23 -45 -69 -78 -101 -106 -108 -143 -247 -143 -543 0 -370 74 -730 227 -1102 59 -145 118 -253 268 -499 6 -9 36 -59 68 -111 32 -52 62 -102 67 -110 6 -8 14 -24 20 -35 5 -11 28 -51 50 -90 52 -89 187 -359 224 -449 60 -141 183 -211 486 -275 253 -53 694 -105 1195 -141 83 -6 233 -17 335 -25 102 -8 266 -19 365 -25 99 -7 214 -18 255 -25 41 -8 125 -19 185 -25 61 -6 146 -15 190 -21 44 -5 141 -11 215 -15 126 -5 408 -31 420 -39 3 -2 44 -9 90 -15 115 -15 402 -73 525 -105 202 -53 319 -98 550 -210 279 -135 347 -164 512 -218 l102 -33 -77 -14 -77 -15 65 -6 c36 -4 157 -12 270 -19 113 -7 208 -14 212 -16 11 -7 287 16 373 31 218 38 277 66 403 192 54 54 123 118 152 143 65 54 204 209 275 305 58 79 155 230 205 320 36 65 220 433 220 440 0 2 11 28 24 57 50 112 50 112 176 518 51 163 66 212 90 300 7 25 18 65 25 90 22 75 63 239 89 350 14 58 37 157 51 220 15 63 40 170 57 237 44 187 60 413 83 1203 10 336 60 806 116 1085 44 221 124 439 195 532 13 17 24 35 24 39 0 9 132 171 207 255 118 131 289 296 398 384 75 61 247 181 285 198 8 4 38 21 65 37 223 133 588 259 870 300 219 32 332 68 420 136 18 13 35 24 39 24 17 0 290 203 437 326 86 72 87 72 76 38 -6 -19 -7 -37 -4 -40 17 -18 182 137 353 331 43 50 82 92 86 95 3 3 27 32 53 65 25 33 123 139 218 235 239 243 347 363 482 534 90 114 176 261 189 322 18 82 -84 223 -284 394 -141 120 -324 312 -372 390 -77 124 -93 177 -93 305 0 138 28 228 119 390 67 119 264 387 358 487 7 7 38 42 68 78 30 36 61 72 70 81 8 9 24 27 34 40 22 28 128 152 136 159 3 3 37 43 75 90 39 47 77 94 87 105 23 28 75 93 129 162 26 32 79 108 120 168 236 354 286 585 276 1265 -6 374 -14 466 -58 603 -57 178 -179 303 -499 511 -428 279 -601 403 -820 591 -40 34 -98 93 -185 186 -67 72 -136 111 -229 128 -68 12 -201 13 -262 1z"/>
 </g>
<g id="layer102" fill="#666666" stroke="none">
 <path d="M12769 15319 c-26 -26 -56 -94 -98 -221 -38 -113 -87 -194 -160 -261 -62 -58 -123 -87 -207 -97 -91 -11 -149 -43 -229 -125 -52 -53 -81 -94 -114 -161 -24 -49 -62 -116 -85 -149 -79 -117 -272 -301 -466 -444 -47 -34 -98 -72 -113 -84 -16 -12 -97 -66 -180 -119 -254 -163 -534 -297 -698 -332 -41 -9 -144 -22 -229 -30 -235 -21 -350 -68 -480 -196 -78 -77 -141 -178 -197 -315 -48 -117 -66 -176 -128 -420 -116 -459 -230 -668 -394 -723 -19 -7 -63 -12 -98 -12 -100 0 -197 39 -378 150 -90 56 -292 153 -375 180 -36 12 -88 24 -115 27 -45 5 -55 2 -83 -22 -26 -22 -32 -34 -30 -59 3 -26 8 -31 33 -34 17 -2 36 -11 42 -20 19 -24 15 -127 -8 -217 -12 -44 -25 -96 -30 -116 -13 -54 -113 -321 -154 -414 -13 -27 -34 -77 -48 -110 -14 -33 -48 -106 -76 -163 -28 -56 -51 -104 -51 -106 0 -10 -165 -295 -207 -359 -53 -80 -156 -219 -324 -437 -112 -146 -337 -447 -478 -638 -158 -216 -314 -404 -432 -524 l-122 -123 -17 60 c-22 75 -42 114 -97 187 -81 106 -123 242 -91 294 86 141 91 156 51 162 -37 5 -166 -91 -273 -205 -249 -264 -350 -385 -350 -419 0 -22 76 -17 197 13 144 36 307 39 368 7 52 -27 85 -76 85 -126 0 -84 -61 -145 -226 -227 -67 -33 -124 -66 -127 -73 -13 -35 -578 -299 -787 -368 -30 -10 -107 -37 -170 -60 -163 -58 -207 -73 -360 -119 -311 -92 -450 -120 -476 -94 -8 8 -14 19 -14 24 0 18 -51 8 -93 -18 -23 -14 -70 -51 -103 -82 -76 -69 -193 -130 -296 -155 -22 -5 -26 -3 -22 9 4 10 -3 18 -22 26 -42 16 -428 23 -639 10 -178 -10 -225 -17 -225 -31 0 -34 268 -63 535 -59 180 4 193 3 135 -8 -36 -7 -202 -17 -370 -23 -310 -10 -425 -20 -560 -47 -269 -53 -434 -173 -527 -381 -87 -196 -120 -417 -133 -917 -21 -755 -31 -1033 -40 -1125 -25 -240 -33 -302 -52 -405 -33 -182 -50 -220 -129 -298 -111 -109 -146 -210 -136 -397 11 -199 80 -417 224 -698 44 -88 55 -116 36 -93 -127 157 -203 226 -218 201 -17 -27 68 -215 204 -455 181 -317 507 -765 578 -794 34 -13 180 -50 248 -61 28 -5 88 -16 135 -24 130 -22 452 -67 615 -86 55 -6 147 -18 205 -25 58 -8 157 -19 220 -25 63 -6 174 -17 245 -25 72 -8 186 -19 255 -25 142 -13 239 -24 390 -44 203 -27 297 -37 500 -51 244 -17 614 -19 760 -4 116 12 120 11 286 -49 126 -47 175 -69 399 -183 346 -176 601 -260 843 -278 346 -27 609 68 849 306 67 67 79 75 55 41 -111 -161 -321 -299 -513 -338 -52 -10 -161 -23 -244 -29 -344 -26 -436 -34 -440 -41 -7 -11 10 -16 101 -31 43 -7 71 -15 62 -17 -29 -6 -21 -19 15 -25 17 -3 106 -11 198 -18 148 -11 176 -11 270 5 265 45 398 108 570 270 41 39 105 97 141 128 113 98 198 227 198 299 0 21 19 67 54 128 48 86 167 325 186 376 4 11 17 43 28 70 27 68 33 98 23 114 -7 11 -13 10 -35 -4 -28 -19 -125 -133 -171 -204 -16 -23 -30 -40 -32 -38 -2 2 21 53 51 113 121 241 195 497 241 839 17 123 53 450 65 590 6 72 17 200 25 285 8 85 19 223 25 305 6 83 17 222 25 310 8 88 19 223 25 300 12 150 37 402 50 500 12 93 12 -220 0 -450 -6 -104 -14 -282 -20 -395 -13 -261 -27 -489 -40 -610 -5 -52 -14 -153 -20 -225 -21 -251 -43 -412 -75 -535 -38 -149 -67 -272 -63 -275 2 -2 33 60 68 138 35 78 76 169 91 202 36 79 55 139 74 227 66 304 98 828 99 1598 0 450 -11 657 -40 737 -15 40 -14 49 16 180 95 421 211 651 524 1043 201 252 308 367 486 522 354 308 816 535 1330 653 269 62 443 131 630 250 379 240 554 385 898 745 308 322 396 444 422 581 19 98 -13 194 -164 496 -90 181 -136 278 -168 358 -93 228 -113 425 -62 599 33 115 117 273 208 391 132 170 230 281 531 600 355 375 500 547 607 720 116 188 158 302 189 516 18 124 20 174 16 359 -10 408 -73 624 -187 646 -19 4 -48 14 -65 23 -41 21 -263 160 -283 176 -10 8 -75 57 -145 110 -107 80 -278 215 -297 235 -7 7 -193 166 -270 231 -87 73 -192 147 -235 165 -50 21 -101 18 -126 -7z m-3912 -9901 c-2 -13 -4 -3 -4 22 0 25 2 35 4 23 2 -13 2 -33 0 -45z m-6194 -3455 c-13 -2 -33 -2 -45 0 -13 2 -3 4 22 4 25 0 35 -2 23 -4z m125 -10 c-10 -2 -26 -2 -35 0 -10 3 -2 5 17 5 19 0 27 -2 18 -5z m287 -18 c84 -8 109 -13 70 -13 -33 0 -112 6 -175 13 -63 6 -95 12 -70 13 25 0 104 -5 175 -13z m365 -25 c280 -20 544 -42 605 -50 l60 -7 -48 -2 c-27 0 -128 6 -225 14 -208 18 -390 32 -519 41 -53 4 -90 11 -87 16 3 5 18 7 32 4 15 -3 97 -10 182 -16z m763 -67 c-13 -2 -35 -2 -50 0 -16 2 -5 4 22 4 28 0 40 -2 28 -4z"/>
 <path d="M13260 8970 c-121 -64 -297 -273 -470 -555 -127 -208 -182 -325 -151 -325 25 0 192 160 320 305 43 50 90 101 103 115 36 37 167 214 221 300 95 149 85 218 -23 160z"/>
 <path d="M4910 8774 c-41 -14 -98 -36 -127 -50 -28 -13 -54 -24 -57 -24 -4 0 -70 -30 -236 -108 -47 -21 -107 -50 -135 -62 -254 -115 -745 -390 -745 -417 0 -16 120 10 255 55 426 142 1125 468 1165 542 15 28 12 55 -8 73 -23 21 -22 21 -112 -9z"/>
 <path d="M2470 8029 c-196 -9 -264 -18 -261 -34 9 -59 815 -77 1003 -23 36 11 56 32 39 43 -40 24 -394 31 -781 14z"/>
 <path d="M1695 7871 c-33 -15 -95 -49 -138 -75 -43 -25 -80 -46 -82 -46 -4 0 -141 -95 -249 -172 -269 -193 -324 -437 -297 -1322 6 -221 16 -576 22 -791 6 -214 13 -437 17 -495 7 -97 8 -82 20 190 39 887 55 1181 78 1395 38 354 69 499 153 700 44 107 146 225 330 380 136 114 239 225 241 258 0 15 -36 6 -95 -22z"/>
 <path d="M10465 7356 c-75 -34 -308 -268 -496 -501 -387 -478 -524 -732 -567 -1055 -38 -283 -39 -407 -5 -1780 l7 -275 12 120 c6 66 17 190 23 275 7 85 18 225 26 310 8 85 19 218 25 295 71 905 136 1275 276 1570 74 156 149 255 416 547 210 229 273 306 317 392 34 64 39 101 15 110 -9 3 -16 6 -17 6 -1 -1 -15 -7 -32 -14z"/>
 <path d="M1341 6360 c-18 -82 -29 -727 -20 -1155 4 -203 10 -377 12 -385 3 -8 8 -28 12 -45 19 -85 40 72 56 420 19 395 -4 1110 -38 1195 -10 23 -11 21 -22 -30z"/>
 <path d="M9043 2768 c-31 -39 -70 -162 -153 -483 -27 -104 -63 -244 -80 -310 -122 -472 -133 -525 -107 -525 32 0 182 277 264 490 142 365 193 732 115 823 -18 20 -26 21 -39 5z"/>
 <path d="M2650 1380 c-201 -7 -265 -14 -275 -31 -17 -27 245 -58 490 -59 244 0 416 16 505 46 13 5 13 6 -1 14 -50 28 -387 43 -719 30z"/>
 <path d="M4535 1233 c-142 -3 -473 -30 -548 -45 -63 -12 -81 -25 -45 -32 104 -23 251 -47 343 -56 61 -6 145 -15 187 -20 279 -34 1038 -37 1214 -6 72 12 124 32 124 46 -2 59 -235 95 -715 110 -159 5 -326 9 -370 8 -44 -1 -129 -3 -190 -5z"/>
 <path d="M8154 869 c-27 -18 -75 -56 -107 -85 -105 -97 -188 -136 -382 -179 -66 -14 -158 -35 -205 -45 -73 -17 -421 -86 -655 -131 l-70 -14 65 -7 c36 -3 157 -11 270 -18 113 -7 208 -14 212 -16 4 -2 71 0 150 6 220 17 370 46 474 94 113 52 334 318 334 402 0 33 -25 31 -86 -7z"/>
 </g>
<g id="layer103" fill="#2c82c9" stroke="none">
 <path d="M12769 15319 c-26 -26 -56 -94 -98 -221 -38 -113 -87 -194 -160 -261 -62 -58 -123 -87 -207 -97 -91 -11 -149 -43 -229 -125 -52 -53 -81 -94 -114 -161 -24 -49 -62 -116 -85 -149 -79 -117 -272 -301 -466 -444 -47 -34 -98 -72 -113 -84 -16 -12 -97 -66 -180 -119 -254 -163 -534 -297 -698 -332 -41 -9 -144 -22 -229 -30 -235 -21 -350 -68 -480 -196 -78 -77 -141 -178 -197 -315 -48 -117 -66 -176 -128 -420 -116 -459 -230 -668 -394 -723 -19 -7 -63 -12 -98 -12 -100 0 -197 39 -378 150 -90 56 -292 153 -375 180 -36 12 -88 24 -115 27 -45 5 -55 2 -83 -22 -26 -22 -32 -34 -30 -59 3 -26 8 -31 33 -34 17 -2 36 -11 42 -20 19 -24 15 -127 -8 -217 -12 -44 -25 -96 -30 -116 -13 -54 -113 -321 -154 -414 -13 -27 -34 -77 -48 -110 -14 -33 -48 -106 -76 -163 -28 -56 -51 -104 -51 -106 0 -10 -165 -295 -207 -359 -53 -80 -156 -219 -324 -437 -112 -146 -337 -447 -478 -638 -160 -218 -316 -407 -435 -527 l-124 -124 -4 -63 c-7 -108 -74 -206 -178 -260 -37 -19 -64 -24 -152 -26 -58 -2 -114 1 -125 6 -14 8 -41 -3 -123 -47 -164 -88 -539 -254 -680 -301 -30 -10 -107 -37 -170 -60 -163 -58 -207 -73 -360 -119 -311 -92 -450 -120 -476 -94 -8 8 -14 19 -14 24 0 18 -51 8 -93 -18 -23 -14 -70 -51 -104 -82 -67 -62 -146 -105 -264 -145 -86 -30 -101 -32 -73 -12 58 44 -85 60 -441 52 -302 -8 -398 -15 -416 -33 -33 -33 277 -67 531 -60 102 3 199 9 215 13 17 4 28 4 25 1 -18 -19 -215 -39 -485 -47 -304 -10 -420 -20 -555 -47 -269 -53 -434 -173 -527 -381 -87 -196 -120 -417 -133 -917 -21 -755 -31 -1033 -40 -1125 -25 -240 -33 -302 -52 -405 -33 -182 -50 -220 -129 -298 -111 -109 -146 -210 -136 -397 8 -147 49 -305 127 -493 21 -52 48 -110 58 -128 10 -19 38 -72 62 -119 24 -47 104 -175 177 -285 73 -110 141 -213 151 -230 11 -16 37 -59 59 -95 22 -36 89 -144 148 -240 60 -96 113 -180 119 -187 6 -7 55 -14 116 -17 58 -3 159 -10 225 -16 66 -5 192 -14 280 -20 88 -6 248 -17 355 -25 107 -8 290 -21 405 -30 532 -39 650 -49 840 -70 72 -8 229 -24 350 -35 121 -12 225 -23 230 -25 6 -2 -55 -4 -135 -5 -301 -2 -740 -44 -740 -70 0 -14 30 -21 285 -60 84 -13 303 -37 470 -52 176 -15 803 -16 863 -1 46 12 67 7 238 -55 126 -46 174 -69 399 -183 346 -176 601 -260 843 -278 278 -21 472 27 689 172 74 49 192 159 254 237 61 75 342 536 412 675 132 259 204 506 252 860 17 123 53 450 65 590 6 72 17 200 25 285 8 85 19 223 25 305 6 83 17 222 25 310 8 88 19 223 25 300 12 158 37 405 51 510 5 39 14 178 20 310 5 132 14 287 18 345 l8 105 2 -95 c2 -52 6 -117 9 -145 l7 -50 23 105 c103 468 258 748 703 1265 411 478 972 807 1639 960 269 62 443 131 630 250 379 240 554 385 898 745 308 322 396 444 422 581 19 98 -13 194 -164 496 -90 181 -136 278 -168 358 -93 228 -113 425 -62 599 33 115 117 273 208 391 132 170 230 281 531 600 355 375 500 547 607 720 116 188 158 302 189 516 18 124 20 174 16 359 -10 408 -73 624 -187 646 -19 4 -48 14 -65 23 -41 21 -263 160 -283 176 -10 8 -75 57 -145 110 -107 80 -278 215 -297 235 -7 7 -193 166 -270 231 -87 73 -192 147 -235 165 -50 21 -101 18 -126 -7z"/>
 <path d="M13261 8967 c-153 -77 -392 -390 -605 -792 -26 -48 -33 -85 -17 -85 25 0 192 160 320 305 43 50 90 101 103 115 14 14 48 57 76 95 29 39 56 75 61 80 4 6 31 46 59 88 79 120 101 177 75 202 -19 19 -20 19 -72 -8z"/>
 <path d="M4910 8774 c-41 -14 -98 -36 -127 -50 -28 -13 -54 -24 -57 -24 -4 0 -55 -23 -236 -108 -36 -16 -99 -46 -140 -65 -155 -71 -175 -81 -180 -87 -3 -3 -39 -23 -80 -44 -127 -66 -223 -118 -262 -143 -21 -12 -40 -23 -43 -23 -9 0 -175 -110 -175 -117 0 -11 94 7 190 36 209 63 575 213 895 366 301 144 386 214 327 268 -23 21 -22 21 -112 -9z"/>
 <path d="M2650 8030 c-207 -8 -280 -16 -280 -31 0 -44 525 -76 733 -45 109 16 147 28 147 47 0 5 -12 14 -26 19 -36 14 -333 19 -574 10z"/>
 <path d="M10434 7330 c-142 -97 -403 -384 -649 -715 -33 -44 -63 -82 -66 -85 -3 -3 -26 -36 -50 -75 -24 -38 -54 -86 -67 -105 -66 -97 -153 -313 -181 -445 -50 -246 -55 -571 -25 -1835 8 -337 10 -338 33 -30 7 85 18 225 26 310 7 85 19 218 25 295 79 993 144 1371 286 1670 80 169 190 312 450 585 200 210 334 406 307 448 -16 26 -28 24 -89 -18z"/>
 <path d="M8891 5706 c-31 -124 -39 -1176 -11 -1410 22 -186 45 -92 65 272 19 336 19 564 0 862 -13 211 -24 303 -38 316 -2 3 -10 -16 -16 -40z"/>
 <path d="M2488 1906 c-53 -6 -100 -14 -103 -18 -47 -47 557 -78 838 -43 108 13 166 29 154 42 -3 2 -56 11 -119 19 -137 17 -626 17 -770 0z"/>
 <path d="M8184 1700 c-52 -24 -139 -114 -221 -231 -123 -175 -272 -285 -508 -376 -131 -51 -153 -56 -474 -107 -134 -22 -137 -30 -15 -47 43 -6 147 -12 229 -12 125 -1 162 2 220 19 83 25 212 78 275 112 25 14 61 34 80 45 148 81 338 239 427 354 89 115 107 219 45 252 -13 7 -30 4 -58 -9z"/>
 <path d="M2660 1380 c-200 -7 -276 -15 -285 -30 -16 -26 258 -60 480 -60 230 0 386 22 399 57 7 19 -1 21 -113 32 -109 12 -171 12 -481 1z"/>
 <path d="M4180 1189 c-47 -5 -91 -11 -98 -14 -46 -17 55 -38 278 -56 240 -19 773 -1 890 31 61 16 39 26 -94 39 -128 13 -850 13 -976 0z"/>
 <path d="M7895 661 c-209 -57 -863 -198 -1008 -217 -23 -3 -67 -12 -97 -18 l-55 -13 90 -6 c50 -4 137 -10 195 -13 58 -3 150 -9 205 -13 157 -13 404 10 570 53 33 9 89 31 125 48 62 31 67 37 102 108 39 78 47 110 26 109 -7 0 -76 -17 -153 -38z"/>
 </g>
<g id="layer104" fill="#8f8f8f" stroke="none">
 <path d="M13261 8967 c-153 -77 -392 -390 -605 -792 -26 -48 -33 -85 -17 -85 25 0 192 160 320 305 43 50 90 101 103 115 14 14 48 57 76 95 29 39 56 75 61 80 4 6 31 46 59 88 79 120 101 177 75 202 -19 19 -20 19 -72 -8z"/>
 <path d="M4910 8774 c-41 -14 -98 -36 -127 -50 -28 -13 -54 -24 -57 -24 -4 0 -55 -23 -236 -108 -36 -16 -99 -46 -140 -65 -155 -71 -175 -81 -180 -87 -3 -3 -39 -23 -80 -44 -127 -66 -223 -118 -262 -143 -21 -12 -40 -23 -43 -23 -9 0 -175 -110 -175 -117 0 -11 94 7 190 36 209 63 575 213 895 366 301 144 386 214 327 268 -23 21 -22 21 -112 -9z"/>
 <path d="M2650 8030 c-207 -8 -280 -16 -280 -31 0 -44 525 -76 733 -45 109 16 147 28 147 47 0 5 -12 14 -26 19 -36 14 -333 19 -574 10z"/>
 <path d="M2645 7494 c-16 -2 -78 -6 -137 -9 -62 -4 -114 -12 -125 -20 -16 -12 -13 -14 24 -24 139 -38 517 -52 703 -27 134 18 177 46 104 69 -28 9 -507 19 -569 11z"/>
 <path d="M10434 7330 c-142 -97 -403 -384 -649 -715 -33 -44 -63 -82 -66 -85 -3 -3 -26 -36 -50 -75 -24 -38 -54 -86 -67 -105 -66 -97 -153 -313 -181 -445 -50 -246 -55 -571 -25 -1835 8 -337 10 -338 33 -30 7 85 18 225 26 310 7 85 19 218 25 295 79 993 144 1371 286 1670 80 169 190 312 450 585 200 210 334 406 307 448 -16 26 -28 24 -89 -18z"/>
 <path d="M8891 5706 c-31 -124 -39 -1176 -11 -1410 22 -186 45 -92 65 272 19 336 19 564 0 862 -13 211 -24 303 -38 316 -2 3 -10 -16 -16 -40z"/>
 <path d="M2488 1906 c-53 -6 -100 -14 -103 -18 -47 -47 557 -78 838 -43 108 13 166 29 154 42 -3 2 -56 11 -119 19 -137 17 -626 17 -770 0z"/>
 <path d="M4370 1770 c-361 -26 -499 -49 -436 -73 13 -5 114 -23 271 -47 84 -13 304 -37 470 -51 77 -7 291 -13 475 -13 343 -1 424 6 478 41 23 14 23 15 6 34 -21 23 -101 54 -180 68 -216 41 -783 62 -1084 41z"/>
 <path d="M8184 1700 c-52 -24 -139 -114 -221 -231 -123 -175 -272 -285 -508 -376 -131 -51 -153 -56 -474 -107 -134 -22 -137 -30 -15 -47 43 -6 147 -12 229 -12 125 -1 162 2 220 19 83 25 212 78 275 112 25 14 61 34 80 45 148 81 338 239 427 354 89 115 107 219 45 252 -13 7 -30 4 -58 -9z"/>
 <path d="M2660 1380 c-200 -7 -276 -15 -285 -30 -16 -26 258 -60 480 -60 230 0 386 22 399 57 7 19 -1 21 -113 32 -109 12 -171 12 -481 1z"/>
 <path d="M4180 1189 c-47 -5 -91 -11 -98 -14 -46 -17 55 -38 278 -56 240 -19 773 -1 890 31 61 16 39 26 -94 39 -128 13 -850 13 -976 0z"/>
 <path d="M7895 661 c-209 -57 -863 -198 -1008 -217 -23 -3 -67 -12 -97 -18 l-55 -13 90 -6 c50 -4 137 -10 195 -13 58 -3 150 -9 205 -13 157 -13 404 10 570 53 33 9 89 31 125 48 62 31 67 37 102 108 39 78 47 110 26 109 -7 0 -76 -17 -153 -38z"/>
 </g>

</svg>