<!DOCTYPE svg PUBLIC "-//W3C//DTD SVG 20010904//EN" "http://www.w3.org/TR/2001/REC-SVG-20010904/DTD/svg10.dtd">
<svg version="1.0" xmlns="http://www.w3.org/2000/svg" width="1600px" height="1452px" viewBox="0 0 16000 14520" preserveAspectRatio="xMidYMid meet">
<g id="layer101" fill="#070707" stroke="none">
 <path d="M10990 14245 c-113 -8 -279 -19 -370 -25 -222 -15 -513 -42 -820 -76 -235 -25 -312 -35 -415 -49 -55 -8 -138 -19 -185 -25 -77 -10 -149 -20 -355 -50 -38 -6 -108 -17 -155 -25 -47 -8 -128 -22 -180 -30 -109 -18 -288 -49 -595 -105 -386 -71 -1022 -218 -1460 -338 -38 -11 -106 -29 -150 -41 -150 -41 -338 -97 -730 -216 -82 -25 -175 -54 -205 -64 -30 -10 -107 -35 -170 -55 -63 -20 -171 -54 -239 -76 -68 -22 -234 -67 -370 -100 -265 -64 -291 -70 -541 -125 -91 -20 -192 -43 -225 -50 -33 -8 -103 -19 -155 -25 -52 -7 -108 -18 -125 -25 -16 -7 -82 -23 -145 -35 -63 -11 -185 -34 -270 -49 -85 -16 -189 -35 -230 -41 -41 -7 -109 -18 -150 -25 -41 -8 -109 -19 -150 -25 -41 -7 -106 -18 -145 -25 -38 -7 -101 -18 -140 -24 -38 -6 -140 -22 -225 -35 -85 -14 -229 -37 -320 -51 -91 -14 -203 -32 -250 -40 -47 -8 -116 -19 -155 -25 -38 -6 -108 -17 -155 -25 -105 -18 -171 -28 -380 -61 -268 -41 -244 -34 -251 -79 -4 -22 -12 -139 -19 -260 -20 -372 -40 -493 -96 -586 -19 -32 -50 -92 -70 -135 -20 -44 -44 -88 -54 -99 -25 -29 -77 -196 -91 -296 -19 -132 3 -698 31 -794 21 -74 48 -120 71 -120 7 0 19 11 26 25 8 15 13 19 13 9 0 -8 34 -83 75 -165 41 -82 75 -154 75 -161 0 -6 55 -94 122 -195 199 -297 309 -541 338 -744 15 -105 -4 -216 -65 -369 -52 -131 -70 -190 -85 -270 -33 -183 -40 -230 -49 -336 -14 -149 -14 -533 0 -624 6 -38 10 -114 10 -167 -1 -156 41 -250 225 -503 44 -60 87 -119 97 -130 110 -132 214 -284 251 -366 55 -126 69 -280 40 -445 -53 -307 -36 -374 121 -473 35 -23 66 -41 69 -41 2 0 47 -20 99 -45 193 -91 423 -169 592 -201 122 -23 301 -53 345 -58 30 -3 132 -15 225 -25 94 -11 244 -24 335 -30 91 -6 235 -16 320 -21 195 -13 588 -27 1114 -40 225 -6 411 -12 414 -14 2 -3 -54 -64 -125 -138 -280 -288 -343 -379 -343 -494 0 -53 3 -60 38 -93 80 -76 264 -82 557 -16 39 8 88 19 110 24 22 5 94 23 160 41 66 17 152 40 190 50 39 9 104 27 145 39 702 201 927 292 1315 531 189 117 393 224 459 241 17 4 49 13 72 20 45 13 92 6 100 -16 7 -18 -20 -75 -57 -116 -87 -98 -108 -119 -249 -238 -160 -136 -197 -177 -243 -266 -79 -150 -48 -434 82 -765 116 -294 324 -654 498 -863 175 -208 328 -266 668 -254 433 16 795 133 863 281 18 40 15 71 -14 127 -34 69 -27 83 35 76 79 -9 146 -53 267 -172 131 -131 167 -159 220 -175 33 -10 46 -9 76 3 79 33 131 156 219 520 12 48 25 87 28 87 4 0 56 -53 116 -117 236 -254 407 -417 475 -453 60 -31 72 -34 155 -34 58 0 108 6 140 17 28 9 70 23 95 32 25 8 97 33 160 56 145 52 208 69 226 62 24 -9 16 -48 -35 -155 -65 -137 -71 -158 -71 -247 1 -120 48 -203 163 -283 191 -134 491 -207 1017 -248 228 -18 413 -48 513 -85 142 -51 195 -106 317 -325 110 -199 179 -281 317 -381 194 -141 518 -256 979 -348 54 -11 142 -29 194 -40 52 -10 133 -26 180 -35 47 -9 144 -27 215 -41 72 -14 157 -30 190 -36 33 -6 79 -15 102 -20 23 -5 44 -9 47 -9 14 0 6 387 -9 458 -38 179 -143 434 -263 639 -17 28 -45 77 -63 109 -52 95 -63 114 -122 217 -32 54 -57 99 -57 102 0 2 -19 36 -43 77 -41 69 -81 143 -185 338 -24 47 -57 108 -72 135 -15 28 -45 84 -67 125 -22 41 -58 109 -80 150 -99 184 -125 234 -198 375 -43 83 -103 200 -135 260 -155 297 -200 387 -200 404 0 51 -140 331 -268 535 -65 104 -497 948 -589 1151 -18 39 -48 106 -68 149 -20 44 -54 125 -76 180 -22 56 -46 115 -54 133 -8 17 -21 66 -30 110 -16 77 -101 267 -165 365 -15 24 -52 81 -82 128 -50 77 -115 204 -211 410 -35 76 -162 388 -190 470 -9 25 -28 77 -42 115 -15 39 -53 151 -86 250 -108 331 -118 359 -167 500 -27 77 -58 163 -70 190 -11 28 -28 72 -38 98 -9 26 -43 91 -76 143 -71 117 -193 364 -283 579 -37 88 -73 174 -80 190 -29 66 -167 421 -199 513 -19 53 -41 115 -49 137 -68 176 -209 623 -264 835 -91 356 -92 703 -2 1015 43 150 103 310 170 452 105 225 199 470 199 520 0 29 51 116 178 306 207 308 388 550 532 712 107 119 157 199 180 283 9 33 8 45 -2 55 -24 23 -71 38 -167 54 -132 22 -851 27 -1141 8z m-1924 -8481 c45 -19 154 -126 184 -181 11 -21 29 -52 39 -69 11 -18 43 -92 71 -165 63 -162 159 -397 171 -419 46 -82 111 -232 116 -266 3 -23 0 -57 -6 -76 -23 -69 -123 -147 -263 -206 -153 -63 -157 -54 -109 256 25 160 26 243 5 371 -30 186 -67 307 -134 440 -49 99 -104 168 -185 233 -36 28 -65 57 -65 64 0 35 109 46 176 18z m250 -1901 c9 -45 -2 -303 -17 -393 -52 -325 -119 -590 -150 -590 -26 0 -23 279 5 460 17 112 61 330 76 380 6 19 15 51 21 70 16 54 41 110 50 110 4 0 11 -17 15 -37z"/>
 </g>
<g id="layer102" fill="#686868" stroke="none">
 <path d="M11066 14230 c-124 -14 -120 -22 23 -45 80 -14 138 -16 260 -12 190 6 272 27 214 53 -26 11 -404 14 -497 4z"/>
 <path d="M9694 14110 c-94 -4 -177 -11 -184 -15 -44 -27 139 -48 363 -42 188 5 227 10 227 32 0 7 -10 15 -22 18 -47 12 -219 15 -384 7z"/>
 <path d="M10980 14000 c-281 -5 -332 -11 -195 -24 196 -18 291 -29 405 -48 69 -11 126 -21 128 -22 1 -2 -71 -6 -160 -10 -409 -18 -676 -44 -1232 -122 -203 -28 -316 -40 -331 -34 -37 14 -293 22 -393 12 -148 -15 -144 -41 9 -65 l81 -12 -88 -13 c-139 -21 -389 -66 -919 -167 -71 -14 -166 -31 -210 -40 -94 -17 -478 -98 -690 -145 -22 -5 -71 -16 -110 -24 -67 -14 -257 -56 -340 -76 -113 -26 -667 -163 -710 -176 -476 -136 -709 -210 -835 -267 -77 -34 -177 -74 -240 -94 -48 -16 -90 -27 -240 -68 -110 -29 -537 -127 -655 -149 -44 -8 -125 -24 -180 -36 -105 -21 -206 -40 -315 -60 -36 -6 -99 -18 -140 -26 -41 -7 -173 -30 -293 -50 -192 -31 -221 -34 -255 -23 -53 19 -448 18 -481 0 -23 -13 -24 -14 -6 -27 10 -7 38 -16 64 -20 112 -16 97 -21 -174 -54 -38 -5 -132 -17 -207 -26 -117 -15 -141 -16 -165 -4 -60 29 -565 22 -595 -8 -10 -10 79 -28 206 -42 39 -4 57 -8 40 -9 -46 -2 -220 -29 -336 -52 -247 -49 -341 -98 -395 -204 -22 -42 -27 -72 -37 -210 -9 -128 -14 -159 -26 -157 -51 11 -104 -51 -181 -213 -112 -236 -159 -436 -159 -681 0 -230 44 -424 141 -616 35 -71 106 -191 131 -223 5 -5 46 -58 92 -116 117 -149 197 -273 260 -403 103 -213 120 -284 132 -559 3 -86 9 -159 13 -161 3 -3 17 75 30 172 29 226 28 224 30 112 2 -193 -44 -387 -174 -735 -104 -277 -125 -361 -132 -540 -9 -230 20 -400 100 -600 80 -200 181 -367 352 -580 117 -147 182 -243 235 -349 75 -153 82 -225 47 -491 -18 -140 -5 -204 53 -253 35 -29 139 -86 200 -108 440 -164 727 -224 931 -195 51 7 117 22 147 32 84 29 221 42 351 34 131 -8 199 -20 396 -69 327 -81 496 -105 790 -112 321 -6 405 -22 496 -95 63 -49 93 -110 92 -185 -1 -68 -16 -107 -80 -200 -67 -99 -32 -139 117 -137 139 1 417 61 627 134 48 17 113 39 143 49 30 10 127 48 215 85 191 80 316 144 600 312 342 201 673 306 860 274 82 -15 118 -31 168 -80 101 -95 125 -289 56 -438 -48 -101 -169 -217 -323 -308 -314 -185 -375 -342 -255 -655 63 -165 279 -519 470 -770 211 -279 313 -326 630 -292 52 6 148 16 215 23 l121 12 6 791 c4 435 10 1070 13 1411 l6 620 -218 110 c-120 61 -244 127 -276 147 -133 86 -185 161 -158 230 26 66 119 144 245 206 118 58 158 66 310 67 127 0 148 -3 225 -28 149 -50 318 -153 407 -250 170 -184 248 -370 268 -637 13 -174 75 -288 188 -346 63 -33 123 -88 150 -138 17 -32 21 -59 21 -126 1 -74 -3 -92 -27 -137 -68 -131 -125 -169 -357 -237 -156 -46 -171 -103 -73 -275 60 -105 76 -165 71 -265 -5 -88 -19 -131 -114 -361 -50 -120 -58 -149 -58 -205 -1 -81 15 -109 87 -150 115 -66 179 -32 259 138 59 126 120 193 194 211 132 33 256 -44 427 -264 102 -132 180 -211 249 -253 49 -30 160 -62 213 -62 99 0 225 49 375 146 159 102 236 136 394 175 105 26 322 36 408 20 69 -14 142 -51 158 -81 20 -37 11 -91 -26 -159 -60 -107 -115 -180 -303 -396 -74 -86 -114 -138 -159 -210 -54 -88 -72 -133 -72 -177 0 -25 7 -32 43 -48 44 -20 227 -56 357 -71 78 -9 415 -37 767 -64 315 -24 466 -51 561 -99 83 -42 111 -85 163 -252 59 -189 90 -244 209 -367 126 -132 287 -223 539 -307 200 -66 605 -153 775 -166 100 -8 105 -3 88 80 -16 80 -39 137 -128 315 -126 253 -179 348 -419 751 -482 810 -546 923 -678 1185 -73 147 -88 183 -121 295 -33 113 -182 384 -420 765 -34 55 -85 143 -113 195 -27 52 -65 122 -83 155 -42 77 -269 532 -316 633 -20 42 -67 147 -106 232 -38 85 -78 174 -89 197 -10 24 -35 82 -55 130 -36 87 -264 594 -289 643 -57 110 -428 866 -445 907 -19 44 -20 57 -11 84 41 118 -44 646 -101 627 -20 -7 -36 -71 -39 -153 l-2 -80 -12 80 c-20 131 -67 295 -147 510 -32 86 -30 81 -114 295 -65 167 -238 582 -284 685 -52 115 -66 145 -110 245 -23 52 -53 120 -67 150 -14 30 -54 120 -90 200 -36 80 -73 164 -84 186 -91 201 -182 474 -227 679 -29 136 -29 134 -13 235 15 93 16 528 1 629 -24 171 -40 101 -48 -219 -7 -285 -17 -277 -30 24 -16 387 35 706 143 891 42 74 305 607 305 620 0 8 305 640 403 835 53 106 62 118 34 48 -22 -54 10 -47 112 24 114 80 134 160 49 204 -103 53 -220 63 -658 54z m-10079 -2818 c-11 -16 -28 -35 -38 -43 -9 -8 -2 5 17 29 38 48 52 57 21 14z m-102 -164 c-32 -105 -48 -216 -56 -378 -5 -118 -9 -144 -14 -110 -16 100 -8 272 19 395 9 41 57 155 66 155 2 0 -4 -28 -15 -62z"/>
 <path d="M3600 12761 c-51 -7 -56 -19 -14 -41 39 -20 543 -22 588 -2 20 9 26 16 19 23 -22 22 -464 37 -593 20z"/>
 <path d="M661 11867 c-20 -25 -50 -107 -94 -262 -34 -123 -54 -173 -83 -215 -20 -30 -57 -98 -81 -150 -25 -52 -53 -104 -63 -115 -55 -62 -92 -326 -91 -649 1 -337 24 -494 80 -549 18 -19 23 -20 35 -7 7 8 18 36 25 62 14 60 14 287 0 420 -24 222 40 581 144 808 58 127 127 329 152 443 20 91 20 213 1 220 -8 3 -19 0 -25 -6z"/>
 <path d="M10876 11581 c-3 -4 -10 -65 -15 -135 -10 -134 1 -362 19 -380 6 -6 16 4 27 30 15 33 18 69 18 224 0 128 -4 196 -13 222 -14 40 -27 54 -36 39z"/>
 <path d="M540 9626 c0 -14 211 -338 237 -365 30 -30 115 -165 157 -248 51 -102 77 -175 106 -293 35 -139 38 -148 39 -124 1 12 6 67 11 122 9 82 8 113 -4 164 -20 86 -66 195 -121 284 -25 41 -45 77 -45 80 0 14 -108 154 -164 213 -72 75 -192 181 -206 181 -6 0 -10 -6 -10 -14z"/>
 <path d="M1009 7593 c-28 -74 -28 -341 1 -468 17 -78 61 -159 87 -163 38 -5 46 35 40 188 -8 180 -45 373 -85 443 -20 34 -30 34 -43 0z"/>
 <path d="M817 6943 c-17 -16 -6 -125 19 -195 28 -76 101 -203 162 -278 85 -105 332 -323 348 -308 4 5 -85 123 -149 198 -102 119 -203 302 -213 385 -14 109 -125 241 -167 198z"/>
 <path d="M12600 6575 c0 -2 16 -35 36 -72 20 -38 57 -106 82 -153 89 -167 103 -194 178 -324 116 -204 151 -230 142 -104 -7 88 -88 252 -203 409 -62 86 -185 228 -205 239 -20 11 -30 13 -30 5z"/>
 <path d="M13580 4536 c0 -61 248 -527 388 -731 110 -160 162 -208 162 -151 0 75 -208 465 -383 717 -99 142 -167 210 -167 165z"/>
 </g>
<g id="layer103" fill="#2c82c9" stroke="none">
 <path d="M11100 13893 c-25 -1 -124 -8 -220 -14 -397 -24 -1233 -131 -1267 -161 -25 -21 -56 -27 -219 -37 -78 -5 -168 -14 -200 -20 -32 -5 -102 -17 -154 -26 -148 -26 -384 -69 -755 -140 -71 -14 -166 -31 -210 -40 -94 -17 -478 -98 -690 -145 -22 -5 -71 -16 -110 -24 -67 -14 -257 -56 -340 -76 -113 -26 -667 -163 -710 -176 -476 -136 -709 -210 -835 -267 -77 -34 -177 -74 -240 -94 -48 -16 -90 -27 -240 -68 -110 -29 -537 -127 -655 -149 -44 -8 -125 -24 -180 -36 -105 -21 -206 -40 -315 -60 -36 -6 -99 -18 -140 -26 -41 -7 -174 -30 -295 -50 -120 -20 -228 -42 -240 -49 -30 -20 -128 -35 -223 -35 -46 0 -130 -6 -186 -14 -55 -8 -144 -19 -196 -25 -291 -34 -352 -43 -415 -61 -22 -6 -107 -15 -190 -20 -289 -18 -606 -79 -725 -140 -109 -55 -147 -123 -160 -283 -6 -62 -10 -154 -10 -205 0 -81 -4 -104 -31 -173 -21 -52 -49 -98 -80 -134 -84 -96 -121 -263 -123 -555 -1 -186 0 -199 27 -290 74 -253 175 -462 306 -635 300 -394 371 -562 371 -875 0 -230 -40 -404 -175 -765 -104 -277 -125 -361 -132 -540 -9 -230 20 -400 100 -600 80 -200 181 -367 352 -580 117 -147 182 -243 235 -349 75 -153 82 -225 47 -491 -18 -140 -5 -204 53 -253 35 -29 139 -86 200 -108 440 -164 727 -224 931 -195 51 7 117 22 147 32 84 29 221 42 351 34 131 -8 199 -20 396 -69 327 -81 496 -105 790 -112 321 -6 405 -22 496 -95 63 -49 93 -110 92 -185 -1 -68 -16 -107 -80 -200 -67 -99 -32 -139 117 -137 139 1 417 61 627 134 48 17 113 39 143 49 30 10 127 48 215 85 191 80 316 144 600 312 342 201 673 306 860 274 82 -15 118 -31 168 -80 101 -95 125 -289 56 -438 -48 -101 -169 -217 -323 -308 -314 -185 -375 -342 -255 -655 63 -165 279 -519 470 -770 211 -279 313 -326 630 -292 52 6 148 16 215 23 l121 12 6 791 c4 435 10 1070 13 1411 l6 620 -218 110 c-120 61 -244 127 -276 147 -133 86 -185 161 -158 230 26 66 119 144 245 206 118 58 158 66 310 67 127 0 148 -3 225 -28 149 -50 318 -153 407 -250 170 -184 248 -370 268 -637 13 -174 75 -288 188 -346 63 -33 123 -88 150 -138 17 -32 21 -59 21 -126 1 -74 -3 -92 -27 -137 -68 -131 -125 -169 -357 -237 -156 -46 -171 -103 -73 -275 60 -105 76 -165 71 -265 -5 -88 -19 -131 -114 -361 -50 -120 -58 -149 -58 -205 -1 -81 15 -109 87 -150 115 -66 179 -32 259 138 59 126 120 193 194 211 132 33 256 -44 427 -264 102 -132 180 -211 249 -253 49 -30 160 -62 213 -62 99 0 225 49 375 146 159 102 236 136 394 175 105 26 322 36 408 20 69 -14 142 -51 158 -81 20 -37 11 -91 -26 -159 -60 -107 -115 -180 -303 -396 -74 -86 -114 -138 -159 -210 -54 -88 -72 -133 -72 -177 0 -25 7 -32 43 -48 44 -20 227 -56 357 -71 78 -9 415 -37 767 -64 315 -24 466 -51 561 -99 83 -42 111 -85 163 -252 59 -189 90 -244 209 -367 126 -132 287 -223 539 -307 200 -66 605 -153 775 -166 100 -8 105 -3 88 80 -16 80 -39 137 -128 315 -126 253 -179 348 -419 751 -482 810 -546 923 -678 1185 -73 147 -88 183 -121 295 -33 113 -182 384 -420 765 -34 55 -85 143 -113 195 -27 52 -65 122 -83 155 -42 77 -269 532 -316 633 -20 42 -67 147 -106 232 -38 85 -78 174 -89 197 -10 24 -35 82 -55 130 -36 86 -264 594 -289 643 -67 130 -421 851 -444 905 -17 39 -30 66 -31 62 0 -4 -9 -3 -20 3 -51 27 -94 174 -105 360 -7 126 -12 165 -32 250 -24 103 -103 344 -168 510 -95 243 -142 361 -225 560 -54 129 -113 267 -130 305 -52 115 -66 145 -110 245 -23 52 -53 120 -67 150 -14 30 -54 120 -90 200 -36 80 -73 164 -84 186 -91 202 -183 478 -225 676 -14 65 -32 130 -39 145 -8 16 -15 56 -15 90 0 34 -7 110 -16 168 -21 142 -31 408 -21 579 12 227 68 455 142 581 42 73 305 606 305 620 0 4 191 404 354 738 58 120 106 225 106 232 0 18 -54 58 -108 78 -41 16 -151 20 -292 10z"/>
 <path d="M3605 12763 c-59 -7 -65 -20 -19 -40 33 -15 69 -18 239 -18 193 1 255 9 255 34 0 5 -10 12 -22 15 -29 8 -399 16 -453 9z"/>
 <path d="M557 11477 c-56 -58 -91 -109 -137 -202 -28 -55 -52 -109 -55 -120 -3 -11 -18 -72 -35 -135 -100 -381 -106 -953 -12 -1079 27 -37 41 -36 56 1 23 56 28 200 15 426 -20 349 14 571 121 797 70 148 109 280 94 319 -8 22 -21 20 -47 -7z"/>
 <path d="M663 10863 c-12 -87 -9 -573 4 -603 l11 -25 12 30 c37 94 39 467 4 633 -8 40 -22 23 -31 -35z"/>
 <path d="M540 9626 c0 -15 215 -343 236 -361 27 -23 128 -183 168 -269 46 -97 70 -165 108 -311 l23 -90 3 141 c2 130 0 148 -24 220 -71 215 -239 455 -443 636 -57 50 -71 57 -71 34z"/>
 <path d="M13580 4536 c0 -55 267 -555 395 -738 64 -92 130 -168 146 -168 17 0 9 47 -21 120 -58 141 -231 449 -324 578 -52 73 -158 207 -170 214 -17 12 -26 9 -26 -6z"/>
 </g>
<g id="layer104" fill="#8a8a8a" stroke="none">
 <path d="M3605 12763 c-59 -7 -65 -20 -19 -40 33 -15 69 -18 239 -18 193 1 255 9 255 34 0 5 -10 12 -22 15 -29 8 -399 16 -453 9z"/>
 <path d="M557 11477 c-56 -58 -91 -109 -137 -202 -28 -55 -52 -109 -55 -120 -3 -11 -18 -72 -35 -135 -100 -381 -106 -953 -12 -1079 27 -37 41 -36 56 1 23 56 28 200 15 426 -20 349 14 571 121 797 70 148 109 280 94 319 -8 22 -21 20 -47 -7z"/>
 <path d="M663 10863 c-12 -87 -9 -573 4 -603 l11 -25 12 30 c37 94 39 467 4 633 -8 40 -22 23 -31 -35z"/>
 <path d="M540 9626 c0 -15 215 -343 236 -361 27 -23 128 -183 168 -269 46 -97 70 -165 108 -311 l23 -90 3 141 c2 130 0 148 -24 220 -71 215 -239 455 -443 636 -57 50 -71 57 -71 34z"/>
 <path d="M13580 4536 c0 -55 267 -555 395 -738 64 -92 130 -168 146 -168 17 0 9 47 -21 120 -58 141 -231 449 -324 578 -52 73 -158 207 -170 214 -17 12 -26 9 -26 -6z"/>
 </g>
<g id="layer105" fill="#dedede" stroke="none">
 <path d="M306 10912 c-14 -22 -24 -401 -16 -562 5 -91 9 -172 10 -179 0 -10 3 -12 10 -5 15 15 40 258 40 396 0 129 -17 321 -30 347 -5 9 -9 10 -14 3z"/>
 <path d="M662 10823 c-10 -25 -9 -499 1 -547 32 -149 75 285 47 464 -13 82 -19 100 -31 100 -5 0 -13 -8 -17 -17z"/>
 </g>

</svg>