<!DOCTYPE svg PUBLIC "-//W3C//DTD SVG 20010904//EN" "http://www.w3.org/TR/2001/REC-SVG-20010904/DTD/svg10.dtd">
<svg version="1.0" xmlns="http://www.w3.org/2000/svg" width="1600px" height="850px" viewBox="0 0 16000 8500" preserveAspectRatio="xMidYMid meet">
<g id="layer101" fill="#030303" stroke="none">
 <path d="M8264 8312 c-11 -9 -28 -29 -36 -43 -20 -32 -104 -313 -129 -429 -86 -407 -94 -474 -93 -790 0 -298 7 -355 69 -532 72 -207 250 -413 401 -464 39 -13 161 -89 184 -114 3 -3 30 -25 60 -50 30 -24 67 -56 81 -70 23 -23 184 -172 318 -295 29 -27 66 -61 80 -75 14 -14 55 -50 91 -80 35 -30 71 -61 78 -68 8 -7 30 -25 50 -40 21 -15 39 -29 42 -32 3 -3 29 -23 58 -44 28 -21 52 -39 52 -42 0 -6 -70 27 -114 54 -142 87 -332 158 -398 149 -85 -11 -112 -51 -132 -197 -21 -151 -52 -186 -159 -178 -77 6 -151 34 -257 99 -174 105 -337 263 -448 432 -55 84 -58 91 -83 180 -11 38 -26 79 -35 92 -43 66 -209 97 -524 98 -221 1 -295 -8 -366 -48 -90 -50 -168 -58 -513 -52 -174 3 -347 10 -386 16 -38 5 -119 15 -180 21 -225 24 -540 86 -665 131 -19 7 -55 25 -81 39 -144 85 -179 100 -286 121 -52 9 -87 9 -204 -5 -254 -31 -299 -14 -626 231 -83 62 -171 124 -195 138 -23 14 -37 25 -30 25 8 0 12 6 10 12 -7 19 -57 27 -233 38 -88 5 -200 14 -250 19 -49 6 -178 15 -285 21 -107 6 -312 17 -455 25 -143 8 -366 19 -495 25 -220 10 -525 27 -925 50 -93 5 -298 16 -455 25 -157 9 -366 20 -465 25 -99 6 -216 13 -259 15 l-79 6 6 -268 c3 -147 13 -331 21 -408 9 -77 20 -185 26 -240 6 -55 17 -145 25 -200 7 -55 19 -143 25 -195 7 -52 16 -120 21 -150 5 -30 13 -89 19 -130 5 -41 17 -120 25 -175 9 -55 18 -156 21 -225 5 -126 7 -135 27 -135 7 0 17 -29 23 -65 64 -366 101 -522 161 -665 54 -127 99 -285 143 -500 11 -50 32 -113 70 -207 17 -40 30 -76 30 -80 0 -7 11 -32 82 -188 54 -118 70 -150 128 -258 125 -232 184 -345 279 -537 141 -286 162 -333 226 -495 117 -299 144 -361 181 -421 42 -68 57 -184 49 -381 -9 -224 -1 -303 32 -336 23 -23 30 -24 86 -18 34 4 127 11 206 16 132 8 150 12 208 40 76 38 102 69 147 182 19 47 55 126 79 175 57 113 85 198 97 293 16 121 75 216 175 279 87 55 118 42 225 -93 52 -65 119 -130 149 -144 45 -20 252 -22 381 -4 466 68 741 91 881 73 52 -7 110 -20 129 -29 45 -22 80 -75 80 -122 0 -78 95 -181 283 -307 182 -122 193 -146 84 -197 -90 -43 -135 -99 -122 -155 12 -51 74 -103 152 -126 64 -20 224 -19 310 1 141 32 275 117 332 210 34 54 39 85 27 149 -6 33 -3 46 12 66 25 31 117 63 237 83 130 22 268 43 360 56 87 12 205 30 358 55 161 26 317 84 363 137 11 12 31 43 43 68 92 181 362 267 891 285 149 5 203 3 280 -11 110 -19 310 -16 350 6 23 13 24 13 5 21 -16 6 -14 8 11 8 17 1 75 8 130 16 302 45 462 141 561 336 62 121 89 147 182 174 85 25 231 36 610 45 377 10 603 22 696 39 28 5 86 15 130 22 81 12 184 45 227 73 58 37 156 67 209 64 52 -3 54 -4 65 -38 10 -29 8 -52 -8 -128 -19 -90 -19 -94 -1 -130 13 -26 32 -44 65 -60 44 -22 58 -23 223 -23 97 1 193 3 213 6 20 2 75 9 122 15 348 41 493 63 630 95 196 47 358 90 465 124 66 21 153 48 194 61 41 12 133 45 205 72 72 27 156 57 186 67 30 10 101 39 158 65 56 25 104 46 106 46 14 0 235 107 361 175 81 44 250 158 279 188 42 45 66 83 81 129 33 107 50 127 105 128 20 0 90 -19 155 -41 202 -70 300 -63 467 32 38 21 72 39 74 39 18 0 174 119 231 176 81 83 100 124 89 198 -6 39 -15 52 -60 92 -32 27 -98 66 -167 98 -63 29 -132 64 -154 78 -62 39 -132 112 -155 162 -12 25 -36 56 -54 69 -73 56 -223 82 -386 67 -296 -26 -491 -115 -522 -238 -15 -60 -36 -67 -161 -52 -107 12 -195 6 -241 -17 -64 -33 -178 -6 -251 59 -17 15 -43 39 -60 53 -76 68 -171 118 -246 130 -61 10 -79 22 -79 50 0 14 43 109 96 211 93 180 135 281 149 355 8 42 -10 116 -33 143 -45 49 -185 86 -331 86 -246 0 -516 56 -671 139 -19 11 -62 34 -95 51 -33 18 -94 50 -135 72 -163 87 -440 246 -525 301 -83 55 -135 83 -168 91 -140 34 -333 52 -642 61 -204 6 -526 34 -632 54 -78 15 -137 47 -201 110 -109 105 -173 222 -180 326 -4 54 -1 65 22 92 37 44 46 75 46 161 0 194 -71 412 -169 522 -61 69 -82 133 -91 287 -11 183 -26 202 -184 242 -50 12 -106 32 -127 44 -53 32 -102 96 -129 168 -30 85 -55 117 -104 139 -36 15 -106 81 -171 160 -11 14 -65 88 -119 165 -118 167 -231 284 -307 320 -63 29 -116 32 -145 7z"/>
 </g>
<g id="layer102" fill="#646464" stroke="none">
 <path d="M8352 8018 c-25 -50 -76 -246 -102 -393 -62 -350 -74 -460 -74 -630 1 -94 6 -158 16 -195 58 -206 164 -382 272 -452 35 -23 71 -38 89 -38 37 0 117 -44 202 -111 34 -27 126 -120 203 -207 285 -321 535 -543 738 -653 52 -28 105 -68 155 -118 69 -69 83 -90 149 -225 68 -139 78 -154 165 -242 99 -100 117 -134 89 -165 -37 -41 -100 -54 -259 -53 -131 0 -157 3 -208 23 -31 12 -64 32 -73 44 -8 12 -34 51 -57 87 -77 119 -367 390 -417 390 -23 0 -49 -37 -79 -110 -30 -71 -64 -107 -129 -136 -46 -21 -75 -25 -205 -31 -283 -11 -417 30 -590 182 -93 82 -237 236 -382 408 -133 159 -212 230 -310 278 -91 44 -168 57 -233 40 -36 -10 -49 -21 -77 -65 -38 -60 -79 -83 -168 -95 -129 -17 -999 27 -1377 70 -135 15 -377 60 -398 73 -17 10 -141 56 -182 67 -73 20 -199 39 -295 46 l-100 8 116 6 c111 6 174 21 139 32 -36 12 -116 14 -265 7 l-160 -7 -120 40 c-66 22 -158 58 -205 80 -314 145 -395 175 -595 216 -67 14 -251 41 -289 42 -30 1 -30 1 -6 9 14 4 57 9 95 10 305 10 -161 31 -625 29 -124 -1 -333 6 -465 15 -132 8 -323 20 -425 26 -191 11 -535 33 -790 50 -80 5 -193 12 -252 16 -59 3 -122 9 -140 13 -35 7 319 28 702 41 118 4 181 8 140 9 -41 1 -133 3 -205 6 -400 13 -1106 27 -1111 22 -3 -3 -1 -124 5 -269 6 -145 14 -357 18 -473 l7 -210 8 115 c4 63 15 201 23 305 9 105 16 215 17 245 1 30 5 -49 9 -176 4 -128 14 -283 22 -345 9 -63 21 -159 27 -214 7 -55 23 -169 36 -254 18 -108 22 -157 15 -164 -14 -14 -14 -237 -1 -365 23 -219 75 -472 102 -497 12 -11 6 147 -12 334 -5 58 -8 106 -6 108 2 2 11 -33 19 -79 20 -106 60 -292 86 -399 11 -46 32 -136 47 -199 14 -63 37 -151 49 -195 13 -44 35 -125 50 -180 73 -268 160 -511 221 -623 29 -54 31 -61 13 -52 -29 16 -33 8 -19 -37 28 -84 182 -364 220 -398 19 -17 20 -17 28 4 9 25 17 10 117 -208 29 -64 64 -141 78 -171 14 -30 68 -149 120 -265 52 -115 134 -291 182 -390 125 -259 180 -417 224 -645 12 -63 25 -122 27 -130 5 -14 72 112 156 295 77 169 118 296 133 420 11 84 37 139 93 193 63 61 140 99 242 119 98 20 193 9 275 -32 67 -33 102 -67 161 -155 34 -52 59 -77 84 -88 33 -13 41 -12 160 26 189 62 306 76 620 77 241 0 275 -2 375 -23 230 -49 363 -137 411 -269 7 -21 13 -52 14 -70 0 -47 9 -62 49 -82 64 -33 136 -41 356 -41 512 0 1225 121 1510 255 33 16 92 60 146 111 246 230 408 276 1038 294 623 18 772 33 937 95 113 42 183 118 184 197 0 61 71 169 170 261 126 116 183 130 302 72 106 -52 155 -63 329 -75 123 -8 197 -7 350 4 107 9 208 18 224 20 17 3 86 15 154 26 189 32 333 74 456 134 142 69 164 76 250 76 87 0 150 -20 203 -65 54 -47 74 -94 83 -196 10 -128 27 -145 152 -155 77 -6 489 19 572 35 28 5 79 15 115 21 208 39 532 139 815 252 55 22 129 51 165 65 108 42 162 64 220 90 30 14 75 33 100 43 25 10 77 32 115 50 39 18 90 40 115 50 154 62 363 182 434 248 34 33 96 140 96 168 0 5 11 39 25 73 49 126 142 201 247 201 62 0 89 -15 156 -88 54 -57 92 -72 192 -72 119 0 250 49 356 134 109 87 107 89 -116 187 -92 40 -183 103 -234 161 -83 94 -99 109 -131 123 -141 58 -367 -4 -517 -141 -39 -36 -82 -71 -97 -79 -54 -28 -158 -54 -241 -61 -159 -12 -262 -60 -301 -137 -67 -133 -188 -157 -258 -50 -17 25 -31 51 -31 57 0 54 -32 202 -50 233 -48 87 -184 139 -389 149 -191 10 -231 31 -231 121 0 84 44 159 195 332 180 207 227 289 185 331 -24 24 -86 26 -221 8 -71 -9 -103 -9 -157 1 -162 31 -243 64 -657 270 -398 198 -595 284 -820 359 -160 53 -193 59 -525 87 -559 48 -707 75 -850 154 -25 14 -84 65 -131 113 -183 185 -335 475 -313 595 7 40 46 73 85 73 47 0 74 50 73 137 0 101 -38 173 -115 225 -31 20 -65 52 -76 70 -31 54 -52 147 -58 263 -9 175 -44 225 -158 225 -56 0 -139 25 -159 47 -9 10 -21 36 -27 59 -13 50 -77 136 -251 341 -75 87 -172 207 -215 267 -135 185 -158 204 -183 154z"/>
 <path d="M385 6690 l-130 -5 100 -10 c129 -13 666 -13 770 0 l80 10 -150 6 c-175 7 -485 7 -670 -1z"/>
 <path d="M1610 6619 c-25 -11 -25 -11 15 -26 50 -18 287 -15 306 4 7 7 9 16 5 20 -12 13 -298 14 -326 2z"/>
 <path d="M2555 6543 c-121 -2 -223 -7 -228 -12 -4 -4 38 -11 95 -14 57 -4 175 -13 264 -21 88 -8 338 -20 555 -26 526 -16 631 -36 746 -143 90 -83 173 -121 173 -80 0 26 -146 162 -219 204 -34 21 -56 39 -49 42 26 9 -7 25 -77 37 -72 12 -834 20 -1260 13z"/>
 <path d="M33 6395 c-11 -28 -7 -369 5 -391 7 -13 12 -1 22 56 14 85 10 305 -7 335 l-12 20 -8 -20z"/>
 <path d="M115 5720 c-21 -34 -17 -340 4 -340 21 0 31 60 31 184 0 95 -4 137 -13 151 -11 14 -16 15 -22 5z"/>
 <path d="M207 5100 c-20 -55 -25 -455 -7 -474 4 -4 14 2 22 15 16 30 17 410 1 449 -8 19 -12 21 -16 10z"/>
 <path d="M8060 1483 c-66 -8 -52 -21 36 -33 104 -15 290 -9 325 11 l24 13 -30 7 c-32 7 -297 8 -355 2z"/>
 <path d="M1626 998 c-8 -33 -6 -299 3 -323 7 -19 9 -18 22 5 15 28 20 263 6 313 -9 33 -23 35 -31 5z"/>
 </g>
<g id="layer103" fill="#2c82c9" stroke="none">
 <path d="M8352 8018 c-25 -50 -76 -246 -102 -393 -62 -350 -74 -460 -74 -630 1 -94 6 -158 16 -195 58 -206 164 -382 272 -452 35 -23 71 -38 89 -38 37 0 117 -44 202 -111 34 -27 126 -120 203 -207 285 -321 535 -543 738 -653 52 -28 105 -68 155 -118 69 -69 83 -90 149 -225 68 -139 78 -154 165 -242 99 -100 117 -134 89 -165 -37 -41 -100 -54 -259 -53 -131 0 -157 3 -208 23 -31 12 -64 32 -73 44 -8 12 -34 51 -57 87 -77 119 -367 390 -417 390 -23 0 -49 -37 -79 -110 -30 -71 -64 -107 -129 -136 -46 -21 -75 -25 -205 -31 -283 -11 -417 30 -590 182 -93 82 -237 236 -382 408 -133 159 -212 230 -310 278 -91 44 -168 57 -233 40 -36 -10 -49 -21 -77 -65 -38 -60 -79 -83 -168 -95 -129 -17 -999 27 -1377 70 -135 15 -377 60 -398 73 -17 10 -141 56 -182 67 -73 20 -199 39 -295 46 l-100 8 112 6 c107 7 168 21 133 32 -39 13 -99 15 -251 7 l-164 -9 -120 41 c-66 23 -158 59 -205 81 -314 145 -395 175 -595 216 -69 15 -252 41 -289 42 -56 1 3 17 69 19 33 1 80 5 105 9 25 4 -182 10 -460 13 -279 4 -599 13 -715 21 -115 8 -302 20 -415 27 -113 6 -268 15 -345 21 -77 5 -212 14 -300 19 -347 21 -482 30 -530 37 l-50 7 75 7 c41 4 214 12 385 19 171 6 315 12 320 14 6 2 -69 6 -165 10 -192 7 -1054 26 -1055 23 -3 -8 17 -472 22 -507 l6 -45 8 40 c8 42 37 259 42 310 1 17 5 -89 9 -235 4 -146 13 -314 22 -375 8 -60 20 -155 26 -210 7 -55 25 -181 40 -280 22 -139 27 -190 20 -225 -17 -87 -9 -330 11 -330 12 0 20 35 29 114 4 39 8 55 9 36 0 -19 6 -51 11 -71 6 -20 19 -83 30 -140 22 -122 61 -302 89 -420 11 -46 32 -136 47 -199 14 -63 37 -151 49 -195 13 -44 35 -125 50 -180 105 -384 203 -628 289 -721 37 -39 166 -284 166 -314 0 -9 18 -52 39 -95 21 -44 59 -125 84 -180 25 -55 59 -129 75 -165 17 -36 73 -159 125 -275 52 -115 134 -291 182 -390 125 -259 180 -417 224 -645 12 -63 25 -122 27 -130 5 -14 72 112 156 295 77 169 118 296 133 420 11 84 37 139 93 193 63 61 140 99 242 119 98 20 193 9 275 -32 67 -33 102 -67 161 -155 34 -52 59 -77 84 -88 33 -13 41 -12 160 26 189 62 306 76 620 77 241 0 275 -2 375 -23 230 -49 363 -137 411 -269 7 -21 13 -52 14 -70 0 -47 9 -62 49 -82 64 -33 136 -41 356 -41 512 0 1225 121 1510 255 33 16 92 60 146 111 246 230 408 276 1038 294 623 18 772 33 937 95 113 42 183 118 184 197 0 61 71 169 170 261 126 116 183 130 302 72 106 -52 155 -63 329 -75 123 -8 197 -7 350 4 107 9 208 18 224 20 17 3 86 15 154 26 189 32 333 74 456 134 142 69 164 76 250 76 87 0 150 -20 203 -65 54 -47 74 -94 83 -196 10 -128 27 -145 152 -155 77 -6 489 19 572 35 28 5 79 15 115 21 208 39 532 139 815 252 55 22 129 51 165 65 108 42 162 64 220 90 30 14 75 33 100 43 25 10 77 32 115 50 39 18 90 40 115 50 154 62 363 182 434 248 34 33 96 140 96 168 0 5 11 39 25 73 49 126 142 201 247 201 62 0 89 -15 156 -88 54 -57 92 -72 192 -72 119 0 250 49 356 134 109 87 107 89 -116 187 -92 40 -183 103 -234 161 -83 94 -99 109 -131 123 -141 58 -367 -4 -517 -141 -39 -36 -82 -71 -97 -79 -54 -28 -158 -54 -241 -61 -159 -12 -262 -60 -301 -137 -67 -133 -188 -157 -258 -50 -17 25 -31 51 -31 57 0 54 -32 202 -50 233 -48 87 -184 139 -389 149 -191 10 -231 31 -231 121 0 84 44 159 195 332 180 207 227 289 185 331 -24 24 -86 26 -221 8 -71 -9 -103 -9 -157 1 -162 31 -243 64 -657 270 -398 198 -595 284 -820 359 -160 53 -193 59 -525 87 -559 48 -707 75 -850 154 -25 14 -84 65 -131 113 -183 185 -335 475 -313 595 7 40 46 73 85 73 47 0 74 50 73 137 0 101 -38 173 -115 225 -31 20 -65 52 -76 70 -31 54 -52 147 -58 263 -9 175 -44 225 -158 225 -56 0 -139 25 -159 47 -9 10 -21 36 -27 59 -13 50 -77 136 -251 341 -75 87 -172 207 -215 267 -135 185 -158 204 -183 154z"/>
 <path d="M395 6690 l-120 -5 90 -10 c116 -13 656 -13 760 0 l80 10 -150 6 c-176 8 -490 7 -660 -1z"/>
 <path d="M2690 6540 c-74 -4 -157 -8 -184 -9 -71 -2 -47 -14 42 -23 142 -13 575 -37 792 -43 195 -6 471 5 538 22 41 10 17 28 -54 41 -83 15 -926 24 -1134 12z"/>
 <path d="M37 6404 c-10 -11 -8 -377 2 -393 16 -26 26 55 26 214 0 138 -9 197 -28 179z"/>
 <path d="M195 4949 c-12 -50 -9 -309 4 -322 39 -39 55 286 16 339 -11 16 -13 15 -20 -17z"/>
 <path d="M1626 974 c-8 -60 -7 -216 3 -274 l7 -45 14 25 c23 38 21 303 -1 325 -15 15 -17 13 -23 -31z"/>
 </g>
<g id="layer104" fill="#919191" stroke="none">
 <path d="M395 6690 l-120 -5 90 -10 c116 -13 656 -13 760 0 l80 10 -150 6 c-176 8 -490 7 -660 -1z"/>
 <path d="M2690 6540 c-74 -4 -157 -8 -184 -9 -71 -2 -47 -14 42 -23 142 -13 575 -37 792 -43 195 -6 471 5 538 22 41 10 17 28 -54 41 -83 15 -926 24 -1134 12z"/>
 <path d="M253 6458 c3 -13 9 -126 13 -253 8 -253 16 -319 29 -220 4 33 13 101 20 150 8 50 17 127 21 171 l6 82 92 7 c50 3 138 8 196 10 58 2 179 8 270 14 91 6 259 13 373 17 114 3 206 8 204 10 -2 2 -190 8 -418 14 -228 5 -503 12 -613 15 l-198 5 5 -22z"/>
 <path d="M37 6404 c-10 -11 -8 -377 2 -393 16 -26 26 55 26 214 0 138 -9 197 -28 179z"/>
 <path d="M2631 6272 c-25 -17 170 -27 504 -26 176 1 343 6 370 12 37 7 -58 10 -355 11 -223 1 -427 4 -455 7 -27 3 -56 1 -64 -4z"/>
 <path d="M4698 5861 c-70 -3 -129 -9 -133 -12 -13 -14 173 -31 271 -26 95 4 148 17 128 30 -18 10 -142 14 -266 8z"/>
 <path d="M195 4949 c-12 -50 -9 -309 4 -322 39 -39 55 286 16 339 -11 16 -13 15 -20 -17z"/>
 <path d="M446 4934 c-13 -101 -4 -314 15 -314 31 0 41 254 14 341 -11 32 -22 21 -29 -27z"/>
 <path d="M1626 974 c-8 -60 -7 -216 3 -274 l7 -45 14 25 c23 38 21 303 -1 325 -15 15 -17 13 -23 -31z"/>
 </g>

</svg>