<!DOCTYPE svg PUBLIC "-//W3C//DTD SVG 20010904//EN" "http://www.w3.org/TR/2001/REC-SVG-20010904/DTD/svg10.dtd">
<svg version="1.0" xmlns="http://www.w3.org/2000/svg" width="1600px" height="1303px" viewBox="0 0 16000 13030" preserveAspectRatio="xMidYMid meet">
<g id="layer101" fill="#030303" stroke="none">
 <path d="M2140 12674 c-385 -50 -772 -254 -937 -494 -101 -148 -135 -348 -103 -605 57 -459 65 -572 65 -940 0 -329 -6 -408 -41 -585 -65 -326 -143 -503 -403 -920 -384 -617 -446 -840 -259 -928 87 -41 270 -53 468 -31 130 14 521 14 655 0 191 -20 530 -67 585 -80 19 -5 71 -14 115 -21 44 -6 99 -16 123 -21 23 -5 86 -18 140 -29 86 -17 181 -38 442 -100 41 -9 107 -26 145 -37 39 -11 115 -33 170 -48 55 -16 174 -50 265 -76 91 -26 215 -59 275 -73 61 -15 137 -33 170 -41 88 -21 182 -42 245 -54 311 -62 550 -104 663 -117 32 -3 56 -8 55 -10 -2 -1 -41 -8 -88 -13 -78 -10 -112 -23 -98 -36 11 -11 184 -34 373 -50 119 -9 302 -15 490 -15 165 0 338 -4 385 -10 120 -13 416 -37 610 -50 455 -29 555 -34 1150 -60 124 -5 286 -14 360 -19 74 -6 214 -15 310 -21 229 -14 654 -53 765 -70 33 -5 98 -14 145 -20 523 -62 973 -187 1265 -352 177 -100 366 -279 463 -438 102 -168 204 -450 242 -670 6 -36 18 -94 25 -130 8 -36 19 -108 25 -160 53 -456 129 -794 233 -1035 40 -91 128 -259 168 -319 21 -32 39 -62 39 -66 0 -5 3 -10 8 -12 4 -1 20 -23 36 -48 98 -151 315 -400 661 -760 66 -69 147 -154 180 -189 33 -35 69 -73 80 -85 20 -21 246 -282 278 -321 30 -37 112 -142 137 -175 14 -19 34 -45 46 -59 48 -61 127 -177 199 -291 184 -294 245 -473 245 -718 0 -127 22 -296 42 -319 17 -21 34 -15 53 21 l18 34 36 -23 c116 -75 306 -46 536 82 55 31 109 61 120 67 34 19 224 146 237 159 7 7 49 39 93 72 115 86 360 291 428 359 102 101 180 217 241 356 27 62 55 157 85 290 43 192 79 634 101 1230 6 162 15 412 20 555 20 509 32 1254 26 1540 -13 550 -64 883 -202 1300 -37 114 -98 280 -123 340 -5 11 -14 34 -21 50 -7 17 -19 44 -26 60 -8 17 -39 89 -70 160 -31 72 -64 148 -74 170 -107 238 -134 299 -180 400 -35 77 -54 118 -135 300 -37 83 -79 177 -95 210 -142 313 -363 888 -443 1155 -66 219 -66 217 -71 505 -3 149 -10 342 -16 429 -12 187 -9 205 72 374 103 219 127 304 128 449 0 139 -28 212 -114 299 -150 150 -404 219 -801 218 -447 -1 -717 -88 -928 -298 -73 -74 -81 -83 -183 -231 -179 -256 -357 -423 -639 -601 -143 -89 -422 -216 -595 -269 -262 -80 -572 -141 -840 -165 -295 -26 -740 -13 -1065 30 -384 52 -899 188 -1204 319 -52 23 -98 41 -103 41 -39 0 -630 284 -777 373 -20 12 -49 29 -66 37 -16 8 -44 25 -61 37 -17 13 -34 23 -38 23 -23 0 -244 165 -311 233 -58 59 -99 91 -147 114 -161 78 -398 119 -773 133 -247 10 -390 21 -511 40 -483 74 -783 144 -1074 250 -47 17 -110 40 -140 50 -30 11 -73 26 -95 34 -328 122 -759 260 -980 312 -33 8 -76 19 -96 24 -43 12 -104 24 -259 51 -112 20 -461 34 -550 23z"/>
 </g>
<g id="layer102" fill="#646464" stroke="none">
 <path d="M2205 12088 c-365 -70 -553 -245 -514 -480 15 -84 63 -182 149 -303 127 -177 160 -278 160 -482 0 -205 -40 -401 -187 -923 -110 -389 -161 -616 -170 -755 l-6 -90 47 -24 c26 -12 46 -25 44 -27 -2 -2 -73 -10 -158 -19 -139 -13 -157 -17 -175 -38 -14 -15 -20 -37 -20 -62 0 -37 4 -42 55 -76 62 -40 165 -72 320 -99 58 -10 148 -28 200 -39 52 -12 136 -29 185 -37 50 -8 128 -21 175 -29 47 -8 117 -19 155 -25 210 -34 466 -84 695 -136 171 -39 206 -48 395 -106 192 -58 227 -68 258 -68 39 0 30 9 -78 90 -109 82 -219 143 -383 211 -117 48 -127 58 -42 38 25 -6 68 -14 95 -19 81 -14 295 -50 360 -60 33 -5 105 -16 160 -25 55 -9 127 -20 160 -25 33 -5 103 -16 155 -24 52 -8 133 -20 180 -26 47 -6 130 -17 185 -25 55 -8 159 -21 230 -30 72 -9 137 -18 145 -20 14 -4 84 -13 285 -35 44 -5 199 -23 345 -40 358 -42 416 -48 550 -60 63 -6 153 -15 200 -20 47 -5 139 -14 205 -20 66 -6 188 -17 270 -25 83 -9 200 -20 260 -26 61 -5 169 -16 240 -24 72 -8 184 -19 250 -25 166 -16 478 -49 700 -75 66 -8 170 -19 230 -25 61 -6 151 -17 200 -25 50 -8 121 -17 158 -21 37 -3 66 -8 65 -10 -2 -2 -193 1 -423 7 -624 14 -1155 -7 -1157 -46 0 -15 71 -33 202 -53 167 -24 1220 -24 1446 1 146 16 202 28 214 47 3 5 53 1 115 -10 61 -11 139 -25 175 -30 36 -6 90 -15 120 -19 64 -11 307 -59 332 -67 11 -3 18 -15 18 -29 0 -52 156 -170 380 -287 444 -233 723 -351 776 -331 37 14 5 60 -126 177 l-65 58 85 -63 c47 -35 90 -69 95 -75 6 -6 46 -40 90 -75 113 -90 396 -375 491 -494 158 -198 279 -385 366 -562 l45 -92 -20 -58 c-17 -50 -19 -84 -19 -260 0 -111 5 -246 12 -300 25 -221 40 -354 51 -463 6 -63 20 -173 30 -245 38 -262 45 -258 93 50 24 155 36 273 37 371 1 49 4 118 8 154 l6 65 7 -70 c4 -38 13 -180 19 -315 16 -349 53 -516 159 -716 95 -178 282 -409 507 -624 l118 -113 -185 154 c-102 85 -196 164 -210 175 -14 12 -81 68 -150 125 -69 57 -127 106 -130 109 -3 3 -39 33 -80 67 -42 33 -82 68 -89 77 -7 9 -17 16 -22 16 -5 0 57 -73 138 -163 80 -89 205 -227 277 -307 72 -80 136 -149 142 -155 11 -10 191 -213 282 -319 132 -151 249 -334 267 -414 22 -103 -114 -79 -320 56 -68 45 -185 130 -195 142 -3 3 -23 19 -45 36 -22 16 -71 54 -110 84 -71 56 -120 90 -130 90 -21 0 99 -153 286 -365 347 -392 498 -604 677 -945 124 -238 182 -442 182 -648 0 -127 22 -296 42 -319 18 -22 33 -15 55 25 54 97 111 329 189 772 58 329 67 418 61 570 -3 69 -13 148 -21 175 l-15 50 35 -39 c92 -105 193 -275 233 -396 53 -157 113 -240 161 -225 36 11 106 81 195 195 94 121 115 158 160 290 173 504 265 1543 265 2990 0 945 -88 1370 -447 2165 -52 116 -103 228 -113 250 -10 22 -69 144 -130 270 -62 127 -130 268 -152 315 -23 47 -74 154 -114 239 -41 84 -74 155 -74 156 0 2 -20 46 -45 99 -25 53 -45 99 -45 101 0 3 -21 51 -46 107 -166 369 -368 931 -437 1218 -52 215 -59 248 -72 370 -13 126 -8 227 24 480 6 41 15 120 21 175 6 55 13 115 15 134 l4 34 -22 -19 c-53 -47 -136 -121 -187 -169 -112 -103 -356 -322 -443 -398 -324 -278 -723 -517 -1147 -687 -331 -133 -748 -240 -1125 -290 -445 -58 -999 -52 -1440 16 -55 8 -125 19 -155 24 -30 4 -89 16 -130 24 -41 9 -97 21 -125 26 -69 14 -273 66 -375 97 -550 164 -1066 401 -1550 713 -306 197 -496 299 -735 393 -351 138 -648 207 -975 227 -252 16 -464 46 -695 100 -337 78 -467 125 -765 275 -320 161 -557 239 -847 280 -119 17 -455 18 -538 3z"/>
 <path d="M14160 11150 c-41 -41 -144 -275 -166 -380 -30 -142 -13 -376 43 -585 55 -208 177 -455 224 -455 5 0 18 17 27 38 15 33 17 81 16 427 0 414 -14 669 -42 826 -25 137 -56 175 -102 129z"/>
 <path d="M4850 8149 c-217 -12 -325 -36 -242 -55 15 -3 34 -8 43 -10 9 -3 119 -13 245 -24 332 -29 1043 -29 1324 0 202 21 248 29 252 44 5 18 -56 27 -267 41 -233 16 -1087 18 -1355 4z"/>
 <path d="M4975 7460 c-130 -12 -174 -20 -181 -31 -3 -6 -4 -12 -1 -15 10 -10 186 -33 384 -49 400 -33 1344 -3 1435 46 31 17 10 24 -102 39 -113 15 -1392 23 -1535 10z"/>
 <path d="M15197 6075 c-40 -126 -59 -955 -37 -1620 9 -293 24 -460 40 -470 21 -13 37 108 62 465 31 459 2 1495 -47 1615 -10 27 -12 28 -18 10z"/>
 <path d="M11511 5703 c-19 -56 -24 -395 -12 -718 10 -285 12 -313 25 -352 11 -35 23 -28 39 25 40 123 64 503 48 746 -13 198 -25 278 -48 313 -22 33 -38 29 -52 -14z"/>
 </g>
<g id="layer103" fill="#2c82c9" stroke="none">
 <path d="M2205 12088 c-365 -70 -553 -245 -514 -480 15 -84 63 -182 149 -303 127 -177 160 -278 160 -482 0 -205 -40 -401 -187 -923 -110 -390 -161 -616 -170 -755 l-5 -90 58 -30 58 -30 -105 -7 c-116 -7 -161 -17 -216 -45 -42 -22 -63 -54 -55 -85 13 -52 170 -113 381 -148 259 -42 800 -16 952 47 34 14 42 13 190 -31 85 -25 188 -57 229 -72 68 -24 104 -32 275 -64 58 -10 273 -46 360 -60 33 -5 105 -16 160 -25 55 -9 127 -20 160 -25 33 -5 103 -16 155 -24 52 -8 133 -20 180 -26 47 -6 130 -17 185 -25 55 -8 159 -21 230 -30 72 -9 137 -18 145 -20 14 -4 84 -13 285 -35 44 -5 199 -23 345 -40 358 -42 416 -48 550 -60 63 -6 153 -15 200 -20 47 -5 139 -14 205 -20 66 -6 188 -17 270 -25 83 -9 200 -20 260 -26 61 -5 169 -16 240 -24 72 -8 184 -19 250 -25 166 -16 478 -49 700 -75 66 -8 170 -19 230 -25 61 -6 153 -18 205 -25 52 -8 154 -21 225 -30 151 -17 236 -30 395 -57 114 -19 163 -28 290 -47 36 -6 130 -24 210 -41 95 -19 148 -26 154 -20 37 37 332 -47 551 -157 128 -64 354 -214 470 -311 11 -9 38 -30 60 -47 22 -16 45 -34 50 -40 6 -7 46 -41 90 -76 113 -90 396 -375 491 -494 153 -192 254 -345 353 -535 33 -63 64 -114 71 -112 36 8 86 -58 119 -158 25 -75 51 -232 50 -292 l-1 -43 -9 40 c-4 22 -8 58 -9 80 -1 49 -34 125 -54 125 -20 0 -34 -54 -46 -177 -10 -109 4 -720 19 -843 15 -118 29 -139 49 -72 28 92 45 269 51 542 4 157 8 250 9 208 1 -42 6 -110 12 -150 5 -40 14 -188 20 -328 8 -166 18 -289 31 -353 54 -278 163 -480 410 -761 149 -170 341 -351 559 -526 148 -118 348 -296 433 -384 99 -101 158 -179 203 -264 20 -37 61 -101 93 -142 121 -158 180 -259 220 -380 53 -157 113 -240 161 -225 36 11 106 81 195 195 94 121 115 158 160 290 173 504 265 1543 265 2990 0 945 -88 1370 -447 2165 -52 116 -103 228 -113 250 -10 22 -69 144 -130 270 -62 127 -130 268 -152 315 -23 47 -74 154 -114 239 -41 84 -74 155 -74 156 0 2 -20 46 -45 99 -25 53 -45 99 -45 101 0 3 -21 51 -46 107 -166 369 -368 931 -437 1218 -52 215 -59 248 -72 370 -13 126 -8 227 24 480 6 41 15 120 21 175 6 55 13 115 15 134 l4 34 -22 -19 c-53 -47 -136 -121 -187 -169 -112 -103 -356 -322 -443 -398 -324 -278 -723 -517 -1147 -687 -331 -133 -748 -240 -1125 -290 -445 -58 -999 -52 -1440 16 -55 8 -125 19 -155 24 -30 4 -89 16 -130 24 -41 9 -97 21 -125 26 -69 14 -273 66 -375 97 -550 164 -1066 401 -1550 713 -306 197 -496 299 -735 393 -351 138 -648 207 -975 227 -252 16 -464 46 -695 100 -337 78 -467 125 -765 275 -320 161 -557 239 -847 280 -119 17 -455 18 -538 3z"/>
 <path d="M14163 11148 c-48 -54 -132 -243 -164 -367 -41 -159 -14 -433 66 -686 29 -92 134 -309 165 -343 54 -58 71 6 78 291 9 405 -21 907 -63 1051 -24 79 -45 94 -82 54z"/>
 <path d="M5030 8149 c-346 -22 -309 -54 105 -90 463 -41 1394 -4 1337 53 -6 6 -77 17 -159 25 -176 17 -1074 26 -1283 12z"/>
 <path d="M7520 7919 c-111 -10 -148 -18 -155 -29 -26 -42 397 -87 710 -76 261 9 405 35 405 73 0 33 -49 38 -465 39 -225 1 -448 -2 -495 -7z"/>
 <path d="M5025 7460 c-155 -8 -222 -17 -231 -32 -10 -15 -2 -18 92 -33 286 -45 811 -58 1224 -30 277 18 370 32 370 55 0 13 -39 19 -226 35 -188 16 -945 19 -1229 5z"/>
 <path d="M15197 6074 c-28 -94 -38 -384 -38 -1064 1 -490 5 -711 15 -839 14 -170 28 -226 41 -165 3 16 8 38 11 49 2 11 13 133 24 270 36 453 25 1315 -21 1661 -12 88 -23 119 -32 88z"/>
 <path d="M11521 5722 c-31 -59 -39 -333 -21 -772 12 -277 14 -306 31 -327 10 -12 14 -10 24 14 24 60 51 276 61 493 8 191 -18 502 -49 573 -18 41 -31 46 -46 19z"/>
 </g>
<g id="layer104" fill="#888888" stroke="none">
 <path d="M14163 11148 c-48 -54 -132 -243 -164 -367 -41 -159 -14 -433 66 -686 29 -92 134 -309 165 -343 54 -58 71 6 78 291 9 405 -21 907 -63 1051 -24 79 -45 94 -82 54z"/>
 <path d="M1650 8989 c-118 -8 -162 -18 -217 -46 -42 -22 -63 -54 -55 -85 13 -52 170 -113 381 -148 301 -49 981 -1 981 70 0 45 -273 122 -597 170 -303 45 -360 49 -493 39z"/>
 <path d="M5030 8149 c-346 -22 -309 -54 105 -90 463 -41 1394 -4 1337 53 -6 6 -77 17 -159 25 -176 17 -1074 26 -1283 12z"/>
 <path d="M7520 7919 c-111 -10 -148 -18 -155 -29 -26 -42 397 -87 710 -76 261 9 405 35 405 73 0 33 -49 38 -465 39 -225 1 -448 -2 -495 -7z"/>
 <path d="M5025 7460 c-155 -8 -222 -17 -231 -32 -10 -15 -2 -18 92 -33 286 -45 811 -58 1224 -30 277 18 370 32 370 55 0 13 -39 19 -226 35 -188 16 -945 19 -1229 5z"/>
 <path d="M15197 6074 c-28 -94 -38 -384 -38 -1064 1 -490 5 -711 15 -839 14 -170 28 -226 41 -165 3 16 8 38 11 49 2 11 13 133 24 270 36 453 25 1315 -21 1661 -12 88 -23 119 -32 88z"/>
 <path d="M11521 5722 c-31 -59 -39 -333 -21 -772 12 -277 14 -306 31 -327 10 -12 14 -10 24 14 24 60 51 276 61 493 8 191 -18 502 -49 573 -18 41 -31 46 -46 19z"/>
 <path d="M12200 5701 c-23 -88 -29 -242 -20 -571 11 -384 24 -520 49 -520 13 0 29 68 48 190 12 87 17 186 17 410 1 319 -6 421 -35 488 -23 53 -45 54 -59 3z"/>
 </g>

</svg>