<!DOCTYPE svg PUBLIC "-//W3C//DTD SVG 20010904//EN" "http://www.w3.org/TR/2001/REC-SVG-20010904/DTD/svg10.dtd">
<svg version="1.0" xmlns="http://www.w3.org/2000/svg" width="979px" height="1600px" viewBox="0 0 9790 16000" preserveAspectRatio="xMidYMid meet">
<g id="layer101" fill="#020202" stroke="none">
 <path d="M3904 15000 c-325 -14 -601 -48 -853 -107 -65 -15 -74 -18 -151 -49 -45 -18 -116 -64 -167 -107 -59 -50 -123 -115 -123 -126 0 -6 -4 -11 -8 -11 -4 0 -26 -24 -47 -52 -22 -29 -42 -55 -45 -58 -11 -10 -50 -69 -50 -75 0 -5 -39 -64 -50 -75 -19 -19 -104 -194 -130 -265 -12 -33 -28 -73 -35 -90 -8 -16 -26 -61 -41 -100 -15 -38 -32 -77 -38 -85 -6 -8 -22 -36 -36 -62 -13 -27 -28 -48 -32 -48 -5 0 -8 -5 -8 -10 0 -10 -37 -67 -51 -80 -3 -3 -18 -22 -33 -42 -63 -84 -184 -197 -276 -256 -55 -36 -238 -132 -252 -132 -4 0 -37 -18 -73 -40 -36 -22 -70 -40 -75 -40 -6 0 -10 -4 -10 -8 0 -5 -27 -28 -60 -52 -33 -24 -60 -46 -60 -49 0 -3 -17 -25 -38 -47 -49 -55 -64 -74 -84 -110 -47 -83 -78 -158 -78 -187 0 -40 -31 -191 -57 -277 -25 -82 -87 -211 -105 -218 -4 -2 -8 -10 -8 -17 0 -12 -44 -55 -109 -105 -115 -89 -166 -155 -195 -255 -10 -33 -22 -73 -27 -89 -5 -16 -9 -95 -9 -175 0 -138 10 -214 50 -391 5 -19 15 -66 24 -105 8 -38 38 -135 66 -215 28 -80 64 -185 81 -235 17 -49 37 -101 44 -115 7 -14 21 -45 30 -70 10 -25 31 -73 47 -108 15 -34 28 -68 28 -75 0 -7 4 -17 9 -22 5 -6 19 -35 31 -65 27 -67 57 -132 148 -320 38 -80 86 -181 107 -225 20 -44 72 -152 115 -240 87 -178 160 -334 160 -341 0 -2 21 -48 46 -102 42 -90 52 -112 82 -182 6 -14 27 -68 47 -120 20 -52 40 -104 44 -115 51 -122 65 -166 120 -390 37 -154 47 -212 71 -425 17 -153 20 -246 20 -727 0 -303 -5 -627 -10 -720 -6 -92 -15 -258 -20 -368 -5 -110 -14 -240 -20 -290 -6 -49 -17 -153 -26 -230 -30 -282 -67 -495 -106 -610 -5 -16 -13 -43 -18 -60 -14 -50 -32 -98 -56 -145 -124 -248 -144 -292 -144 -319 0 -11 -6 -38 -14 -58 -34 -92 -46 -182 -46 -337 0 -170 0 -172 77 -471 33 -127 72 -213 116 -249 28 -24 39 -27 87 -23 70 5 84 10 325 127 223 109 242 116 337 135 50 10 84 11 130 4 63 -9 158 -47 158 -61 0 -5 5 -8 10 -8 14 0 110 -96 110 -109 0 -5 3 -11 8 -13 29 -13 132 -224 162 -333 8 -28 15 -49 45 -135 12 -34 30 -112 41 -175 3 -16 9 -48 14 -70 27 -126 41 -202 55 -305 17 -124 37 -260 55 -380 7 -41 16 -106 20 -145 11 -94 28 -206 45 -285 7 -36 18 -96 25 -135 16 -100 39 -212 55 -270 7 -27 21 -79 31 -115 9 -36 23 -90 31 -120 8 -30 21 -68 29 -83 8 -16 14 -37 14 -47 0 -9 7 -23 15 -30 8 -7 15 -18 15 -25 0 -23 105 -121 156 -145 40 -19 65 -23 134 -23 75 0 92 4 145 31 107 54 214 174 275 308 17 38 37 80 44 94 7 14 20 50 29 80 34 117 93 300 111 344 66 172 241 435 365 551 155 145 251 246 251 265 0 5 3 10 7 12 11 5 53 66 53 77 0 5 3 11 8 13 6 3 39 51 89 133 7 11 20 36 30 55 9 19 20 37 23 40 3 3 31 55 62 115 31 61 67 133 81 160 46 89 107 225 107 238 0 7 4 17 8 23 4 5 18 36 31 69 22 57 32 82 65 158 8 17 20 50 27 72 8 22 19 49 26 60 7 11 13 25 13 32 0 7 13 41 28 75 16 35 37 83 47 108 10 25 31 73 47 108 15 34 28 66 28 71 0 22 155 344 200 416 11 17 27 46 37 65 23 47 136 211 176 257 86 100 171 176 267 237 58 37 117 76 132 87 15 10 30 19 33 19 8 0 74 48 96 70 9 8 38 33 65 55 85 70 254 245 254 264 0 6 3 11 8 11 4 0 12 9 17 19 11 22 147 223 156 231 3 3 16 24 29 48 13 23 27 42 32 42 4 0 8 7 8 15 0 8 3 15 8 15 4 0 18 18 32 40 14 22 28 40 31 40 4 0 20 20 36 45 15 25 31 45 36 45 4 0 7 7 7 15 0 8 4 15 8 15 5 0 25 24 45 53 20 29 44 61 54 72 10 11 55 67 101 125 46 58 94 118 108 134 13 15 24 32 24 37 0 5 3 9 8 9 4 0 30 28 57 62 28 33 62 74 78 90 15 16 27 31 27 33 0 3 8 13 18 23 16 16 96 107 139 158 10 12 38 45 63 74 25 30 57 66 73 82 15 16 27 31 27 33 0 3 8 13 18 24 40 43 117 135 165 198 29 37 55 70 58 73 3 3 35 46 72 95 37 50 71 95 77 102 5 7 10 16 10 22 0 5 3 11 8 13 4 2 20 23 37 48 33 50 37 56 80 126 16 27 33 51 37 52 4 2 8 8 8 13 0 5 17 37 38 71 32 54 146 281 172 343 17 41 52 121 59 135 4 8 16 42 25 75 10 33 23 69 28 80 6 11 15 33 19 50 4 16 12 44 17 60 26 78 87 317 117 460 53 251 64 308 81 410 9 55 21 120 26 145 6 25 14 99 19 165 4 66 11 166 15 223 8 112 -7 298 -32 394 -7 32 -14 69 -14 83 0 13 -6 39 -14 57 -8 18 -21 60 -30 93 -10 33 -21 69 -25 80 -8 19 -24 60 -57 148 -9 23 -22 54 -30 69 -8 14 -14 31 -14 38 0 7 -25 63 -55 126 -30 63 -55 118 -55 123 0 4 -11 28 -25 52 -13 24 -32 62 -42 84 -19 44 -108 219 -223 440 -40 77 -83 160 -96 185 -12 25 -56 113 -97 195 -41 83 -86 173 -100 200 -29 56 -162 334 -182 380 -8 17 -24 53 -36 80 -12 28 -37 84 -56 125 -19 41 -40 89 -47 105 -7 17 -20 46 -28 65 -9 19 -23 55 -33 80 -9 25 -23 58 -31 73 -8 16 -14 35 -14 43 0 8 -4 22 -9 32 -51 93 -114 318 -136 483 -3 26 -15 71 -26 100 -11 30 -24 66 -29 80 -4 14 -12 34 -18 45 -6 10 -18 35 -27 54 -9 19 -25 49 -35 65 -11 17 -24 39 -30 50 -18 36 -50 82 -77 110 -7 8 -13 18 -13 24 0 6 -4 11 -9 11 -4 0 -21 19 -36 42 -29 44 -73 92 -191 211 -75 75 -82 82 -179 162 -33 28 -62 53 -65 56 -3 4 -43 32 -90 64 -47 32 -96 67 -111 79 -14 11 -52 35 -84 51 -33 17 -66 36 -73 43 -7 6 -19 12 -27 12 -7 0 -15 3 -17 8 -4 10 -134 72 -151 72 -7 0 -22 7 -33 15 -10 8 -29 15 -41 15 -13 0 -40 6 -60 14 -76 28 -236 63 -383 85 -41 7 -101 16 -132 22 -32 5 -88 12 -125 15 -38 2 -126 11 -198 19 -263 29 -355 36 -595 45 -277 11 -879 10 -1136 0z"/>
 </g>
<g id="layer102" fill="#2c82c9" stroke="none">
 <path d="M4145 14561 c-88 -4 -198 -13 -245 -20 -156 -22 -275 -42 -305 -53 -16 -5 -54 -16 -83 -24 -29 -8 -72 -23 -95 -33 -110 -50 -156 -73 -197 -101 -25 -16 -61 -38 -82 -49 -20 -11 -38 -24 -40 -28 -1 -5 -37 -36 -78 -69 -87 -71 -177 -170 -243 -267 -26 -38 -47 -71 -47 -73 0 -3 -12 -31 -26 -62 -14 -31 -31 -71 -39 -88 -7 -16 -21 -91 -31 -165 -14 -104 -24 -147 -47 -194 -39 -79 -104 -162 -162 -205 -25 -19 -58 -44 -73 -56 -29 -23 -124 -73 -187 -100 -22 -9 -68 -29 -103 -45 -35 -16 -66 -29 -69 -29 -22 0 -188 -116 -253 -178 -172 -161 -323 -456 -425 -832 -9 -36 -23 -85 -30 -110 -8 -25 -18 -67 -24 -95 -6 -27 -17 -77 -25 -110 l-14 -60 -1 51 c-1 29 -8 89 -17 135 -22 119 -49 154 -86 112 -16 -17 -73 -128 -88 -168 -4 -11 -14 -36 -22 -55 -59 -136 -40 -402 46 -660 24 -72 103 -237 127 -266 31 -38 49 -3 67 126 7 57 9 61 16 35 20 -84 59 -208 81 -260 7 -16 32 -82 55 -145 57 -153 110 -283 121 -295 5 -5 9 -15 9 -22 0 -7 13 -41 29 -75 55 -121 71 -158 71 -163 0 -7 90 -207 215 -479 14 -30 25 -57 25 -60 0 -3 14 -36 31 -73 129 -280 137 -297 204 -468 15 -38 33 -83 40 -100 27 -67 44 -115 74 -210 18 -55 38 -116 45 -135 8 -19 18 -57 24 -85 6 -27 24 -108 41 -180 90 -388 127 -931 118 -1690 -6 -456 -11 -559 -43 -1015 -24 -340 -69 -673 -116 -845 -16 -61 -69 -227 -80 -255 -18 -44 -37 -134 -38 -176 0 -97 46 -128 205 -139 272 -18 421 -81 590 -251 52 -51 154 -182 169 -214 3 -8 22 -42 41 -75 61 -106 119 -228 146 -310 7 -22 16 -44 20 -50 8 -12 40 -115 64 -205 10 -36 23 -85 30 -110 14 -51 36 -159 60 -300 9 -52 20 -118 26 -145 5 -28 14 -84 19 -125 5 -41 14 -115 20 -165 6 -49 15 -106 20 -125 5 -19 17 -69 26 -110 60 -265 126 -437 167 -441 38 -4 66 6 95 34 49 47 63 81 82 203 10 60 26 127 36 147 89 176 136 232 354 422 54 47 121 130 202 250 41 61 77 117 81 125 4 8 18 33 30 55 52 88 137 244 137 248 0 3 27 63 60 133 80 169 85 181 105 234 10 25 21 54 26 65 97 235 187 508 228 695 5 25 16 74 25 110 13 59 22 120 41 303 5 40 17 77 40 115 50 86 240 261 359 331 23 13 55 32 71 43 17 10 41 23 55 29 13 5 27 13 30 17 3 4 49 29 104 56 54 27 114 60 133 73 19 13 37 23 40 23 4 0 32 19 62 43 31 23 66 49 77 57 137 95 325 278 389 378 75 118 227 347 234 352 4 3 22 26 39 52 18 25 38 52 45 60 7 7 38 47 69 88 31 41 80 102 107 135 28 33 86 103 130 155 43 52 160 183 259 290 100 107 230 247 289 311 131 141 205 225 252 287 19 26 40 52 46 57 6 6 23 28 38 50 14 22 47 68 72 103 25 34 45 64 45 66 0 2 24 43 53 92 68 117 148 280 182 375 34 95 74 217 90 274 9 33 23 80 30 105 16 54 66 271 90 390 9 47 23 112 30 145 8 33 18 87 24 120 6 33 17 101 25 150 56 330 49 583 -24 815 -4 14 -18 61 -30 105 -13 44 -26 87 -31 95 -4 8 -24 60 -45 115 -21 55 -41 104 -46 110 -4 5 -8 16 -8 25 0 9 -13 44 -30 78 -16 34 -30 65 -30 68 0 3 -11 30 -25 60 -24 52 -57 124 -95 209 -10 22 -36 80 -59 128 -22 49 -41 90 -41 92 0 4 -34 76 -141 302 -27 57 -49 105 -49 107 0 3 -29 65 -64 138 -62 130 -97 202 -211 443 -31 66 -76 161 -100 210 -24 50 -61 128 -83 175 -22 47 -65 139 -97 205 -31 66 -69 147 -85 180 -15 33 -48 103 -73 155 -25 52 -62 131 -82 175 -20 44 -47 103 -60 130 -69 149 -96 209 -135 300 -82 187 -181 338 -278 426 -74 66 -88 73 -206 98 -135 29 -262 92 -348 171 -65 61 -146 96 -318 139 -91 23 -178 41 -195 41 -16 0 -46 4 -65 10 -48 12 -261 40 -395 51 -60 5 -153 13 -205 18 -126 13 -783 21 -985 12z"/>
 <path d="M1966 7518 c-38 -179 -38 -1304 0 -1485 9 -45 31 -25 43 40 38 216 48 944 17 1264 -9 94 -19 179 -22 187 -9 24 -33 19 -38 -6z"/>
 </g>
<g id="layer103" fill="#8e8f8f" stroke="none">
 <path d="M1118 11813 c-16 -17 -73 -128 -88 -168 -4 -11 -14 -36 -22 -55 -59 -136 -40 -402 46 -660 24 -72 103 -237 127 -266 20 -24 37 -16 51 24 16 45 15 335 -1 672 -19 392 -52 522 -113 453z"/>
 <path d="M1966 7518 c-38 -179 -38 -1304 0 -1485 9 -45 31 -25 43 40 38 216 48 944 17 1264 -9 94 -19 179 -22 187 -9 24 -33 19 -38 -6z"/>
 </g>

</svg>