<!DOCTYPE svg PUBLIC "-//W3C//DTD SVG 20010904//EN" "http://www.w3.org/TR/2001/REC-SVG-20010904/DTD/svg10.dtd">
<svg version="1.0" xmlns="http://www.w3.org/2000/svg" width="1600px" height="960px" viewBox="0 0 16000 9600" preserveAspectRatio="xMidYMid meet">
<g id="layer101" fill="#010101" stroke="none">
 <path d="M14445 9219 c-270 -22 -558 -102 -834 -231 -57 -26 -105 -48 -106 -48 -3 0 -145 -80 -187 -105 -9 -5 -36 -21 -60 -34 -24 -13 -45 -26 -48 -30 -3 -4 -93 -70 -200 -146 -107 -77 -262 -193 -345 -258 -82 -65 -166 -130 -185 -145 -19 -15 -79 -65 -135 -112 -148 -125 -193 -165 -329 -298 -54 -54 -137 -139 -185 -191 -198 -217 -334 -343 -469 -438 -154 -107 -321 -173 -439 -173 -105 0 -277 63 -368 134 -22 17 -49 38 -59 46 -55 42 -211 206 -262 275 -16 22 -37 48 -46 59 -17 19 -70 96 -237 344 -223 331 -409 470 -667 496 -193 20 -592 -75 -959 -228 -374 -157 -639 -314 -856 -511 -64 -58 -224 -167 -321 -218 -114 -60 -248 -108 -357 -128 -116 -20 -148 -37 -227 -122 -90 -95 -125 -151 -223 -352 -65 -134 -118 -268 -155 -395 -117 -401 -192 -570 -347 -780 -65 -88 -284 -313 -361 -372 -25 -18 -78 -58 -119 -89 -41 -31 -137 -95 -213 -143 -148 -93 -210 -129 -401 -231 -70 -38 -330 -168 -390 -195 -27 -12 -77 -35 -110 -50 -302 -138 -751 -297 -1055 -373 -283 -71 -266 -70 -810 -68 -273 2 -376 -1 -445 -13 -223 -37 -344 -110 -409 -249 -35 -73 -66 -224 -66 -322 -1 -467 -78 -724 -252 -844 -55 -39 -117 -56 -230 -66 -141 -12 -240 -46 -333 -115 -277 -204 -363 -641 -195 -990 44 -93 120 -200 175 -249 172 -151 544 -297 905 -356 186 -31 398 -40 623 -27 395 24 571 84 742 256 126 127 235 307 345 571 23 55 54 127 69 160 15 33 38 85 51 115 118 270 302 570 439 714 236 247 443 264 607 51 37 -48 71 -111 124 -230 96 -214 167 -316 291 -418 25 -20 49 -37 53 -37 5 0 20 -8 34 -19 45 -31 172 -80 272 -103 84 -20 123 -22 330 -23 274 0 427 17 750 86 80 17 163 35 186 39 39 8 279 71 419 109 91 25 201 57 405 119 150 46 202 62 340 106 60 19 238 75 385 121 331 102 832 275 1105 380 19 7 96 37 170 65 352 136 769 337 1213 584 263 146 842 488 941 554 21 15 46 31 57 37 10 5 100 62 201 125 101 63 191 119 200 125 70 42 215 136 270 176 37 27 70 49 73 49 9 0 405 283 455 326 14 12 80 67 146 123 344 285 516 564 476 767 -16 79 -15 232 3 296 36 132 76 215 198 413 6 11 14 22 17 25 3 3 38 50 78 104 40 55 97 127 126 160 29 34 80 93 113 131 33 39 152 160 264 270 353 347 462 457 560 564 51 57 99 108 104 115 36 38 189 224 235 285 30 40 60 78 65 84 27 32 136 200 170 262 61 111 75 141 92 209 l17 63 -34 79 c-47 107 -143 205 -250 256 -100 47 -117 54 -191 72 -55 13 -284 38 -314 34 -5 0 -55 -4 -110 -9z"/>
 </g>
<g id="layer102" fill="#2c82c9" stroke="none">
 <path d="M13985 8401 c-114 -28 -358 -185 -655 -420 -128 -101 -370 -311 -551 -476 -150 -138 -311 -278 -434 -380 -81 -67 -213 -162 -350 -252 -71 -47 -142 -94 -157 -104 -15 -10 -29 -19 -31 -19 -2 0 -49 -24 -103 -54 -55 -30 -129 -66 -164 -81 -36 -15 -83 -35 -105 -45 -61 -28 -251 -86 -335 -104 -292 -61 -520 -44 -751 54 -87 37 -149 75 -239 146 -92 72 -149 137 -274 315 -252 354 -481 515 -799 560 -156 22 -359 -19 -517 -103 -125 -68 -194 -124 -335 -272 -195 -205 -324 -309 -490 -393 -94 -48 -136 -62 -231 -78 -100 -16 -160 -52 -265 -161 -156 -162 -279 -368 -395 -656 -31 -79 -75 -177 -97 -218 -135 -252 -348 -521 -623 -790 -271 -264 -487 -426 -855 -640 -335 -196 -484 -296 -581 -394 -168 -168 -144 -284 120 -591 224 -261 399 -403 634 -515 189 -90 241 -103 413 -103 83 -1 173 4 200 10 28 7 91 19 140 28 278 51 771 194 1275 368 690 239 1605 607 2210 890 305 142 431 203 624 302 445 227 638 338 926 533 473 319 745 487 1022 631 169 88 302 141 351 141 36 0 82 50 97 106 18 63 2 175 -45 312 -39 115 -41 147 -21 254 34 176 154 413 346 683 131 183 238 310 520 615 172 187 339 378 413 474 135 174 226 333 227 392 0 41 -39 53 -115 35z"/>
 <path d="M2295 3480 c-71 -8 -148 -31 -172 -51 -38 -33 20 -110 131 -173 76 -43 176 -135 220 -200 204 -308 27 -759 -369 -942 -101 -47 -217 -72 -365 -79 -208 -11 -355 -55 -414 -125 -53 -63 -47 -117 23 -217 258 -367 725 -360 1124 16 110 104 231 267 302 409 79 158 89 186 315 882 15 47 47 152 70 234 l44 148 -25 19 c-31 24 -99 43 -224 64 -116 19 -549 29 -660 15z"/>
 </g>

</svg>