<!DOCTYPE svg PUBLIC "-//W3C//DTD SVG 20010904//EN" "http://www.w3.org/TR/2001/REC-SVG-20010904/DTD/svg10.dtd">
<svg version="1.0" xmlns="http://www.w3.org/2000/svg" width="1600px" height="1337px" viewBox="0 0 16000 13370" preserveAspectRatio="xMidYMid meet">
<g id="layer101" fill="#020202" stroke="none">
 <path d="M1387 13015 c-132 -22 -226 -60 -296 -120 -28 -24 -118 -159 -153 -230 -30 -59 -73 -185 -81 -235 -3 -19 -15 -84 -25 -145 -11 -60 -25 -157 -32 -215 -6 -58 -17 -161 -25 -230 -7 -69 -19 -179 -24 -245 -6 -66 -18 -190 -26 -275 -7 -85 -19 -216 -25 -290 -6 -74 -17 -202 -25 -285 -8 -82 -19 -208 -25 -280 -6 -71 -17 -197 -25 -280 -7 -82 -19 -213 -25 -290 -6 -77 -17 -207 -25 -290 -8 -82 -19 -213 -25 -290 -6 -77 -17 -207 -25 -290 -8 -82 -19 -215 -25 -295 -6 -80 -18 -208 -25 -285 -8 -77 -15 -167 -17 -201 l-3 -60 75 -64 c41 -36 80 -69 85 -75 6 -6 57 -51 115 -101 58 -49 107 -91 110 -94 3 -3 37 -32 75 -65 39 -33 72 -62 75 -65 3 -3 41 -37 85 -75 44 -39 82 -72 85 -76 11 -11 210 -159 216 -159 3 0 20 -11 37 -24 18 -13 77 -50 132 -83 485 -290 1208 -604 1750 -761 88 -26 358 -98 530 -142 39 -9 102 -26 140 -37 39 -12 113 -32 165 -47 421 -117 802 -237 883 -278 46 -23 147 -123 214 -211 26 -34 50 -64 53 -67 12 -11 138 -210 182 -288 45 -81 207 -411 249 -507 5 -11 22 -42 38 -70 16 -27 38 -66 49 -85 85 -156 271 -371 417 -484 111 -86 189 -127 335 -175 158 -52 281 -113 423 -208 175 -117 327 -248 467 -398 39 -43 58 -65 126 -148 8 -9 40 -52 71 -95 85 -114 250 -299 329 -367 38 -33 71 -62 74 -65 3 -3 30 -23 60 -45 30 -22 57 -42 60 -45 10 -12 137 -86 200 -116 268 -128 562 -157 855 -83 150 38 260 81 481 190 315 154 449 194 568 169 104 -21 175 -113 209 -270 9 -41 21 -153 27 -248 11 -194 31 -263 101 -357 70 -96 258 -259 368 -321 18 -10 41 -23 50 -29 139 -86 617 -325 650 -325 5 0 34 -11 65 -25 207 -92 617 -208 903 -256 272 -45 367 -53 688 -53 324 0 407 7 653 54 609 115 1051 441 1139 840 8 36 15 106 15 155 3 198 -53 368 -204 632 -105 182 -130 298 -89 408 35 93 91 158 251 290 168 138 259 249 367 445 24 43 83 185 111 265 82 236 126 598 103 859 -28 321 -82 521 -208 771 -21 43 -168 271 -183 285 -3 3 -35 43 -72 90 -36 47 -76 97 -89 112 -13 15 -33 44 -44 65 -62 120 -177 255 -345 407 -36 32 -81 73 -100 91 -19 17 -64 56 -100 85 -36 30 -67 56 -70 60 -3 3 -30 25 -60 50 -30 25 -57 47 -60 50 -3 3 -23 20 -45 39 -44 38 -257 234 -289 267 -216 222 -257 268 -355 406 -133 188 -209 374 -246 606 -8 51 -22 256 -30 455 -20 471 -58 754 -120 891 -22 50 -58 96 -74 96 -4 0 -34 45 -67 100 -32 55 -62 100 -66 100 -5 0 -8 6 -8 14 0 8 -3 16 -7 18 -5 2 -35 38 -67 81 -33 42 -69 88 -80 100 -12 13 -50 57 -86 98 -122 140 -529 556 -607 620 -17 15 -45 49 -62 76 -17 27 -56 73 -88 103 -101 95 -349 290 -369 290 -4 0 -15 6 -23 14 -23 20 -194 107 -284 144 -166 69 -334 115 -407 111 -49 -3 -75 2 -220 36 -52 13 -126 28 -165 35 -38 6 -101 18 -140 25 -38 8 -108 19 -155 25 -47 7 -125 18 -175 26 -49 7 -137 18 -195 24 -58 6 -161 17 -230 25 -122 14 -179 19 -540 49 -242 21 -692 52 -1095 76 -404 24 -871 57 -1085 76 -490 42 -677 61 -1215 125 -49 5 -117 14 -150 19 -33 5 -100 14 -150 20 -429 50 -1166 180 -1395 246 -30 9 -68 19 -85 23 -16 5 -65 25 -108 45 -141 65 -598 206 -670 206 -8 0 -34 9 -59 20 -24 11 -82 24 -129 29 -74 9 -180 31 -289 61 -42 11 -308 64 -400 79 -174 28 -214 34 -335 47 -161 17 -483 16 -588 -1z"/>
 </g>
<g id="layer102" fill="#626262" stroke="none">
 <path d="M2070 12843 c-70 -5 -80 -12 -41 -29 18 -8 41 -14 50 -14 10 0 32 -13 50 -29 18 -16 44 -32 59 -35 77 -19 198 -36 287 -42 112 -6 151 -13 350 -59 39 -9 88 -21 110 -26 22 -4 105 -24 185 -43 80 -19 183 -44 230 -55 47 -11 144 -34 215 -51 72 -17 177 -42 235 -56 58 -14 143 -34 190 -45 47 -11 142 -36 211 -55 70 -19 141 -34 159 -34 33 0 33 0 15 20 -22 24 -78 57 -269 157 -232 122 -316 159 -488 217 -148 49 -396 116 -431 116 -8 0 -35 9 -59 20 -25 11 -87 24 -139 30 -86 10 -815 20 -919 13z"/>
 <path d="M2080 12149 c-121 -7 -233 -35 -317 -78 -195 -99 -329 -281 -422 -573 -39 -122 -81 -297 -100 -413 -6 -33 -17 -100 -25 -150 -9 -49 -20 -128 -25 -175 -6 -47 -17 -143 -25 -215 -9 -71 -20 -184 -26 -250 -5 -66 -16 -194 -24 -285 -8 -91 -20 -232 -27 -315 -17 -211 -18 -760 -1 -850 51 -268 165 -444 437 -673 50 -42 92 -79 95 -82 16 -19 198 -156 276 -207 288 -190 762 -416 1194 -569 102 -36 445 -141 550 -168 56 -15 210 -55 280 -74 41 -11 120 -32 175 -47 86 -23 306 -86 400 -116 17 -5 71 -21 120 -35 178 -51 494 -163 626 -221 368 -161 564 -311 693 -533 57 -96 92 -192 140 -370 55 -208 68 -251 106 -340 72 -167 131 -259 254 -388 141 -148 306 -254 586 -377 237 -104 516 -278 745 -464 44 -36 82 -68 85 -71 3 -3 46 -41 95 -85 108 -94 290 -286 390 -410 247 -305 396 -426 555 -454 126 -21 303 28 621 172 231 106 526 198 723 227 112 17 327 15 406 -4 178 -41 282 -132 328 -286 6 -19 13 -78 17 -130 13 -195 45 -316 119 -457 57 -105 114 -180 206 -266 83 -79 152 -125 264 -178 119 -55 220 -79 381 -89 225 -14 333 -48 408 -129 35 -38 46 -58 55 -107 17 -85 61 -124 182 -164 130 -42 221 -53 471 -53 405 0 724 51 1064 170 230 80 345 157 345 231 0 49 -30 87 -112 147 -118 85 -191 201 -238 376 -32 117 -40 397 -15 532 32 174 68 285 133 410 53 101 110 173 223 283 52 49 113 112 135 140 82 98 160 249 186 362 7 28 16 52 19 52 4 0 10 -44 13 -97 7 -102 30 -203 46 -203 37 0 89 163 136 426 33 189 48 288 94 619 66 487 82 677 69 826 -26 301 -132 485 -439 763 -36 32 -81 73 -100 91 -19 17 -64 56 -100 85 -36 30 -67 56 -70 60 -3 3 -30 25 -60 50 -30 25 -64 53 -75 64 -11 10 -36 30 -55 45 -34 25 -116 92 -215 176 -27 24 -95 80 -150 125 -55 46 -122 102 -150 125 -27 24 -106 89 -175 146 -69 57 -127 106 -130 109 -3 3 -30 25 -60 49 -30 25 -73 61 -94 80 l-40 36 33 -40 c19 -22 55 -62 81 -90 25 -27 87 -95 136 -151 84 -95 172 -192 359 -399 288 -317 435 -494 516 -620 62 -96 71 -118 73 -162 1 -37 0 -38 -34 -41 -127 -11 -552 294 -1113 798 -138 124 -207 178 -207 163 0 -17 152 -185 374 -416 127 -131 258 -269 290 -305 32 -37 96 -107 141 -157 227 -248 507 -611 623 -805 119 -201 174 -328 224 -519 35 -137 35 -206 -1 -91 -49 159 -166 412 -259 565 -17 28 -45 74 -62 104 -17 29 -36 59 -41 65 -5 6 -44 61 -87 121 -175 250 -353 460 -633 750 -226 233 -334 348 -438 465 -46 52 -98 111 -115 130 -111 123 -282 368 -375 535 -100 180 -228 509 -203 524 46 28 90 442 78 741 -10 279 -28 390 -66 425 -19 17 -20 17 -34 -16 -28 -67 -36 -248 -26 -594 11 -390 11 -420 5 -414 -5 6 -36 172 -53 284 -23 151 -41 274 -52 360 -6 50 -17 122 -25 160 -7 39 -19 99 -25 135 -50 270 -145 520 -268 706 -237 358 -595 564 -1232 708 -107 24 -258 54 -335 65 -77 12 -147 24 -155 26 -21 6 -433 54 -565 66 -471 41 -669 54 -1265 84 -586 29 -712 37 -1395 86 -77 5 -178 14 -225 19 -47 6 -107 10 -134 10 -98 0 -37 9 134 20 347 21 504 41 497 64 -7 22 -172 35 -597 46 -317 9 -529 9 -784 2 -191 -6 -353 -9 -360 -7 -6 3 -58 11 -116 20 -252 36 -328 49 -550 90 -198 37 -303 59 -520 110 -94 23 -128 31 -233 62 -64 19 -148 42 -185 52 -37 11 -146 44 -242 76 -390 126 -846 254 -1074 301 -282 57 -459 74 -656 63z"/>
 <path d="M5555 12093 c-72 -4 -246 -23 -272 -30 -35 -8 -28 -19 20 -31 247 -64 1436 -79 1806 -22 132 20 162 33 118 49 -73 28 -238 35 -922 36 -385 1 -722 0 -750 -2z"/>
 <path d="M8437 11860 c-187 -9 -238 -16 -262 -34 -18 -13 -18 -14 1 -23 26 -13 109 -29 234 -45 77 -10 271 -13 735 -12 530 0 651 3 765 17 143 18 210 33 210 46 0 14 -116 32 -264 42 -199 12 -1229 19 -1419 9z"/>
 <path d="M10918 11689 c-10 -5 -18 -19 -18 -30 0 -27 86 -116 157 -164 32 -21 71 -47 87 -58 15 -10 121 -67 235 -125 444 -229 706 -335 746 -302 13 11 13 16 -3 42 -9 16 -44 55 -77 86 -100 95 -351 292 -371 292 -4 0 -15 6 -23 14 -9 7 -59 36 -111 63 -263 136 -555 222 -622 182z"/>
 <path d="M13124 9793 c-36 -86 -40 -374 -9 -653 8 -69 19 -170 25 -225 57 -540 79 -690 102 -667 13 13 27 71 37 157 5 39 19 140 31 225 19 131 22 203 24 465 1 313 -3 368 -40 524 -43 180 -129 268 -170 174z"/>
 </g>
<g id="layer103" fill="#2c82c9" stroke="none">
 <path d="M2455 12839 c-202 -6 -264 -14 -307 -35 -55 -28 -1 -61 148 -90 167 -32 669 -20 779 19 37 13 65 36 65 53 0 43 -287 66 -685 53z"/>
 <path d="M2080 12149 c-121 -7 -233 -35 -317 -78 -195 -99 -329 -281 -422 -573 -39 -122 -81 -297 -100 -413 -6 -33 -17 -100 -25 -150 -9 -49 -20 -128 -25 -175 -6 -47 -17 -143 -25 -215 -9 -71 -20 -184 -26 -250 -5 -66 -16 -194 -24 -285 -8 -91 -20 -232 -27 -315 -17 -211 -18 -760 -1 -850 51 -268 165 -444 437 -673 50 -42 92 -79 95 -82 16 -19 198 -156 276 -207 288 -190 762 -416 1194 -569 102 -36 445 -141 550 -168 56 -15 210 -55 280 -74 41 -11 120 -32 175 -47 86 -23 306 -86 400 -116 17 -5 71 -21 120 -35 178 -51 494 -163 626 -221 368 -161 564 -311 693 -533 57 -96 92 -192 140 -370 55 -208 68 -251 106 -340 72 -167 131 -259 254 -388 141 -148 306 -254 586 -377 237 -104 516 -278 745 -464 44 -36 82 -68 85 -71 3 -3 46 -41 95 -85 108 -94 290 -286 390 -410 247 -305 396 -426 555 -454 126 -21 303 28 621 172 231 106 526 198 723 227 112 17 327 15 406 -4 178 -41 282 -132 328 -286 6 -19 13 -78 17 -130 13 -195 45 -316 119 -457 57 -105 114 -180 206 -266 83 -79 152 -125 264 -178 119 -55 220 -79 381 -89 225 -14 333 -48 408 -129 35 -38 46 -58 55 -107 17 -85 61 -124 182 -164 130 -42 221 -53 471 -53 405 0 724 51 1064 170 230 80 345 157 345 231 0 49 -30 87 -112 147 -118 85 -191 201 -238 376 -32 117 -40 397 -15 532 32 174 68 285 133 410 53 101 110 173 223 283 153 147 223 243 282 384 57 137 60 169 53 465 -7 268 -7 271 -41 392 -55 193 -164 440 -273 618 -17 28 -45 74 -62 104 -17 29 -36 59 -41 65 -5 6 -44 61 -87 121 -175 250 -353 460 -633 750 -226 233 -334 348 -438 465 -46 52 -98 111 -115 130 -111 123 -282 368 -375 535 -97 174 -227 508 -204 523 63 44 104 720 60 1009 -14 98 -40 167 -62 166 -17 -1 -34 -69 -45 -178 -9 -96 1 -686 15 -850 4 -51 3 -55 -5 -25 -12 43 -44 211 -58 305 -23 151 -41 274 -52 360 -6 50 -17 122 -25 160 -7 39 -19 99 -25 135 -50 270 -145 520 -268 706 -237 358 -595 564 -1232 708 -107 24 -258 54 -335 65 -77 12 -147 24 -155 26 -21 6 -433 54 -565 66 -471 41 -669 54 -1265 84 -586 29 -712 37 -1395 86 -77 5 -178 14 -225 19 -47 6 -107 10 -135 11 -87 1 -19 18 77 18 90 1 306 25 371 42 42 11 48 26 15 34 -145 32 -778 50 -1231 36 -180 -6 -333 -8 -340 -6 -7 2 -59 11 -117 20 -252 36 -328 49 -550 90 -198 37 -303 59 -520 110 -94 23 -128 31 -233 62 -64 19 -148 42 -185 52 -37 11 -146 44 -242 76 -390 126 -846 254 -1074 301 -282 57 -459 74 -656 63z"/>
 <path d="M5745 12094 c-103 -10 -229 -26 -242 -31 -45 -18 24 -37 187 -52 294 -27 382 -31 732 -31 372 0 627 14 761 43 98 21 76 35 -88 57 -68 9 -1271 22 -1350 14z"/>
 <path d="M8540 11860 c-247 -7 -329 -15 -364 -32 -100 -52 538 -108 894 -79 157 13 215 24 250 51 30 23 20 37 -36 51 -55 13 -453 18 -744 9z"/>
 <path d="M13231 9558 c-28 -76 -34 -200 -27 -550 8 -455 23 -608 56 -608 22 0 58 247 69 467 9 193 -2 509 -23 600 -21 97 -57 140 -75 91z"/>
 </g>
<g id="layer104" fill="#8c8c8c" stroke="none">
 <path d="M2455 12839 c-202 -6 -264 -14 -307 -35 -55 -28 -1 -61 148 -90 167 -32 669 -20 779 19 37 13 65 36 65 53 0 43 -287 66 -685 53z"/>
 <path d="M5745 12094 c-103 -10 -229 -26 -242 -31 -45 -18 24 -37 187 -52 294 -27 382 -31 732 -31 372 0 627 14 761 43 98 21 76 35 -88 57 -68 9 -1271 22 -1350 14z"/>
 <path d="M8540 11860 c-247 -7 -329 -15 -364 -32 -100 -52 538 -108 894 -79 157 13 215 24 250 51 30 23 20 37 -36 51 -55 13 -453 18 -744 9z"/>
 <path d="M5895 11379 c-242 -7 -400 -23 -410 -40 -7 -11 55 -27 150 -38 44 -6 125 -16 180 -23 70 -9 249 -13 600 -12 421 0 520 3 630 18 148 20 205 33 205 46 0 24 -162 39 -530 50 -356 11 -453 11 -825 -1z"/>
 <path d="M12521 9563 c-27 -52 -35 -155 -33 -438 3 -440 23 -725 52 -725 17 0 38 104 62 305 17 143 16 539 -1 675 -18 142 -55 228 -80 183z"/>
 <path d="M13231 9558 c-28 -76 -34 -200 -27 -550 8 -455 23 -608 56 -608 22 0 58 247 69 467 9 193 -2 509 -23 600 -21 97 -57 140 -75 91z"/>
 </g>

</svg>