<!DOCTYPE svg PUBLIC "-//W3C//DTD SVG 20010904//EN" "http://www.w3.org/TR/2001/REC-SVG-20010904/DTD/svg10.dtd">
<svg version="1.0" xmlns="http://www.w3.org/2000/svg" width="1600px" height="1212px" viewBox="0 0 16000 12120" preserveAspectRatio="xMidYMid meet">
<g id="layer101" fill="#010101" stroke="none">
 <path d="M7515 12017 c-17 -8 -53 -38 -80 -66 -71 -74 -218 -146 -445 -217 -549 -170 -668 -241 -843 -507 -94 -141 -210 -370 -349 -687 -32 -74 -65 -148 -73 -165 -37 -77 -142 -324 -199 -469 -217 -548 -219 -804 -10 -1086 30 -41 63 -84 72 -95 52 -61 172 -223 172 -232 0 -6 6 -16 14 -22 19 -16 28 -69 16 -91 -13 -23 -78 -37 -214 -45 -59 -3 -134 -12 -166 -19 -137 -32 -269 -124 -325 -228 -26 -47 -29 -63 -29 -138 0 -75 3 -91 29 -138 40 -74 85 -123 165 -181 38 -28 72 -51 75 -51 5 0 122 -76 138 -91 5 -4 -20 -14 -55 -22 -418 -99 -547 -158 -654 -300 -103 -137 -179 -341 -279 -742 -87 -351 -141 -495 -254 -675 -157 -251 -399 -420 -736 -514 -236 -66 -421 -85 -935 -96 -552 -12 -742 -37 -910 -119 -107 -52 -211 -156 -289 -289 -34 -57 -61 -106 -61 -108 0 -12 -88 -122 -129 -162 -61 -59 -182 -116 -311 -147 -58 -13 -138 -32 -179 -42 -41 -9 -106 -33 -145 -53 -60 -30 -74 -42 -94 -82 l-24 -48 17 -75 c22 -94 61 -141 178 -219 73 -49 255 -143 332 -172 17 -6 55 -21 85 -33 108 -42 267 -81 370 -91 220 -22 427 -73 580 -143 144 -65 144 -77 3 -305 -37 -59 -77 -133 -90 -164 -76 -188 28 -304 477 -528 124 -63 378 -181 550 -257 148 -66 217 -97 285 -128 236 -107 576 -235 732 -275 39 -10 76 -21 81 -24 5 -3 76 -17 158 -31 517 -88 1714 -94 2089 -10 238 53 266 57 410 52 146 -5 261 -28 340 -66 22 -11 51 -25 65 -30 53 -23 152 -93 203 -145 60 -61 120 -146 162 -228 74 -143 132 -207 207 -230 52 -16 193 -15 383 1 242 21 420 24 563 12 152 -14 365 -51 487 -86 150 -42 267 -65 450 -89 426 -56 651 -68 1268 -67 570 1 747 9 1017 50 67 11 289 59 300 66 3 2 39 13 80 24 70 18 267 86 424 145 37 15 106 44 152 66 46 22 94 45 106 50 13 6 32 16 42 22 11 7 45 28 75 47 123 75 191 152 191 214 0 70 -48 108 -215 173 -110 42 -141 94 -86 146 32 29 59 81 85 162 24 71 26 94 26 237 0 88 2 159 5 159 3 0 48 -23 101 -51 394 -208 600 -293 929 -383 395 -109 828 -147 1040 -92 92 25 185 75 240 131 74 73 90 112 90 215 -1 75 -5 91 -30 138 -46 82 -120 151 -282 258 -81 55 -152 101 -158 103 -5 2 -111 76 -235 165 -641 456 -1134 870 -1154 966 -20 101 5 184 90 301 110 153 140 238 132 377 -8 133 -68 205 -206 248 -123 38 -172 91 -152 166 10 37 53 115 70 128 3 3 14 16 23 29 9 14 33 43 54 65 21 23 51 59 68 81 16 22 32 42 37 45 13 10 86 149 108 208 32 85 42 148 35 236 -16 193 -112 341 -305 468 -132 86 -353 192 -520 248 -30 11 -92 33 -138 49 -176 65 -194 78 -172 136 10 27 127 148 235 245 356 318 456 434 472 546 7 57 -9 96 -55 128 -118 81 -360 107 -897 97 -176 -3 -321 -5 -323 -5 -2 1 72 38 164 83 214 106 325 175 414 259 80 74 109 123 111 179 7 197 -390 438 -946 573 -88 21 -176 41 -195 44 -19 3 -91 15 -160 26 -69 10 -163 24 -210 30 -276 32 -449 78 -566 147 -78 47 -85 53 -294 263 -107 108 -217 214 -245 236 -27 21 -52 42 -55 45 -11 13 -172 110 -237 143 -123 61 -160 76 -438 168 -115 39 -221 76 -235 83 -14 8 -59 30 -100 50 -195 96 -399 274 -517 450 -111 167 -168 297 -282 640 -93 280 -110 325 -180 468 -72 147 -149 271 -230 371 -53 65 -74 85 -141 140 -64 51 -180 77 -235 53z"/>
 </g>
<g id="layer102" fill="#2c82c9" stroke="none">
 <path d="M7410 11714 c-103 -38 -99 -36 -405 -152 -115 -44 -259 -96 -318 -116 -60 -20 -122 -43 -137 -51 -64 -33 -232 -290 -407 -620 -56 -105 -236 -468 -271 -545 -153 -340 -249 -585 -297 -757 -46 -169 -31 -294 55 -432 38 -63 59 -90 228 -295 46 -56 98 -121 115 -146 17 -25 34 -47 37 -50 24 -19 72 -132 77 -180 5 -49 2 -59 -21 -86 -42 -51 -131 -81 -441 -149 -87 -19 -232 -59 -280 -77 -82 -31 -125 -90 -99 -139 24 -47 116 -120 214 -169 115 -58 191 -116 213 -163 72 -152 -89 -290 -458 -393 -132 -37 -225 -85 -275 -141 -91 -104 -132 -218 -265 -738 -52 -205 -91 -323 -147 -445 -216 -468 -630 -774 -1205 -890 -200 -40 -366 -51 -813 -54 -458 -4 -558 -11 -675 -53 -139 -51 -201 -109 -340 -320 -109 -165 -204 -267 -321 -343 -109 -71 -153 -90 -359 -150 -99 -29 -181 -53 -182 -54 -5 -4 378 -177 448 -202 171 -62 320 -95 538 -119 154 -16 240 -38 348 -86 90 -40 216 -125 280 -189 81 -80 84 -137 13 -286 -85 -180 -92 -199 -97 -253 -11 -129 71 -212 350 -354 67 -35 163 -80 212 -101 50 -21 113 -48 140 -61 128 -58 751 -311 955 -388 155 -59 403 -139 485 -156 28 -6 72 -15 100 -21 96 -22 322 -40 490 -40 337 0 944 42 1220 85 50 8 122 19 160 25 39 6 111 17 160 25 266 44 584 -10 789 -133 135 -80 215 -171 329 -372 34 -61 103 -137 141 -157 80 -41 118 -45 566 -54 525 -9 720 -26 990 -84 230 -50 357 -74 445 -85 50 -6 97 -13 105 -15 8 -2 114 -12 235 -22 270 -22 1051 -24 1290 -4 304 25 520 55 714 96 93 21 404 123 541 180 211 86 283 139 265 195 -10 30 -92 78 -220 128 -207 81 -295 138 -295 192 0 40 69 83 194 121 167 50 206 75 244 157 22 48 26 76 33 206 18 374 86 405 447 199 276 -157 559 -274 867 -357 270 -74 447 -104 650 -113 230 -9 356 21 399 96 19 33 19 34 0 69 -20 37 -192 199 -297 279 -34 26 -68 53 -76 61 -12 12 -67 53 -276 207 -38 29 -149 107 -245 175 -485 343 -787 594 -895 745 -79 110 -99 160 -99 250 -1 69 3 89 30 145 17 36 51 89 75 119 120 148 148 200 149 274 0 53 -16 91 -52 123 -29 26 -67 40 -147 53 -111 18 -136 59 -135 216 1 92 5 123 29 190 40 117 90 198 194 315 84 95 169 289 156 359 -33 182 -286 403 -607 530 -40 16 -143 48 -228 71 -176 47 -275 94 -317 149 -24 31 -28 45 -28 101 1 58 5 72 41 131 59 95 151 195 358 389 147 137 256 270 256 312 0 11 -11 23 -26 28 -45 17 -240 40 -428 50 -371 20 -483 30 -560 50 -107 27 -175 66 -193 109 -13 31 -13 37 9 80 51 97 206 184 620 347 98 38 178 71 178 74 0 3 -44 31 -98 63 -53 32 -140 84 -192 116 -246 146 -601 247 -1135 321 -152 21 -335 60 -438 94 -211 69 -327 146 -547 362 -85 84 -182 173 -215 199 -138 107 -368 232 -550 299 -392 144 -502 194 -656 297 -191 127 -372 334 -477 545 -93 185 -118 246 -220 529 -96 266 -162 424 -237 569 -84 164 -140 232 -232 279 -52 27 -134 21 -243 -19z"/>
 </g>

</svg>