<!DOCTYPE svg PUBLIC "-//W3C//DTD SVG 20010904//EN" "http://www.w3.org/TR/2001/REC-SVG-20010904/DTD/svg10.dtd">
<svg version="1.0" xmlns="http://www.w3.org/2000/svg" width="1600px" height="957px" viewBox="0 0 16000 9570" preserveAspectRatio="xMidYMid meet">
<g id="layer101" fill="#010101" stroke="none">
 <path d="M13205 9381 c-106 -38 -182 -76 -350 -177 -238 -142 -508 -324 -614 -413 -11 -9 -30 -25 -43 -35 -127 -104 -289 -263 -426 -419 -50 -57 -167 -221 -204 -285 -125 -220 -319 -429 -543 -583 -123 -85 -294 -172 -529 -268 -56 -23 -322 -109 -436 -141 -311 -87 -472 -146 -675 -250 -179 -91 -365 -203 -452 -274 -218 -177 -290 -229 -378 -273 -86 -44 -122 -53 -208 -53 -94 0 -156 14 -372 85 -263 87 -368 101 -525 70 -97 -19 -290 -83 -403 -133 -27 -12 -50 -22 -52 -22 -5 0 -131 -59 -265 -122 -132 -63 -591 -293 -770 -385 -74 -39 -207 -107 -295 -153 -88 -45 -187 -97 -220 -115 -33 -18 -89 -48 -125 -67 -36 -19 -82 -45 -102 -56 -21 -12 -68 -38 -105 -58 -191 -104 -260 -144 -398 -227 -238 -144 -284 -180 -324 -251 -39 -68 -113 -332 -141 -496 -42 -256 -104 -414 -270 -695 -61 -103 -221 -341 -288 -430 -25 -33 -66 -87 -91 -120 -48 -64 -171 -217 -181 -225 -3 -3 -41 -48 -85 -100 -164 -195 -426 -459 -690 -695 -43 -38 -89 -79 -101 -90 -12 -11 -55 -49 -95 -85 -41 -35 -121 -110 -179 -165 -230 -219 -339 -345 -372 -430 -69 -174 39 -248 497 -344 100 -20 284 -41 470 -51 105 -6 255 -15 335 -20 80 -6 341 -15 580 -20 453 -11 554 -17 338 -19 -132 -1 -176 -14 -85 -25 321 -38 1620 -38 1861 0 73 12 14 24 -124 25 l-135 2 90 8 c50 4 170 7 268 8 268 2 874 39 1012 63 199 34 486 73 755 103 80 8 168 20 196 26 135 26 188 119 164 285 -15 107 -34 162 -80 233 -45 70 -100 110 -167 122 -75 14 -101 28 -132 73 -54 82 -96 218 -130 431 -37 233 -50 352 -87 813 -25 303 -15 601 27 852 39 232 125 443 253 620 97 134 360 362 476 411 14 5 39 17 55 25 134 67 449 137 690 154 252 18 432 -15 484 -89 10 -14 45 -78 77 -141 63 -123 122 -225 253 -440 147 -238 210 -318 296 -375 141 -94 261 -117 618 -117 248 0 341 8 527 43 93 18 193 61 215 92 33 48 4 194 -81 407 -15 36 -35 88 -46 115 -25 61 -58 133 -155 335 -74 153 -136 283 -186 390 -35 76 -120 283 -147 356 -28 80 -24 102 25 135 62 43 311 113 490 139 44 6 121 18 170 25 50 8 128 19 175 26 119 16 346 58 400 73 25 8 65 19 90 26 25 7 91 35 146 62 166 81 247 179 295 358 21 76 23 107 23 285 -1 110 -8 268 -17 350 -63 588 -39 775 131 1020 161 233 334 401 455 441 63 21 155 21 257 0 73 -15 111 -25 255 -64 326 -90 505 -112 625 -76 122 36 160 85 160 206 0 60 -6 88 -34 155 -57 138 -167 285 -224 300 -14 3 -44 1 -67 -5 -83 -22 -220 30 -415 157 -30 20 -57 39 -60 42 -16 19 -193 116 -247 136 -93 34 -202 32 -308 -6z"/>
 </g>
<g id="layer102" fill="#656565" stroke="none">
 <path d="M12565 8648 c-65 -23 -196 -120 -301 -224 -181 -178 -277 -311 -398 -549 -109 -214 -166 -292 -316 -430 -169 -154 -368 -280 -653 -409 -43 -20 -80 -36 -82 -36 -3 0 -28 -11 -57 -24 -65 -29 -110 -46 -208 -81 -41 -15 -91 -33 -110 -40 -19 -7 -107 -34 -195 -59 -159 -47 -193 -58 -375 -121 -115 -41 -314 -129 -419 -186 -118 -65 -189 -116 -271 -194 -331 -317 -517 -436 -748 -481 -167 -32 -340 -2 -535 93 -179 87 -212 97 -337 97 -119 0 -147 -6 -350 -79 -121 -44 -864 -406 -1190 -581 -47 -25 -143 -76 -215 -113 -845 -444 -1087 -621 -1185 -870 -20 -52 -57 -202 -80 -331 -69 -379 -209 -672 -491 -1027 -67 -84 -200 -246 -209 -253 -4 -3 -46 -50 -95 -105 -85 -94 -323 -348 -570 -605 -60 -64 -171 -183 -245 -265 -271 -299 -369 -420 -351 -438 31 -31 702 -57 1431 -57 395 1 1618 24 2030 40 450 16 884 49 1008 75 54 11 73 20 98 48 37 40 72 128 86 212 26 169 20 591 -17 1060 -7 99 -19 252 -26 340 -7 88 -13 288 -13 445 -1 241 2 299 18 375 43 210 128 374 350 675 77 106 290 328 376 393 30 23 57 45 60 48 21 26 229 153 335 204 387 187 740 224 1077 111 133 -45 244 -113 354 -219 104 -100 155 -170 245 -342 210 -402 352 -539 604 -585 33 -6 167 -13 297 -17 l237 -6 -74 179 c-42 98 -79 188 -85 199 -24 51 -190 448 -190 456 0 4 -7 23 -15 41 -25 56 -106 288 -142 408 -90 297 -116 440 -94 519 48 172 427 313 906 336 477 22 589 34 696 74 120 46 189 117 231 240 21 61 23 83 23 281 0 148 -6 259 -18 355 -32 250 -36 288 -48 445 -10 118 -10 182 -1 267 19 187 59 269 216 441 92 102 156 200 156 241 0 38 -60 52 -125 29z"/>
 <path d="M4050 1220 c-457 -9 -436 -8 -424 -19 44 -43 2196 -46 2484 -4 l45 7 -35 9 c-44 11 -1581 17 -2070 7z"/>
 <path d="M4120 793 c-68 -2 -128 -7 -133 -12 -48 -48 1616 -60 1907 -15 35 6 37 8 20 17 -19 11 -1497 19 -1794 10z"/>
 </g>
<g id="layer103" fill="#2c82c9" stroke="none">
 <path d="M12565 8648 c-65 -23 -196 -120 -301 -224 -181 -178 -277 -311 -398 -549 -109 -214 -166 -292 -316 -430 -169 -154 -368 -280 -653 -409 -43 -20 -80 -36 -82 -36 -3 0 -28 -11 -57 -24 -65 -29 -110 -46 -208 -81 -41 -15 -91 -33 -110 -40 -19 -7 -107 -34 -195 -59 -159 -47 -193 -58 -375 -121 -115 -41 -314 -129 -419 -186 -118 -65 -189 -116 -271 -194 -331 -317 -517 -436 -748 -481 -167 -32 -340 -2 -535 93 -179 87 -212 97 -337 97 -119 0 -147 -6 -350 -79 -121 -44 -864 -406 -1190 -581 -47 -25 -143 -76 -215 -113 -845 -444 -1087 -621 -1185 -870 -20 -52 -57 -202 -80 -331 -69 -379 -209 -672 -491 -1027 -67 -84 -200 -246 -209 -253 -4 -3 -46 -50 -95 -105 -85 -94 -323 -348 -570 -605 -60 -64 -171 -183 -245 -265 -271 -299 -369 -420 -351 -438 31 -31 702 -57 1431 -57 395 1 1618 24 2030 40 450 16 884 49 1008 75 54 11 73 20 98 48 37 40 72 128 86 212 26 169 20 591 -17 1060 -7 99 -19 252 -26 340 -7 88 -13 288 -13 445 -1 241 2 299 18 375 43 210 128 374 350 675 77 106 290 328 376 393 30 23 57 45 60 48 21 26 229 153 335 204 387 187 740 224 1077 111 133 -45 244 -113 354 -219 104 -100 155 -170 245 -342 210 -402 352 -539 604 -585 33 -6 167 -13 297 -17 l237 -6 -74 179 c-42 98 -79 188 -85 199 -24 51 -190 448 -190 456 0 4 -7 23 -15 41 -25 56 -106 288 -142 408 -90 297 -116 440 -94 519 48 172 427 313 906 336 477 22 589 34 696 74 120 46 189 117 231 240 21 61 23 83 23 281 0 148 -6 259 -18 355 -32 250 -36 288 -48 445 -10 118 -10 182 -1 267 19 187 59 269 216 441 92 102 156 200 156 241 0 38 -60 52 -125 29z"/>
 <path d="M4358 1221 c-310 -9 -298 -21 42 -42 353 -21 1517 -9 1700 18 45 6 45 7 15 15 -37 11 -1456 18 -1757 9z"/>
 <path d="M4120 793 c-68 -2 -128 -7 -133 -12 -48 -48 1616 -60 1907 -15 35 6 37 8 20 17 -19 11 -1497 19 -1794 10z"/>
 </g>
<g id="layer104" fill="#919191" stroke="none">
 <path d="M4358 1221 c-310 -9 -298 -21 42 -42 353 -21 1517 -9 1700 18 45 6 45 7 15 15 -37 11 -1456 18 -1757 9z"/>
 <path d="M4120 793 c-68 -2 -128 -7 -133 -12 -48 -48 1616 -60 1907 -15 35 6 37 8 20 17 -19 11 -1497 19 -1794 10z"/>
 </g>

</svg>