<!DOCTYPE svg PUBLIC "-//W3C//DTD SVG 20010904//EN" "http://www.w3.org/TR/2001/REC-SVG-20010904/DTD/svg10.dtd">
<svg version="1.0" xmlns="http://www.w3.org/2000/svg" width="1600px" height="1369px" viewBox="0 0 16000 13690" preserveAspectRatio="xMidYMid meet">
<g id="layer101" fill="#070707" stroke="none">
 <path d="M8060 13349 c-19 -4 -48 -11 -64 -15 -45 -11 -146 -119 -188 -202 -59 -114 -102 -225 -146 -377 -72 -245 -121 -478 -122 -570 0 -43 -23 -143 -42 -185 -92 -205 -231 -374 -415 -503 -96 -67 -145 -83 -157 -51 -5 14 -16 16 -71 10 -36 -4 -75 -10 -88 -15 -138 -54 -147 -57 -307 -134 -364 -173 -494 -212 -715 -211 -124 1 -150 4 -225 28 -47 16 -121 47 -165 70 -75 40 -265 175 -345 246 -52 46 -218 153 -275 177 -239 101 -496 82 -956 -71 -311 -103 -437 -128 -536 -107 -104 22 -182 64 -298 161 -234 195 -315 244 -405 245 -119 0 -183 -88 -246 -337 -24 -96 -30 -135 -60 -348 -47 -339 -78 -915 -134 -2500 -6 -162 -15 -392 -20 -510 -10 -207 -18 -427 -40 -1022 l-10 -277 -84 -169 c-47 -93 -98 -198 -115 -233 -16 -35 -46 -79 -66 -98 -73 -70 -180 -275 -315 -601 -40 -96 -92 -220 -117 -275 -24 -55 -54 -122 -66 -150 -38 -86 -202 -405 -320 -620 -86 -158 -100 -183 -136 -248 -17 -32 -44 -81 -60 -110 -15 -28 -64 -115 -108 -192 -44 -77 -93 -162 -108 -190 -44 -79 -145 -234 -195 -300 -121 -158 -164 -339 -165 -690 0 -226 21 -576 35 -585 7 -5 11 -22 44 -185 78 -387 237 -780 395 -974 50 -62 136 -129 179 -140 20 -6 84 -17 142 -25 58 -8 114 -18 125 -21 68 -23 158 -65 205 -96 91 -60 113 -64 330 -64 297 0 595 46 965 150 170 47 306 106 406 175 73 52 100 65 224 113 151 59 299 101 450 127 119 21 342 86 570 167 89 31 110 40 380 168 82 39 288 114 395 145 120 34 217 66 340 109 63 23 131 45 150 50 490 128 778 185 1051 212 227 22 504 -20 994 -151 122 -33 319 -96 525 -168 129 -46 340 -108 475 -142 156 -38 485 -111 590 -130 28 -5 88 -16 135 -24 521 -96 1077 -144 1540 -133 372 9 494 44 798 230 264 161 470 221 917 264 128 12 372 16 1236 20 l1077 5 4 471 c5 437 7 477 26 547 11 41 25 86 30 100 17 43 88 125 143 166 30 21 56 41 59 44 8 9 118 67 210 111 127 61 242 120 270 139 14 9 50 33 80 53 135 89 260 221 307 325 22 47 24 63 21 160 -3 100 -5 109 -33 147 -89 121 -146 149 -545 274 -100 31 -214 72 -265 95 -16 8 -55 24 -85 37 -58 25 -144 68 -226 114 -191 108 -271 141 -394 161 -198 32 -350 -42 -415 -203 -23 -58 -28 -90 -35 -218 -5 -83 -12 -157 -15 -166 -3 -9 -17 -22 -30 -29 -45 -24 -150 10 -403 131 -529 254 -648 323 -780 452 -111 109 -148 212 -157 447 -11 250 -44 360 -138 455 -77 77 -180 128 -372 185 -39 11 -147 36 -260 59 -49 10 -121 27 -160 38 -299 86 -473 276 -728 794 -93 189 -118 248 -178 414 -22 61 -46 126 -54 145 -41 104 -87 248 -135 415 -27 98 -65 278 -90 427 -24 150 -60 294 -89 361 -12 27 -21 52 -21 57 0 5 -17 37 -37 72 -100 170 -239 307 -488 481 -60 42 -115 81 -122 87 -7 5 -15 10 -18 10 -3 0 -36 22 -75 50 -39 27 -72 50 -75 50 -3 0 -42 27 -87 60 -46 33 -119 86 -163 117 -44 31 -82 59 -85 62 -3 3 -77 60 -165 126 -88 65 -162 122 -165 125 -3 3 -34 28 -69 55 -67 53 -193 156 -201 165 -3 3 -43 37 -90 75 -47 38 -94 78 -105 88 -11 10 -59 51 -108 90 -74 62 -86 76 -83 97 23 126 59 320 72 385 16 81 20 103 48 255 9 47 27 141 40 210 13 69 30 157 36 195 7 39 18 102 25 140 8 39 21 114 30 168 9 54 18 104 20 110 2 7 11 71 20 142 9 72 23 177 31 235 10 66 16 180 16 310 1 223 -14 316 -67 419 -30 59 -102 126 -169 157 -81 37 -217 52 -296 33z"/>
 </g>
<g id="layer102" fill="#646465" stroke="none">
 <path d="M8166 12979 c-50 -59 -84 -132 -191 -404 -56 -142 -125 -436 -125 -532 -1 -164 -93 -356 -276 -573 -192 -229 -396 -368 -574 -391 -148 -20 -368 -100 -496 -181 -205 -130 -365 -178 -595 -178 -254 0 -500 59 -759 183 -103 50 -280 163 -335 214 -52 49 -196 151 -250 178 -57 28 -66 30 -190 29 -137 0 -157 -4 -375 -72 -421 -132 -747 -182 -1186 -182 l-204 0 -1 -1572 c0 -865 -4 -1649 -9 -1743 -11 -204 -28 -387 -38 -397 -4 -4 -3 39 2 95 13 142 12 1397 -2 1882 -6 220 -17 639 -24 930 -15 626 -21 555 -32 -390 -12 -966 -40 -1909 -72 -2375 -36 -527 -51 -653 -94 -781 -12 -34 -20 -71 -18 -82 2 -17 9 -12 40 28 21 27 38 43 38 36 0 -35 -182 -484 -335 -826 -8 -16 -53 -118 -100 -225 -48 -107 -96 -215 -107 -240 -11 -25 -29 -65 -40 -90 -11 -25 -35 -76 -52 -115 -18 -38 -50 -110 -72 -159 -29 -66 -40 -83 -42 -65 -7 46 -21 44 -73 -11 -57 -62 -75 -91 -154 -244 -32 -61 -94 -175 -139 -255 -46 -80 -95 -168 -109 -194 -54 -96 -212 -355 -287 -467 -128 -193 -199 -321 -244 -432 -29 -73 -34 -128 -12 -128 16 0 127 116 175 182 19 27 37 46 39 43 3 -2 0 -10 -5 -17 -16 -20 -89 -205 -112 -284 -47 -159 -55 -229 -55 -454 1 -225 7 -276 58 -490 34 -144 82 -287 165 -490 112 -275 172 -365 279 -417 54 -27 63 -28 197 -28 234 1 350 26 850 182 414 129 1150 384 1465 508 19 7 80 30 135 50 55 20 116 43 135 50 19 8 109 41 200 75 91 34 181 67 200 75 464 180 1041 375 1430 483 371 103 746 143 1038 111 264 -28 462 -78 937 -234 355 -117 1084 -317 1400 -385 33 -7 85 -18 115 -26 64 -15 381 -74 520 -98 235 -39 568 -67 814 -69 123 -1 223 -3 222 -4 -1 -1 -62 -11 -136 -22 -74 -12 -148 -24 -165 -27 -16 -3 -88 -9 -160 -14 -71 -4 -164 -13 -205 -19 -41 -6 -140 -17 -220 -24 l-145 -13 280 -10 c941 -31 1162 11 1350 256 49 64 75 112 75 138 0 12 26 34 82 68 270 164 459 248 592 265 83 11 193 47 256 83 33 18 169 122 180 137 3 3 21 15 40 25 29 16 55 19 150 18 97 -1 128 -5 195 -28 110 -37 342 -127 514 -198 472 -196 739 -257 865 -197 97 45 127 146 108 357 -21 219 -9 372 38 512 111 328 335 504 770 605 203 48 310 114 310 192 0 30 -8 44 -47 81 -25 25 -74 57 -107 72 -65 30 -245 85 -311 96 -130 21 -578 155 -704 210 -60 27 -111 31 -111 10 0 -7 12 -29 28 -48 192 -248 238 -323 248 -401 8 -67 -38 -105 -151 -126 -265 -49 -856 60 -1249 230 -202 88 -495 264 -671 405 -158 125 -250 232 -308 354 -27 58 -30 76 -31 160 -1 67 4 112 18 153 36 114 -11 221 -146 329 -138 111 -383 191 -623 204 -124 7 -180 23 -265 73 -167 99 -327 311 -495 656 -101 206 -171 383 -264 660 -120 361 -176 566 -290 1057 -22 97 -51 203 -62 235 -81 219 -371 495 -799 758 -52 32 -126 78 -165 103 -73 47 -88 56 -225 143 -455 287 -686 490 -808 709 -90 160 -126 375 -103 614 13 141 37 317 51 381 10 42 62 317 105 550 14 77 30 158 35 180 12 52 59 367 71 470 17 159 28 433 19 491 -15 90 -40 106 -84 53z"/>
 <path d="M2225 10645 c-10 -105 -10 -2117 0 -2220 39 -401 72 1438 36 2030 -15 261 -24 309 -36 190z"/>
 <path d="M1790 6373 c-78 -54 -190 -260 -340 -623 -68 -163 -127 -300 -170 -395 -124 -267 -173 -435 -128 -435 57 0 285 415 508 925 44 99 105 259 136 352 50 153 48 213 -6 176z"/>
 <path d="M566 3832 c-42 -9 -152 -95 -243 -191 -60 -63 -112 -243 -133 -458 -10 -110 -6 -475 7 -693 l7 -105 7 70 c4 39 12 111 18 160 5 50 15 135 20 190 6 55 15 120 20 145 5 25 15 74 22 110 42 226 120 469 180 558 18 26 36 49 39 52 14 11 70 100 80 126 12 31 4 43 -24 36z"/>
 <path d="M6580 2420 c-160 -13 -240 -26 -240 -39 0 -13 100 -29 263 -42 225 -18 497 9 497 50 0 16 -33 22 -150 32 -126 9 -240 9 -370 -1z"/>
 <path d="M5580 2264 c-287 -66 -590 -182 -805 -307 -161 -95 -123 -118 105 -65 94 22 308 86 410 123 36 13 85 30 110 38 25 9 72 27 104 41 32 14 63 26 69 26 21 0 234 110 252 130 16 18 17 23 5 30 -26 17 -142 9 -250 -16z"/>
 <path d="M4370 1805 c-30 -7 -91 -22 -135 -34 -44 -12 -145 -40 -225 -62 -246 -68 -431 -134 -562 -200 -67 -34 -74 -42 -51 -65 15 -15 31 -16 128 -11 296 17 749 174 888 307 83 81 76 93 -43 65z"/>
 </g>
<g id="layer103" fill="#2c82c9" stroke="none">
 <path d="M8166 12979 c-50 -59 -84 -132 -191 -404 -56 -142 -125 -436 -125 -532 -1 -164 -93 -356 -276 -573 -192 -229 -396 -368 -574 -391 -148 -20 -368 -100 -496 -181 -205 -130 -365 -178 -595 -178 -254 0 -500 59 -759 183 -103 50 -280 163 -335 214 -52 49 -196 151 -250 178 -57 28 -66 30 -190 29 -137 0 -157 -4 -375 -72 -421 -132 -747 -182 -1186 -182 l-203 0 -4 -1702 c-4 -1734 -4 -1732 -42 -2003 -8 -55 -19 -147 -25 -205 -14 -123 -44 -277 -65 -326 -8 -19 -25 -49 -38 -66 -14 -18 -28 -44 -32 -58 -34 -114 -195 -510 -340 -835 -8 -16 -53 -118 -100 -225 -48 -107 -96 -215 -107 -240 -11 -25 -29 -65 -40 -90 -11 -25 -31 -67 -43 -95 -67 -144 -165 -365 -165 -371 0 -19 -190 -405 -278 -564 -63 -116 -205 -364 -236 -413 -267 -432 -290 -475 -351 -661 -59 -180 -69 -256 -69 -496 1 -225 7 -276 58 -490 34 -144 82 -287 165 -490 112 -275 172 -365 279 -417 54 -27 63 -28 197 -28 234 1 350 26 850 182 414 129 1150 384 1465 508 19 7 80 30 135 50 55 20 116 43 135 50 19 8 109 41 200 75 91 34 181 67 200 75 464 180 1041 375 1430 483 371 103 746 143 1038 111 264 -28 462 -78 937 -234 355 -117 1084 -317 1400 -385 33 -7 85 -18 115 -26 146 -34 570 -108 705 -123 325 -36 430 -43 650 -44 215 -1 250 1 332 21 206 49 292 86 373 162 66 61 125 100 154 100 13 0 62 23 108 51 247 153 450 243 582 260 83 11 193 47 256 83 33 18 169 122 180 137 3 3 21 15 40 25 29 16 55 19 150 18 97 -1 128 -5 195 -28 110 -37 342 -127 514 -198 472 -196 739 -257 865 -197 97 45 127 146 108 357 -21 219 -9 372 38 512 111 328 335 504 770 605 203 48 310 114 310 192 0 30 -8 44 -47 81 -25 25 -74 57 -107 72 -65 30 -245 85 -311 96 -130 21 -578 155 -704 210 -60 27 -111 31 -111 10 0 -7 12 -29 28 -48 192 -248 238 -323 248 -401 8 -67 -38 -105 -151 -126 -265 -49 -856 60 -1249 230 -202 88 -495 264 -671 405 -158 125 -250 232 -308 354 -27 58 -30 76 -31 160 -1 67 4 112 18 153 36 114 -11 221 -146 329 -138 111 -383 191 -623 204 -124 7 -180 23 -265 73 -167 99 -327 311 -495 656 -101 206 -171 383 -264 660 -120 361 -176 566 -290 1057 -22 97 -51 203 -62 235 -81 219 -371 495 -799 758 -52 32 -126 78 -165 103 -73 47 -88 56 -225 143 -455 287 -686 490 -808 709 -90 160 -126 375 -103 614 13 141 37 317 51 381 10 42 62 317 105 550 14 77 30 158 35 180 12 52 59 367 71 470 17 159 28 433 19 491 -15 90 -40 106 -84 53z"/>
 <path d="M6570 2419 c-106 -10 -120 -14 -120 -29 0 -40 255 -69 446 -51 132 13 195 28 201 48 11 34 -302 52 -527 32z"/>
 <path d="M10420 1950 c-107 -5 -206 -12 -220 -18 -23 -9 -23 -9 -5 -19 57 -30 374 -49 561 -34 163 13 224 36 160 61 -38 14 -280 19 -496 10z"/>
 </g>
<g id="layer104" fill="#8c8c8c" stroke="none">
 <path d="M6570 2419 c-106 -10 -120 -14 -120 -29 0 -40 255 -69 446 -51 132 13 195 28 201 48 11 34 -302 52 -527 32z"/>
 <path d="M10420 1950 c-107 -5 -206 -12 -220 -18 -23 -9 -23 -9 -5 -19 57 -30 374 -49 561 -34 163 13 224 36 160 61 -38 14 -280 19 -496 10z"/>
 </g>

</svg>