<!DOCTYPE svg PUBLIC "-//W3C//DTD SVG 20010904//EN" "http://www.w3.org/TR/2001/REC-SVG-20010904/DTD/svg10.dtd">
<svg version="1.0" xmlns="http://www.w3.org/2000/svg" width="1600px" height="1333px" viewBox="0 0 16000 13330" preserveAspectRatio="xMidYMid meet">
<g id="layer101" fill="#070707" stroke="none">
 <path d="M5790 12770 c-80 -15 -120 -50 -175 -155 -46 -86 -72 -115 -138 -151 -48 -26 -60 -28 -152 -27 -58 0 -126 7 -161 17 -94 25 -210 21 -265 -7 -46 -24 -50 -31 -78 -150 -27 -113 -100 -232 -253 -412 -45 -53 -360 -494 -474 -665 -28 -41 -69 -102 -91 -135 -22 -33 -113 -169 -201 -302 -165 -248 -203 -300 -333 -457 -134 -161 -294 -309 -414 -383 -110 -67 -176 -97 -330 -148 -218 -72 -285 -110 -402 -225 -40 -40 -108 -120 -139 -165 -70 -101 -137 -203 -146 -220 -5 -11 -14 -29 -21 -40 -51 -85 -119 -206 -164 -290 -109 -206 -505 -1011 -588 -1195 -24 -52 -59 -129 -78 -170 -156 -332 -243 -598 -296 -900 -56 -316 -56 -336 -53 -1570 2 -1104 -4 -1489 -31 -1875 -6 -99 -11 -211 -10 -249 4 -185 120 -313 399 -441 54 -26 106 -50 115 -55 9 -4 94 -41 190 -80 414 -171 658 -294 864 -435 98 -68 125 -82 230 -125 245 -99 589 -201 965 -286 36 -8 112 -25 170 -38 167 -38 330 -74 395 -86 33 -7 89 -18 125 -25 36 -8 92 -18 125 -24 33 -6 119 -22 190 -36 238 -46 279 -53 360 -65 44 -6 114 -18 155 -25 41 -7 111 -19 155 -25 44 -6 114 -18 155 -25 41 -8 109 -19 150 -24 41 -6 122 -17 180 -25 58 -8 146 -20 195 -26 50 -6 133 -18 185 -25 120 -18 227 -31 410 -50 277 -30 335 -36 380 -40 25 -3 104 -12 175 -20 72 -9 168 -20 215 -25 47 -6 108 -15 135 -20 59 -12 324 -53 445 -70 47 -7 110 -18 140 -25 30 -7 87 -18 125 -25 39 -6 133 -28 210 -47 201 -50 361 -81 510 -99 326 -38 379 -44 515 -54 80 -6 233 -18 340 -27 156 -12 395 -17 1183 -20 l988 -5 -5 23 c-2 13 -10 53 -16 89 -6 36 -16 85 -21 110 -5 25 -14 71 -19 103 -32 188 -71 367 -160 737 -10 41 -41 165 -70 275 -121 471 -158 626 -185 780 -26 144 -30 307 -11 398 25 121 95 277 166 372 20 28 39 55 41 60 2 6 38 62 80 125 67 102 274 440 293 480 4 8 12 24 19 35 13 22 105 184 160 285 68 122 267 530 267 546 0 5 19 49 70 159 15 33 37 81 49 108 11 26 31 68 42 95 12 26 34 74 49 107 15 33 38 83 50 110 12 28 35 77 50 110 15 33 40 89 55 125 15 36 37 88 50 115 13 28 46 104 75 170 29 66 64 147 80 180 24 54 124 301 185 460 13 33 40 107 59 165 20 57 43 111 51 120 8 9 15 22 15 28 0 7 4 12 9 12 19 0 72 128 90 220 27 133 49 349 61 590 6 113 17 300 25 415 14 205 19 338 51 1273 23 674 23 2245 1 2522 -28 336 -49 457 -87 498 -27 29 -174 32 -2475 57 -2700 29 -3690 56 -4485 120 -241 20 -343 36 -470 74 -75 22 -170 31 -220 21z m297 -162 c-8 -75 -74 -230 -228 -533 -116 -228 -167 -325 -185 -346 -8 -8 -14 -19 -14 -23 0 -11 -119 -194 -196 -301 -105 -146 -191 -218 -206 -173 -21 62 119 371 309 683 7 11 16 27 20 35 21 45 240 383 316 490 87 122 162 210 180 210 5 0 7 -19 4 -42z"/>
 </g>
<g id="layer102" fill="#636363" stroke="none">
 <path d="M8315 12418 c-154 -5 -282 -12 -284 -14 -12 -12 33 -15 340 -27 720 -26 2594 -13 2774 20 l40 7 -50 9 c-73 12 -2490 16 -2820 5z"/>
 <path d="M13005 12155 c-5 -2 -57 -11 -115 -20 -58 -8 -150 -22 -205 -30 -224 -34 -485 -67 -680 -85 -60 -5 -182 -16 -270 -24 -88 -9 -221 -20 -295 -25 -74 -6 -223 -18 -330 -26 -362 -28 -420 -30 -618 -22 -231 10 -1921 2 -1972 -9 l-35 -8 40 -7 c22 -5 146 -13 275 -19 307 -14 326 -16 140 -18 -171 -2 -794 22 -990 38 -364 30 -469 42 -995 121 -250 38 -300 45 -403 59 -46 6 -106 15 -134 20 -106 21 -88 41 -237 -252 -225 -442 -291 -556 -415 -723 -76 -101 -272 -298 -351 -351 -210 -141 -387 -160 -481 -50 -68 80 -89 222 -64 436 15 121 15 307 2 342 -16 40 -45 52 -81 34 -74 -39 -210 -235 -361 -521 -47 -90 -66 -125 -133 -245 -65 -118 -217 -352 -282 -435 -145 -185 -205 -253 -341 -389 -158 -158 -256 -241 -395 -334 -88 -59 -232 -134 -310 -161 -93 -32 -144 -60 -202 -112 -63 -56 -177 -195 -258 -314 -62 -91 -179 -273 -179 -279 0 -2 -38 -71 -85 -152 -116 -201 -450 -870 -625 -1249 -284 -616 -352 -832 -402 -1275 -34 -301 5 -2280 53 -2675 16 -138 48 -295 71 -348 32 -73 55 -87 138 -80 44 4 87 1 117 -7 128 -35 282 -130 411 -253 48 -46 116 -105 152 -131 171 -127 474 -278 780 -389 252 -92 611 -199 815 -242 315 -68 476 -91 720 -105 94 -5 213 -12 265 -15 140 -8 567 -57 795 -90 55 -8 129 -19 165 -24 81 -12 240 -36 390 -60 l115 -19 -110 -1 c-137 -2 -255 -17 -273 -34 -11 -11 -6 -16 25 -30 62 -26 169 -39 328 -38 149 1 291 17 331 39 23 12 74 5 439 -58 99 -17 207 -35 240 -40 74 -12 217 -38 525 -95 47 -9 105 -20 130 -24 25 -5 146 -29 270 -54 427 -85 521 -100 1050 -161 322 -38 680 -69 1140 -101 661 -45 884 -40 952 22 26 24 22 50 -23 133 -35 66 -67 132 -115 237 -47 102 -141 438 -173 618 -44 241 -49 312 -31 435 5 36 16 128 25 205 21 194 50 349 105 551 52 198 92 288 175 399 91 121 116 185 75 185 -28 0 -113 -55 -184 -121 l-60 -54 61 90 c33 50 95 151 138 225 43 74 99 171 125 215 26 44 60 105 77 135 111 201 207 376 243 445 24 44 50 93 60 110 9 16 52 98 95 180 43 83 85 159 93 170 l14 20 -7 -20 c-36 -99 -45 -134 -45 -172 0 -23 4 -43 9 -43 18 0 61 43 96 97 21 32 48 74 61 93 42 65 314 596 314 615 0 2 13 32 29 67 120 262 219 524 241 638 8 45 -2 86 -20 75 -11 -7 -4 8 133 286 l107 217 10 233 c5 129 14 340 20 469 5 129 14 318 20 420 5 102 14 302 20 445 6 143 17 388 25 545 8 157 19 411 25 565 6 154 17 438 25 630 8 193 19 483 25 645 6 162 18 438 26 612 8 175 14 361 14 413 l0 95 -32 -1 c-18 0 -37 -2 -43 -4z"/>
 <path d="M13397 11145 c-4 -121 -12 -548 -17 -950 -5 -401 -12 -793 -15 -870 -3 -77 -10 -306 -15 -510 -11 -425 -25 -771 -39 -965 -6 -74 -15 -214 -21 -310 -14 -202 -43 -443 -64 -515 -36 -127 -46 -167 -46 -178 1 -16 110 104 110 120 0 7 4 13 9 13 19 0 72 128 90 220 60 302 76 664 68 1600 -6 706 -14 1092 -41 2120 l-12 445 -7 -220z"/>
 <path d="M13084 11235 c-12 -66 -12 -2404 0 -2470 l10 -50 7 55 c26 184 34 487 34 1235 0 749 -9 1073 -34 1231 l-8 49 -9 -50z"/>
 <path d="M12389 5068 c-42 -43 -125 -173 -174 -273 -50 -102 -230 -423 -353 -630 -93 -156 -129 -213 -277 -440 -108 -166 -191 -320 -226 -424 -20 -58 -25 -111 -10 -111 12 0 111 78 111 88 0 4 28 39 61 77 34 39 64 77 68 85 3 8 40 67 82 130 67 102 274 440 293 480 4 8 12 24 19 35 13 22 105 184 160 285 102 184 254 504 285 600 42 129 27 166 -39 98z"/>
 <path d="M4367 1770 c-161 -13 -124 -37 93 -60 221 -24 753 -10 814 22 18 10 18 11 2 20 -44 24 -672 37 -909 18z"/>
 <path d="M7238 991 c-45 -9 -69 -28 -62 -46 16 -39 425 -118 859 -165 55 -6 133 -15 173 -20 91 -12 299 -13 306 -1 7 11 -19 34 -69 60 -98 50 -362 111 -610 140 -49 6 -128 15 -173 21 -116 14 -379 21 -424 11z"/>
 <path d="M9488 591 c-64 -4 -120 -9 -123 -12 -29 -30 792 -61 1229 -48 304 10 537 24 581 35 l30 8 -40 9 c-48 10 -1512 18 -1677 8z"/>
 </g>
<g id="layer103" fill="#2c82c9" stroke="none">
 <path d="M8890 12420 c-181 -9 -188 -10 -135 -21 214 -44 2084 -46 2375 -2 l45 7 -50 8 c-68 10 -2042 18 -2235 8z"/>
 <path d="M13005 12155 c-5 -2 -57 -11 -115 -20 -58 -8 -150 -22 -205 -30 -224 -34 -485 -67 -680 -85 -60 -5 -182 -16 -270 -24 -88 -9 -221 -20 -295 -25 -74 -6 -223 -18 -330 -26 -363 -28 -414 -30 -735 -22 -372 10 -1803 1 -1855 -11 l-35 -8 50 -7 c58 -7 440 -27 600 -30 61 -2 7 -4 -120 -5 -234 -2 -837 19 -1065 38 -364 30 -469 42 -995 121 -250 38 -300 45 -403 59 -46 6 -106 15 -134 20 -106 21 -88 41 -237 -252 -225 -442 -291 -556 -415 -723 -76 -101 -272 -298 -351 -351 -210 -141 -387 -160 -481 -50 -68 80 -89 222 -64 436 15 121 15 307 2 342 -16 40 -45 52 -81 34 -74 -39 -210 -235 -361 -521 -47 -90 -66 -125 -133 -245 -65 -118 -217 -352 -282 -435 -145 -185 -205 -253 -341 -389 -158 -158 -256 -241 -395 -334 -88 -59 -232 -134 -310 -161 -93 -32 -144 -60 -202 -112 -63 -56 -177 -195 -258 -314 -62 -91 -179 -273 -179 -279 0 -2 -38 -71 -85 -152 -116 -201 -450 -870 -625 -1249 -284 -616 -352 -832 -402 -1275 -34 -301 5 -2280 53 -2675 16 -138 48 -295 71 -348 32 -73 55 -87 138 -80 44 4 87 1 117 -7 128 -35 282 -130 411 -253 146 -139 279 -228 517 -344 194 -94 343 -154 585 -236 90 -31 383 -118 495 -147 166 -43 431 -94 615 -119 75 -10 106 -12 430 -31 234 -14 603 -53 885 -95 55 -9 134 -20 175 -26 41 -6 116 -17 165 -25 234 -36 369 -53 475 -59 93 -4 125 -10 165 -29 29 -14 94 -31 155 -40 58 -9 184 -30 280 -47 96 -16 202 -34 235 -39 74 -12 218 -38 525 -95 47 -9 105 -20 130 -24 25 -5 146 -29 270 -54 427 -85 521 -100 1050 -161 322 -38 680 -69 1140 -101 661 -45 884 -40 952 22 26 24 22 50 -23 133 -35 66 -67 132 -115 237 -27 59 -112 338 -137 448 -32 139 -42 192 -64 335 -14 91 -19 108 -24 80 -8 -55 -22 629 -16 775 9 185 37 324 90 450 12 28 56 98 98 157 43 59 100 145 127 190 63 107 232 400 265 458 134 244 200 366 232 425 21 39 52 97 70 130 229 424 305 582 485 1014 149 359 249 552 342 657 37 42 80 119 169 299 l118 242 11 234 c5 129 14 340 20 469 5 129 14 318 20 420 5 102 14 302 20 445 6 143 17 388 25 545 8 157 19 411 25 565 6 154 17 438 25 630 8 193 19 483 25 645 6 162 18 438 26 612 8 175 14 361 14 413 l0 95 -32 -1 c-18 0 -37 -2 -43 -4z"/>
 <path d="M4363 1766 c-135 -17 -132 -24 17 -45 203 -30 675 -30 838 0 67 12 87 25 50 33 -127 27 -726 34 -905 12z"/>
 <path d="M9558 591 c-294 -10 -262 -21 132 -46 424 -27 1293 -14 1480 22 l35 6 -40 9 c-51 10 -1357 18 -1607 9z"/>
 </g>
<g id="layer104" fill="#888888" stroke="none">
 <path d="M8890 12420 c-181 -9 -188 -10 -135 -21 214 -44 2084 -46 2375 -2 l45 7 -50 8 c-68 10 -2042 18 -2235 8z"/>
 <path d="M8728 11921 c-332 -9 -313 -20 72 -43 285 -16 1419 -17 1680 0 185 11 309 27 255 32 -11 1 -33 3 -50 5 -59 7 -1734 13 -1957 6z"/>
 <path d="M4363 1766 c-135 -17 -132 -24 17 -45 203 -30 675 -30 838 0 67 12 87 25 50 33 -127 27 -726 34 -905 12z"/>
 <path d="M9558 591 c-294 -10 -262 -21 132 -46 424 -27 1293 -14 1480 22 l35 6 -40 9 c-51 10 -1357 18 -1607 9z"/>
 </g>

</svg>