<!DOCTYPE svg PUBLIC "-//W3C//DTD SVG 20010904//EN" "http://www.w3.org/TR/2001/REC-SVG-20010904/DTD/svg10.dtd">
<svg version="1.0" xmlns="http://www.w3.org/2000/svg" width="1600px" height="1284px" viewBox="0 0 16000 12840" preserveAspectRatio="xMidYMid meet">
<g id="layer101" fill="#040404" stroke="none">
 <path d="M3403 12830 c-306 -32 -483 -147 -653 -425 -113 -183 -243 -473 -311 -690 -55 -179 -115 -507 -138 -766 -16 -167 -13 -644 4 -844 13 -159 19 -207 46 -390 22 -155 72 -388 112 -530 10 -38 26 -95 33 -125 37 -142 164 -469 233 -600 10 -19 40 -75 66 -125 26 -49 63 -111 81 -136 19 -26 34 -49 34 -52 0 -3 37 -61 83 -129 225 -333 317 -542 317 -720 0 -93 -42 -247 -106 -385 -66 -143 -111 -268 -159 -448 -70 -259 -100 -418 -115 -628 -16 -215 -46 -342 -151 -651 -102 -298 -339 -859 -501 -1188 -79 -162 -168 -348 -168 -353 0 -3 -13 -33 -29 -67 -290 -625 -322 -908 -120 -1068 70 -55 141 -86 379 -164 208 -69 347 -119 585 -211 81 -31 62 -24 281 -114 159 -65 227 -94 329 -141 22 -10 85 -39 140 -63 92 -41 141 -61 405 -167 149 -60 493 -184 620 -223 189 -58 220 -65 330 -77 191 -21 359 -92 490 -209 19 -17 58 -40 87 -50 52 -20 251 -71 277 -71 8 0 16 -6 19 -13 10 -25 271 -67 421 -67 42 0 118 -6 169 -14 50 -8 144 -19 207 -26 63 -6 174 -18 245 -25 72 -8 191 -19 265 -25 74 -6 212 -17 305 -25 94 -8 258 -19 365 -25 107 -5 278 -15 380 -21 659 -36 1536 -50 1820 -29 374 29 753 91 1060 175 348 95 475 135 1020 316 371 123 489 164 835 284 88 31 201 70 250 87 50 17 146 51 215 75 297 104 389 131 475 143 124 16 198 42 345 125 41 23 136 63 210 88 74 26 164 57 200 70 l65 24 5 104 c4 83 9 110 26 134 36 53 54 102 54 149 0 36 -6 52 -30 80 l-30 34 10 251 c5 138 15 365 20 504 6 138 14 340 20 447 26 526 22 1073 -10 1277 -57 376 -124 568 -320 924 -71 128 -139 244 -180 304 -15 22 -30 47 -34 55 -10 22 -29 53 -57 96 -35 52 -161 259 -189 309 -13 22 -31 56 -42 75 -11 19 -29 51 -40 70 -127 213 -471 879 -646 1250 -22 47 -67 143 -101 214 -34 70 -61 129 -61 131 0 2 -17 41 -39 87 -21 45 -55 121 -76 168 -21 47 -46 103 -55 125 -10 22 -44 101 -75 175 -32 74 -68 159 -81 188 -13 29 -24 55 -24 57 0 2 -11 28 -24 57 -13 29 -36 82 -51 118 -15 36 -40 93 -56 127 -16 34 -29 64 -29 67 0 2 -15 37 -34 78 -18 40 -57 125 -86 188 -88 194 -250 525 -344 705 -166 318 -263 474 -389 630 -27 33 -55 68 -64 79 -21 26 -125 201 -156 262 -39 78 -69 172 -77 250 -14 119 -71 222 -190 343 -229 234 -618 443 -899 482 -165 24 -259 3 -391 -86 -137 -93 -396 -199 -705 -289 -49 -14 -110 -32 -135 -40 -276 -85 -942 -216 -1400 -276 -47 -6 -128 -17 -180 -25 -52 -7 -149 -19 -215 -25 -66 -6 -192 -17 -280 -25 -341 -32 -1098 -29 -1261 5 -109 22 -184 39 -274 63 -85 23 -133 39 -277 91 -39 14 -184 84 -243 118 -68 38 -113 73 -205 160 -101 95 -185 162 -240 190 -29 16 -153 119 -245 205 -25 24 -53 43 -64 43 -16 0 -17 -2 -5 -17 8 -10 16 -20 19 -23 68 -72 91 -100 74 -92 -80 41 -332 106 -474 122 -97 11 -390 11 -497 0z"/>
 </g>
<g id="layer102" fill="#626262" stroke="none">
 <path d="M4281 12823 c8 -10 39 -45 70 -78 31 -33 116 -127 190 -210 389 -438 521 -563 686 -644 151 -75 289 -109 527 -131 137 -13 903 -13 1091 -1 126 9 254 14 930 38 l200 7 -120 7 c-66 4 -232 12 -370 19 -137 6 -322 18 -410 26 -88 8 -221 14 -295 14 -348 0 -864 69 -1220 163 -85 23 -133 39 -277 91 -69 25 -231 108 -308 157 -22 14 -47 28 -55 31 -20 8 -232 179 -294 237 -63 60 -68 64 -156 141 -41 36 -95 84 -120 107 -25 24 -53 43 -64 43 -16 0 -17 -2 -5 -17z"/>
 <path d="M3551 12339 c-135 -26 -302 -210 -526 -579 -48 -80 -145 -272 -145 -288 0 -4 -11 -34 -24 -67 -127 -316 -162 -806 -90 -1240 77 -459 226 -895 494 -1450 37 -77 106 -219 152 -315 47 -96 92 -191 100 -210 121 -267 132 -297 194 -477 52 -156 74 -283 74 -438 0 -183 -26 -303 -129 -600 -133 -380 -172 -724 -111 -965 45 -174 2 -404 -126 -668 -35 -73 -88 -169 -117 -215 -78 -120 -83 -129 -148 -249 -150 -279 -264 -597 -310 -868 -19 -110 -17 -401 3 -470 43 -150 91 -219 216 -313 215 -161 549 -331 962 -488 58 -22 121 -46 140 -54 171 -66 535 -184 825 -267 359 -102 742 -198 1095 -273 143 -30 365 -75 425 -86 33 -6 80 -15 105 -20 111 -23 623 -106 790 -128 238 -32 314 -41 395 -51 50 -5 146 -16 215 -24 69 -8 170 -20 225 -26 55 -6 156 -17 225 -25 69 -8 186 -19 260 -25 74 -6 203 -19 285 -28 112 -12 251 -16 547 -16 218 -1 396 -2 395 -2 -1 -1 -31 -7 -67 -12 -115 -18 -313 -52 -390 -67 -132 -24 -203 -34 -300 -40 -98 -5 -153 -16 -205 -40 -16 -7 -91 -24 -165 -37 l-135 -24 315 -14 c394 -19 658 -18 820 3 69 9 177 21 240 28 99 9 223 28 360 55 51 10 219 60 265 79 97 41 223 106 240 125 51 56 -48 62 -430 25 -27 -3 18 11 100 31 155 37 756 207 880 248 230 77 309 98 326 88 25 -16 179 -34 282 -33 158 0 457 62 614 125 123 51 288 158 317 208 16 26 15 28 -5 39 -14 7 -51 9 -108 5 l-86 -5 175 58 c96 33 283 94 415 136 132 42 292 94 355 115 63 20 160 52 216 69 l101 32 7 77 c3 42 9 155 12 252 4 96 10 181 14 189 4 7 10 -24 14 -70 19 -223 63 -396 109 -423 15 -9 22 -6 40 16 101 125 170 1037 137 1805 -26 608 -81 974 -153 1017 -50 30 -100 -124 -133 -409 -4 -33 -8 -55 -9 -50 -2 6 -11 44 -20 85 -63 285 -224 631 -537 1154 -125 209 -318 538 -360 616 -14 25 -42 77 -63 115 -21 39 -41 75 -45 80 -4 6 -49 91 -100 190 -51 99 -110 212 -130 250 -85 158 -304 607 -392 800 -78 172 -153 353 -234 570 -105 278 -216 546 -342 820 -40 88 -250 505 -302 600 -108 198 -319 541 -448 730 -125 182 -167 242 -194 278 -90 115 95 -58 233 -218 146 -169 229 -253 222 -225 -7 28 -246 430 -319 537 -139 204 -292 351 -444 428 -156 79 -362 110 -565 85 -44 -5 -134 -14 -199 -19 -123 -11 -159 -23 -115 -39 20 -8 136 -31 320 -62 54 -10 218 -64 257 -85 25 -13 20 -14 -75 -15 -96 0 -157 -6 -328 -31 -275 -40 -425 -65 -785 -129 -220 -40 -262 -47 -385 -65 -380 -58 -776 -105 -1130 -135 -71 -6 -179 -15 -240 -21 -441 -39 -1324 -55 -1685 -29 -426 29 -695 97 -924 231 -152 90 -256 172 -536 424 -385 348 -537 436 -699 404z"/>
 <path d="M14672 2650 c-12 -13 -22 -43 -26 -76 -9 -77 -44 -140 -118 -214 -104 -104 -260 -197 -458 -274 -313 -123 -454 -212 -388 -247 48 -26 291 -15 388 17 186 62 524 292 662 451 112 129 137 229 76 299 -29 33 -81 64 -107 64 -6 0 -19 -9 -29 -20z"/>
 <path d="M5125 1941 c-42 -7 -65 -17 -65 -30 0 -18 85 -90 146 -124 64 -36 225 -101 289 -117 17 -5 64 -17 105 -28 186 -48 324 -65 517 -63 228 1 383 27 383 62 0 17 -77 58 -165 87 -183 61 -603 152 -830 181 -49 7 -119 16 -155 21 -102 14 -181 18 -225 11z"/>
 <path d="M6145 1050 c-230 -10 -304 -36 -189 -67 228 -62 903 -59 1027 4 37 19 34 37 -10 53 -45 15 -571 22 -828 10z"/>
 </g>
<g id="layer103" fill="#2c82c9" stroke="none">
 <path d="M3551 12339 c-135 -26 -302 -210 -526 -579 -48 -80 -145 -272 -145 -288 0 -4 -11 -34 -24 -67 -127 -316 -162 -806 -90 -1240 77 -459 226 -895 494 -1450 37 -77 106 -219 152 -315 47 -96 92 -191 100 -210 121 -267 132 -297 194 -477 52 -156 74 -283 74 -438 0 -183 -26 -303 -129 -600 -133 -380 -172 -724 -111 -965 45 -174 2 -404 -126 -668 -35 -73 -88 -169 -117 -215 -78 -120 -83 -129 -148 -249 -150 -279 -264 -597 -310 -868 -19 -110 -17 -401 3 -470 43 -150 91 -219 216 -313 215 -161 549 -331 962 -488 58 -22 121 -46 140 -54 171 -66 535 -184 825 -267 359 -102 742 -198 1095 -273 143 -30 365 -75 425 -86 33 -6 80 -15 105 -20 111 -23 623 -106 790 -128 237 -32 314 -41 395 -51 50 -5 149 -17 220 -25 414 -48 534 -61 825 -85 69 -6 161 -15 205 -20 44 -6 215 -13 380 -17 355 -7 525 3 830 49 82 12 80 12 215 38 58 12 159 35 225 51 139 35 677 189 780 223 39 13 117 38 175 56 58 18 141 49 185 70 144 69 530 192 800 256 94 23 157 41 350 104 99 32 288 93 420 135 132 42 292 94 355 115 63 20 161 52 216 70 l102 32 6 91 c20 271 24 491 13 662 -16 264 -15 1134 3 1390 17 255 17 262 -5 350 -72 299 -228 632 -537 1149 -125 209 -318 538 -360 616 -14 25 -42 77 -63 115 -21 39 -41 75 -45 80 -4 6 -49 91 -100 190 -51 99 -110 212 -130 250 -85 158 -304 607 -392 800 -78 172 -153 353 -234 570 -105 278 -216 546 -342 820 -40 88 -250 505 -302 600 -108 198 -319 541 -448 730 -112 164 -167 241 -206 293 -58 78 -252 213 -464 324 l-92 48 -110 0 c-102 0 -162 -6 -335 -31 -275 -40 -425 -65 -785 -129 -220 -40 -262 -47 -385 -65 -380 -58 -776 -105 -1130 -135 -71 -6 -179 -15 -240 -21 -441 -39 -1324 -55 -1685 -29 -426 29 -695 97 -924 231 -152 90 -256 172 -536 424 -385 348 -537 436 -699 404z"/>
 <path d="M5965 11854 c-82 -8 -161 -18 -175 -23 l-25 -8 23 -12 c50 -27 476 -61 759 -61 253 0 676 32 737 56 9 3 16 10 16 14 0 26 -222 39 -723 45 -361 3 -495 1 -612 -11z"/>
 <path d="M14291 4763 c-23 -115 -35 -678 -23 -1030 11 -318 24 -447 46 -440 17 6 26 53 46 247 28 263 28 768 0 1030 -11 102 -23 198 -28 214 -14 49 -29 41 -41 -21z"/>
 <path d="M14666 2638 c-7 -13 -17 -45 -21 -73 -12 -89 -39 -133 -148 -240 -117 -115 -218 -185 -418 -288 -143 -74 -251 -149 -257 -180 -6 -29 39 -38 126 -26 42 6 97 17 122 25 57 19 238 109 270 135 14 11 68 50 120 87 269 191 423 415 356 517 -40 60 -123 84 -150 43z"/>
 <path d="M9140 1290 c-47 -4 -103 -15 -125 -24 l-40 -17 23 -19 c34 -28 79 -39 232 -55 173 -19 304 -19 487 0 143 15 233 40 233 64 0 17 -39 32 -119 47 -82 14 -533 17 -691 4z"/>
 <path d="M6145 1049 c-163 -8 -249 -23 -242 -43 2 -6 37 -18 78 -27 254 -58 867 -53 996 7 42 20 38 35 -13 53 -47 18 -560 24 -819 10z"/>
 </g>
<g id="layer104" fill="#868686" stroke="none">
 <path d="M5965 11854 c-82 -8 -161 -18 -175 -23 l-25 -8 23 -12 c50 -27 476 -61 759 -61 253 0 676 32 737 56 9 3 16 10 16 14 0 26 -222 39 -723 45 -361 3 -495 1 -612 -11z"/>
 <path d="M14291 4763 c-23 -115 -35 -678 -23 -1030 11 -318 24 -447 46 -440 17 6 26 53 46 247 28 263 28 768 0 1030 -11 102 -23 198 -28 214 -14 49 -29 41 -41 -21z"/>
 <path d="M14666 2638 c-7 -13 -17 -45 -21 -73 -12 -89 -39 -133 -148 -240 -117 -115 -218 -185 -418 -288 -143 -74 -251 -149 -257 -180 -6 -29 39 -38 126 -26 42 6 97 17 122 25 57 19 238 109 270 135 14 11 68 50 120 87 269 191 423 415 356 517 -40 60 -123 84 -150 43z"/>
 <path d="M9140 1290 c-47 -4 -103 -15 -125 -24 l-40 -17 23 -19 c34 -28 79 -39 232 -55 173 -19 304 -19 487 0 143 15 233 40 233 64 0 17 -39 32 -119 47 -82 14 -533 17 -691 4z"/>
 <path d="M6145 1049 c-163 -8 -249 -23 -242 -43 2 -6 37 -18 78 -27 254 -58 867 -53 996 7 42 20 38 35 -13 53 -47 18 -560 24 -819 10z"/>
 </g>

</svg>