<!DOCTYPE svg PUBLIC "-//W3C//DTD SVG 20010904//EN" "http://www.w3.org/TR/2001/REC-SVG-20010904/DTD/svg10.dtd">
<svg version="1.0" xmlns="http://www.w3.org/2000/svg" width="960px" height="1600px" viewBox="0 0 9600 16000" preserveAspectRatio="xMidYMid meet">
<g id="layer101" fill="#020202" stroke="none">
 <path d="M3385 15590 c-153 -11 -292 -26 -345 -39 -25 -5 -67 -15 -95 -21 -196 -43 -208 -46 -235 -57 -14 -6 -50 -18 -80 -28 -84 -27 -173 -66 -339 -148 -69 -34 -144 -77 -167 -94 -24 -18 -47 -33 -53 -33 -5 0 -11 -3 -13 -7 -3 -8 -93 -73 -100 -73 -2 0 -45 -41 -96 -91 -109 -106 -251 -294 -295 -389 -4 -8 -16 -28 -27 -45 -18 -28 -80 -152 -80 -160 0 -2 -18 -41 -39 -88 -40 -84 -65 -147 -81 -202 -5 -16 -18 -57 -29 -90 -22 -60 -34 -99 -65 -207 -38 -135 -46 -167 -61 -238 -9 -41 -22 -104 -30 -140 -55 -263 -89 -553 -106 -918 -17 -370 -1 -665 60 -1122 12 -90 38 -219 77 -375 16 -61 118 -384 134 -420 5 -11 24 -54 43 -95 86 -186 109 -237 143 -317 8 -21 20 -49 26 -63 6 -14 14 -33 19 -43 11 -20 66 -176 79 -222 4 -16 13 -43 18 -60 22 -65 42 -143 57 -215 8 -41 18 -88 23 -105 5 -16 17 -75 26 -130 9 -55 24 -131 32 -170 8 -38 14 -89 14 -113 0 -23 7 -88 16 -145 24 -155 25 -824 1 -1037 -25 -219 -65 -528 -93 -725 -25 -171 -25 -731 -1 -821 9 -34 17 -73 17 -88 0 -14 7 -47 15 -73 8 -26 22 -70 31 -98 19 -61 43 -123 56 -149 6 -11 25 -49 44 -85 36 -69 55 -102 64 -111 3 -3 13 -16 21 -30 69 -106 237 -277 389 -392 52 -40 97 -76 98 -80 2 -4 10 -8 17 -8 7 0 15 -3 17 -7 4 -11 245 -169 288 -189 8 -4 33 -19 55 -33 60 -38 65 -41 192 -108 65 -33 152 -79 193 -101 41 -23 120 -64 175 -92 114 -59 103 -53 256 -143 64 -37 119 -67 123 -67 6 0 106 -69 116 -80 3 -3 45 -32 95 -65 73 -49 264 -195 370 -283 11 -9 36 -30 55 -46 40 -33 136 -118 253 -226 112 -102 353 -343 467 -469 52 -57 106 -115 120 -130 14 -14 43 -48 65 -76 49 -61 76 -93 93 -111 27 -28 142 -176 159 -205 10 -16 21 -29 25 -29 4 0 8 -4 8 -10 0 -5 8 -19 18 -29 32 -37 42 -50 42 -61 0 -5 4 -10 8 -10 7 0 83 -106 127 -179 6 -9 12 -18 15 -21 6 -6 43 -59 83 -118 17 -26 37 -52 43 -59 7 -7 34 -42 60 -78 26 -36 51 -65 56 -65 4 0 8 -7 8 -15 0 -8 4 -15 8 -15 5 0 20 -15 33 -34 44 -62 411 -446 426 -446 2 0 14 -10 26 -23 12 -13 51 -45 86 -72 36 -28 78 -62 95 -78 17 -15 39 -30 48 -33 10 -3 18 -10 18 -15 0 -5 5 -9 10 -9 10 0 62 -33 86 -55 6 -6 47 -28 90 -49 43 -21 90 -44 104 -51 14 -7 49 -20 79 -30 101 -33 319 -6 460 56 94 42 107 48 144 73 21 14 40 26 44 26 5 0 43 29 113 85 107 86 271 266 351 385 24 36 47 67 51 68 5 2 8 7 8 12 0 5 27 54 60 110 33 56 60 103 60 105 0 2 17 39 37 82 36 75 54 120 73 173 5 14 18 50 30 80 20 53 45 126 74 220 8 25 19 72 26 105 7 33 18 80 26 104 8 25 14 56 14 70 0 14 7 59 15 101 62 324 63 660 0 985 -29 150 -45 233 -55 295 -12 69 -34 169 -52 235 -6 22 -14 58 -18 80 -4 22 -13 63 -20 90 -6 28 -18 75 -25 105 -8 30 -21 87 -30 125 -9 39 -22 90 -29 115 -8 25 -19 72 -26 105 -7 33 -18 80 -25 105 -16 56 -42 156 -61 235 -25 100 -43 165 -90 325 -7 25 -18 65 -24 90 -13 53 -36 136 -55 200 -53 185 -65 226 -90 320 -9 36 -21 75 -26 87 -4 12 -18 60 -29 105 -20 81 -45 172 -76 273 -8 28 -19 69 -24 93 -5 24 -13 48 -16 54 -4 6 -11 28 -15 47 -4 20 -17 68 -29 106 -11 39 -31 108 -44 155 -33 118 -66 229 -81 270 -7 19 -25 76 -39 125 -15 50 -34 113 -42 140 -8 28 -19 64 -24 80 -15 52 -40 139 -50 170 -12 39 -32 107 -66 220 -14 50 -32 106 -39 125 -11 32 -36 112 -56 185 -10 35 -64 219 -86 290 -9 28 -22 65 -29 83 -8 18 -14 41 -14 52 0 11 -6 34 -14 52 -7 18 -26 74 -40 123 -15 50 -32 104 -37 120 -6 17 -26 80 -45 140 -19 61 -41 126 -49 145 -7 19 -21 62 -30 95 -10 33 -24 76 -31 95 -8 19 -20 60 -28 90 -14 51 -20 70 -51 160 -7 19 -27 82 -45 140 -18 58 -38 121 -45 140 -31 90 -37 109 -51 160 -8 30 -20 71 -28 90 -25 65 -38 105 -46 140 -7 30 -32 106 -71 215 -5 17 -24 73 -40 125 -17 52 -37 108 -45 123 -8 16 -14 35 -14 42 0 8 -6 29 -14 47 -17 42 -35 94 -46 133 -5 17 -18 55 -30 85 -12 30 -25 69 -30 85 -5 17 -13 44 -19 60 -11 32 -29 83 -91 265 -22 63 -74 214 -115 335 -42 121 -80 234 -85 250 -4 17 -18 55 -30 85 -36 94 -51 134 -60 165 -6 17 -14 39 -19 50 -5 11 -24 64 -42 118 -17 54 -36 100 -41 103 -4 3 -8 15 -8 28 0 12 -7 31 -15 42 -8 10 -15 27 -15 36 0 10 -7 32 -14 50 -8 18 -29 71 -46 118 -42 111 -49 129 -66 163 -8 16 -14 36 -14 46 0 9 -4 21 -8 27 -4 5 -18 36 -31 69 -12 33 -28 74 -35 90 -8 17 -20 48 -29 70 -37 95 -81 204 -102 250 -12 28 -32 75 -45 105 -46 110 -138 304 -208 435 -54 102 -152 233 -237 319 -41 41 -75 79 -75 85 0 6 -7 11 -15 11 -8 0 -15 4 -15 8 0 4 -34 32 -75 61 -41 30 -75 57 -75 60 0 4 -17 15 -37 26 -21 11 -56 32 -78 46 -72 47 -322 169 -345 169 -7 0 -26 6 -43 13 -53 23 -99 38 -162 53 -33 8 -85 21 -115 29 -197 51 -534 80 -745 65z"/>
 </g>
<g id="layer102" fill="#2c82c9" stroke="none">
 <path d="M3170 14794 c-70 -5 -238 -33 -268 -45 -13 -5 -44 -14 -69 -19 -83 -19 -339 -131 -363 -159 -3 -4 -24 -18 -47 -33 -51 -33 -141 -125 -149 -153 -4 -11 -11 -26 -17 -33 -10 -13 -32 -76 -55 -157 -11 -37 -30 -104 -104 -350 -17 -55 -36 -120 -43 -145 -8 -25 -26 -97 -40 -160 -15 -63 -33 -140 -40 -170 -101 -408 -139 -626 -175 -980 -23 -237 -8 -697 30 -912 43 -242 131 -545 209 -721 11 -27 21 -51 21 -53 0 -6 32 -76 112 -244 38 -80 75 -158 82 -175 8 -16 30 -65 50 -107 19 -43 54 -130 76 -195 22 -65 46 -136 54 -158 19 -55 90 -332 109 -430 25 -129 46 -262 59 -385 16 -144 16 -887 0 -1010 -6 -47 -18 -146 -27 -220 -9 -74 -22 -178 -30 -230 -8 -52 -22 -144 -30 -205 -9 -60 -20 -135 -26 -165 -10 -61 -27 -273 -36 -450 -6 -123 9 -288 33 -355 8 -23 14 -47 14 -54 0 -7 13 -42 30 -78 16 -35 30 -68 30 -73 0 -5 3 -10 8 -12 4 -1 24 -28 45 -59 90 -134 289 -296 544 -444 71 -41 133 -78 139 -82 21 -16 133 -78 269 -148 124 -64 303 -158 370 -195 28 -15 82 -44 120 -65 105 -57 227 -126 255 -145 53 -37 175 -115 185 -119 14 -6 229 -153 235 -161 3 -3 28 -21 55 -40 28 -19 52 -37 55 -40 3 -3 26 -21 52 -38 25 -18 52 -38 60 -45 7 -7 36 -31 64 -52 331 -257 754 -658 984 -934 103 -123 293 -399 390 -566 55 -95 223 -336 276 -395 12 -14 54 -62 93 -107 74 -85 209 -205 271 -239 19 -10 40 -24 47 -31 34 -31 130 -57 225 -61 88 -3 102 -1 155 23 201 91 347 386 427 860 52 308 52 391 1 725 -8 52 -21 145 -30 205 -9 61 -22 139 -30 175 -7 36 -19 94 -25 130 -6 36 -17 94 -25 130 -7 36 -21 103 -30 150 -9 47 -22 110 -30 140 -7 30 -20 88 -29 128 -9 39 -23 105 -32 145 -9 39 -22 97 -30 127 -7 30 -18 80 -24 110 -15 75 -83 359 -111 460 -6 25 -15 61 -19 80 -4 19 -22 89 -39 155 -18 66 -36 143 -41 170 -6 28 -16 73 -24 100 -40 140 -59 213 -66 245 -4 19 -15 62 -24 95 -10 33 -35 128 -56 210 -60 232 -90 345 -106 400 -34 117 -68 237 -89 315 -9 36 -21 76 -25 90 -4 14 -16 54 -25 90 -16 60 -55 198 -90 315 -26 90 -42 149 -60 215 -9 36 -21 76 -25 90 -4 14 -16 54 -25 90 -22 81 -41 150 -60 215 -8 28 -29 100 -45 160 -17 61 -41 146 -55 190 -67 226 -87 293 -99 330 -7 22 -21 67 -31 100 -10 33 -23 78 -31 100 -12 37 -45 149 -81 275 -9 30 -28 93 -43 140 -15 47 -35 112 -45 145 -9 33 -23 78 -30 100 -8 22 -21 67 -31 100 -25 88 -109 365 -134 445 -5 14 -29 93 -55 175 -26 83 -59 188 -75 235 -15 47 -49 153 -75 235 -26 83 -53 166 -60 185 -17 44 -173 514 -185 555 -13 47 -154 450 -190 545 -17 47 -35 99 -40 115 -9 36 -75 216 -96 263 -7 18 -14 38 -14 44 0 6 -21 63 -46 127 -25 64 -57 145 -71 181 -48 124 -64 165 -72 185 -5 11 -16 40 -26 65 -25 65 -30 78 -64 153 -17 38 -31 70 -31 73 0 21 -196 415 -237 477 -64 97 -274 238 -488 328 -181 76 -384 134 -605 173 -84 15 -385 27 -490 20z"/>
 </g>

</svg>