<!DOCTYPE svg PUBLIC "-//W3C//DTD SVG 20010904//EN" "http://www.w3.org/TR/2001/REC-SVG-20010904/DTD/svg10.dtd">
<svg version="1.0" xmlns="http://www.w3.org/2000/svg" width="1531px" height="1600px" viewBox="0 0 15310 16000" preserveAspectRatio="xMidYMid meet">
<g id="layer101" fill="#030303" stroke="none">
 <path d="M10390 15423 c-19 -3 -39 -9 -44 -14 -6 -5 -17 -9 -26 -9 -17 0 -71 -22 -100 -41 -8 -5 -23 -12 -32 -15 -10 -4 -18 -10 -18 -15 0 -5 -17 -17 -37 -28 -45 -23 -198 -171 -276 -267 -31 -38 -64 -77 -72 -86 -8 -10 -15 -20 -15 -23 0 -3 -17 -29 -39 -58 -41 -56 -131 -234 -131 -260 0 -9 -6 -31 -14 -49 -18 -43 -36 -183 -36 -284 0 -119 26 -296 64 -444 8 -30 19 -80 26 -110 18 -89 41 -192 52 -235 18 -70 47 -307 48 -385 0 -211 -86 -382 -233 -464 -134 -74 -257 -92 -561 -80 -377 14 -434 9 -521 -44 -80 -49 -117 -99 -203 -270 -34 -67 -66 -128 -71 -135 -74 -94 -128 -136 -212 -168 -69 -26 -407 -52 -502 -38 -34 5 -92 9 -129 9 -37 0 -79 5 -95 11 -15 6 -48 14 -73 19 -92 17 -195 41 -205 49 -5 5 -21 11 -35 14 -34 7 -111 35 -132 47 -10 6 -23 10 -29 10 -21 0 -206 89 -344 166 -44 24 -91 50 -105 56 -14 7 -27 15 -30 18 -3 3 -25 14 -50 24 -25 10 -59 25 -77 32 -17 8 -39 14 -48 14 -9 0 -31 6 -48 14 -30 14 -54 17 -206 33 -66 6 -270 -8 -471 -33 -238 -29 -746 -12 -922 32 -32 8 -68 14 -80 14 -22 0 -93 15 -218 46 -30 7 -80 18 -110 24 -30 7 -77 18 -105 25 -159 43 -403 43 -455 0 -8 -6 -31 -18 -50 -25 -19 -8 -69 -39 -112 -70 -42 -30 -109 -78 -150 -107 -40 -28 -83 -60 -96 -71 -12 -11 -38 -30 -57 -43 -19 -13 -35 -27 -35 -31 0 -5 -6 -8 -14 -8 -8 0 -16 -4 -18 -9 -1 -5 -61 -53 -133 -105 -71 -52 -135 -100 -142 -106 -7 -5 -16 -10 -22 -10 -5 0 -11 -3 -13 -7 -3 -9 -95 -73 -103 -73 -3 0 -14 -8 -24 -17 -33 -30 -50 -43 -56 -43 -3 0 -11 -5 -18 -10 -7 -6 -59 -45 -117 -87 -58 -42 -107 -79 -110 -82 -3 -3 -27 -24 -55 -46 -88 -71 -285 -276 -285 -297 0 -4 -7 -16 -16 -25 -29 -33 -99 -138 -119 -178 -11 -22 -23 -41 -27 -43 -5 -2 -8 -10 -8 -17 0 -14 -23 -73 -41 -105 -4 -8 -27 -53 -50 -100 -23 -47 -64 -115 -90 -152 -27 -37 -49 -70 -49 -73 0 -6 -23 -34 -77 -91 -24 -25 -43 -47 -43 -50 0 -4 -121 -124 -161 -160 -13 -11 -37 -29 -54 -40 -16 -10 -36 -25 -45 -32 -8 -7 -58 -44 -111 -82 -84 -59 -199 -161 -199 -176 0 -3 -13 -17 -29 -32 -16 -15 -36 -40 -45 -57 -9 -16 -25 -43 -36 -60 -50 -78 -90 -180 -90 -227 0 -14 -4 -38 -10 -53 -5 -14 -14 -49 -19 -78 -9 -56 -52 -220 -72 -277 -16 -47 -39 -110 -50 -135 -4 -11 -16 -38 -25 -60 -36 -83 -46 -112 -64 -185 -22 -83 -26 -222 -9 -267 6 -15 14 -50 19 -78 8 -57 27 -136 42 -180 5 -16 13 -43 18 -60 5 -16 14 -46 21 -65 6 -19 17 -51 24 -70 7 -19 18 -51 24 -70 7 -19 17 -51 22 -70 19 -67 27 -95 38 -127 6 -18 16 -48 22 -65 37 -111 73 -248 91 -343 30 -164 16 -334 -42 -500 -12 -33 -25 -73 -30 -90 -4 -16 -13 -43 -19 -60 -29 -80 -61 -189 -61 -207 0 -11 -5 -28 -11 -39 -5 -11 -14 -43 -20 -72 -5 -29 -14 -74 -20 -102 -16 -79 -13 -328 7 -410 14 -62 23 -89 54 -170 4 -11 19 -42 34 -70 14 -27 31 -62 37 -77 6 -16 15 -28 20 -28 5 0 9 -6 9 -12 0 -14 70 -121 83 -126 4 -2 7 -10 7 -18 0 -8 5 -14 10 -14 6 0 10 -5 10 -10 0 -11 34 -63 58 -88 7 -8 19 -27 27 -43 9 -16 20 -29 25 -29 6 0 10 -5 10 -11 0 -6 13 -28 28 -48 15 -20 36 -53 47 -73 11 -21 23 -38 27 -38 5 0 8 -5 8 -10 0 -6 12 -29 27 -53 15 -23 37 -60 49 -82 11 -23 26 -50 32 -60 6 -11 25 -57 43 -102 17 -46 42 -94 55 -108 13 -14 24 -28 24 -29 0 -9 120 -144 212 -238 27 -27 48 -51 48 -53 0 -5 350 -355 355 -355 2 0 50 -45 106 -101 56 -56 134 -128 173 -162 39 -33 81 -71 93 -84 12 -12 25 -23 28 -23 3 0 16 -10 28 -23 12 -12 51 -47 87 -77 36 -30 75 -65 87 -77 12 -13 24 -23 27 -23 17 0 230 -220 285 -295 88 -119 161 -270 161 -330 0 -42 25 -219 41 -290 46 -202 209 -528 336 -672 15 -17 46 -52 68 -77 22 -25 44 -46 48 -46 4 0 20 -13 35 -30 15 -16 77 -54 139 -84 137 -68 245 -155 349 -281 27 -33 55 -66 62 -74 16 -17 103 -145 117 -172 5 -10 13 -19 17 -19 5 0 8 -5 8 -10 0 -9 35 -65 50 -80 7 -7 29 -43 37 -60 4 -8 9 -17 12 -20 10 -8 51 -69 51 -75 0 -3 8 -13 18 -23 9 -9 26 -28 37 -42 11 -14 40 -41 65 -60 40 -32 50 -35 110 -35 52 0 78 6 130 32 36 17 83 37 105 44 22 7 45 17 51 21 13 10 132 39 259 64 130 26 593 26 745 0 161 -27 286 -54 380 -80 75 -21 108 -32 185 -65 11 -5 45 -19 75 -31 30 -11 64 -25 75 -29 11 -5 40 -16 65 -26 25 -9 60 -23 78 -31 18 -8 40 -14 49 -14 9 0 30 -4 47 -9 32 -10 98 -27 201 -54 33 -8 96 -23 140 -32 44 -9 107 -23 140 -30 33 -7 103 -21 155 -30 52 -9 129 -23 170 -30 210 -37 881 -125 956 -125 22 0 85 -7 140 -15 54 -8 133 -15 174 -15 41 0 140 -7 220 -16 106 -11 263 -15 585 -15 470 0 547 6 637 52 49 25 118 87 118 105 0 8 4 14 8 14 8 0 26 37 67 135 7 17 25 71 40 120 14 50 31 105 37 123 43 142 76 389 59 450 -6 18 -22 57 -36 88 -67 141 -62 665 11 1194 8 58 14 121 14 140 0 19 7 71 15 115 8 44 22 127 30 185 44 286 80 490 111 612 8 32 14 68 14 81 0 13 6 43 14 68 7 24 21 73 30 109 43 166 96 352 111 393 8 20 22 56 31 80 9 23 22 53 29 67 29 59 78 146 90 160 6 8 19 31 29 50 10 19 23 44 30 55 50 84 79 125 87 125 5 0 9 5 9 11 0 12 180 253 234 314 50 56 76 86 76 89 0 12 433 466 444 466 2 0 26 21 52 46 27 26 81 74 119 107 39 33 79 70 90 81 11 12 43 39 70 61 28 22 52 42 55 45 3 3 30 24 61 47 31 23 62 47 70 55 8 8 46 38 84 67 39 29 77 58 86 64 41 31 79 57 84 57 3 0 13 7 23 16 33 29 142 104 152 104 6 0 10 5 10 10 0 6 6 10 14 10 8 0 16 3 18 8 4 9 176 112 188 112 5 0 10 4 12 8 2 5 62 42 133 83 72 41 139 79 150 86 11 7 26 15 34 19 67 34 267 156 325 199 197 145 266 259 310 510 8 50 22 128 31 175 8 47 15 96 15 109 0 30 27 126 46 164 8 16 14 37 14 47 0 10 5 22 10 25 6 4 19 23 29 43 20 40 104 132 120 132 5 0 11 3 13 8 5 11 95 72 106 72 6 0 17 6 24 13 7 6 42 27 78 45 116 60 344 179 390 204 63 34 228 159 272 205 20 22 50 63 67 92 62 105 42 185 -110 434 -16 26 -29 52 -29 57 0 6 -4 10 -9 10 -5 0 -17 12 -26 28 l-18 27 24 -20 c13 -11 39 -35 58 -52 32 -31 51 -41 51 -27 0 4 -11 17 -25 30 -14 13 -25 25 -25 28 0 3 -15 20 -32 38 -18 19 -55 60 -83 92 -27 33 -65 74 -82 93 -18 18 -33 35 -33 37 0 2 -25 30 -56 62 -30 33 -72 79 -92 104 -20 25 -55 63 -77 86 -22 22 -67 69 -99 105 -66 71 -274 293 -351 374 -27 29 -65 69 -83 89 l-32 36 -10 777 c-5 428 -15 1068 -21 1423 -8 446 -9 764 -3 1030 10 368 6 486 -14 499 -5 3 -12 66 -15 140 -6 116 -9 137 -26 153 -11 10 -24 18 -29 18 -4 0 -13 5 -19 11 -17 17 -231 94 -298 108 -22 5 -76 18 -120 29 -44 11 -118 28 -165 37 -47 9 -116 22 -155 30 -224 43 -298 58 -440 90 -33 8 -71 16 -85 18 -27 5 -167 42 -295 77 -44 13 -96 26 -115 30 -19 4 -46 12 -60 18 -14 5 -106 36 -205 67 -182 58 -236 76 -290 100 -16 7 -50 20 -75 30 -25 9 -58 23 -75 30 -16 7 -55 23 -85 34 -90 36 -78 30 -325 146 -55 25 -109 50 -120 55 -11 4 -37 15 -57 24 -21 9 -56 23 -79 32 -23 8 -47 18 -53 23 -6 5 -24 11 -41 14 -16 3 -61 16 -100 29 -135 48 -266 65 -385 51z"/>
 </g>
<g id="layer102" fill="#666666" stroke="none">
 <path d="M10389 14964 c-41 -6 -90 -19 -109 -29 -83 -42 -188 -173 -295 -365 -80 -143 -102 -312 -70 -519 28 -176 36 -225 50 -291 7 -36 21 -105 30 -155 8 -49 22 -124 30 -165 8 -41 21 -111 29 -155 8 -44 22 -120 31 -168 19 -102 18 -388 -2 -422 -6 -11 -19 -38 -29 -60 -9 -22 -20 -42 -23 -45 -3 -3 -18 -23 -33 -46 -33 -51 -165 -183 -236 -236 -62 -46 -162 -91 -243 -108 -55 -12 -261 -10 -558 6 -218 12 -340 -42 -484 -214 -208 -250 -327 -323 -572 -352 -393 -46 -824 -18 -1220 80 -82 20 -179 52 -190 61 -5 5 -19 9 -31 9 -13 0 -25 4 -28 9 -3 5 -16 11 -28 14 -13 3 -48 15 -78 27 -93 37 -223 81 -265 90 -22 4 -82 17 -134 29 -176 39 -461 67 -791 76 -217 6 -508 29 -644 51 -49 8 -102 14 -118 14 -16 0 -54 6 -86 14 -31 8 -93 22 -137 31 -78 16 -149 33 -231 54 -88 23 -232 8 -325 -34 -80 -37 -232 -142 -407 -282 -57 -46 -106 -83 -111 -83 -4 0 -16 -8 -27 -18 -19 -17 -233 -160 -329 -219 -51 -32 -350 -205 -394 -229 -14 -7 -66 -53 -116 -102 -107 -104 -138 -159 -162 -288 -9 -49 -29 -116 -44 -149 -34 -73 -137 -234 -187 -293 -21 -24 -54 -67 -75 -95 -21 -29 -102 -117 -181 -197 -164 -168 -375 -395 -426 -460 -20 -25 -62 -77 -93 -116 -31 -39 -57 -74 -57 -77 0 -3 -13 -25 -28 -49 -16 -24 -38 -59 -48 -78 -10 -19 -22 -37 -25 -40 -29 -24 -79 -186 -79 -259 -1 -111 -43 -229 -106 -296 -51 -54 -64 -105 -64 -245 0 -241 75 -476 193 -609 44 -49 57 -73 72 -128 56 -215 58 -619 4 -928 -34 -195 -40 -217 -110 -405 -95 -257 -94 -352 1 -567 13 -29 27 -53 32 -53 4 0 8 -5 8 -11 0 -6 13 -30 28 -53 15 -22 31 -48 35 -56 10 -20 96 -154 188 -291 139 -209 235 -380 258 -459 28 -95 75 -192 102 -210 4 -3 22 -26 41 -52 82 -118 211 -261 443 -493 287 -287 436 -413 520 -435 96 -25 124 -36 182 -73 61 -37 198 -173 256 -252 40 -55 105 -167 142 -245 64 -132 90 -227 110 -405 17 -141 23 -174 56 -276 18 -54 89 -218 109 -249 5 -8 26 -44 46 -80 91 -159 279 -370 387 -433 24 -14 76 -33 116 -42 83 -19 148 -67 240 -176 30 -35 60 -68 66 -74 6 -5 22 -28 35 -50 13 -22 27 -42 30 -45 3 -3 37 -54 75 -113 182 -281 265 -336 379 -249 95 72 93 71 181 97 33 9 73 22 89 28 42 16 461 15 581 -1 95 -13 158 -25 305 -59 124 -29 356 -108 468 -159 29 -13 55 -24 58 -24 3 0 20 -6 37 -14 18 -8 59 -23 92 -35 33 -11 85 -30 115 -41 86 -33 130 -47 200 -65 36 -9 79 -20 95 -25 120 -35 394 -96 560 -124 215 -37 296 -46 715 -80 433 -36 572 -48 695 -61 719 -77 1039 -93 1139 -58 72 26 83 58 56 158 -33 125 -23 201 35 255 32 30 55 71 55 99 0 44 -34 118 -75 161 -179 189 -255 335 -225 432 9 30 34 64 82 111 37 38 68 71 68 74 0 3 6 19 14 36 39 91 64 305 81 687 27 597 32 690 39 697 3 3 6 -23 7 -58 1 -66 19 -193 30 -203 23 -23 55 291 45 438 -4 55 -10 132 -13 171 -5 68 -2 81 43 241 8 28 14 56 14 63 0 7 6 27 14 44 8 18 28 73 45 122 17 50 36 106 43 125 14 36 78 162 122 240 14 25 30 54 35 65 21 48 297 446 389 562 31 39 79 100 107 135 71 92 209 253 280 328 34 36 81 88 105 115 84 97 446 457 535 533 49 42 99 87 110 98 43 46 232 201 372 305 82 60 159 119 173 131 14 12 41 31 60 42 19 11 37 23 40 27 3 3 21 14 40 24 19 10 37 21 40 25 3 4 71 42 153 84 81 42 211 109 290 150 79 41 168 89 198 109 69 44 172 152 194 203 32 72 54 197 56 304 l2 105 12 -115 c7 -63 14 -158 15 -210 1 -52 5 -115 9 -140 7 -43 7 -41 13 36 3 44 13 94 21 110 23 45 37 127 37 213 0 153 84 329 273 570 23 29 143 153 267 274 124 121 241 242 260 269 36 49 98 88 282 176 32 15 57 32 57 37 0 6 -57 60 -126 120 -177 155 -588 561 -650 643 -29 38 -63 80 -76 93 -41 43 -133 192 -181 294 -26 55 -52 108 -57 118 -25 47 -101 299 -118 392 -6 33 -18 95 -26 137 -8 42 -15 95 -15 118 0 22 -6 82 -14 133 -14 89 -40 430 -37 492 0 17 6 80 13 140 16 156 16 1304 -1 1440 -7 55 -17 108 -22 117 -5 9 -9 220 -9 472 l0 456 -252 1 c-139 1 -291 4 -338 8 l-85 8 110 2 c281 6 375 18 375 47 0 29 -128 42 -405 40 -268 -2 -352 -19 -282 -55 22 -11 22 -11 -3 -6 -119 27 -166 50 -235 115 -38 36 -86 72 -105 79 -19 7 -44 17 -55 22 -11 5 -58 13 -105 19 -86 10 -169 31 -300 73 -25 8 -56 19 -70 25 -14 6 -50 20 -80 32 -30 11 -64 25 -75 30 -11 5 -47 18 -80 31 -148 54 -185 69 -268 108 -48 22 -89 41 -91 41 -2 0 -43 18 -91 40 -47 23 -110 50 -138 61 -29 11 -61 23 -72 28 -11 5 -36 16 -55 24 -101 44 -292 102 -376 114 -39 5 -87 5 -135 -3z"/>
 <path d="M12245 14701 c-20 -34 95 -105 240 -149 158 -48 204 -54 386 -54 174 1 229 9 229 35 0 13 -88 57 -115 57 -8 0 -24 4 -37 9 -13 5 -59 16 -103 26 -44 9 -107 23 -140 30 -197 46 -445 70 -460 46z"/>
 <path d="M14076 14002 c-76 -148 -92 -306 -102 -1052 -6 -486 10 -1860 25 -2165 l8 -140 2 160 c1 88 6 228 11 310 16 241 29 550 35 840 3 149 14 443 25 655 23 458 40 926 42 1175 2 231 -10 287 -46 217z"/>
 <path d="M5523 12403 c-28 -2 -57 -10 -63 -18 -20 -25 52 -47 175 -54 242 -13 429 12 394 55 -6 8 -23 14 -38 14 -14 0 -114 2 -221 4 -107 2 -218 1 -247 -1z"/>
 <path d="M14365 9963 c-18 -17 -18 -20 -5 -36 5 -7 21 -27 36 -44 23 -30 442 -429 559 -532 28 -25 94 -87 149 -138 90 -85 116 -104 116 -87 0 4 -11 17 -25 30 -14 13 -25 25 -25 28 0 3 -15 20 -32 38 -18 19 -55 60 -83 92 -27 33 -65 74 -82 93 -18 18 -33 36 -33 38 0 5 -12 18 -200 211 -172 176 -317 311 -341 317 -11 3 -26 -1 -34 -10z"/>
 <path d="M12146 5909 c-133 -132 -262 -267 -289 -298 -26 -32 -88 -103 -138 -157 -50 -54 -100 -112 -111 -129 -18 -26 -15 -24 23 11 24 22 90 80 147 130 208 180 240 210 413 374 176 169 257 265 246 294 -16 42 -52 14 -291 -225z"/>
 <path d="M10441 2736 c-33 -83 -34 -457 -1 -541 l12 -30 21 45 c20 41 22 62 22 255 0 194 -2 214 -21 255 l-21 45 -12 -29z"/>
 <path d="M5280 923 c-57 -11 -100 -24 -100 -32 0 -4 26 -16 58 -26 108 -35 415 -31 499 8 68 31 -16 49 -242 52 -104 2 -201 1 -215 -2z"/>
 </g>
<g id="layer103" fill="#2c82c9" stroke="none">
 <path d="M10389 14964 c-41 -6 -90 -19 -109 -29 -83 -42 -188 -173 -295 -365 -80 -143 -102 -312 -70 -519 28 -176 36 -225 50 -291 7 -36 21 -105 30 -155 8 -49 22 -124 30 -165 8 -41 21 -111 29 -155 8 -44 22 -120 31 -168 19 -102 18 -388 -2 -422 -6 -11 -19 -38 -29 -60 -9 -22 -20 -42 -23 -45 -3 -3 -18 -23 -33 -46 -33 -51 -165 -183 -236 -236 -62 -46 -162 -91 -243 -108 -55 -12 -261 -10 -558 6 -218 12 -340 -42 -484 -214 -208 -250 -327 -323 -572 -352 -393 -46 -824 -18 -1220 80 -82 20 -179 52 -190 61 -5 5 -19 9 -31 9 -13 0 -25 4 -28 9 -3 5 -16 11 -28 14 -13 3 -48 15 -78 27 -93 37 -223 81 -265 90 -22 4 -82 17 -134 29 -176 39 -461 67 -791 76 -217 6 -508 29 -644 51 -49 8 -102 14 -118 14 -16 0 -54 6 -86 14 -31 8 -93 22 -137 31 -78 16 -149 33 -231 54 -88 23 -232 8 -325 -34 -80 -37 -232 -142 -407 -282 -57 -46 -106 -83 -111 -83 -4 0 -16 -8 -27 -18 -19 -17 -233 -160 -329 -219 -51 -32 -350 -205 -394 -229 -14 -7 -66 -53 -116 -102 -107 -104 -138 -159 -162 -288 -9 -49 -29 -116 -44 -149 -34 -73 -137 -234 -187 -293 -21 -24 -54 -67 -75 -95 -21 -29 -102 -117 -181 -197 -164 -168 -375 -395 -426 -460 -20 -25 -62 -77 -93 -116 -31 -39 -57 -74 -57 -77 0 -3 -13 -25 -28 -49 -16 -24 -38 -59 -48 -78 -10 -19 -22 -37 -25 -40 -29 -24 -79 -186 -79 -259 -1 -111 -43 -229 -106 -296 -51 -54 -64 -105 -64 -245 0 -241 75 -476 193 -609 44 -49 57 -73 72 -128 56 -215 58 -619 4 -928 -34 -195 -40 -217 -110 -405 -95 -257 -94 -352 1 -567 13 -29 27 -53 32 -53 4 0 8 -5 8 -11 0 -6 13 -30 28 -53 15 -22 31 -48 35 -56 10 -20 96 -154 188 -291 139 -209 235 -380 258 -459 28 -95 75 -192 102 -210 4 -3 22 -26 41 -52 82 -118 211 -261 443 -493 287 -287 436 -413 520 -435 96 -25 124 -36 182 -73 61 -37 198 -173 256 -252 40 -55 105 -167 142 -245 64 -132 90 -227 110 -405 17 -141 23 -174 56 -276 18 -54 89 -218 109 -249 5 -8 26 -44 46 -80 91 -159 279 -370 387 -433 24 -14 76 -33 116 -42 83 -19 148 -67 240 -176 30 -35 60 -68 66 -74 6 -5 22 -28 35 -50 13 -22 27 -42 30 -45 3 -3 37 -54 75 -113 182 -281 265 -336 379 -249 95 72 93 71 181 97 33 9 73 22 89 28 42 16 461 15 581 -1 95 -13 158 -25 305 -59 124 -29 356 -108 468 -159 29 -13 55 -24 58 -24 3 0 20 -6 37 -14 18 -8 59 -23 92 -35 33 -11 85 -30 115 -41 86 -33 130 -47 200 -65 36 -9 79 -20 95 -25 120 -35 394 -96 560 -124 215 -37 296 -46 715 -80 433 -36 572 -48 695 -61 719 -77 1039 -93 1139 -58 72 26 83 58 56 158 -33 125 -23 201 35 255 32 30 55 71 55 99 0 44 -34 118 -75 161 -179 189 -255 335 -225 432 9 30 34 64 82 111 37 38 68 71 68 74 0 3 6 19 14 36 39 91 64 305 81 687 26 582 32 690 37 696 3 3 9 -34 13 -81 4 -46 11 -87 15 -90 17 -10 37 50 49 141 14 116 14 193 -1 291 -18 119 -16 138 38 329 8 28 14 56 14 63 0 7 6 27 14 44 8 18 28 73 45 122 17 50 36 106 43 125 14 36 78 162 122 240 14 25 30 54 35 65 21 48 297 446 389 562 31 39 79 100 107 135 71 92 209 253 280 328 34 36 81 88 105 115 84 97 446 457 535 533 49 42 99 87 110 98 43 46 232 201 372 305 82 60 159 119 173 131 14 12 41 31 60 42 19 11 37 23 40 27 3 3 21 14 40 24 19 10 37 21 40 25 3 4 71 42 153 84 81 42 211 109 290 150 79 41 168 89 198 109 69 44 172 152 194 203 32 72 54 196 55 299 1 55 7 132 14 170 14 70 14 70 15 -107 1 -163 13 -278 29 -278 4 0 16 21 26 47 17 42 20 73 20 248 1 190 0 203 -23 253 -18 40 -21 56 -12 65 6 6 11 17 11 23 0 66 336 407 525 534 28 18 61 43 75 55 43 39 189 135 204 135 8 0 17 4 20 9 3 4 18 11 33 14 16 3 73 30 128 59 55 30 119 63 142 74 23 10 42 24 42 29 0 6 -57 60 -126 120 -177 155 -588 561 -650 643 -29 38 -63 80 -76 93 -41 43 -133 192 -181 294 -26 55 -52 108 -57 118 -25 47 -101 299 -118 392 -6 33 -18 95 -26 137 -8 42 -15 95 -15 118 0 22 -6 82 -14 133 -12 73 -40 426 -38 472 0 6 7 161 16 345 9 184 16 427 16 540 -1 283 -25 802 -39 828 -8 14 -11 157 -11 475 l0 454 -327 7 c-366 7 -529 22 -258 24 167 2 227 10 253 36 14 13 12 16 -14 23 -47 13 -516 10 -539 -4 -18 -10 -17 -12 15 -27 l35 -16 -40 6 c-22 3 -71 16 -109 29 -55 19 -81 36 -135 87 -36 35 -82 70 -101 77 -19 7 -44 17 -55 22 -11 5 -58 13 -105 19 -86 10 -169 31 -300 73 -25 8 -56 19 -70 25 -14 6 -50 20 -80 32 -30 11 -64 25 -75 30 -11 5 -47 18 -80 31 -148 54 -185 69 -268 108 -48 22 -89 41 -91 41 -2 0 -43 18 -91 40 -47 23 -110 50 -138 61 -29 11 -61 23 -72 28 -11 5 -36 16 -55 24 -101 44 -292 102 -376 114 -39 5 -87 5 -135 -3z"/>
 <path d="M14008 12645 c-6 -562 2 -1466 13 -1415 30 151 44 1135 21 1610 -18 393 -29 332 -34 -195z"/>
 <path d="M14371 9970 c-9 -5 -11 -17 -7 -33 6 -24 249 -271 412 -418 103 -94 268 -247 353 -328 68 -65 91 -82 91 -65 0 4 -11 17 -25 30 -14 13 -25 25 -25 28 0 3 -15 20 -32 38 -18 19 -55 60 -83 92 -80 93 -135 154 -212 234 -40 41 -73 78 -73 83 0 5 -3 9 -8 9 -4 0 -77 69 -163 153 -159 157 -205 192 -228 177z"/>
 <path d="M5226 911 c-47 -10 -41 -27 19 -45 46 -15 86 -17 257 -14 159 2 208 6 226 18 12 8 21 19 19 25 -6 18 -60 23 -277 23 -118 0 -228 -3 -244 -7z"/>
 </g>
<g id="layer104" fill="#8e8f8f" stroke="none">
 <path d="M12765 14175 c-5 -2 -23 -6 -39 -10 -34 -7 -27 -16 34 -39 37 -15 77 -18 222 -18 191 1 240 6 277 29 48 30 1 38 -249 40 -129 1 -239 1 -245 -2z"/>
 <path d="M13600 13105 c-1 -33 -5 -220 -10 -415 -9 -388 5 -1229 21 -1244 6 -6 9 -5 9 5 0 7 7 158 15 334 8 176 14 415 14 530 0 283 -24 807 -37 831 -9 15 -12 7 -12 -41z"/>
 <path d="M14008 12645 c-6 -562 2 -1466 13 -1415 30 151 44 1135 21 1610 -18 393 -29 332 -34 -195z"/>
 <path d="M14371 9970 c-9 -5 -11 -17 -7 -33 6 -24 249 -271 412 -418 103 -94 268 -247 353 -328 68 -65 91 -82 91 -65 0 4 -11 17 -25 30 -14 13 -25 25 -25 28 0 3 -15 20 -32 38 -18 19 -55 60 -83 92 -80 93 -135 154 -212 234 -40 41 -73 78 -73 83 0 5 -3 9 -8 9 -4 0 -77 69 -163 153 -159 157 -205 192 -228 177z"/>
 <path d="M13711 7887 c-23 -130 -10 -517 17 -517 4 0 16 21 26 47 17 40 20 73 20 242 1 167 -2 203 -17 244 -10 26 -22 47 -27 47 -4 0 -13 -28 -19 -63z"/>
 <path d="M10162 3553 c-26 -68 -19 -528 8 -557 30 -31 67 198 56 354 -7 100 -27 205 -43 221 -7 7 -14 0 -21 -18z"/>
 <path d="M5226 911 c-47 -10 -41 -27 19 -45 46 -15 86 -17 257 -14 159 2 208 6 226 18 12 8 21 19 19 25 -6 18 -60 23 -277 23 -118 0 -228 -3 -244 -7z"/>
 </g>

</svg>