<!DOCTYPE svg PUBLIC "-//W3C//DTD SVG 20010904//EN" "http://www.w3.org/TR/2001/REC-SVG-20010904/DTD/svg10.dtd">
<svg version="1.0" xmlns="http://www.w3.org/2000/svg" width="1600px" height="1250px" viewBox="0 0 16000 12500" preserveAspectRatio="xMidYMid meet">
<g id="layer101" fill="#020202" stroke="none">
 <path d="M4851 12069 c-195 -11 -260 -30 -387 -115 -358 -239 -730 -855 -830 -1374 -25 -127 -22 -277 7 -375 40 -136 32 -367 -19 -545 -42 -150 -96 -298 -159 -440 -44 -97 -199 -403 -246 -485 -7 -11 -27 -47 -46 -80 -19 -33 -44 -73 -55 -90 -12 -16 -26 -39 -33 -50 -89 -147 -281 -426 -432 -625 -52 -69 -97 -127 -101 -130 -3 -3 -21 -25 -40 -50 -41 -53 -61 -78 -75 -94 -6 -6 -26 -31 -45 -56 -19 -25 -37 -47 -40 -50 -49 -44 -258 -352 -336 -495 -50 -92 -58 -108 -113 -228 -140 -307 -266 -754 -351 -1247 -5 -30 -14 -82 -19 -115 -6 -33 -20 -125 -31 -205 -11 -80 -22 -150 -25 -157 -2 -6 -11 -69 -20 -140 -8 -70 -22 -175 -29 -233 -8 -58 -20 -150 -26 -205 -6 -55 -17 -143 -25 -195 -8 -52 -19 -131 -25 -175 -16 -117 -52 -314 -75 -410 -14 -60 -70 -283 -85 -340 -23 -90 -84 -260 -126 -353 -13 -29 -24 -55 -24 -57 0 -3 -15 -26 -34 -52 -93 -131 -138 -257 -155 -429 -25 -250 36 -585 140 -779 18 -33 60 -87 93 -120 57 -57 65 -62 131 -74 77 -14 175 -62 295 -144 41 -27 77 -53 80 -57 3 -3 23 -19 45 -35 85 -63 321 -258 350 -290 9 -9 137 -121 188 -165 10 -8 33 -28 50 -43 130 -116 301 -230 449 -301 206 -97 394 -143 763 -185 299 -35 1133 -38 1540 -6 418 33 699 60 1030 101 66 8 161 19 210 25 50 6 133 17 185 24 52 8 136 19 185 25 50 6 128 17 175 25 47 7 121 18 165 25 44 6 118 17 165 25 47 8 119 19 160 25 41 6 109 17 150 25 41 8 102 18 135 24 132 22 251 44 490 91 248 48 474 91 590 111 33 6 80 15 105 20 25 5 97 18 160 29 63 10 196 33 295 50 99 17 209 36 245 41 36 6 90 14 120 19 30 5 116 18 190 29 74 12 173 28 220 36 47 7 121 19 165 25 44 6 121 17 170 25 50 7 126 19 170 25 44 6 105 15 135 21 30 5 126 18 213 29 87 11 186 24 220 29 34 6 98 15 142 20 212 28 308 40 395 51 52 6 141 18 198 26 56 8 124 14 150 14 43 0 193 18 337 40 33 5 112 13 175 19 63 6 183 18 265 26 83 8 213 19 290 25 77 6 214 17 305 25 91 8 230 19 310 25 80 6 208 17 285 25 77 8 194 19 260 25 110 10 203 22 405 51 193 28 388 83 491 138 143 78 229 206 272 407 95 437 139 705 173 1047 12 126 15 228 11 415 -6 299 -18 391 -88 647 -50 182 -190 435 -331 599 -117 136 -301 299 -498 438 -74 53 -141 98 -146 98 -2 0 -23 12 -45 26 -122 77 -219 118 -318 135 -53 10 -72 19 -107 51 -53 48 -104 152 -137 278 -38 148 -46 214 -62 525 -8 160 -22 335 -31 390 -16 97 -54 259 -75 320 -58 160 -146 340 -230 468 -33 50 -59 93 -59 98 0 4 -4 9 -8 11 -4 2 -21 21 -37 43 -48 65 -156 196 -205 250 -25 27 -70 76 -100 109 -30 33 -71 77 -90 96 -126 130 -226 241 -314 345 -55 66 -103 122 -106 125 -16 13 -189 251 -212 290 -14 25 -31 70 -37 100 -29 137 -145 331 -322 535 -179 206 -395 425 -594 600 -49 44 -94 85 -100 91 -9 10 -248 209 -285 237 -80 62 -106 82 -110 88 -7 9 -402 290 -442 314 -57 35 -81 50 -142 89 -62 40 -367 199 -401 209 -11 3 -56 20 -100 37 -139 54 -351 122 -660 209 -59 17 -430 110 -560 141 -189 45 -561 125 -690 150 -33 6 -89 17 -125 25 -36 7 -94 19 -130 25 -36 7 -96 18 -135 25 -38 8 -99 19 -135 25 -36 6 -99 18 -140 26 -195 36 -639 105 -855 133 -319 41 -566 70 -730 86 -76 7 -555 35 -575 33 -8 0 -84 -5 -169 -9z"/>
 </g>
<g id="layer102" fill="#646464" stroke="none">
 <path d="M5049 11415 c-140 -23 -213 -46 -315 -96 -82 -40 -117 -65 -181 -127 -109 -105 -167 -200 -218 -357 -50 -151 -85 -407 -85 -615 0 -272 -70 -616 -197 -975 -44 -125 -135 -358 -170 -433 -18 -41 -33 -76 -33 -78 0 -10 -172 -357 -234 -471 -237 -439 -471 -779 -819 -1191 -103 -121 -172 -233 -274 -442 -119 -246 -247 -608 -312 -886 -47 -200 -50 -215 -60 -284 -5 -36 -18 -128 -29 -205 -11 -77 -25 -183 -32 -235 -14 -112 -59 -428 -94 -660 -22 -151 -37 -240 -81 -495 -19 -110 -82 -451 -96 -520 -24 -117 -61 -346 -70 -425 -17 -170 -17 -170 -47 -170 -60 0 -214 -95 -266 -163 -35 -46 -33 -73 13 -160 113 -214 398 -520 841 -902 416 -359 591 -480 845 -582 242 -97 448 -127 990 -144 353 -11 720 -6 895 11 52 5 255 14 450 20 195 5 402 13 460 17 l105 7 -115 8 c-63 3 -221 12 -350 18 -129 6 -284 15 -345 21 -60 5 -227 14 -370 19 -371 12 -796 52 -1024 96 -40 8 -84 14 -96 14 -13 0 -27 5 -31 12 -4 6 -3 8 3 5 5 -3 99 -14 209 -24 234 -21 920 -24 1144 -5 74 6 205 16 290 23 85 6 202 17 260 24 58 8 152 19 210 25 121 12 202 25 535 81 352 59 489 87 830 171 291 72 622 169 810 238 146 53 155 56 270 103 253 102 628 169 1160 207 83 6 229 17 325 25 96 8 243 19 325 25 83 6 229 17 325 25 96 8 240 19 320 25 80 6 222 17 315 25 94 8 231 19 305 25 74 6 209 17 300 25 289 25 402 34 503 41 61 4 97 11 97 18 0 7 3 7 8 -2 42 -65 1060 -105 1567 -60 146 12 277 38 275 53 -5 29 -268 50 -780 62 -235 5 -289 9 -235 15 39 4 131 15 205 23 215 25 378 45 480 61 52 8 124 19 160 24 262 39 506 103 649 173 187 90 259 213 330 567 88 432 61 738 -90 1045 -76 155 -162 270 -318 425 -209 208 -418 362 -761 560 -524 302 -670 468 -670 760 0 95 8 149 54 380 35 180 40 257 22 385 -40 295 -176 554 -511 969 -66 82 -133 165 -150 186 -16 21 -91 114 -166 206 -330 411 -548 698 -784 1030 -186 260 -274 371 -430 535 -179 189 -428 413 -593 533 -15 11 -60 44 -101 74 -162 120 -437 296 -626 400 -158 86 -503 251 -640 305 -286 113 -625 213 -850 251 -111 18 -307 41 -480 56 -202 18 -636 62 -800 81 -294 34 -670 83 -805 104 -52 8 -122 19 -155 25 -33 5 -105 16 -160 24 -355 56 -659 71 -836 41z m-3305 -8837 c12 -115 63 -244 144 -363 43 -64 5 -22 -79 87 -82 107 -128 189 -136 243 -5 41 -3 49 22 75 15 16 31 27 35 25 4 -2 10 -33 14 -67z"/>
 <path d="M11465 1443 c-163 -14 -245 -33 -245 -59 0 -19 86 -54 174 -70 45 -8 182 -17 306 -21 183 -5 251 -3 363 11 141 18 219 45 225 78 4 22 -83 45 -218 58 -105 9 -508 11 -605 3z"/>
 </g>
<g id="layer103" fill="#2c82c9" stroke="none">
 <path d="M5049 11415 c-140 -23 -213 -46 -315 -96 -82 -40 -117 -65 -181 -127 -109 -105 -167 -200 -218 -357 -50 -151 -85 -407 -85 -615 0 -272 -70 -616 -197 -975 -44 -125 -135 -358 -170 -433 -18 -41 -33 -76 -33 -78 0 -10 -172 -357 -234 -471 -237 -439 -471 -779 -819 -1191 -103 -121 -172 -233 -274 -442 -119 -246 -247 -608 -312 -886 -47 -200 -50 -215 -60 -284 -5 -36 -18 -128 -29 -205 -11 -77 -25 -183 -32 -235 -14 -112 -59 -428 -94 -660 -22 -151 -37 -240 -81 -495 -19 -110 -82 -451 -96 -520 -50 -247 -96 -597 -79 -603 12 -4 13 -48 1 -70 -10 -20 9 -161 33 -235 67 -210 244 -407 746 -828 201 -169 430 -312 644 -403 286 -122 439 -157 816 -188 201 -16 886 -16 1080 0 74 6 205 16 290 23 85 6 202 17 260 24 58 8 152 19 210 25 121 12 202 25 535 81 352 59 489 87 830 171 291 72 622 169 810 238 146 53 155 56 270 103 253 102 628 169 1160 207 83 6 229 17 325 25 96 8 243 19 325 25 83 6 229 17 325 25 96 8 240 19 320 25 80 6 222 17 315 25 94 8 231 19 305 25 74 6 209 17 300 25 289 25 402 34 503 41 61 4 97 11 97 18 0 8 2 8 8 0 21 -32 260 -58 688 -75 512 -22 1198 21 1147 72 -25 25 -265 41 -713 48 -451 6 -454 6 -330 19 248 26 586 68 720 88 52 8 124 19 160 24 262 39 506 103 649 173 187 90 259 213 330 567 88 432 61 738 -90 1045 -76 155 -162 270 -318 425 -209 208 -418 362 -761 560 -524 302 -670 468 -670 760 0 95 8 149 54 380 35 180 40 257 22 385 -40 295 -176 554 -511 969 -66 82 -133 165 -150 186 -16 21 -91 114 -166 206 -330 411 -548 698 -784 1030 -186 260 -274 371 -430 535 -179 189 -428 413 -593 533 -15 11 -60 44 -101 74 -162 120 -437 296 -626 400 -158 86 -503 251 -640 305 -286 113 -625 213 -850 251 -111 18 -307 41 -480 56 -202 18 -636 62 -800 81 -294 34 -670 83 -805 104 -52 8 -122 19 -155 25 -33 5 -105 16 -160 24 -355 56 -659 71 -836 41z"/>
 <path d="M11495 1439 c-170 -8 -235 -18 -260 -39 -14 -12 -14 -15 0 -30 40 -45 183 -67 480 -76 259 -8 456 11 530 53 25 13 45 29 45 34 0 16 -55 36 -130 47 -103 15 -471 21 -665 11z"/>
 <path d="M4210 923 c-288 -5 -550 -31 -550 -54 0 -49 717 -93 1150 -70 231 12 477 37 516 51 88 34 -79 57 -496 70 -162 5 -340 8 -395 7 -55 -1 -156 -2 -225 -4z"/>
 </g>
<g id="layer104" fill="#898989" stroke="none">
 <path d="M12520 2164 c-79 -6 -234 -25 -252 -30 -99 -29 187 -65 666 -85 510 -22 1200 21 1149 72 -5 5 -63 17 -129 25 -96 13 -243 17 -754 19 -349 1 -655 1 -680 -1z"/>
 <path d="M11495 1439 c-170 -8 -235 -18 -260 -39 -14 -12 -14 -15 0 -30 40 -45 183 -67 480 -76 259 -8 456 11 530 53 25 13 45 29 45 34 0 16 -55 36 -130 47 -103 15 -471 21 -665 11z"/>
 <path d="M4210 923 c-288 -5 -550 -31 -550 -54 0 -49 717 -93 1150 -70 231 12 477 37 516 51 88 34 -79 57 -496 70 -162 5 -340 8 -395 7 -55 -1 -156 -2 -225 -4z"/>
 </g>

</svg>