<!DOCTYPE svg PUBLIC "-//W3C//DTD SVG 20010904//EN" "http://www.w3.org/TR/2001/REC-SVG-20010904/DTD/svg10.dtd">
<svg version="1.0" xmlns="http://www.w3.org/2000/svg" width="1270px" height="1600px" viewBox="0 0 12700 16000" preserveAspectRatio="xMidYMid meet">
<g id="layer101" fill="#030303" stroke="none">
 <path d="M4685 15814 c-121 -7 -292 -21 -380 -29 -88 -8 -178 -15 -200 -15 -37 0 -114 -9 -390 -45 -60 -8 -162 -19 -225 -25 -63 -7 -137 -16 -165 -22 -228 -44 -704 -62 -837 -32 -69 16 -72 16 -86 -2 -31 -43 8 -194 103 -399 99 -211 211 -429 306 -590 16 -27 39 -70 51 -95 13 -25 29 -51 36 -58 6 -7 12 -20 12 -28 0 -8 4 -14 9 -14 5 0 14 -12 20 -27 6 -16 20 -41 31 -58 30 -47 47 -76 71 -125 12 -25 24 -47 28 -50 3 -3 15 -23 26 -45 11 -22 26 -46 33 -53 6 -7 12 -20 12 -28 0 -8 4 -14 9 -14 5 0 14 -12 20 -27 6 -16 35 -73 66 -128 73 -132 275 -543 275 -560 0 -3 12 -29 26 -58 23 -46 93 -230 114 -298 4 -14 12 -34 18 -45 5 -10 14 -30 20 -44 13 -32 50 -117 67 -155 7 -16 23 -52 35 -80 31 -70 179 -377 191 -395 5 -8 14 -27 19 -41 6 -14 24 -50 40 -80 16 -30 47 -88 67 -129 21 -41 40 -77 44 -80 3 -3 16 -25 29 -50 66 -126 83 -157 100 -185 11 -16 23 -37 27 -45 4 -8 37 -67 73 -130 37 -63 81 -142 100 -175 18 -33 38 -67 45 -75 6 -8 15 -22 19 -30 3 -8 20 -37 36 -65 17 -27 35 -59 40 -70 6 -11 19 -33 29 -50 18 -28 71 -131 120 -234 12 -25 21 -51 21 -58 0 -7 4 -21 10 -31 13 -22 40 -100 47 -132 2 -14 12 -47 20 -73 13 -43 13 -63 -2 -195 -17 -147 -17 -229 -2 -1062 1 -58 -2 -164 -7 -237 -10 -150 3 -132 -121 -168 -33 -10 -76 -23 -95 -30 -19 -7 -62 -20 -95 -30 -128 -38 -161 -48 -195 -60 -19 -7 -75 -25 -125 -39 -175 -52 -290 -89 -323 -102 -18 -8 -40 -14 -50 -14 -9 0 -34 -6 -57 -14 -22 -7 -67 -21 -100 -31 -88 -26 -157 -47 -180 -55 -23 -8 -92 -29 -180 -55 -33 -10 -78 -23 -100 -30 -22 -6 -67 -20 -100 -29 -33 -10 -80 -23 -105 -31 -122 -35 -160 -45 -215 -56 -33 -6 -80 -17 -105 -24 -25 -7 -81 -20 -125 -30 -44 -9 -100 -23 -125 -30 -44 -12 -140 -30 -330 -61 -52 -8 -131 -23 -175 -32 -65 -13 -156 -16 -485 -17 -390 -2 -465 -7 -559 -36 -66 -20 -141 -53 -141 -61 0 -4 -6 -8 -14 -8 -39 0 -216 -214 -216 -262 0 -8 -4 -18 -9 -24 -17 -19 -61 -177 -85 -309 -24 -127 -45 -329 -50 -469 -2 -78 -8 -131 -15 -135 -30 -19 -31 -1543 -1 -2041 5 -91 12 -214 15 -275 12 -225 48 -458 96 -625 6 -19 15 -52 20 -74 5 -21 21 -64 35 -95 14 -31 31 -69 38 -86 62 -140 187 -364 209 -373 4 -2 7 -8 7 -13 0 -9 36 -65 50 -79 3 -3 14 -22 25 -42 11 -21 23 -38 27 -38 5 0 8 -7 8 -15 0 -8 4 -15 9 -15 5 0 22 -20 38 -45 15 -25 31 -45 36 -45 4 0 7 -7 7 -15 0 -8 4 -15 9 -15 4 0 26 -26 48 -57 23 -32 56 -74 74 -94 46 -49 139 -154 147 -165 10 -13 174 -150 252 -209 78 -60 140 -125 166 -174 10 -20 22 -38 25 -41 16 -12 17 -47 4 -74 -20 -37 -19 -66 2 -96 23 -35 73 -79 108 -97 17 -9 37 -21 45 -27 8 -7 35 -20 60 -30 46 -19 74 -31 143 -60 21 -9 45 -16 55 -16 9 0 34 -6 57 -14 98 -35 212 -66 240 -66 17 0 62 -6 100 -15 198 -41 435 -70 980 -120 171 -16 358 -38 471 -55 34 -6 77 -10 95 -10 19 0 63 -6 99 -14 36 -8 110 -22 165 -31 55 -9 156 -30 225 -46 69 -17 154 -37 190 -45 36 -8 85 -22 110 -29 25 -8 70 -21 100 -29 84 -23 238 -72 300 -96 30 -12 66 -25 80 -30 14 -5 50 -18 80 -30 30 -11 75 -28 100 -36 25 -9 65 -25 90 -36 25 -11 54 -24 65 -28 11 -5 45 -19 75 -33 30 -14 80 -35 110 -47 63 -26 173 -77 340 -157 63 -30 158 -76 210 -100 52 -25 172 -83 265 -128 224 -109 303 -145 315 -145 6 0 21 -6 33 -14 12 -7 47 -21 77 -31 30 -10 73 -24 95 -31 60 -20 144 -18 199 6 25 12 46 25 46 30 0 6 5 10 10 10 13 0 50 37 50 49 0 5 3 11 8 13 13 5 72 85 72 97 0 6 4 11 9 11 5 0 13 9 16 20 3 11 12 26 18 33 11 12 28 44 61 119 25 55 66 198 66 227 0 70 48 198 92 246 10 11 35 43 55 72 20 29 40 53 45 53 4 0 8 5 8 11 0 10 383 396 445 449 128 108 180 154 183 161 2 5 8 9 13 9 5 0 17 8 27 17 44 42 83 73 92 73 5 0 10 4 10 9 0 5 27 26 60 47 33 22 60 42 60 47 0 4 4 7 9 7 6 0 23 12 38 26 15 14 37 30 48 35 11 5 52 29 90 54 93 58 138 80 209 100 64 18 98 48 144 125 57 96 95 232 89 320 -8 102 -40 149 -114 165 -30 6 -31 7 -19 35 6 16 27 46 46 67 71 79 251 213 285 213 7 0 17 4 20 10 3 5 35 19 71 30 51 15 94 20 190 20 137 0 263 -20 509 -82 44 -11 96 -24 115 -28 19 -4 71 -18 115 -30 44 -12 96 -26 116 -30 19 -3 41 -10 47 -14 6 -3 30 -10 54 -15 24 -5 86 -20 138 -33 52 -14 122 -31 155 -38 33 -7 80 -18 104 -26 25 -8 54 -14 66 -14 12 0 41 -6 66 -14 24 -8 82 -21 129 -31 79 -16 127 -25 305 -60 243 -48 503 -65 538 -36 49 40 77 160 77 325 0 168 -28 368 -89 626 -38 161 -101 347 -143 420 -4 8 -11 22 -13 30 -22 60 -87 173 -142 247 -37 48 -70 90 -74 93 -3 3 -32 46 -64 95 -31 50 -65 101 -75 115 -22 33 -76 130 -114 205 -16 33 -32 62 -35 65 -7 6 -80 155 -106 215 -32 77 -43 101 -111 240 -37 77 -70 142 -74 145 -3 3 -14 23 -24 45 -11 22 -22 42 -25 45 -3 3 -15 21 -25 40 -11 19 -22 37 -25 40 -14 12 -51 70 -51 80 0 5 -4 10 -8 10 -4 0 -16 14 -25 30 -23 38 -164 208 -229 273 -26 28 -48 54 -48 59 0 4 -4 8 -10 8 -5 0 -40 31 -77 68 -37 37 -97 92 -132 121 -35 29 -71 60 -79 68 -8 8 -40 33 -71 56 -31 22 -57 44 -59 49 -2 4 -8 8 -14 8 -6 0 -16 6 -22 14 -6 7 -58 49 -116 92 -58 43 -106 82 -108 86 -2 5 -7 8 -12 8 -8 0 -52 35 -91 73 -11 9 -23 17 -29 17 -5 0 -10 3 -10 8 0 4 -32 32 -70 62 -39 29 -70 58 -70 62 0 4 -6 8 -14 8 -8 0 -16 4 -18 9 -1 4 -25 27 -53 50 -86 73 -157 135 -184 162 -14 14 -68 62 -119 108 -52 45 -138 126 -192 179 -54 53 -146 143 -204 200 -58 57 -106 105 -106 108 0 2 -44 48 -97 102 -54 54 -129 134 -168 177 -38 44 -85 94 -102 113 -18 18 -33 35 -33 38 0 3 -10 15 -23 27 -13 12 -54 58 -92 102 -38 44 -72 82 -77 83 -4 2 -8 10 -8 18 0 8 -3 14 -8 14 -4 0 -32 32 -62 70 -30 39 -58 70 -62 70 -5 0 -8 4 -8 9 0 8 -34 51 -73 92 -9 11 -17 24 -17 29 0 6 -4 10 -10 10 -5 0 -10 7 -10 15 0 8 -4 15 -8 15 -4 0 -41 46 -82 101 -41 56 -82 109 -90 119 -8 9 -19 24 -25 32 -5 9 -32 49 -60 89 -61 90 -71 107 -85 141 -7 15 -20 44 -31 64 -10 21 -19 47 -19 57 0 10 -5 27 -10 38 -25 45 -42 204 -36 324 8 176 22 341 35 415 6 36 18 106 27 155 42 254 134 598 199 750 7 17 18 46 25 65 7 19 21 55 32 80 82 189 120 341 162 655 56 419 57 1067 1 1420 -8 50 -19 124 -25 165 -6 41 -18 98 -26 126 -8 28 -14 59 -14 70 0 10 -7 28 -15 38 -8 11 -15 29 -15 40 -1 12 -12 39 -25 61 -14 22 -29 50 -35 63 -5 12 -14 22 -20 22 -5 0 -10 5 -10 12 0 13 -220 238 -233 238 -4 0 -13 5 -20 10 -76 65 -216 147 -314 184 -68 25 -221 96 -258 119 -70 44 -103 63 -126 73 -44 20 -359 253 -359 267 0 4 -4 7 -10 7 -20 0 -254 226 -340 329 -25 29 -53 63 -62 74 -10 11 -18 24 -18 28 0 4 -6 14 -12 21 -36 39 -98 172 -98 209 0 23 -9 40 -34 64 -56 53 -146 75 -461 115 -142 18 -843 21 -1100 4z"/>
 </g>
<g id="layer102" fill="#656565" stroke="none">
 <path d="M4542 15780 c-29 -4 -55 -10 -58 -13 -3 -2 26 -12 63 -20 105 -25 491 -39 723 -27 213 11 231 13 275 31 l30 12 -30 10 c-37 13 -926 19 -1003 7z"/>
 <path d="M5225 15364 c-55 -2 -199 -10 -320 -19 -300 -20 -384 -21 -420 -4 -42 20 -556 20 -600 1 l-30 -14 35 -18 c19 -10 58 -22 85 -26 l50 -8 -60 -6 c-229 -24 -471 -72 -584 -117 -167 -66 -238 -168 -186 -267 8 -15 15 -32 15 -37 0 -8 42 -69 140 -200 86 -115 140 -201 196 -314 8 -16 26 -50 40 -75 66 -115 276 -549 324 -670 10 -25 30 -71 44 -102 65 -144 78 -172 102 -231 28 -66 57 -132 79 -182 7 -16 25 -57 40 -90 15 -33 35 -78 45 -100 151 -337 482 -988 590 -1160 10 -16 25 -41 33 -55 7 -14 62 -106 122 -205 122 -202 203 -343 227 -395 9 -19 28 -62 43 -95 27 -59 72 -202 81 -260 3 -16 13 -66 22 -110 14 -68 16 -144 15 -525 -1 -264 -8 -553 -17 -710 -9 -146 -16 -307 -16 -357 l0 -93 -25 12 c-31 14 -51 -1 -60 -45 -25 -125 -146 -225 -400 -332 -153 -64 -255 -120 -255 -141 0 -14 22 -22 80 -27 l35 -3 -50 -16 c-27 -10 -115 -40 -195 -68 -178 -63 -493 -168 -615 -205 -49 -15 -106 -33 -125 -40 -19 -7 -62 -20 -95 -30 -33 -9 -71 -21 -85 -26 -24 -8 -103 -29 -335 -89 -60 -16 -137 -36 -170 -46 -33 -9 -79 -20 -103 -25 -24 -5 -47 -11 -52 -14 -4 -3 -53 -14 -109 -25 -55 -11 -120 -24 -143 -29 -54 -12 -172 -37 -263 -56 -38 -8 -116 -21 -172 -30 -57 -8 -147 -22 -200 -30 -99 -15 -288 -35 -508 -55 -185 -16 -318 -31 -344 -37 -40 -10 -17 12 87 80 162 107 161 119 -16 121 l-119 1 -65 -45 c-36 -24 -78 -62 -93 -85 -16 -22 -35 -44 -42 -48 -7 -4 -13 -16 -13 -25 0 -10 -4 -22 -8 -28 -21 -23 -44 -110 -53 -200 -17 -177 -28 -618 -29 -1161 0 -489 15 -1267 26 -1284 2 -4 5 -83 5 -176 1 -92 7 -269 14 -393 l12 -225 2 165 c1 91 7 278 12 415 5 138 13 531 19 875 14 970 38 1419 90 1695 4 22 8 -781 9 -1785 l1 -1825 65 -75 c256 -296 268 -312 225 -288 -40 23 -41 23 -55 4 -8 -11 -15 -24 -15 -29 0 -16 467 -473 645 -632 55 -49 143 -131 196 -182 53 -51 100 -93 104 -93 8 0 -3 14 -70 89 -29 32 -29 33 -5 21 14 -7 36 -21 50 -30 78 -53 90 -59 205 -97 101 -34 231 -52 455 -64 685 -34 730 -44 214 -45 -395 -1 -720 -19 -761 -42 -14 -8 -11 -12 22 -21 166 -44 516 -72 967 -78 340 -5 396 -3 460 12 40 9 84 21 97 26 19 8 29 4 62 -26 21 -19 58 -43 81 -54 94 -41 174 -71 189 -71 8 0 35 -6 60 -14 79 -25 162 -45 254 -61 106 -19 223 -41 320 -61 39 -8 93 -19 120 -25 232 -47 739 -209 980 -314 17 -7 55 -23 85 -35 230 -94 638 -304 716 -369 6 -5 26 -17 45 -26 19 -10 36 -21 39 -24 13 -18 156 -83 212 -96 166 -39 338 6 436 113 42 46 92 143 92 177 0 47 31 178 52 220 11 22 33 58 48 80 15 22 40 60 56 84 89 136 356 385 634 593 30 22 60 46 65 52 6 7 44 38 85 71 95 75 326 305 368 367 18 25 38 52 45 60 32 33 100 160 112 211 4 15 11 30 16 33 5 3 9 19 9 36 0 41 28 188 40 210 6 10 10 23 10 30 1 25 107 144 175 195 65 49 177 110 270 148 71 29 239 74 375 99 117 22 449 22 557 0 85 -17 271 -72 289 -86 13 -10 125 -52 214 -79 36 -12 83 -27 105 -34 97 -31 281 -74 525 -123 410 -82 502 -80 561 15 22 36 23 48 23 188 -1 153 -5 180 -58 349 -14 44 -76 180 -113 251 -30 55 -171 266 -221 330 -14 18 -72 106 -72 109 0 5 -66 114 -78 129 -5 7 -31 53 -57 102 -27 50 -56 104 -66 120 -20 33 -53 101 -106 215 -54 115 -97 204 -103 210 -3 3 -25 37 -49 75 -23 39 -58 90 -77 115 -20 25 -59 76 -87 114 -51 67 -231 270 -312 351 -47 47 -259 236 -327 292 -26 21 -80 65 -120 98 -40 33 -89 74 -110 93 -20 18 -51 45 -70 58 -18 14 -67 57 -108 97 -41 40 -124 117 -185 171 -136 121 -833 814 -997 991 -233 250 -316 341 -394 430 -43 50 -87 99 -97 110 -11 11 -46 54 -80 95 -34 41 -72 87 -86 101 -34 33 -146 168 -191 229 -19 26 -80 107 -135 181 -110 146 -156 213 -190 274 -119 213 -181 389 -204 583 -12 94 -4 145 34 226 54 115 146 443 185 661 6 39 18 97 25 130 7 33 21 98 30 145 9 47 23 114 30 150 7 36 21 103 30 150 9 47 21 103 27 124 5 21 13 60 18 85 9 52 44 217 65 306 7 33 21 96 30 140 10 44 23 107 30 140 15 65 35 173 59 305 9 47 20 110 26 140 31 166 47 526 30 675 -11 103 -43 250 -60 285 -4 8 -16 35 -26 60 -56 135 -166 278 -294 378 -107 85 -142 107 -260 170 -175 92 -255 135 -293 159 -21 13 -48 28 -60 34 -35 16 -65 35 -247 156 -69 46 -144 98 -167 116 -23 17 -75 58 -116 89 -88 68 -213 190 -361 350 -158 172 -276 254 -431 298 -74 21 -272 31 -480 24z m81 -6718 l-7 -51 -87 -32 c-48 -17 -98 -34 -112 -38 l-25 -6 27 23 c14 13 59 50 98 82 39 33 79 71 88 85 15 22 17 23 20 7 2 -10 1 -42 -2 -70z"/>
 <path d="M4938 10778 c-22 -46 -36 -122 -63 -353 -22 -176 -24 -243 -25 -556 0 -315 3 -382 25 -571 13 -118 29 -227 35 -242 5 -15 10 -40 10 -55 0 -16 11 -40 26 -56 22 -24 27 -26 40 -13 17 17 46 133 63 253 24 168 35 658 23 973 -11 288 -16 343 -48 522 -23 127 -55 163 -86 98z"/>
 <path d="M4017 8630 c-15 -5 -50 -11 -77 -13 -27 -3 -54 -8 -60 -12 -6 -4 -21 -8 -33 -10 -25 -3 -129 -30 -167 -44 -14 -4 -52 -16 -85 -26 -33 -9 -68 -21 -77 -26 -10 -5 -25 -9 -33 -9 -13 0 -89 -36 -134 -65 -46 -28 189 -47 313 -25 146 25 340 93 402 140 18 14 45 33 59 43 14 10 25 27 25 37 0 17 -7 20 -52 19 -29 0 -65 -4 -81 -9z"/>
 <path d="M2585 8170 c-27 -5 -77 -9 -110 -9 -33 -1 -96 -7 -140 -15 -81 -15 -172 -30 -365 -61 -58 -9 -138 -23 -179 -31 -40 -8 -91 -14 -114 -14 -58 0 -166 -19 -204 -36 -17 -8 -46 -14 -65 -15 -18 0 -55 -7 -83 -14 -47 -12 -41 -13 110 -14 88 -1 204 -6 259 -11 72 -7 145 -6 275 5 228 19 466 52 531 75 203 71 291 119 260 140 -17 11 -101 11 -175 0z"/>
 <path d="M365 6578 c-16 -454 -3 -1758 17 -1708 3 8 11 78 18 155 15 156 22 1309 9 1480 -16 233 -22 295 -29 295 -4 0 -11 -100 -15 -222z"/>
 <path d="M2448 1737 c-266 -24 -3 -63 452 -66 211 -2 298 1 374 14 112 18 146 30 106 39 -124 26 -702 34 -932 13z"/>
 </g>
<g id="layer103" fill="#2c82c9" stroke="none">
 <path d="M4595 15780 c-129 -9 -127 -8 -95 -21 92 -38 682 -54 922 -26 139 16 169 26 123 39 -40 12 -809 18 -950 8z"/>
 <path d="M5225 15364 c-55 -2 -199 -10 -320 -18 -311 -21 -395 -23 -424 -7 -52 29 -557 26 -598 -4 -16 -12 -14 -14 21 -29 22 -9 57 -20 80 -23 l41 -8 -60 -6 c-223 -22 -470 -71 -584 -116 -167 -66 -238 -168 -186 -267 8 -15 15 -32 15 -37 0 -8 42 -69 140 -200 86 -115 140 -201 196 -314 8 -16 26 -50 40 -75 66 -115 276 -549 324 -670 10 -25 30 -71 44 -102 65 -144 78 -172 102 -231 28 -66 57 -132 79 -182 7 -16 25 -57 40 -90 15 -33 35 -78 45 -100 151 -337 482 -988 590 -1160 10 -16 25 -41 33 -55 7 -14 62 -106 122 -205 122 -202 203 -343 227 -395 9 -19 28 -62 43 -95 27 -59 72 -202 81 -260 3 -16 13 -66 22 -110 14 -68 16 -144 15 -525 -1 -264 -8 -553 -17 -710 -9 -146 -16 -307 -16 -357 0 -51 -2 -93 -5 -93 -3 0 -14 5 -24 12 -23 14 -51 -3 -51 -31 0 -42 -34 -110 -78 -156 -51 -54 -137 -128 -156 -134 -6 -2 -23 -13 -39 -23 -15 -11 -60 -36 -100 -57 -86 -45 -159 -90 -169 -105 -4 -6 -5 -18 -3 -27 4 -12 -7 -20 -47 -32 -29 -9 -118 -39 -198 -67 -176 -62 -492 -168 -615 -205 -49 -15 -106 -33 -125 -40 -19 -7 -62 -20 -95 -30 -33 -9 -71 -21 -85 -26 -24 -8 -103 -29 -335 -89 -60 -16 -137 -36 -170 -46 -33 -9 -79 -20 -103 -25 -24 -5 -47 -11 -52 -14 -4 -3 -53 -14 -109 -25 -55 -11 -120 -24 -143 -29 -54 -12 -172 -37 -263 -56 -38 -8 -116 -21 -172 -30 -57 -8 -147 -22 -200 -30 -165 -25 -257 -34 -623 -65 -58 -4 -143 -14 -188 -20 -82 -12 -83 -13 -115 -59 -18 -25 -43 -73 -57 -106 l-25 -60 -2 -1855 -3 -1855 62 -72 c35 -40 96 -112 137 -160 41 -49 91 -105 110 -125 19 -21 30 -38 23 -38 -7 0 -12 4 -12 9 0 5 -17 17 -37 26 -35 17 -37 17 -49 0 -11 -14 -10 -22 4 -44 22 -34 240 -251 413 -410 74 -69 190 -177 259 -241 158 -148 225 -206 189 -165 -53 62 -52 67 6 28 123 -81 119 -79 240 -120 101 -34 231 -52 455 -64 513 -26 678 -39 745 -58 17 -5 60 -12 97 -15 94 -9 143 -29 197 -81 25 -25 69 -56 96 -69 78 -37 178 -76 196 -76 8 0 35 -6 60 -14 79 -25 162 -45 254 -61 106 -19 223 -41 320 -61 39 -8 93 -19 120 -25 232 -47 739 -209 980 -314 17 -7 55 -23 85 -35 230 -94 638 -304 716 -369 6 -5 26 -17 45 -26 19 -10 36 -21 39 -24 13 -18 156 -83 212 -96 166 -39 338 6 436 113 42 46 92 143 92 177 0 47 31 178 52 220 11 22 33 58 48 80 15 22 40 60 56 84 89 136 356 385 634 593 30 22 60 46 65 52 6 7 44 38 85 71 95 75 326 305 368 367 18 25 38 52 45 60 32 33 100 160 112 211 4 15 11 30 16 33 5 3 9 19 9 36 0 41 28 188 40 210 6 10 10 23 10 30 1 25 107 144 175 195 65 49 177 110 270 148 71 29 239 74 375 99 117 22 449 22 557 0 85 -17 271 -72 289 -86 13 -10 125 -52 214 -79 36 -12 83 -27 105 -34 97 -31 281 -74 525 -123 410 -82 502 -80 561 15 22 36 23 48 23 188 -1 153 -5 180 -58 349 -14 44 -76 180 -113 251 -30 55 -171 266 -221 330 -14 18 -72 106 -72 109 0 5 -66 114 -78 129 -5 7 -31 53 -57 102 -27 50 -56 104 -66 120 -20 33 -53 101 -106 215 -54 115 -97 204 -103 210 -3 3 -25 37 -49 75 -23 39 -58 90 -77 115 -20 25 -59 76 -87 114 -51 67 -231 270 -312 351 -47 47 -259 236 -327 292 -26 21 -80 65 -120 98 -40 33 -89 74 -110 93 -20 18 -51 45 -70 58 -18 14 -67 57 -108 97 -41 40 -124 117 -185 171 -136 121 -833 814 -997 991 -233 250 -316 341 -394 430 -43 50 -87 99 -97 110 -11 11 -46 54 -80 95 -34 41 -72 87 -86 101 -34 33 -146 168 -191 229 -19 26 -80 107 -135 181 -110 146 -156 213 -190 274 -119 213 -181 389 -204 583 -12 94 -4 145 34 226 54 115 146 443 185 661 6 39 18 97 25 130 7 33 21 98 30 145 9 47 23 114 30 150 7 36 21 103 30 150 9 47 21 103 27 124 5 21 13 60 18 85 9 52 44 217 65 306 7 33 21 96 30 140 10 44 23 107 30 140 15 65 35 173 59 305 9 47 20 110 26 140 31 166 47 526 30 675 -11 103 -43 250 -60 285 -4 8 -16 35 -26 60 -56 135 -166 278 -294 378 -107 85 -142 107 -260 170 -175 92 -255 135 -293 159 -21 13 -48 28 -60 34 -35 16 -65 35 -247 156 -69 46 -144 98 -167 116 -23 17 -75 58 -116 89 -88 68 -213 190 -361 350 -158 172 -276 254 -431 298 -74 21 -272 31 -480 24z m106 -6600 c-12 -19 -21 -50 -21 -67 0 -18 -3 -48 -6 -68 -6 -34 -9 -36 -87 -64 -168 -61 -194 -63 -109 -10 67 42 195 172 218 221 10 23 21 38 22 33 2 -5 -6 -25 -17 -45z"/>
 <path d="M5007 10354 c-38 -114 -36 -913 2 -982 21 -37 51 255 51 493 0 261 -32 553 -53 489z"/>
 <path d="M1619 8030 c-53 -4 -106 -13 -118 -20 -23 -12 -23 -12 11 -29 88 -48 492 -44 585 4 31 16 22 21 -67 40 -75 16 -240 18 -411 5z"/>
 <path d="M365 6578 c-9 -266 -7 -1373 3 -1578 l7 -145 12 105 c31 272 44 1048 23 1399 -5 91 -12 228 -16 304 -3 75 -10 137 -14 137 -4 0 -11 -100 -15 -222z"/>
 <path d="M824 6705 c-12 -41 -12 -2020 1 -2060 8 -26 10 -17 17 60 26 326 38 1404 17 1705 -19 287 -24 329 -35 295z"/>
 <path d="M2452 2180 c-29 -4 -55 -10 -58 -13 -3 -2 26 -12 63 -20 164 -38 807 -41 971 -5 l54 12 -29 15 c-24 14 -91 16 -488 18 -253 1 -484 -2 -513 -7z"/>
 <path d="M2568 1737 c-126 -15 -120 -24 29 -46 185 -28 679 -20 767 12 l38 14 -73 13 c-96 16 -645 21 -761 7z"/>
 </g>
<g id="layer104" fill="#8a8a8a" stroke="none">
 <path d="M4595 15780 c-129 -9 -127 -8 -95 -21 92 -38 682 -54 922 -26 139 16 169 26 123 39 -40 12 -809 18 -950 8z"/>
 <path d="M3948 15352 c-76 -9 -92 -26 -46 -45 65 -27 139 -37 282 -37 140 0 234 10 289 32 33 13 34 23 5 39 -26 14 -435 22 -530 11z"/>
 <path d="M5007 10354 c-38 -114 -36 -913 2 -982 21 -37 51 255 51 493 0 261 -32 553 -53 489z"/>
 <path d="M5252 8928 c-7 -7 -12 -19 -12 -28 0 -41 -34 -109 -78 -155 -51 -54 -137 -128 -156 -134 -6 -2 -23 -13 -39 -23 -15 -11 -60 -36 -100 -57 -147 -77 -187 -107 -171 -132 12 -21 170 4 199 32 5 5 15 9 21 9 13 0 124 62 153 86 9 7 44 34 78 59 119 88 203 201 203 273 0 23 -8 37 -33 56 -38 29 -48 31 -65 14z"/>
 <path d="M1619 8030 c-53 -4 -106 -13 -118 -20 -23 -12 -23 -12 11 -29 88 -48 492 -44 585 4 31 16 22 21 -67 40 -75 16 -240 18 -411 5z"/>
 <path d="M365 6578 c-9 -266 -7 -1373 3 -1578 l7 -145 12 105 c31 272 44 1048 23 1399 -5 91 -12 228 -16 304 -3 75 -10 137 -14 137 -4 0 -11 -100 -15 -222z"/>
 <path d="M824 6705 c-12 -41 -12 -2020 1 -2060 8 -26 10 -17 17 60 26 326 38 1404 17 1705 -19 287 -24 329 -35 295z"/>
 <path d="M1202 3273 c-7 -12 -5 -25 7 -42 21 -34 240 -252 412 -410 74 -69 190 -177 259 -241 69 -65 145 -135 169 -156 43 -37 42 -36 -16 36 -69 84 -117 141 -248 291 -122 141 -465 489 -482 489 -7 0 -13 4 -13 9 0 8 -59 41 -74 41 -3 0 -9 -8 -14 -17z"/>
 <path d="M2452 2180 c-29 -4 -55 -10 -58 -13 -3 -2 26 -12 63 -20 164 -38 807 -41 971 -5 l54 12 -29 15 c-24 14 -91 16 -488 18 -253 1 -484 -2 -513 -7z"/>
 <path d="M2568 1737 c-126 -15 -120 -24 29 -46 185 -28 679 -20 767 12 l38 14 -73 13 c-96 16 -645 21 -761 7z"/>
 </g>

</svg>